<svg xmlns="http://www.w3.org/2000/svg" viewBox="30 40 2042.932 606"><rect width="1000%" height="1000%" x="-500%" y="-500%" fill="#EEEEEE"/><path fill="none" stroke="#EEEEEE" stroke-width="8" d="M1304.826 107.01l-.01-.01v233h-123.072"/><defs><linearGradient id="a" x1="0%" x2="50%" y1="0%" y2="50%"><stop offset="0%" stop-color="#2ECB70"/><stop offset="100%" stop-color="#2ECB70"/></linearGradient></defs><path fill="none" stroke="url(#a)" stroke-width="3" d="M1304.826 107.01l-.01-.01v233h-123.072"/><path fill="none" stroke="#EEEEEE" stroke-width="8" d="M1014.66 271.439l-.01-.01H144V566"/><defs><linearGradient id="b" x1="0%" x2="50%" y1="0%" y2="50%"><stop offset="0%" stop-color="#2ECB70"/><stop offset="100%" stop-color="#3397DA"/></linearGradient></defs><path fill="none" stroke="url(#b)" stroke-width="3" d="M1014.66 271.439l-.01-.01H144V566"/><path fill="none" stroke="#EEEEEE" stroke-width="8" d="M1081.497 298.867l-.01-.01h-591.52V566"/><defs><linearGradient id="c" x1="0%" x2="50%" y1="0%" y2="50%"><stop offset="0%" stop-color="#2ECB70"/><stop offset="100%" stop-color="#3397DA"/></linearGradient></defs><path fill="none" stroke="url(#c)" stroke-width="3" d="M1081.497 298.867l-.01-.01h-591.52V566"/><path fill="none" stroke="#EEEEEE" stroke-width="8" d="M1148.335 326.296l-.01-.01H827.966V566"/><defs><linearGradient id="d" x1="0%" x2="50%" y1="0%" y2="50%"><stop offset="0%" stop-color="#2ECB70"/><stop offset="100%" stop-color="#3397DA"/></linearGradient></defs><path fill="none" stroke="url(#d)" stroke-width="3" d="M1148.335 326.296l-.01-.01H827.966V566"/><path fill="none" stroke="#EEEEEE" stroke-width="8" d="M1215.173 353.724l-.01-.01V566h-49.197"/><defs><linearGradient id="e" x1="0%" x2="50%" y1="0%" y2="50%"><stop offset="0%" stop-color="#2ECB70"/><stop offset="100%" stop-color="#3397DA"/></linearGradient></defs><path fill="none" stroke="url(#e)" stroke-width="3" d="M1215.173 353.724l-.01-.01V566h-49.197"/><path fill="none" stroke="#EEEEEE" stroke-width="8" d="M1282.01 326.296l-.01-.01V566h225.039"/><defs><linearGradient id="f" x1="0%" x2="50%" y1="0%" y2="50%"><stop offset="0%" stop-color="#2ECB70"/><stop offset="100%" stop-color="#2ECB70"/></linearGradient></defs><path fill="none" stroke="url(#f)" stroke-width="3" d="M1282.01 326.296l-.01-.01V566h225.039"/><path fill="none" stroke="#EEEEEE" stroke-width="8" d="M1348.848 298.867l-.01-.01h544.684V566"/><defs><linearGradient id="g" x1="0%" x2="50%" y1="0%" y2="50%"><stop offset="0%" stop-color="#2ECB70"/><stop offset="100%" stop-color="#2ECB70"/></linearGradient></defs><path fill="none" stroke="url(#g)" stroke-width="3" d="M1348.848 298.867l-.01-.01h544.684V566"/><path fill="#FFFFFF" stroke="#2ECB70" stroke-width="3" d="M1158.672 60h292.289v94h-292.289z"/><path fill="#2ecb70" stroke="#2ecb70" d="M1159.672 101h292.289"/><path fill="none" stroke="#2ECB70" stroke-width="3" d="M1158.672 60h292.289v94h-292.289z"/><text x="1168.672" y="78" style="font:700 16px 'Lucida Console',monospace" fill="#000000">PackingListCredential</text><text x="1168.672" y="94" style="font:300 14px 'Lucida Console',monospace" fill="#999">＜＜vtd.VerifiableCredential＞＞</text><text x="1168.672" y="118" style="font:300 14px 'Lucida Console',monospace" fill="#666">issuer:</text><text x="1231.673" y="118" style="font:300 14px 'Lucida Console',monospace" fill="#02b57b">Party</text><text x="1168.672" y="132" style="font:300 14px 'Lucida Console',monospace" fill="#666">issuanceDate:</text><text x="1282.245" y="132" style="font:300 14px 'Lucida Console',monospace" fill="#02b57b">DateTime</text><text x="1168.672" y="146" style="font:300 14px 'Lucida Console',monospace" fill="#000000">credentialSubject:</text><text x="1324.388" y="146" style="font:300 14px 'Lucida Console',monospace" fill="#2ECB70">PackingList</text><path fill="#FFFFFF" stroke="#2ECB70" stroke-width="3" d="M947.812 244h467.864v192H947.812z"/><path fill="#2ecb70" stroke="#2ecb70" d="M948.812 285h467.864"/><path fill="none" stroke="#2ECB70" stroke-width="3" d="M947.812 244h467.864v192H947.812z"/><text x="957.812" y="262" style="font:700 16px 'Lucida Console',monospace" fill="#000000">PackingList</text><text x="957.812" y="278" style="font:300 14px 'Lucida Console',monospace" fill="#999">＜＜vtd.CredentialSubject＞＞</text><text x="957.812" y="302" style="font:300 14px 'Lucida Console',monospace" fill="#000000">contractNumber:</text><text x="1088.242" y="302" style="font:300 14px 'Lucida Console',monospace" fill="#02b57b">Text</text><text x="957.812" y="316" style="font:300 14px 'Lucida Console',monospace" fill="#000000">invoiceNumber:</text><text x="1079.814" y="316" style="font:300 14px 'Lucida Console',monospace" fill="#02b57b">Text</text><text x="957.812" y="330" style="font:300 14px 'Lucida Console',monospace" fill="#000000">issueDate:</text><text x="1046.099" y="330" style="font:300 14px 'Lucida Console',monospace" fill="#02b57b">Date</text><text x="957.812" y="344" style="font:300 14px 'Lucida Console',monospace" fill="#000000">buyer:</text><text x="1012.384" y="344" style="font:300 14px 'Lucida Console',monospace" fill="#3397DA">Buyer</text><text x="957.812" y="358" style="font:300 14px 'Lucida Console',monospace" fill="#000000">invoicee:</text><text x="1037.67" y="358" style="font:300 14px 'Lucida Console',monospace" fill="#3397DA">Carrier</text><text x="957.812" y="372" style="font:300 14px 'Lucida Console',monospace" fill="#000000">shipToParty:</text><text x="1062.956" y="372" style="font:300 14px 'Lucida Console',monospace" fill="#3397DA">Consignee</text><text x="957.812" y="386" style="font:300 14px 'Lucida Console',monospace" fill="#000000">seller:</text><text x="1020.813" y="386" style="font:300 14px 'Lucida Console',monospace" fill="#3397DA">Seller</text><text x="957.812" y="400" style="font:300 14px 'Lucida Console',monospace" fill="#000000">placeOfDelivery:</text><text x="1096.671" y="400" style="font:300 14px 'Lucida Console',monospace" fill="#2ECB70">PlaceOfDelivery</text><text x="957.812" y="414" style="font:300 14px 'Lucida Console',monospace" fill="#000000">baseportUnloadingLocation:</text><text x="1180.958" y="414" style="font:300 14px 'Lucida Console',monospace" fill="#2ECB70">BaseportUnloadingLocation</text><text x="957.812" y="428" style="font:300 14px 'Lucida Console',monospace" fill="#000000">transportContractDocumentConditions:</text><text x="1265.245" y="428" style="font:300 14px 'Lucida Console',monospace" fill="#02b57b">Text</text><path fill="#FFFFFF" stroke="#3397DA" stroke-width="3" d="M50 526h188v80H50z"/><path fill="#3397da" stroke="#3397da" d="M51 567h188"/><path fill="none" stroke="#3397DA" stroke-width="3" d="M50 526h188v80H50z"/><text x="60" y="544" style="font:700 16px 'Lucida Console',monospace" fill="#000000">Buyer</text><text x="60" y="560" style="font:300 14px 'Lucida Console',monospace" fill="#999">＜＜vtd.Party＞＞</text><text x="60" y="584" style="font:300 14px 'Lucida Console',monospace" fill="#666">id:</text><text x="89.286" y="584" style="font:300 14px 'Lucida Console',monospace" fill="#C9A30B">URI</text><text x="60" y="598" style="font:300 14px 'Lucida Console',monospace" fill="#666">address:</text><text x="131.43" y="598" style="font:300 14px 'Lucida Console',monospace" fill="#02b57b">Address</text><path fill="#FFFFFF" stroke="#3397DA" stroke-width="3" d="M395.966 526h188v80h-188z"/><path fill="#3397da" stroke="#3397da" d="M396.966 567h188"/><path fill="none" stroke="#3397DA" stroke-width="3" d="M395.966 526h188v80h-188z"/><text x="405.966" y="544" style="font:700 16px 'Lucida Console',monospace" fill="#000000">Carrier</text><text x="405.966" y="560" style="font:300 14px 'Lucida Console',monospace" fill="#999">＜＜vtd.Party＞＞</text><text x="405.966" y="584" style="font:300 14px 'Lucida Console',monospace" fill="#666">id:</text><text x="435.252" y="584" style="font:300 14px 'Lucida Console',monospace" fill="#C9A30B">URI</text><text x="405.966" y="598" style="font:300 14px 'Lucida Console',monospace" fill="#666">address:</text><text x="477.396" y="598" style="font:300 14px 'Lucida Console',monospace" fill="#02b57b">Address</text><path fill="#FFFFFF" stroke="#3397DA" stroke-width="3" d="M733.966 526h188v80h-188z"/><path fill="#3397da" stroke="#3397da" d="M734.966 567h188"/><path fill="none" stroke="#3397DA" stroke-width="3" d="M733.966 526h188v80h-188z"/><text x="743.966" y="544" style="font:700 16px 'Lucida Console',monospace" fill="#000000">Consignee</text><text x="743.966" y="560" style="font:300 14px 'Lucida Console',monospace" fill="#999">＜＜vtd.Party＞＞</text><text x="743.966" y="584" style="font:300 14px 'Lucida Console',monospace" fill="#666">id:</text><text x="773.252" y="584" style="font:300 14px 'Lucida Console',monospace" fill="#C9A30B">URI</text><text x="743.966" y="598" style="font:300 14px 'Lucida Console',monospace" fill="#666">address:</text><text x="815.396" y="598" style="font:300 14px 'Lucida Console',monospace" fill="#02b57b">Address</text><path fill="#FFFFFF" stroke="#3397DA" stroke-width="3" d="M1071.966 526h188v80h-188z"/><path fill="#3397da" stroke="#3397da" d="M1072.966 567h188"/><path fill="none" stroke="#3397DA" stroke-width="3" d="M1071.966 526h188v80h-188z"/><text x="1081.966" y="544" style="font:700 16px 'Lucida Console',monospace" fill="#000000">Seller</text><text x="1081.966" y="560" style="font:300 14px 'Lucida Console',monospace" fill="#999">＜＜vtd.Party＞＞</text><text x="1081.966" y="584" style="font:300 14px 'Lucida Console',monospace" fill="#666">id:</text><text x="1111.252" y="584" style="font:300 14px 'Lucida Console',monospace" fill="#C9A30B">URI</text><text x="1081.966" y="598" style="font:300 14px 'Lucida Console',monospace" fill="#666">address:</text><text x="1153.396" y="598" style="font:300 14px 'Lucida Console',monospace" fill="#02b57b">Address</text><path fill="#FFFFFF" stroke="#2ECB70" stroke-width="3" d="M1409.966 526h194.146v80h-194.146z"/><path fill="#2ecb70" stroke="#2ecb70" d="M1410.966 567h194.146"/><path fill="none" stroke="#2ECB70" stroke-width="3" d="M1409.966 526h194.146v80h-194.146z"/><text x="1419.966" y="544" style="font:700 16px 'Lucida Console',monospace" fill="#000000">PlaceOfDelivery</text><text x="1419.966" y="560" style="font:300 14px 'Lucida Console',monospace" fill="#999">＜＜vtd.Location＞＞</text><text x="1419.966" y="584" style="font:300 14px 'Lucida Console',monospace" fill="#666">unlocode:</text><text x="1499.824" y="584" style="font:300 14px 'Lucida Console',monospace" fill="#02b57b">URI</text><text x="1419.966" y="598" style="font:300 14px 'Lucida Console',monospace" fill="#000000">address:</text><text x="1491.396" y="598" style="font:300 14px 'Lucida Console',monospace" fill="#547000">vtd.Address</text><path fill="#FFFFFF" stroke="#2ECB70" stroke-width="3" d="M1754.112 526h278.82v80h-278.82z"/><path fill="#2ecb70" stroke="#2ecb70" d="M1755.112 567h278.82"/><path fill="none" stroke="#2ECB70" stroke-width="3" d="M1754.112 526h278.82v80h-278.82z"/><text x="1764.112" y="544" style="font:700 16px 'Lucida Console',monospace" fill="#000000">BaseportUnloadingLocation</text><text x="1764.112" y="560" style="font:300 14px 'Lucida Console',monospace" fill="#999">＜＜vtd.Location＞＞</text><text x="1764.112" y="584" style="font:300 14px 'Lucida Console',monospace" fill="#666">unlocode:</text><text x="1843.97" y="584" style="font:300 14px 'Lucida Console',monospace" fill="#02b57b">URI</text><text x="1764.112" y="598" style="font:300 14px 'Lucida Console',monospace" fill="#000000">address:</text><text x="1835.541" y="598" style="font:300 14px 'Lucida Console',monospace" fill="#547000">vtd.Address</text></svg>