<svg xmlns="http://www.w3.org/2000/svg" viewBox="-220 -27 1212.648 1112.169"><rect width="1000%" height="1000%" x="-500%" y="-500%" fill="#EEEEEE"/><path fill="none" stroke="#EEEEEE" stroke-width="8" d="M2.442 54.01l-.01-.01v368h111.357"/><defs><linearGradient id="a" x1="0%" x2="50%" y1="0%" y2="50%"><stop offset="0%" stop-color="#2ECB70"/><stop offset="100%" stop-color="#2ECB70"/></linearGradient></defs><path fill="none" stroke="url(#a)" stroke-width="3" d="M2.442 54.01l-.01-.01v368h111.357"/><path fill="none" stroke="#EEEEEE" stroke-width="8" d="M113.799 479.343l-.01-.01h432.15V751.4"/><defs><linearGradient id="b" x1="0%" x2="50%" y1="0%" y2="50%"><stop offset="0%" stop-color="#2ECB70"/><stop offset="100%" stop-color="#3397DA"/></linearGradient></defs><path fill="none" stroke="url(#b)" stroke-width="3" d="M113.799 479.343l-.01-.01h432.15V751.4"/><path fill="none" stroke="#EEEEEE" stroke-width="8" d="M-31.537 307.343l-.01-.01V768h285.548"/><defs><linearGradient id="c" x1="0%" x2="50%" y1="0%" y2="50%"><stop offset="0%" stop-color="#2ECB70"/><stop offset="100%" stop-color="#3397DA"/></linearGradient></defs><path fill="none" stroke="url(#c)" stroke-width="3" d="M-31.537 307.343l-.01-.01V768h285.548"/><path fill="none" stroke="#EEEEEE" stroke-width="8" d="M41.13 364.677l-.01-.01v612.502h327.835"/><defs><linearGradient id="d" x1="0%" x2="50%" y1="0%" y2="50%"><stop offset="0%" stop-color="#2ECB70"/><stop offset="100%" stop-color="#3397DA"/></linearGradient></defs><path fill="none" stroke="url(#d)" stroke-width="3" d="M41.13 364.677l-.01-.01v612.502h327.835"/><path fill="none" stroke="#EEEEEE" stroke-width="8" d="M186.466 422.01l-.01-.01v546h517.545"/><defs><linearGradient id="e" x1="0%" x2="50%" y1="0%" y2="50%"><stop offset="0%" stop-color="#2ECB70"/><stop offset="100%" stop-color="#3397DA"/></linearGradient></defs><path fill="none" stroke="url(#e)" stroke-width="3" d="M186.466 422.01l-.01-.01v546h517.545"/><path fill="none" stroke="#EEEEEE" stroke-width="8" d="M259.134 364.677l-.01-.01h589.523v368.917"/><defs><linearGradient id="f" x1="0%" x2="50%" y1="0%" y2="50%"><stop offset="0%" stop-color="#2ECB70"/><stop offset="100%" stop-color="#3397DA"/></linearGradient></defs><path fill="none" stroke="url(#f)" stroke-width="3" d="M259.134 364.677l-.01-.01h589.523v368.917"/><path fill="#FFFFFF" stroke="#2ECB70" stroke-width="3" d="M-200-7h404.863v122H-200z"/><path fill="#2ecb70" stroke="#2ecb70" d="M-199 34h404.863"/><path fill="none" stroke="#2ECB70" stroke-width="3" d="M-200-7h404.863v122H-200z"/><text x="-190" y="11" style="font:700 16px 'Lucida Console',monospace" fill="#000000">CommercialInvoice</text><text x="-190" y="27" style="font:300 14px 'Lucida Console',monospace" fill="#999">＜＜vtd-core.VerifiableCredential＞＞</text><text x="-190" y="51" style="font:300 14px 'Lucida Console',monospace" fill="#666">issuer:</text><text x="-126.999" y="51" style="font:300 14px 'Lucida Console',monospace" fill="#02b57b">Party</text><text x="-190" y="65" style="font:300 14px 'Lucida Console',monospace" fill="#666">issuanceDate:</text><text x="-76.427" y="65" style="font:300 14px 'Lucida Console',monospace" fill="#02b57b">DateTime</text><text x="-190" y="79" style="font:300 14px 'Lucida Console',monospace" fill="#666">credentialSubject:</text><text x="-34.283" y="79" style="font:300 14px 'Lucida Console',monospace" fill="#2ECB70">CredentialSubject</text><text x="-190" y="93" style="font:300 14px 'Lucida Console',monospace" fill="#666">id:</text><text x="-160.714" y="93" style="font:300 14px 'Lucida Console',monospace" fill="#02b57b">URI</text><text x="-190" y="107" style="font:300 14px 'Lucida Console',monospace" fill="#000000">vtd-core.CredentialSubject:</text><text x="41.575" y="107" style="font:300 14px 'Lucida Console',monospace" fill="#2ECB70">CredentialSubject</text><path fill="#FFFFFF" stroke="#2ECB70" stroke-width="3" d="M-104.214 250h436.006v344h-436.006z"/><path fill="#2ecb70" stroke="#2ecb70" d="M-103.214 275h436.006"/><path fill="none" stroke="#2ECB70" stroke-width="3" d="M-104.214 250h436.006v344h-436.006z"/><text x="-94.214" y="268" style="font:700 16px 'Lucida Console',monospace" fill="#000000">CredentialSubject</text><text x="-94.214" y="292" style="font:300 14px 'Lucida Console',monospace" fill="#000000">purchaseOrderNumber:</text><text x="78.36" y="292" style="font:300 14px 'Lucida Console',monospace" fill="#02b57b">Text</text><text x="-94.214" y="306" style="font:300 14px 'Lucida Console',monospace" fill="#000000">contractNumber:</text><text x="36.216" y="306" style="font:300 14px 'Lucida Console',monospace" fill="#02b57b">Text</text><text x="-94.214" y="320" style="font:300 14px 'Lucida Console',monospace" fill="#000000">invoiceNumber:</text><text x="27.788" y="320" style="font:300 14px 'Lucida Console',monospace" fill="#02b57b">Text</text><text x="-94.214" y="334" style="font:300 14px 'Lucida Console',monospace" fill="#000000">issueDate:</text><text x="-5.927" y="334" style="font:300 14px 'Lucida Console',monospace" fill="#02b57b">Date</text><text x="-94.214" y="348" style="font:300 14px 'Lucida Console',monospace" fill="#000000">invoiceDate:</text><text x="10.93" y="348" style="font:300 14px 'Lucida Console',monospace" fill="#02b57b">Date</text><text x="-94.214" y="362" style="font:300 14px 'Lucida Console',monospace" fill="#000000">paymentDueDate:</text><text x="36.216" y="362" style="font:300 14px 'Lucida Console',monospace" fill="#02b57b">Date</text><text x="-94.214" y="376" style="font:300 14px 'Lucida Console',monospace" fill="#000000">buyer:</text><text x="-39.642" y="376" style="font:300 14px 'Lucida Console',monospace" fill="#3397DA">Buyer</text><text x="-94.214" y="390" style="font:300 14px 'Lucida Console',monospace" fill="#000000">invoicee:</text><text x="-14.356" y="390" style="font:300 14px 'Lucida Console',monospace" fill="#3397DA">Invoicee</text><text x="-94.214" y="404" style="font:300 14px 'Lucida Console',monospace" fill="#000000">sellersBank:</text><text x="10.93" y="404" style="font:300 14px 'Lucida Console',monospace" fill="#3397DA">SellersBank</text><text x="-94.214" y="418" style="font:300 14px 'Lucida Console',monospace" fill="#000000">documentaryCreditApplicant:</text><text x="137.361" y="418" style="font:300 14px 'Lucida Console',monospace" fill="#3397DA">CreditApplicant</text><text x="-94.214" y="432" style="font:300 14px 'Lucida Console',monospace" fill="#000000">seller:</text><text x="-31.213" y="432" style="font:300 14px 'Lucida Console',monospace" fill="#3397DA">Seller</text><text x="-94.214" y="446" style="font:300 14px 'Lucida Console',monospace" fill="#000000">sellerBankAccountNumber:</text><text x="112.075" y="446" style="font:300 14px 'Lucida Console',monospace" fill="#02b57b">Text</text><text x="-94.214" y="460" style="font:300 14px 'Lucida Console',monospace" fill="#000000">originalLoadingLocation:</text><text x="112.075" y="460" style="font:300 14px 'Lucida Console',monospace" fill="#547000">vtd-core.Location</text><text x="-94.214" y="474" style="font:300 14px 'Lucida Console',monospace" fill="#000000">originCountry:</text><text x="27.788" y="474" style="font:300 14px 'Lucida Console',monospace" fill="#547000">vtd-core.Location</text><text x="-94.214" y="488" style="font:300 14px 'Lucida Console',monospace" fill="#000000">baseportUnloadingLocation:</text><text x="128.932" y="488" style="font:300 14px 'Lucida Console',monospace" fill="#02b57b">Text</text><text x="-94.214" y="502" style="font:300 14px 'Lucida Console',monospace" fill="#000000">tradeTermsConditionsDescription:</text><text x="179.504" y="502" style="font:300 14px 'Lucida Console',monospace" fill="#02b57b">Text</text><text x="-94.214" y="516" style="font:300 14px 'Lucida Console',monospace" fill="#000000">tradeTermsConditionsCode:</text><text x="120.503" y="516" style="font:300 14px 'Lucida Console',monospace" fill="#02b57b">Text</text><text x="-94.214" y="530" style="font:300 14px 'Lucida Console',monospace" fill="#000000">paymentTerms:</text><text x="19.359" y="530" style="font:300 14px 'Lucida Console',monospace" fill="#02b57b">Text</text><text x="-94.214" y="544" style="font:300 14px 'Lucida Console',monospace" fill="#000000">paymentMethod:</text><text x="27.788" y="544" style="font:300 14px 'Lucida Console',monospace" fill="#02b57b">Text</text><text x="-94.214" y="558" style="font:300 14px 'Lucida Console',monospace" fill="#000000">totalInvoiceAmount:</text><text x="69.931" y="558" style="font:300 14px 'Lucida Console',monospace" fill="#02b57b">Text</text><text x="-94.214" y="572" style="font:300 14px 'Lucida Console',monospace" fill="#000000">amount:</text><text x="-31.213" y="572" style="font:300 14px 'Lucida Console',monospace" fill="#02b57b">Decimal</text><text x="-94.214" y="586" style="font:300 14px 'Lucida Console',monospace" fill="#000000">currency:</text><text x="-14.356" y="586" style="font:300 14px 'Lucida Console',monospace" fill="#02b57b">Text</text><path fill="#FFFFFF" stroke="#3397DA" stroke-width="3" d="M441.937 683.399h208.002v136H441.937z"/><path fill="#3397da" stroke="#3397da" d="M442.937 724.4H650.94"/><path fill="none" stroke="#3397DA" stroke-width="3" d="M441.937 683.399h208.002v136H441.937z"/><text x="451.937" y="701.399" style="font:700 16px 'Lucida Console',monospace" fill="#000000">Buyer</text><text x="451.937" y="717.399" style="font:300 14px 'Lucida Console',monospace" fill="#999">＜＜vtd-core.Party＞＞</text><text x="451.937" y="741.399" style="font:300 14px 'Lucida Console',monospace" fill="#666">id:</text><text x="481.224" y="741.399" style="font:300 14px 'Lucida Console',monospace" fill="#C9A30B">URI</text><text x="451.937" y="755.399" style="font:300 14px 'Lucida Console',monospace" fill="#666">street:</text><text x="514.938" y="755.399" style="font:300 14px 'Lucida Console',monospace" fill="#02b57b">Text</text><text x="451.937" y="769.399" style="font:300 14px 'Lucida Console',monospace" fill="#666">city:</text><text x="498.081" y="769.399" style="font:300 14px 'Lucida Console',monospace" fill="#02b57b">Text</text><text x="451.937" y="783.399" style="font:300 14px 'Lucida Console',monospace" fill="#666">state:</text><text x="506.51" y="783.399" style="font:300 14px 'Lucida Console',monospace" fill="#02b57b">Text</text><text x="451.937" y="797.399" style="font:300 14px 'Lucida Console',monospace" fill="#666">zip:</text><text x="489.652" y="797.399" style="font:300 14px 'Lucida Console',monospace" fill="#02b57b">Numeric</text><text x="451.937" y="811.399" style="font:300 14px 'Lucida Console',monospace" fill="#666">country:</text><text x="523.367" y="811.399" style="font:300 14px 'Lucida Console',monospace" fill="#02b57b">Text</text><path fill="#FFFFFF" stroke="#3397DA" stroke-width="3" d="M150 700h208.002v136H150z"/><path fill="#3397da" stroke="#3397da" d="M151 741h208.002"/><path fill="none" stroke="#3397DA" stroke-width="3" d="M150 700h208.002v136H150z"/><text x="160" y="718" style="font:700 16px 'Lucida Console',monospace" fill="#000000">Invoicee</text><text x="160" y="734" style="font:300 14px 'Lucida Console',monospace" fill="#999">＜＜vtd-core.Party＞＞</text><text x="160" y="758" style="font:300 14px 'Lucida Console',monospace" fill="#666">id:</text><text x="189.286" y="758" style="font:300 14px 'Lucida Console',monospace" fill="#C9A30B">URI</text><text x="160" y="772" style="font:300 14px 'Lucida Console',monospace" fill="#666">street:</text><text x="223.001" y="772" style="font:300 14px 'Lucida Console',monospace" fill="#02b57b">Text</text><text x="160" y="786" style="font:300 14px 'Lucida Console',monospace" fill="#666">city:</text><text x="206.144" y="786" style="font:300 14px 'Lucida Console',monospace" fill="#02b57b">Text</text><text x="160" y="800" style="font:300 14px 'Lucida Console',monospace" fill="#666">state:</text><text x="214.572" y="800" style="font:300 14px 'Lucida Console',monospace" fill="#02b57b">Text</text><text x="160" y="814" style="font:300 14px 'Lucida Console',monospace" fill="#666">zip:</text><text x="197.715" y="814" style="font:300 14px 'Lucida Console',monospace" fill="#02b57b">Numeric</text><text x="160" y="828" style="font:300 14px 'Lucida Console',monospace" fill="#666">country:</text><text x="231.43" y="828" style="font:300 14px 'Lucida Console',monospace" fill="#02b57b">Text</text><path fill="#FFFFFF" stroke="#3397DA" stroke-width="3" d="M264.954 909.169h208.002v136H264.954z"/><path fill="#3397da" stroke="#3397da" d="M265.954 950.169h208.002"/><path fill="none" stroke="#3397DA" stroke-width="3" d="M264.954 909.169h208.002v136H264.954z"/><text x="274.954" y="927.169" style="font:700 16px 'Lucida Console',monospace" fill="#000000">SellersBank</text><text x="274.954" y="943.169" style="font:300 14px 'Lucida Console',monospace" fill="#999">＜＜vtd-core.Party＞＞</text><text x="274.954" y="967.169" style="font:300 14px 'Lucida Console',monospace" fill="#666">id:</text><text x="304.24" y="967.169" style="font:300 14px 'Lucida Console',monospace" fill="#C9A30B">URI</text><text x="274.954" y="981.169" style="font:300 14px 'Lucida Console',monospace" fill="#666">street:</text><text x="337.955" y="981.169" style="font:300 14px 'Lucida Console',monospace" fill="#02b57b">Text</text><text x="274.954" y="995.169" style="font:300 14px 'Lucida Console',monospace" fill="#666">city:</text><text x="321.098" y="995.169" style="font:300 14px 'Lucida Console',monospace" fill="#02b57b">Text</text><text x="274.954" y="1009.169" style="font:300 14px 'Lucida Console',monospace" fill="#666">state:</text><text x="329.526" y="1009.169" style="font:300 14px 'Lucida Console',monospace" fill="#02b57b">Text</text><text x="274.954" y="1023.169" style="font:300 14px 'Lucida Console',monospace" fill="#666">zip:</text><text x="312.669" y="1023.169" style="font:300 14px 'Lucida Console',monospace" fill="#02b57b">Numeric</text><text x="274.954" y="1037.169" style="font:300 14px 'Lucida Console',monospace" fill="#666">country:</text><text x="346.384" y="1037.169" style="font:300 14px 'Lucida Console',monospace" fill="#02b57b">Text</text><path fill="#FFFFFF" stroke="#3397DA" stroke-width="3" d="M600 900h208.002v136H600z"/><path fill="#3397da" stroke="#3397da" d="M601 941h208.002"/><path fill="none" stroke="#3397DA" stroke-width="3" d="M600 900h208.002v136H600z"/><text x="610" y="918" style="font:700 16px 'Lucida Console',monospace" fill="#000000">CreditApplicant</text><text x="610" y="934" style="font:300 14px 'Lucida Console',monospace" fill="#999">＜＜vtd-core.Party＞＞</text><text x="610" y="958" style="font:300 14px 'Lucida Console',monospace" fill="#666">id:</text><text x="639.286" y="958" style="font:300 14px 'Lucida Console',monospace" fill="#C9A30B">URI</text><text x="610" y="972" style="font:300 14px 'Lucida Console',monospace" fill="#666">street:</text><text x="673.001" y="972" style="font:300 14px 'Lucida Console',monospace" fill="#02b57b">Text</text><text x="610" y="986" style="font:300 14px 'Lucida Console',monospace" fill="#666">city:</text><text x="656.144" y="986" style="font:300 14px 'Lucida Console',monospace" fill="#02b57b">Text</text><text x="610" y="1000" style="font:300 14px 'Lucida Console',monospace" fill="#666">state:</text><text x="664.572" y="1000" style="font:300 14px 'Lucida Console',monospace" fill="#02b57b">Text</text><text x="610" y="1014" style="font:300 14px 'Lucida Console',monospace" fill="#666">zip:</text><text x="647.715" y="1014" style="font:300 14px 'Lucida Console',monospace" fill="#02b57b">Numeric</text><text x="610" y="1028" style="font:300 14px 'Lucida Console',monospace" fill="#666">country:</text><text x="681.43" y="1028" style="font:300 14px 'Lucida Console',monospace" fill="#02b57b">Text</text><path fill="#FFFFFF" stroke="#3397DA" stroke-width="3" d="M744.646 665.584h208.002v136H744.646z"/><path fill="#3397da" stroke="#3397da" d="M745.646 706.584h208.002"/><path fill="none" stroke="#3397DA" stroke-width="3" d="M744.646 665.584h208.002v136H744.646z"/><text x="754.646" y="683.584" style="font:700 16px 'Lucida Console',monospace" fill="#000000">Seller</text><text x="754.646" y="699.584" style="font:300 14px 'Lucida Console',monospace" fill="#999">＜＜vtd-core.Party＞＞</text><text x="754.646" y="723.584" style="font:300 14px 'Lucida Console',monospace" fill="#666">id:</text><text x="783.932" y="723.584" style="font:300 14px 'Lucida Console',monospace" fill="#C9A30B">URI</text><text x="754.646" y="737.584" style="font:300 14px 'Lucida Console',monospace" fill="#666">street:</text><text x="817.647" y="737.584" style="font:300 14px 'Lucida Console',monospace" fill="#02b57b">Text</text><text x="754.646" y="751.584" style="font:300 14px 'Lucida Console',monospace" fill="#666">city:</text><text x="800.79" y="751.584" style="font:300 14px 'Lucida Console',monospace" fill="#02b57b">Text</text><text x="754.646" y="765.584" style="font:300 14px 'Lucida Console',monospace" fill="#666">state:</text><text x="809.219" y="765.584" style="font:300 14px 'Lucida Console',monospace" fill="#02b57b">Text</text><text x="754.646" y="779.584" style="font:300 14px 'Lucida Console',monospace" fill="#666">zip:</text><text x="792.361" y="779.584" style="font:300 14px 'Lucida Console',monospace" fill="#02b57b">Numeric</text><text x="754.646" y="793.584" style="font:300 14px 'Lucida Console',monospace" fill="#666">country:</text><text x="826.076" y="793.584" style="font:300 14px 'Lucida Console',monospace" fill="#02b57b">Text</text></svg>