<svg xmlns="http://www.w3.org/2000/svg" viewBox="-220 -49.794 1238.043 1134.963"><rect width="1000%" height="1000%" x="-500%" y="-500%" fill="#EEEEEE"/><path fill="none" stroke="#EEEEEE" stroke-width="8" d="M2.442 54.01l-.01-.01v318h15.57"/><defs><linearGradient id="a" x1="0%" x2="50%" y1="0%" y2="50%"><stop offset="0%" stop-color="#2ECB70"/><stop offset="100%" stop-color="#2ECB70"/></linearGradient></defs><path fill="none" stroke="url(#a)" stroke-width="3" d="M2.442 54.01l-.01-.01v318h15.57"/><path fill="none" stroke="#EEEEEE" stroke-width="8" d="M49.442 397.581l-.01-.01h496.506V751.4"/><defs><linearGradient id="b" x1="0%" x2="50%" y1="0%" y2="50%"><stop offset="0%" stop-color="#2ECB70"/><stop offset="100%" stop-color="#3397DA"/></linearGradient></defs><path fill="none" stroke="url(#b)" stroke-width="3" d="M49.442 397.581l-.01-.01h496.506V751.4"/><path fill="none" stroke="#EEEEEE" stroke-width="8" d="M-139.132 244.153l-.01-.01V768h393.143"/><defs><linearGradient id="c" x1="0%" x2="50%" y1="0%" y2="50%"><stop offset="0%" stop-color="#2ECB70"/><stop offset="100%" stop-color="#3397DA"/></linearGradient></defs><path fill="none" stroke="url(#c)" stroke-width="3" d="M-139.132 244.153l-.01-.01V768h393.143"/><path fill="none" stroke="#EEEEEE" stroke-width="8" d="M-76.274 295.296l-.01-.01v681.883h445.239"/><defs><linearGradient id="d" x1="0%" x2="50%" y1="0%" y2="50%"><stop offset="0%" stop-color="#2ECB70"/><stop offset="100%" stop-color="#3397DA"/></linearGradient></defs><path fill="none" stroke="url(#d)" stroke-width="3" d="M-76.274 295.296l-.01-.01v681.883h445.239"/><path fill="none" stroke="#EEEEEE" stroke-width="8" d="M112.3 346.439l-.01-.01V968H704"/><defs><linearGradient id="e" x1="0%" x2="50%" y1="0%" y2="50%"><stop offset="0%" stop-color="#2ECB70"/><stop offset="100%" stop-color="#3397DA"/></linearGradient></defs><path fill="none" stroke="url(#e)" stroke-width="3" d="M112.3 346.439l-.01-.01V968H704"/><path fill="none" stroke="#EEEEEE" stroke-width="8" d="M175.158 295.296l-.01-.01h673.5v438.298"/><defs><linearGradient id="f" x1="0%" x2="50%" y1="0%" y2="50%"><stop offset="0%" stop-color="#2ECB70"/><stop offset="100%" stop-color="#3397DA"/></linearGradient></defs><path fill="none" stroke="url(#f)" stroke-width="3" d="M175.158 295.296l-.01-.01h673.5v438.298"/><path fill="none" stroke="#EEEEEE" stroke-width="8" d="M-13.416 346.439l-.01-.01H540V18"/><defs><linearGradient id="g" x1="0%" x2="50%" y1="0%" y2="50%"><stop offset="0%" stop-color="#2ECB70"/><stop offset="100%" stop-color="#2ECB70"/></linearGradient></defs><path fill="none" stroke="url(#g)" stroke-width="3" d="M-13.416 346.439l-.01-.01H540V18"/><path fill="none" stroke="#EEEEEE" stroke-width="8" d="M540.01 18.01L540 18h325.613V3.206"/><defs><linearGradient id="h" x1="0%" x2="50%" y1="0%" y2="50%"><stop offset="0%" stop-color="#2ECB70"/><stop offset="100%" stop-color="#2ECB70"/></linearGradient></defs><path fill="none" stroke="url(#h)" stroke-width="3" d="M540.01 18.01L540 18h325.613V3.206"/><path fill="#FFFFFF" stroke="#2ECB70" stroke-width="3" d="M-200-7h404.863v122H-200z"/><path fill="#2ecb70" stroke="#2ecb70" d="M-199 34h404.863"/><path fill="none" stroke="#2ECB70" stroke-width="3" d="M-200-7h404.863v122H-200z"/><text x="-190" y="11" style="font:700 16px 'Lucida Console',monospace" fill="#000000">CommercialInvoice</text><text x="-190" y="27" style="font:300 14px 'Lucida Console',monospace" fill="#999">＜＜vtd-core.VerifiableCredential＞＞</text><text x="-190" y="51" style="font:300 14px 'Lucida Console',monospace" fill="#666">issuer:</text><text x="-126.999" y="51" style="font:300 14px 'Lucida Console',monospace" fill="#02b57b">Party</text><text x="-190" y="65" style="font:300 14px 'Lucida Console',monospace" fill="#666">issuanceDate:</text><text x="-76.427" y="65" style="font:300 14px 'Lucida Console',monospace" fill="#02b57b">DateTime</text><text x="-190" y="79" style="font:300 14px 'Lucida Console',monospace" fill="#666">credentialSubject:</text><text x="-34.283" y="79" style="font:300 14px 'Lucida Console',monospace" fill="#2ECB70">CredentialSubject</text><text x="-190" y="93" style="font:300 14px 'Lucida Console',monospace" fill="#666">id:</text><text x="-160.714" y="93" style="font:300 14px 'Lucida Console',monospace" fill="#02b57b">URI</text><text x="-190" y="107" style="font:300 14px 'Lucida Console',monospace" fill="#000000">vtd-core.CredentialSubject:</text><text x="41.575" y="107" style="font:300 14px 'Lucida Console',monospace" fill="#2ECB70">CredentialSubject</text><path fill="#FFFFFF" stroke="#2ECB70" stroke-width="3" d="M-202 193h440.006v358H-202z"/><path fill="#2ecb70" stroke="#2ecb70" d="M-201 218h440.006"/><path fill="none" stroke="#2ECB70" stroke-width="3" d="M-202 193h440.006v358H-202z"/><text x="-192" y="211" style="font:700 16px 'Lucida Console',monospace" fill="#000000">CredentialSubject</text><text x="-192" y="235" style="font:300 14px 'Lucida Console',monospace" fill="#000000">purchaseOrderNumber:</text><text x="-19.426" y="235" style="font:300 14px 'Lucida Console',monospace" fill="#02b57b">Text</text><text x="-192" y="249" style="font:300 14px 'Lucida Console',monospace" fill="#000000">contractNumber:</text><text x="-61.569" y="249" style="font:300 14px 'Lucida Console',monospace" fill="#02b57b">Text</text><text x="-192" y="263" style="font:300 14px 'Lucida Console',monospace" fill="#000000">invoiceNumber:</text><text x="-69.998" y="263" style="font:300 14px 'Lucida Console',monospace" fill="#02b57b">Text</text><text x="-192" y="277" style="font:300 14px 'Lucida Console',monospace" fill="#000000">issueDate:</text><text x="-103.713" y="277" style="font:300 14px 'Lucida Console',monospace" fill="#02b57b">Date</text><text x="-192" y="291" style="font:300 14px 'Lucida Console',monospace" fill="#000000">invoiceDate:</text><text x="-86.855" y="291" style="font:300 14px 'Lucida Console',monospace" fill="#02b57b">Date</text><text x="-192" y="305" style="font:300 14px 'Lucida Console',monospace" fill="#000000">paymentDueDate:</text><text x="-61.569" y="305" style="font:300 14px 'Lucida Console',monospace" fill="#02b57b">Date</text><text x="-192" y="319" style="font:300 14px 'Lucida Console',monospace" fill="#000000">buyer:</text><text x="-137.428" y="319" style="font:300 14px 'Lucida Console',monospace" fill="#3397DA">Buyer</text><text x="-192" y="333" style="font:300 14px 'Lucida Console',monospace" fill="#000000">invoicee:</text><text x="-112.142" y="333" style="font:300 14px 'Lucida Console',monospace" fill="#3397DA">Invoicee</text><text x="-192" y="347" style="font:300 14px 'Lucida Console',monospace" fill="#000000">sellersBank:</text><text x="-86.855" y="347" style="font:300 14px 'Lucida Console',monospace" fill="#3397DA">SellersBank</text><text x="-192" y="361" style="font:300 14px 'Lucida Console',monospace" fill="#000000">documentaryCreditApplicant:</text><text x="39.575" y="361" style="font:300 14px 'Lucida Console',monospace" fill="#3397DA">CreditApplicant</text><text x="-192" y="375" style="font:300 14px 'Lucida Console',monospace" fill="#000000">seller:</text><text x="-128.999" y="375" style="font:300 14px 'Lucida Console',monospace" fill="#3397DA">Seller</text><text x="-192" y="389" style="font:300 14px 'Lucida Console',monospace" fill="#000000">sellerBankAccountNumber:</text><text x="14.289" y="389" style="font:300 14px 'Lucida Console',monospace" fill="#02b57b">Text</text><text x="-192" y="403" style="font:300 14px 'Lucida Console',monospace" fill="#000000">originalLoadingLocation:</text><text x="14.289" y="403" style="font:300 14px 'Lucida Console',monospace" fill="#547000">vtd-core.Location</text><text x="-192" y="417" style="font:300 14px 'Lucida Console',monospace" fill="#000000">originCountry:</text><text x="-69.998" y="417" style="font:300 14px 'Lucida Console',monospace" fill="#547000">vtd-core.Location</text><text x="-192" y="431" style="font:300 14px 'Lucida Console',monospace" fill="#000000">baseportUnloadingLocation:</text><text x="31.146" y="431" style="font:300 14px 'Lucida Console',monospace" fill="#02b57b">Text</text><text x="-192" y="445" style="font:300 14px 'Lucida Console',monospace" fill="#000000">tradeTermsConditionsDescription:</text><text x="81.719" y="445" style="font:300 14px 'Lucida Console',monospace" fill="#02b57b">Text</text><text x="-192" y="459" style="font:300 14px 'Lucida Console',monospace" fill="#000000">tradeTermsConditionsCode:</text><text x="22.718" y="459" style="font:300 14px 'Lucida Console',monospace" fill="#02b57b">Text</text><text x="-192" y="473" style="font:300 14px 'Lucida Console',monospace" fill="#000000">paymentTerms:</text><text x="-78.427" y="473" style="font:300 14px 'Lucida Console',monospace" fill="#02b57b">Text</text><text x="-192" y="487" style="font:300 14px 'Lucida Console',monospace" fill="#000000">paymentMethod:</text><text x="-69.998" y="487" style="font:300 14px 'Lucida Console',monospace" fill="#02b57b">Text</text><text x="-192" y="501" style="font:300 14px 'Lucida Console',monospace" fill="#000000">totalInvoiceAmount:</text><text x="-27.854" y="501" style="font:300 14px 'Lucida Console',monospace" fill="#02b57b">Text</text><text x="-192" y="515" style="font:300 14px 'Lucida Console',monospace" fill="#000000">amount:</text><text x="-128.999" y="515" style="font:300 14px 'Lucida Console',monospace" fill="#02b57b">Decimal</text><text x="-192" y="529" style="font:300 14px 'Lucida Console',monospace" fill="#000000">currency:</text><text x="-112.142" y="529" style="font:300 14px 'Lucida Console',monospace" fill="#02b57b">Text</text><text x="-192" y="543" style="font:300 14px 'Lucida Console',monospace" fill="#000000">itemsShipped:</text><text x="-78.427" y="543" style="font:300 14px 'Lucida Console',monospace" fill="#2ECB70">TradeLineItem</text><path fill="#FFFFFF" stroke="#2ECB70" stroke-width="3" d="M409.212-21h261.575v78H409.212z"/><path fill="#2ecb70" stroke="#2ecb70" d="M410.212 4h261.576"/><path fill="none" stroke="#2ECB70" stroke-width="3" d="M409.212-21h261.575v78H409.212z"/><text x="419.212" y="-3" style="font:700 16px 'Lucida Console',monospace" fill="#000000">TradeLineItem</text><text x="419.212" y="21" style="font:300 14px 'Lucida Console',monospace" fill="#000000">product:</text><text x="490.642" y="21" style="font:300 14px 'Lucida Console',monospace" fill="#2ECB70">Product</text><text x="419.212" y="35" style="font:300 14px 'Lucida Console',monospace" fill="#000000">itemCount:</text><text x="507.5" y="35" style="font:300 14px 'Lucida Console',monospace" fill="#02b57b">Numeric</text><text x="419.212" y="49" style="font:300 14px 'Lucida Console',monospace" fill="#000000">netWeight:</text><text x="507.5" y="49" style="font:300 14px 'Lucida Console',monospace" fill="#547000">vtd-core.Quantity</text><path fill="#FFFFFF" stroke="#2ECB70" stroke-width="3" d="M753.183-29.794h224.859v66H753.183z"/><path fill="#2ecb70" stroke="#2ecb70" d="M754.183 11.206h224.86"/><path fill="none" stroke="#2ECB70" stroke-width="3" d="M753.183-29.794h224.859v66H753.183z"/><text x="763.183" y="-11.794" style="font:700 16px 'Lucida Console',monospace" fill="#000000">Product</text><text x="763.183" y="4.206" style="font:300 14px 'Lucida Console',monospace" fill="#999">＜＜vtd-core.Product＞＞</text><text x="763.183" y="28.206" style="font:300 14px 'Lucida Console',monospace" fill="#666">id:</text><text x="792.469" y="28.206" style="font:300 14px 'Lucida Console',monospace" fill="#02b57b">URI</text><path fill="#FFFFFF" stroke="#3397DA" stroke-width="3" d="M441.937 683.399h208.002v136H441.937z"/><path fill="#3397da" stroke="#3397da" d="M442.937 724.4H650.94"/><path fill="none" stroke="#3397DA" stroke-width="3" d="M441.937 683.399h208.002v136H441.937z"/><text x="451.937" y="701.399" style="font:700 16px 'Lucida Console',monospace" fill="#000000">Buyer</text><text x="451.937" y="717.399" style="font:300 14px 'Lucida Console',monospace" fill="#999">＜＜vtd-core.Party＞＞</text><text x="451.937" y="741.399" style="font:300 14px 'Lucida Console',monospace" fill="#666">id:</text><text x="481.224" y="741.399" style="font:300 14px 'Lucida Console',monospace" fill="#C9A30B">URI</text><text x="451.937" y="755.399" style="font:300 14px 'Lucida Console',monospace" fill="#666">street:</text><text x="514.938" y="755.399" style="font:300 14px 'Lucida Console',monospace" fill="#02b57b">Text</text><text x="451.937" y="769.399" style="font:300 14px 'Lucida Console',monospace" fill="#666">city:</text><text x="498.081" y="769.399" style="font:300 14px 'Lucida Console',monospace" fill="#02b57b">Text</text><text x="451.937" y="783.399" style="font:300 14px 'Lucida Console',monospace" fill="#666">state:</text><text x="506.51" y="783.399" style="font:300 14px 'Lucida Console',monospace" fill="#02b57b">Text</text><text x="451.937" y="797.399" style="font:300 14px 'Lucida Console',monospace" fill="#666">zip:</text><text x="489.652" y="797.399" style="font:300 14px 'Lucida Console',monospace" fill="#02b57b">Numeric</text><text x="451.937" y="811.399" style="font:300 14px 'Lucida Console',monospace" fill="#666">country:</text><text x="523.367" y="811.399" style="font:300 14px 'Lucida Console',monospace" fill="#02b57b">Text</text><path fill="#FFFFFF" stroke="#3397DA" stroke-width="3" d="M150 700h208.002v136H150z"/><path fill="#3397da" stroke="#3397da" d="M151 741h208.002"/><path fill="none" stroke="#3397DA" stroke-width="3" d="M150 700h208.002v136H150z"/><text x="160" y="718" style="font:700 16px 'Lucida Console',monospace" fill="#000000">Invoicee</text><text x="160" y="734" style="font:300 14px 'Lucida Console',monospace" fill="#999">＜＜vtd-core.Party＞＞</text><text x="160" y="758" style="font:300 14px 'Lucida Console',monospace" fill="#666">id:</text><text x="189.286" y="758" style="font:300 14px 'Lucida Console',monospace" fill="#C9A30B">URI</text><text x="160" y="772" style="font:300 14px 'Lucida Console',monospace" fill="#666">street:</text><text x="223.001" y="772" style="font:300 14px 'Lucida Console',monospace" fill="#02b57b">Text</text><text x="160" y="786" style="font:300 14px 'Lucida Console',monospace" fill="#666">city:</text><text x="206.144" y="786" style="font:300 14px 'Lucida Console',monospace" fill="#02b57b">Text</text><text x="160" y="800" style="font:300 14px 'Lucida Console',monospace" fill="#666">state:</text><text x="214.572" y="800" style="font:300 14px 'Lucida Console',monospace" fill="#02b57b">Text</text><text x="160" y="814" style="font:300 14px 'Lucida Console',monospace" fill="#666">zip:</text><text x="197.715" y="814" style="font:300 14px 'Lucida Console',monospace" fill="#02b57b">Numeric</text><text x="160" y="828" style="font:300 14px 'Lucida Console',monospace" fill="#666">country:</text><text x="231.43" y="828" style="font:300 14px 'Lucida Console',monospace" fill="#02b57b">Text</text><path fill="#FFFFFF" stroke="#3397DA" stroke-width="3" d="M264.954 909.169h208.002v136H264.954z"/><path fill="#3397da" stroke="#3397da" d="M265.954 950.169h208.002"/><path fill="none" stroke="#3397DA" stroke-width="3" d="M264.954 909.169h208.002v136H264.954z"/><text x="274.954" y="927.169" style="font:700 16px 'Lucida Console',monospace" fill="#000000">SellersBank</text><text x="274.954" y="943.169" style="font:300 14px 'Lucida Console',monospace" fill="#999">＜＜vtd-core.Party＞＞</text><text x="274.954" y="967.169" style="font:300 14px 'Lucida Console',monospace" fill="#666">id:</text><text x="304.24" y="967.169" style="font:300 14px 'Lucida Console',monospace" fill="#C9A30B">URI</text><text x="274.954" y="981.169" style="font:300 14px 'Lucida Console',monospace" fill="#666">street:</text><text x="337.955" y="981.169" style="font:300 14px 'Lucida Console',monospace" fill="#02b57b">Text</text><text x="274.954" y="995.169" style="font:300 14px 'Lucida Console',monospace" fill="#666">city:</text><text x="321.098" y="995.169" style="font:300 14px 'Lucida Console',monospace" fill="#02b57b">Text</text><text x="274.954" y="1009.169" style="font:300 14px 'Lucida Console',monospace" fill="#666">state:</text><text x="329.526" y="1009.169" style="font:300 14px 'Lucida Console',monospace" fill="#02b57b">Text</text><text x="274.954" y="1023.169" style="font:300 14px 'Lucida Console',monospace" fill="#666">zip:</text><text x="312.669" y="1023.169" style="font:300 14px 'Lucida Console',monospace" fill="#02b57b">Numeric</text><text x="274.954" y="1037.169" style="font:300 14px 'Lucida Console',monospace" fill="#666">country:</text><text x="346.384" y="1037.169" style="font:300 14px 'Lucida Console',monospace" fill="#02b57b">Text</text><path fill="#FFFFFF" stroke="#3397DA" stroke-width="3" d="M600 900h208.002v136H600z"/><path fill="#3397da" stroke="#3397da" d="M601 941h208.002"/><path fill="none" stroke="#3397DA" stroke-width="3" d="M600 900h208.002v136H600z"/><text x="610" y="918" style="font:700 16px 'Lucida Console',monospace" fill="#000000">CreditApplicant</text><text x="610" y="934" style="font:300 14px 'Lucida Console',monospace" fill="#999">＜＜vtd-core.Party＞＞</text><text x="610" y="958" style="font:300 14px 'Lucida Console',monospace" fill="#666">id:</text><text x="639.286" y="958" style="font:300 14px 'Lucida Console',monospace" fill="#C9A30B">URI</text><text x="610" y="972" style="font:300 14px 'Lucida Console',monospace" fill="#666">street:</text><text x="673.001" y="972" style="font:300 14px 'Lucida Console',monospace" fill="#02b57b">Text</text><text x="610" y="986" style="font:300 14px 'Lucida Console',monospace" fill="#666">city:</text><text x="656.144" y="986" style="font:300 14px 'Lucida Console',monospace" fill="#02b57b">Text</text><text x="610" y="1000" style="font:300 14px 'Lucida Console',monospace" fill="#666">state:</text><text x="664.572" y="1000" style="font:300 14px 'Lucida Console',monospace" fill="#02b57b">Text</text><text x="610" y="1014" style="font:300 14px 'Lucida Console',monospace" fill="#666">zip:</text><text x="647.715" y="1014" style="font:300 14px 'Lucida Console',monospace" fill="#02b57b">Numeric</text><text x="610" y="1028" style="font:300 14px 'Lucida Console',monospace" fill="#666">country:</text><text x="681.43" y="1028" style="font:300 14px 'Lucida Console',monospace" fill="#02b57b">Text</text><path fill="#FFFFFF" stroke="#3397DA" stroke-width="3" d="M744.646 665.584h208.002v136H744.646z"/><path fill="#3397da" stroke="#3397da" d="M745.646 706.584h208.002"/><path fill="none" stroke="#3397DA" stroke-width="3" d="M744.646 665.584h208.002v136H744.646z"/><text x="754.646" y="683.584" style="font:700 16px 'Lucida Console',monospace" fill="#000000">Seller</text><text x="754.646" y="699.584" style="font:300 14px 'Lucida Console',monospace" fill="#999">＜＜vtd-core.Party＞＞</text><text x="754.646" y="723.584" style="font:300 14px 'Lucida Console',monospace" fill="#666">id:</text><text x="783.932" y="723.584" style="font:300 14px 'Lucida Console',monospace" fill="#C9A30B">URI</text><text x="754.646" y="737.584" style="font:300 14px 'Lucida Console',monospace" fill="#666">street:</text><text x="817.647" y="737.584" style="font:300 14px 'Lucida Console',monospace" fill="#02b57b">Text</text><text x="754.646" y="751.584" style="font:300 14px 'Lucida Console',monospace" fill="#666">city:</text><text x="800.79" y="751.584" style="font:300 14px 'Lucida Console',monospace" fill="#02b57b">Text</text><text x="754.646" y="765.584" style="font:300 14px 'Lucida Console',monospace" fill="#666">state:</text><text x="809.219" y="765.584" style="font:300 14px 'Lucida Console',monospace" fill="#02b57b">Text</text><text x="754.646" y="779.584" style="font:300 14px 'Lucida Console',monospace" fill="#666">zip:</text><text x="792.361" y="779.584" style="font:300 14px 'Lucida Console',monospace" fill="#02b57b">Numeric</text><text x="754.646" y="793.584" style="font:300 14px 'Lucida Console',monospace" fill="#666">country:</text><text x="826.076" y="793.584" style="font:300 14px 'Lucida Console',monospace" fill="#02b57b">Text</text></svg>