<svg xmlns="http://www.w3.org/2000/svg" viewBox="51.437 -56.438 1139.357 1150.862"><rect width="1000%" height="1000%" x="-500%" y="-500%" fill="#EEEEEE"/><path fill="none" stroke="#EEEEEE" stroke-width="8" d="M425.394 17.572l-.01-.01v271.434h12.112"/><defs><linearGradient id="a" x1="0%" x2="50%" y1="0%" y2="50%"><stop offset="0%" stop-color="#2ECB70"/><stop offset="100%" stop-color="#2ECB70"/></linearGradient></defs><path fill="none" stroke="url(#a)" stroke-width="3" d="M425.394 17.572l-.01-.01v271.434h12.112"/><path fill="none" stroke="#EEEEEE" stroke-width="8" d="M437.506 342.006l-.01-.01v419.138h166.505"/><defs><linearGradient id="b" x1="0%" x2="50%" y1="0%" y2="50%"><stop offset="0%" stop-color="#2ECB70"/><stop offset="100%" stop-color="#3397DA"/></linearGradient></defs><path fill="none" stroke="url(#b)" stroke-width="3" d="M437.506 342.006l-.01-.01v419.138h166.505"/><path fill="none" stroke="#EEEEEE" stroke-width="8" d="M301.647 183.006l-.01-.01v495.045h-126.2"/><defs><linearGradient id="c" x1="0%" x2="50%" y1="0%" y2="50%"><stop offset="0%" stop-color="#2ECB70"/><stop offset="100%" stop-color="#3397DA"/></linearGradient></defs><path fill="none" stroke="url(#c)" stroke-width="3" d="M301.647 183.006l-.01-.01v495.045h-126.2"/><path fill="none" stroke="#EEEEEE" stroke-width="8" d="M369.576 236.006l-.01-.01v743.428h-74.124"/><defs><linearGradient id="d" x1="0%" x2="50%" y1="0%" y2="50%"><stop offset="0%" stop-color="#2ECB70"/><stop offset="100%" stop-color="#3397DA"/></linearGradient></defs><path fill="none" stroke="url(#d)" stroke-width="3" d="M369.576 236.006l-.01-.01v743.428h-74.124"/><path fill="none" stroke="#EEEEEE" stroke-width="8" d="M505.436 289.006l-.01-.01v276.085h263.248"/><defs><linearGradient id="e" x1="0%" x2="50%" y1="0%" y2="50%"><stop offset="0%" stop-color="#2ECB70"/><stop offset="100%" stop-color="#3397DA"/></linearGradient></defs><path fill="none" stroke="url(#e)" stroke-width="3" d="M505.436 289.006l-.01-.01v276.085h263.248"/><path fill="none" stroke="#EEEEEE" stroke-width="8" d="M573.365 236.006l-.01-.01h404.722v7.103"/><defs><linearGradient id="f" x1="0%" x2="50%" y1="0%" y2="50%"><stop offset="0%" stop-color="#2ECB70"/><stop offset="100%" stop-color="#2ECB70"/></linearGradient></defs><path fill="none" stroke="url(#f)" stroke-width="3" d="M573.365 236.006l-.01-.01h404.722v7.103"/><path fill="none" stroke="url(#f)" stroke-width="1.5" d="M784.87 216.006l-2.01-.01v8h2M788.87 216.006l1.99-.01v8h-2"/><path fill="none" stroke="#EEEEEE" stroke-width="8" d="M978.087 243.11l-.01-.01V433h84.353"/><defs><linearGradient id="g" x1="0%" x2="50%" y1="0%" y2="50%"><stop offset="0%" stop-color="#2ECB70"/><stop offset="100%" stop-color="#2ECB70"/></linearGradient></defs><path fill="none" stroke="url(#g)" stroke-width="3" d="M978.087 243.11l-.01-.01V433h84.353"/><path fill="#FFFFFF" stroke="#2ECB70" stroke-width="3" d="M258.167-36.438H592.6v108H258.167z"/><path fill="#2ecb70" stroke="#2ecb70" d="M259.167 4.562H593.6"/><path fill="none" stroke="#2ECB70" stroke-width="3" d="M258.167-36.438H592.6v108H258.167z"/><text x="268.167" y="-18.438" style="font:700 16px 'Lucida Console',monospace" fill="#000000">CommercialInvoice</text><text x="268.167" y="-2.438" style="font:300 14px 'Lucida Console',monospace" fill="#999">＜＜vtd-core.VerifiableCredential＞＞</text><text x="268.167" y="21.562" style="font:300 14px 'Lucida Console',monospace" fill="#666">issuer:</text><text x="331.168" y="21.562" style="font:300 14px 'Lucida Console',monospace" fill="#02b57b">Party</text><text x="268.167" y="35.562" style="font:300 14px 'Lucida Console',monospace" fill="#666">id:</text><text x="297.453" y="35.562" style="font:300 14px 'Lucida Console',monospace" fill="#02b57b">URI</text><text x="268.167" y="49.562" style="font:300 14px 'Lucida Console',monospace" fill="#000000">credentialSubject:</text><text x="423.884" y="49.562" style="font:300 14px 'Lucida Console',monospace" fill="#2ECB70">Invoice</text><text x="268.167" y="63.562" style="font:300 14px 'Lucida Console',monospace" fill="#000000">validFrom:</text><text x="356.454" y="63.562" style="font:300 14px 'Lucida Console',monospace" fill="#02b57b">DateTime</text><path fill="#FFFFFF" stroke="#2ECB70" stroke-width="3" d="M233.707 129.996h407.577v318H233.707z"/><path fill="#2ecb70" stroke="#2ecb70" d="M234.707 170.996h407.578"/><path fill="none" stroke="#2ECB70" stroke-width="3" d="M233.707 129.996h407.577v318H233.707z"/><text x="243.707" y="147.996" style="font:700 16px 'Lucida Console',monospace" fill="#000000">Invoice</text><text x="243.707" y="163.996" style="font:300 14px 'Lucida Console',monospace" fill="#999">＜＜vtd-core.CredentialSubject＞＞</text><text x="243.707" y="187.996" style="font:300 14px 'Lucida Console',monospace" fill="#000000">purchaseOrderNumber:</text><text x="416.282" y="187.996" style="font:300 14px 'Lucida Console',monospace" fill="#02b57b">Text</text><text x="243.707" y="201.996" style="font:300 14px 'Lucida Console',monospace" fill="#000000">contractNumber:</text><text x="374.138" y="201.996" style="font:300 14px 'Lucida Console',monospace" fill="#02b57b">Text</text><text x="243.707" y="215.996" style="font:300 14px 'Lucida Console',monospace" fill="#000000">invoiceNumber:</text><text x="365.709" y="215.996" style="font:300 14px 'Lucida Console',monospace" fill="#02b57b">Text</text><text x="243.707" y="229.996" style="font:300 14px 'Lucida Console',monospace" fill="#000000">issueDate:</text><text x="331.995" y="229.996" style="font:300 14px 'Lucida Console',monospace" fill="#02b57b">Date</text><text x="243.707" y="243.996" style="font:300 14px 'Lucida Console',monospace" fill="#000000">invoiceDate:</text><text x="348.852" y="243.996" style="font:300 14px 'Lucida Console',monospace" fill="#02b57b">Date</text><text x="243.707" y="257.996" style="font:300 14px 'Lucida Console',monospace" fill="#000000">paymentDueDate:</text><text x="374.138" y="257.996" style="font:300 14px 'Lucida Console',monospace" fill="#02b57b">Date</text><text x="243.707" y="271.996" style="font:300 14px 'Lucida Console',monospace" fill="#000000">buyer:</text><text x="298.28" y="271.996" style="font:300 14px 'Lucida Console',monospace" fill="#3397DA">Buyer</text><text x="243.707" y="285.996" style="font:300 14px 'Lucida Console',monospace" fill="#000000">invoicee:</text><text x="323.566" y="285.996" style="font:300 14px 'Lucida Console',monospace" fill="#3397DA">Invoicee</text><text x="243.707" y="299.996" style="font:300 14px 'Lucida Console',monospace" fill="#000000">sellersBank:</text><text x="348.852" y="299.996" style="font:300 14px 'Lucida Console',monospace" fill="#3397DA">SellersBank</text><text x="243.707" y="313.996" style="font:300 14px 'Lucida Console',monospace" fill="#000000">seller:</text><text x="306.708" y="313.996" style="font:300 14px 'Lucida Console',monospace" fill="#3397DA">Seller</text><text x="243.707" y="327.996" style="font:300 14px 'Lucida Console',monospace" fill="#000000">sellerBankAccountNumber:</text><text x="449.996" y="327.996" style="font:300 14px 'Lucida Console',monospace" fill="#02b57b">Text</text><text x="243.707" y="341.996" style="font:300 14px 'Lucida Console',monospace" fill="#000000">originalLoadingLocation:</text><text x="449.996" y="341.996" style="font:300 14px 'Lucida Console',monospace" fill="#547000">vtd-core.Location</text><text x="243.707" y="355.996" style="font:300 14px 'Lucida Console',monospace" fill="#000000">originCountry:</text><text x="365.709" y="355.996" style="font:300 14px 'Lucida Console',monospace" fill="#547000">vtd-core.Location</text><text x="243.707" y="369.996" style="font:300 14px 'Lucida Console',monospace" fill="#000000">tradeTermsConditionsDescription:</text><text x="517.426" y="369.996" style="font:300 14px 'Lucida Console',monospace" fill="#02b57b">Text</text><text x="243.707" y="383.996" style="font:300 14px 'Lucida Console',monospace" fill="#000000">tradeTermsConditionsCode:</text><text x="458.425" y="383.996" style="font:300 14px 'Lucida Console',monospace" fill="#02b57b">Text</text><text x="243.707" y="397.996" style="font:300 14px 'Lucida Console',monospace" fill="#000000">paymentTerms:</text><text x="357.281" y="397.996" style="font:300 14px 'Lucida Console',monospace" fill="#02b57b">Text</text><text x="243.707" y="411.996" style="font:300 14px 'Lucida Console',monospace" fill="#000000">paymentMethod:</text><text x="365.709" y="411.996" style="font:300 14px 'Lucida Console',monospace" fill="#02b57b">Text</text><text x="243.707" y="425.996" style="font:300 14px 'Lucida Console',monospace" fill="#000000">itemsShipped:</text><text x="357.281" y="425.996" style="font:300 14px 'Lucida Console',monospace" fill="#2ECB70">TradeLineItem[]</text><text x="243.707" y="439.996" style="font:300 14px 'Lucida Console',monospace" fill="#000000">totalAmount:</text><text x="348.852" y="439.996" style="font:300 14px 'Lucida Console',monospace" fill="#547000">vtd-core.MonetaryAmount</text><path fill="#FFFFFF" stroke="#2ECB70" stroke-width="3" d="M805.36 169.099h345.434v148H805.36z"/><path fill="#2ecb70" stroke="#2ecb70" d="M806.36 194.1h345.434"/><path fill="none" stroke="#2ECB70" stroke-width="3" d="M805.36 169.099h345.434v148H805.36z"/><text x="815.36" y="187.099" style="font:700 16px 'Lucida Console',monospace" fill="#000000">TradeLineItem</text><text x="815.36" y="211.099" style="font:300 14px 'Lucida Console',monospace" fill="#000000">product:</text><text x="886.79" y="211.099" style="font:300 14px 'Lucida Console',monospace" fill="#2ECB70">Product</text><text x="815.36" y="225.099" style="font:300 14px 'Lucida Console',monospace" fill="#000000">sku:</text><text x="853.075" y="225.099" style="font:300 14px 'Lucida Console',monospace" fill="#02b57b">Text</text><text x="815.36" y="239.099" style="font:300 14px 'Lucida Console',monospace" fill="#000000">itemCount:</text><text x="903.647" y="239.099" style="font:300 14px 'Lucida Console',monospace" fill="#02b57b">Numeric</text><text x="815.36" y="253.099" style="font:300 14px 'Lucida Console',monospace" fill="#000000">netWeight:</text><text x="903.647" y="253.099" style="font:300 14px 'Lucida Console',monospace" fill="#547000">vtd-core.Quantity</text><text x="815.36" y="267.099" style="font:300 14px 'Lucida Console',monospace" fill="#000000">grossWeight:</text><text x="920.505" y="267.099" style="font:300 14px 'Lucida Console',monospace" fill="#547000">vtd-core.Quantity</text><text x="815.36" y="281.099" style="font:300 14px 'Lucida Console',monospace" fill="#000000">productPrice:</text><text x="928.934" y="281.099" style="font:300 14px 'Lucida Console',monospace" fill="#547000">vtd-core.MonetaryAmount</text><text x="815.36" y="295.099" style="font:300 14px 'Lucida Console',monospace" fill="#000000">commodity:</text><text x="903.647" y="295.099" style="font:300 14px 'Lucida Console',monospace" fill="#02b57b">Text</text><text x="815.36" y="309.099" style="font:300 14px 'Lucida Console',monospace" fill="#000000">price:</text><text x="869.933" y="309.099" style="font:300 14px 'Lucida Console',monospace" fill="#547000">vtd-core.MonetaryAmount</text><path fill="#FFFFFF" stroke="#2ECB70" stroke-width="3" d="M950 386h224.859v94H950z"/><path fill="#2ecb70" stroke="#2ecb70" d="M951 427h224.86"/><path fill="none" stroke="#2ECB70" stroke-width="3" d="M950 386h224.859v94H950z"/><text x="960" y="404" style="font:700 16px 'Lucida Console',monospace" fill="#000000">Product</text><text x="960" y="420" style="font:300 14px 'Lucida Console',monospace" fill="#999">＜＜vtd-core.Product＞＞</text><text x="960" y="444" style="font:300 14px 'Lucida Console',monospace" fill="#666">id:</text><text x="989.286" y="444" style="font:300 14px 'Lucida Console',monospace" fill="#02b57b">URI</text><text x="960" y="458" style="font:300 14px 'Lucida Console',monospace" fill="#666">name:</text><text x="1006.144" y="458" style="font:300 14px 'Lucida Console',monospace" fill="#02b57b">Text</text><text x="960" y="472" style="font:300 14px 'Lucida Console',monospace" fill="#666">description:</text><text x="1065.145" y="472" style="font:300 14px 'Lucida Console',monospace" fill="#02b57b">Text</text><path fill="#FFFFFF" stroke="#3397DA" stroke-width="3" d="M500 686.134h208.002v150H500z"/><path fill="#3397da" stroke="#3397da" d="M501 727.134h208.002"/><path fill="none" stroke="#3397DA" stroke-width="3" d="M500 686.134h208.002v150H500z"/><text x="510" y="704.134" style="font:700 16px 'Lucida Console',monospace" fill="#000000">Buyer</text><text x="510" y="720.134" style="font:300 14px 'Lucida Console',monospace" fill="#999">＜＜vtd-core.Party＞＞</text><text x="510" y="744.134" style="font:300 14px 'Lucida Console',monospace" fill="#000000">id:</text><text x="539.286" y="744.134" style="font:300 14px 'Lucida Console',monospace" fill="#C9A30B">URI</text><text x="510" y="758.134" style="font:300 14px 'Lucida Console',monospace" fill="#000000">name:</text><text x="556.144" y="758.134" style="font:300 14px 'Lucida Console',monospace" fill="#547000">Text</text><text x="510" y="772.134" style="font:300 14px 'Lucida Console',monospace" fill="#000000">street:</text><text x="573.001" y="772.134" style="font:300 14px 'Lucida Console',monospace" fill="#547000">Text</text><text x="510" y="786.134" style="font:300 14px 'Lucida Console',monospace" fill="#000000">city:</text><text x="556.144" y="786.134" style="font:300 14px 'Lucida Console',monospace" fill="#547000">Text</text><text x="510" y="800.134" style="font:300 14px 'Lucida Console',monospace" fill="#000000">state:</text><text x="564.572" y="800.134" style="font:300 14px 'Lucida Console',monospace" fill="#547000">Text</text><text x="510" y="814.134" style="font:300 14px 'Lucida Console',monospace" fill="#000000">zip:</text><text x="547.715" y="814.134" style="font:300 14px 'Lucida Console',monospace" fill="#547000">Numeric</text><text x="510" y="828.134" style="font:300 14px 'Lucida Console',monospace" fill="#000000">country:</text><text x="581.43" y="828.134" style="font:300 14px 'Lucida Console',monospace" fill="#547000">Text</text><path fill="#FFFFFF" stroke="#3397DA" stroke-width="3" d="M71.437 603.041h208.002v150H71.437z"/><path fill="#3397da" stroke="#3397da" d="M72.437 644.041h208.002"/><path fill="none" stroke="#3397DA" stroke-width="3" d="M71.437 603.041h208.002v150H71.437z"/><text x="81.437" y="621.041" style="font:700 16px 'Lucida Console',monospace" fill="#000000">Invoicee</text><text x="81.437" y="637.041" style="font:300 14px 'Lucida Console',monospace" fill="#999">＜＜vtd-core.Party＞＞</text><text x="81.437" y="661.041" style="font:300 14px 'Lucida Console',monospace" fill="#000000">id:</text><text x="110.723" y="661.041" style="font:300 14px 'Lucida Console',monospace" fill="#C9A30B">URI</text><text x="81.437" y="675.041" style="font:300 14px 'Lucida Console',monospace" fill="#000000">name:</text><text x="127.58" y="675.041" style="font:300 14px 'Lucida Console',monospace" fill="#547000">Text</text><text x="81.437" y="689.041" style="font:300 14px 'Lucida Console',monospace" fill="#000000">street:</text><text x="144.438" y="689.041" style="font:300 14px 'Lucida Console',monospace" fill="#547000">Text</text><text x="81.437" y="703.041" style="font:300 14px 'Lucida Console',monospace" fill="#000000">city:</text><text x="127.58" y="703.041" style="font:300 14px 'Lucida Console',monospace" fill="#547000">Text</text><text x="81.437" y="717.041" style="font:300 14px 'Lucida Console',monospace" fill="#000000">state:</text><text x="136.009" y="717.041" style="font:300 14px 'Lucida Console',monospace" fill="#547000">Text</text><text x="81.437" y="731.041" style="font:300 14px 'Lucida Console',monospace" fill="#000000">zip:</text><text x="119.151" y="731.041" style="font:300 14px 'Lucida Console',monospace" fill="#547000">Numeric</text><text x="81.437" y="745.041" style="font:300 14px 'Lucida Console',monospace" fill="#000000">country:</text><text x="152.866" y="745.041" style="font:300 14px 'Lucida Console',monospace" fill="#547000">Text</text><path fill="#FFFFFF" stroke="#3397DA" stroke-width="3" d="M191.441 904.424h208.002v150H191.441z"/><path fill="#3397da" stroke="#3397da" d="M192.441 945.424h208.002"/><path fill="none" stroke="#3397DA" stroke-width="3" d="M191.441 904.424h208.002v150H191.441z"/><text x="201.441" y="922.424" style="font:700 16px 'Lucida Console',monospace" fill="#000000">SellersBank</text><text x="201.441" y="938.424" style="font:300 14px 'Lucida Console',monospace" fill="#999">＜＜vtd-core.Party＞＞</text><text x="201.441" y="962.424" style="font:300 14px 'Lucida Console',monospace" fill="#000000">id:</text><text x="230.727" y="962.424" style="font:300 14px 'Lucida Console',monospace" fill="#C9A30B">URI</text><text x="201.441" y="976.424" style="font:300 14px 'Lucida Console',monospace" fill="#000000">name:</text><text x="247.585" y="976.424" style="font:300 14px 'Lucida Console',monospace" fill="#547000">Text</text><text x="201.441" y="990.424" style="font:300 14px 'Lucida Console',monospace" fill="#000000">street:</text><text x="264.442" y="990.424" style="font:300 14px 'Lucida Console',monospace" fill="#547000">Text</text><text x="201.441" y="1004.424" style="font:300 14px 'Lucida Console',monospace" fill="#000000">city:</text><text x="247.585" y="1004.424" style="font:300 14px 'Lucida Console',monospace" fill="#547000">Text</text><text x="201.441" y="1018.424" style="font:300 14px 'Lucida Console',monospace" fill="#000000">state:</text><text x="256.013" y="1018.424" style="font:300 14px 'Lucida Console',monospace" fill="#547000">Text</text><text x="201.441" y="1032.424" style="font:300 14px 'Lucida Console',monospace" fill="#000000">zip:</text><text x="239.156" y="1032.424" style="font:300 14px 'Lucida Console',monospace" fill="#547000">Numeric</text><text x="201.441" y="1046.424" style="font:300 14px 'Lucida Console',monospace" fill="#000000">country:</text><text x="272.871" y="1046.424" style="font:300 14px 'Lucida Console',monospace" fill="#547000">Text</text><path fill="#FFFFFF" stroke="#3397DA" stroke-width="3" d="M664.673 490.081h208.002v150H664.673z"/><path fill="#3397da" stroke="#3397da" d="M665.673 531.081h208.002"/><path fill="none" stroke="#3397DA" stroke-width="3" d="M664.673 490.081h208.002v150H664.673z"/><text x="674.673" y="508.081" style="font:700 16px 'Lucida Console',monospace" fill="#000000">Seller</text><text x="674.673" y="524.081" style="font:300 14px 'Lucida Console',monospace" fill="#999">＜＜vtd-core.Party＞＞</text><text x="674.673" y="548.081" style="font:300 14px 'Lucida Console',monospace" fill="#000000">id:</text><text x="703.959" y="548.081" style="font:300 14px 'Lucida Console',monospace" fill="#C9A30B">URI</text><text x="674.673" y="562.081" style="font:300 14px 'Lucida Console',monospace" fill="#000000">name:</text><text x="720.816" y="562.081" style="font:300 14px 'Lucida Console',monospace" fill="#547000">Text</text><text x="674.673" y="576.081" style="font:300 14px 'Lucida Console',monospace" fill="#000000">street:</text><text x="737.674" y="576.081" style="font:300 14px 'Lucida Console',monospace" fill="#547000">Text</text><text x="674.673" y="590.081" style="font:300 14px 'Lucida Console',monospace" fill="#000000">city:</text><text x="720.816" y="590.081" style="font:300 14px 'Lucida Console',monospace" fill="#547000">Text</text><text x="674.673" y="604.081" style="font:300 14px 'Lucida Console',monospace" fill="#000000">state:</text><text x="729.245" y="604.081" style="font:300 14px 'Lucida Console',monospace" fill="#547000">Text</text><text x="674.673" y="618.081" style="font:300 14px 'Lucida Console',monospace" fill="#000000">zip:</text><text x="712.388" y="618.081" style="font:300 14px 'Lucida Console',monospace" fill="#547000">Numeric</text><text x="674.673" y="632.081" style="font:300 14px 'Lucida Console',monospace" fill="#000000">country:</text><text x="746.102" y="632.081" style="font:300 14px 'Lucida Console',monospace" fill="#547000">Text</text></svg>