<svg xmlns="http://www.w3.org/2000/svg" viewBox="102.865 -74 1087.929 1232.29"><rect width="1000%" height="1000%" x="-500%" y="-500%" fill="#EEEEEE"/><path fill="none" stroke="#EEEEEE" stroke-width="8" d="M418.25.01l-.01-.01v352.862h19.256"/><defs><linearGradient id="a" x1="0%" x2="50%" y1="0%" y2="50%"><stop offset="0%" stop-color="#2ECB70"/><stop offset="100%" stop-color="#2ECB70"/></linearGradient></defs><path fill="none" stroke="url(#a)" stroke-width="3" d="M418.25.01l-.01-.01v352.862h19.256"/><path fill="none" stroke="#EEEEEE" stroke-width="8" d="M400.312 329.158l-.01-.01V825H604"/><defs><linearGradient id="b" x1="0%" x2="50%" y1="0%" y2="50%"><stop offset="0%" stop-color="#2ECB70"/><stop offset="100%" stop-color="#3397DA"/></linearGradient></defs><path fill="none" stroke="url(#b)" stroke-width="3" d="M400.312 329.158l-.01-.01V825H604"/><path fill="none" stroke="#EEEEEE" stroke-width="8" d="M251.534 234.3l-.01-.01V730.48h-24.658"/><defs><linearGradient id="c" x1="0%" x2="50%" y1="0%" y2="50%"><stop offset="0%" stop-color="#2ECB70"/><stop offset="100%" stop-color="#3397DA"/></linearGradient></defs><path fill="none" stroke="url(#c)" stroke-width="3" d="M251.534 234.3l-.01-.01V730.48h-24.658"/><path fill="none" stroke="#EEEEEE" stroke-width="8" d="M325.923 281.73l-.01-.01v761.57h-30.47"/><defs><linearGradient id="d" x1="0%" x2="50%" y1="0%" y2="50%"><stop offset="0%" stop-color="#2ECB70"/><stop offset="100%" stop-color="#3397DA"/></linearGradient></defs><path fill="none" stroke="url(#d)" stroke-width="3" d="M325.923 281.73l-.01-.01v761.57h-30.47"/><path fill="none" stroke="#EEEEEE" stroke-width="8" d="M474.7 376.587l-.01-.01v655.29h229.311"/><defs><linearGradient id="e" x1="0%" x2="50%" y1="0%" y2="50%"><stop offset="0%" stop-color="#2ECB70"/><stop offset="100%" stop-color="#3397DA"/></linearGradient></defs><path fill="none" stroke="url(#e)" stroke-width="3" d="M474.7 376.587l-.01-.01v655.29h229.311"/><path fill="none" stroke="#EEEEEE" stroke-width="8" d="M549.09 329.158l-.01-.01v299.8h219.594"/><defs><linearGradient id="f" x1="0%" x2="50%" y1="0%" y2="50%"><stop offset="0%" stop-color="#2ECB70"/><stop offset="100%" stop-color="#3397DA"/></linearGradient></defs><path fill="none" stroke="url(#f)" stroke-width="3" d="M549.09 329.158l-.01-.01v299.8h219.594"/><path fill="none" stroke="#EEEEEE" stroke-width="8" d="M623.478 281.73l-.01-.01h354.61v25.246"/><defs><linearGradient id="g" x1="0%" x2="50%" y1="0%" y2="50%"><stop offset="0%" stop-color="#2ECB70"/><stop offset="100%" stop-color="#2ECB70"/></linearGradient></defs><path fill="none" stroke="url(#g)" stroke-width="3" d="M623.478 281.73l-.01-.01h354.61v25.246"/><path fill="none" stroke="url(#g)" stroke-width="1.5" d="M784.87 261.73l-2.01-.01v8h2M788.87 261.73l1.99-.01v8h-2"/><path fill="none" stroke="#EEEEEE" stroke-width="8" d="M978.087 306.976l-.01-.01v189.9h84.353"/><defs><linearGradient id="h" x1="0%" x2="50%" y1="0%" y2="50%"><stop offset="0%" stop-color="#2ECB70"/><stop offset="100%" stop-color="#2ECB70"/></linearGradient></defs><path fill="none" stroke="url(#h)" stroke-width="3" d="M978.087 306.976l-.01-.01v189.9h84.353"/><path fill="#FFFFFF" stroke="#2ECB70" stroke-width="3" d="M251.024-54h334.433V54H251.024z"/><path fill="#2ecb70" stroke="#2ecb70" d="M252.024-13h334.433"/><path fill="none" stroke="#2ECB70" stroke-width="3" d="M251.024-54h334.433V54H251.024z"/><text x="261.024" y="-36" style="font:700 16px 'Lucida Console',monospace" fill="#000000">CommercialInvoice</text><text x="261.024" y="-20" style="font:300 14px 'Lucida Console',monospace" fill="#999">＜＜vtd-core.VerifiableCredential＞＞</text><text x="261.024" y="4" style="font:300 14px 'Lucida Console',monospace" fill="#666">issuer:</text><text x="324.025" y="4" style="font:300 14px 'Lucida Console',monospace" fill="#02b57b">Party</text><text x="261.024" y="18" style="font:300 14px 'Lucida Console',monospace" fill="#666">issuanceDate:</text><text x="374.598" y="18" style="font:300 14px 'Lucida Console',monospace" fill="#02b57b">DateTime</text><text x="261.024" y="32" style="font:300 14px 'Lucida Console',monospace" fill="#666">id:</text><text x="290.311" y="32" style="font:300 14px 'Lucida Console',monospace" fill="#02b57b">URI</text><text x="261.024" y="46" style="font:300 14px 'Lucida Console',monospace" fill="#000000">credentialSubject:</text><text x="416.741" y="46" style="font:300 14px 'Lucida Console',monospace" fill="#2ECB70">Invoice</text><path fill="#FFFFFF" stroke="#2ECB70" stroke-width="3" d="M177.135 186.862h520.722v332H177.135z"/><path fill="#2ecb70" stroke="#2ecb70" d="M178.135 227.862h520.722"/><path fill="none" stroke="#2ECB70" stroke-width="3" d="M177.135 186.862h520.722v332H177.135z"/><text x="187.135" y="204.862" style="font:700 16px 'Lucida Console',monospace" fill="#000000">Invoice</text><text x="187.135" y="220.862" style="font:300 14px 'Lucida Console',monospace" fill="#999">＜＜vtd-core.CredentialSubject＞＞</text><text x="187.135" y="244.862" style="font:300 14px 'Lucida Console',monospace" fill="#000000">purchaseOrderNumber:</text><text x="359.709" y="244.862" style="font:300 14px 'Lucida Console',monospace" fill="#02b57b">Text</text><text x="187.135" y="258.862" style="font:300 14px 'Lucida Console',monospace" fill="#000000">contractNumber:</text><text x="317.566" y="258.862" style="font:300 14px 'Lucida Console',monospace" fill="#02b57b">Text</text><text x="187.135" y="272.862" style="font:300 14px 'Lucida Console',monospace" fill="#000000">invoiceNumber:</text><text x="309.137" y="272.862" style="font:300 14px 'Lucida Console',monospace" fill="#02b57b">Text</text><text x="187.135" y="286.862" style="font:300 14px 'Lucida Console',monospace" fill="#000000">issueDate:</text><text x="275.422" y="286.862" style="font:300 14px 'Lucida Console',monospace" fill="#02b57b">Date</text><text x="187.135" y="300.862" style="font:300 14px 'Lucida Console',monospace" fill="#000000">invoiceDate:</text><text x="292.28" y="300.862" style="font:300 14px 'Lucida Console',monospace" fill="#02b57b">Date</text><text x="187.135" y="314.862" style="font:300 14px 'Lucida Console',monospace" fill="#000000">paymentDueDate:</text><text x="317.566" y="314.862" style="font:300 14px 'Lucida Console',monospace" fill="#02b57b">Date</text><text x="187.135" y="328.862" style="font:300 14px 'Lucida Console',monospace" fill="#000000">buyer:</text><text x="241.707" y="328.862" style="font:300 14px 'Lucida Console',monospace" fill="#3397DA">Buyer</text><text x="187.135" y="342.862" style="font:300 14px 'Lucida Console',monospace" fill="#000000">invoicee:</text><text x="266.994" y="342.862" style="font:300 14px 'Lucida Console',monospace" fill="#3397DA">Invoicee</text><text x="187.135" y="356.862" style="font:300 14px 'Lucida Console',monospace" fill="#000000">sellersBank:</text><text x="292.28" y="356.862" style="font:300 14px 'Lucida Console',monospace" fill="#3397DA">SellersBank</text><text x="187.135" y="370.862" style="font:300 14px 'Lucida Console',monospace" fill="#000000">documentaryCreditApplicant:</text><text x="418.71" y="370.862" style="font:300 14px 'Lucida Console',monospace" fill="#3397DA">DocumentaryCreditApplicant</text><text x="187.135" y="384.862" style="font:300 14px 'Lucida Console',monospace" fill="#000000">seller:</text><text x="250.136" y="384.862" style="font:300 14px 'Lucida Console',monospace" fill="#3397DA">Seller</text><text x="187.135" y="398.862" style="font:300 14px 'Lucida Console',monospace" fill="#000000">sellerBankAccountNumber:</text><text x="393.424" y="398.862" style="font:300 14px 'Lucida Console',monospace" fill="#02b57b">Text</text><text x="187.135" y="412.862" style="font:300 14px 'Lucida Console',monospace" fill="#000000">originalLoadingLocation:</text><text x="393.424" y="412.862" style="font:300 14px 'Lucida Console',monospace" fill="#547000">vtd-core.Location</text><text x="187.135" y="426.862" style="font:300 14px 'Lucida Console',monospace" fill="#000000">originCountry:</text><text x="309.137" y="426.862" style="font:300 14px 'Lucida Console',monospace" fill="#547000">vtd-core.Location</text><text x="187.135" y="440.862" style="font:300 14px 'Lucida Console',monospace" fill="#000000">tradeTermsConditionsDescription:</text><text x="460.854" y="440.862" style="font:300 14px 'Lucida Console',monospace" fill="#02b57b">Text</text><text x="187.135" y="454.862" style="font:300 14px 'Lucida Console',monospace" fill="#000000">tradeTermsConditionsCode:</text><text x="401.853" y="454.862" style="font:300 14px 'Lucida Console',monospace" fill="#02b57b">Text</text><text x="187.135" y="468.862" style="font:300 14px 'Lucida Console',monospace" fill="#000000">paymentTerms:</text><text x="300.708" y="468.862" style="font:300 14px 'Lucida Console',monospace" fill="#02b57b">Text</text><text x="187.135" y="482.862" style="font:300 14px 'Lucida Console',monospace" fill="#000000">paymentMethod:</text><text x="309.137" y="482.862" style="font:300 14px 'Lucida Console',monospace" fill="#02b57b">Text</text><text x="187.135" y="496.862" style="font:300 14px 'Lucida Console',monospace" fill="#000000">itemsShipped:</text><text x="300.708" y="496.862" style="font:300 14px 'Lucida Console',monospace" fill="#2ECB70">TradeLineItem[]</text><text x="187.135" y="510.862" style="font:300 14px 'Lucida Console',monospace" fill="#000000">totalAmount:</text><text x="292.28" y="510.862" style="font:300 14px 'Lucida Console',monospace" fill="#547000">vtd-core.MonetaryAmount</text><path fill="#FFFFFF" stroke="#2ECB70" stroke-width="3" d="M805.36 232.966h345.434v148H805.36z"/><path fill="#2ecb70" stroke="#2ecb70" d="M806.36 257.966h345.434"/><path fill="none" stroke="#2ECB70" stroke-width="3" d="M805.36 232.966h345.434v148H805.36z"/><text x="815.36" y="250.966" style="font:700 16px 'Lucida Console',monospace" fill="#000000">TradeLineItem</text><text x="815.36" y="274.966" style="font:300 14px 'Lucida Console',monospace" fill="#000000">product:</text><text x="886.79" y="274.966" style="font:300 14px 'Lucida Console',monospace" fill="#2ECB70">Product</text><text x="815.36" y="288.966" style="font:300 14px 'Lucida Console',monospace" fill="#000000">sku:</text><text x="853.075" y="288.966" style="font:300 14px 'Lucida Console',monospace" fill="#02b57b">Text</text><text x="815.36" y="302.966" style="font:300 14px 'Lucida Console',monospace" fill="#000000">itemCount:</text><text x="903.647" y="302.966" style="font:300 14px 'Lucida Console',monospace" fill="#02b57b">Numeric</text><text x="815.36" y="316.966" style="font:300 14px 'Lucida Console',monospace" fill="#000000">netWeight:</text><text x="903.647" y="316.966" style="font:300 14px 'Lucida Console',monospace" fill="#547000">vtd-core.Quantity</text><text x="815.36" y="330.966" style="font:300 14px 'Lucida Console',monospace" fill="#000000">grossWeight:</text><text x="920.505" y="330.966" style="font:300 14px 'Lucida Console',monospace" fill="#547000">vtd-core.Quantity</text><text x="815.36" y="344.966" style="font:300 14px 'Lucida Console',monospace" fill="#000000">productPrice:</text><text x="928.934" y="344.966" style="font:300 14px 'Lucida Console',monospace" fill="#547000">vtd-core.MonetaryAmount</text><text x="815.36" y="358.966" style="font:300 14px 'Lucida Console',monospace" fill="#000000">commodity:</text><text x="903.647" y="358.966" style="font:300 14px 'Lucida Console',monospace" fill="#02b57b">Text</text><text x="815.36" y="372.966" style="font:300 14px 'Lucida Console',monospace" fill="#000000">amount:</text><text x="878.361" y="372.966" style="font:300 14px 'Lucida Console',monospace" fill="#547000">vtd-core.MonetaryAmount</text><path fill="#FFFFFF" stroke="#2ECB70" stroke-width="3" d="M950 463.866h224.859v66H950z"/><path fill="#2ecb70" stroke="#2ecb70" d="M951 504.866h224.86"/><path fill="none" stroke="#2ECB70" stroke-width="3" d="M950 463.866h224.859v66H950z"/><text x="960" y="481.866" style="font:700 16px 'Lucida Console',monospace" fill="#000000">Product</text><text x="960" y="497.866" style="font:300 14px 'Lucida Console',monospace" fill="#999">＜＜vtd-core.Product＞＞</text><text x="960" y="521.866" style="font:300 14px 'Lucida Console',monospace" fill="#666">id:</text><text x="989.286" y="521.866" style="font:300 14px 'Lucida Console',monospace" fill="#02b57b">URI</text><path fill="#FFFFFF" stroke="#3397DA" stroke-width="3" d="M500 750h208.002v150H500z"/><path fill="#3397da" stroke="#3397da" d="M501 791h208.002"/><path fill="none" stroke="#3397DA" stroke-width="3" d="M500 750h208.002v150H500z"/><text x="510" y="768" style="font:700 16px 'Lucida Console',monospace" fill="#000000">Buyer</text><text x="510" y="784" style="font:300 14px 'Lucida Console',monospace" fill="#999">＜＜vtd-core.Party＞＞</text><text x="510" y="808" style="font:300 14px 'Lucida Console',monospace" fill="#000000">id:</text><text x="539.286" y="808" style="font:300 14px 'Lucida Console',monospace" fill="#C9A30B">URI</text><text x="510" y="822" style="font:300 14px 'Lucida Console',monospace" fill="#000000">name:</text><text x="556.144" y="822" style="font:300 14px 'Lucida Console',monospace" fill="#547000">Text</text><text x="510" y="836" style="font:300 14px 'Lucida Console',monospace" fill="#000000">street:</text><text x="573.001" y="836" style="font:300 14px 'Lucida Console',monospace" fill="#547000">Text</text><text x="510" y="850" style="font:300 14px 'Lucida Console',monospace" fill="#000000">city:</text><text x="556.144" y="850" style="font:300 14px 'Lucida Console',monospace" fill="#547000">Text</text><text x="510" y="864" style="font:300 14px 'Lucida Console',monospace" fill="#000000">state:</text><text x="564.572" y="864" style="font:300 14px 'Lucida Console',monospace" fill="#547000">Text</text><text x="510" y="878" style="font:300 14px 'Lucida Console',monospace" fill="#000000">zip:</text><text x="547.715" y="878" style="font:300 14px 'Lucida Console',monospace" fill="#547000">Numeric</text><text x="510" y="892" style="font:300 14px 'Lucida Console',monospace" fill="#000000">country:</text><text x="581.43" y="892" style="font:300 14px 'Lucida Console',monospace" fill="#547000">Text</text><path fill="#FFFFFF" stroke="#3397DA" stroke-width="3" d="M122.865 655.479h208.002v150H122.865z"/><path fill="#3397da" stroke="#3397da" d="M123.865 696.479h208.002"/><path fill="none" stroke="#3397DA" stroke-width="3" d="M122.865 655.479h208.002v150H122.865z"/><text x="132.865" y="673.479" style="font:700 16px 'Lucida Console',monospace" fill="#000000">Invoicee</text><text x="132.865" y="689.479" style="font:300 14px 'Lucida Console',monospace" fill="#999">＜＜vtd-core.Party＞＞</text><text x="132.865" y="713.479" style="font:300 14px 'Lucida Console',monospace" fill="#000000">id:</text><text x="162.151" y="713.479" style="font:300 14px 'Lucida Console',monospace" fill="#C9A30B">URI</text><text x="132.865" y="727.479" style="font:300 14px 'Lucida Console',monospace" fill="#000000">name:</text><text x="179.009" y="727.479" style="font:300 14px 'Lucida Console',monospace" fill="#547000">Text</text><text x="132.865" y="741.479" style="font:300 14px 'Lucida Console',monospace" fill="#000000">street:</text><text x="195.866" y="741.479" style="font:300 14px 'Lucida Console',monospace" fill="#547000">Text</text><text x="132.865" y="755.479" style="font:300 14px 'Lucida Console',monospace" fill="#000000">city:</text><text x="179.009" y="755.479" style="font:300 14px 'Lucida Console',monospace" fill="#547000">Text</text><text x="132.865" y="769.479" style="font:300 14px 'Lucida Console',monospace" fill="#000000">state:</text><text x="187.437" y="769.479" style="font:300 14px 'Lucida Console',monospace" fill="#547000">Text</text><text x="132.865" y="783.479" style="font:300 14px 'Lucida Console',monospace" fill="#000000">zip:</text><text x="170.58" y="783.479" style="font:300 14px 'Lucida Console',monospace" fill="#547000">Numeric</text><text x="132.865" y="797.479" style="font:300 14px 'Lucida Console',monospace" fill="#000000">country:</text><text x="204.295" y="797.479" style="font:300 14px 'Lucida Console',monospace" fill="#547000">Text</text><path fill="#FFFFFF" stroke="#3397DA" stroke-width="3" d="M191.441 968.29h208.002v150H191.441z"/><path fill="#3397da" stroke="#3397da" d="M192.441 1009.29h208.002"/><path fill="none" stroke="#3397DA" stroke-width="3" d="M191.441 968.29h208.002v150H191.441z"/><text x="201.441" y="986.29" style="font:700 16px 'Lucida Console',monospace" fill="#000000">SellersBank</text><text x="201.441" y="1002.29" style="font:300 14px 'Lucida Console',monospace" fill="#999">＜＜vtd-core.Party＞＞</text><text x="201.441" y="1026.29" style="font:300 14px 'Lucida Console',monospace" fill="#000000">id:</text><text x="230.727" y="1026.29" style="font:300 14px 'Lucida Console',monospace" fill="#C9A30B">URI</text><text x="201.441" y="1040.29" style="font:300 14px 'Lucida Console',monospace" fill="#000000">name:</text><text x="247.585" y="1040.29" style="font:300 14px 'Lucida Console',monospace" fill="#547000">Text</text><text x="201.441" y="1054.29" style="font:300 14px 'Lucida Console',monospace" fill="#000000">street:</text><text x="264.442" y="1054.29" style="font:300 14px 'Lucida Console',monospace" fill="#547000">Text</text><text x="201.441" y="1068.29" style="font:300 14px 'Lucida Console',monospace" fill="#000000">city:</text><text x="247.585" y="1068.29" style="font:300 14px 'Lucida Console',monospace" fill="#547000">Text</text><text x="201.441" y="1082.29" style="font:300 14px 'Lucida Console',monospace" fill="#000000">state:</text><text x="256.013" y="1082.29" style="font:300 14px 'Lucida Console',monospace" fill="#547000">Text</text><text x="201.441" y="1096.29" style="font:300 14px 'Lucida Console',monospace" fill="#000000">zip:</text><text x="239.156" y="1096.29" style="font:300 14px 'Lucida Console',monospace" fill="#547000">Numeric</text><text x="201.441" y="1110.29" style="font:300 14px 'Lucida Console',monospace" fill="#000000">country:</text><text x="272.871" y="1110.29" style="font:300 14px 'Lucida Console',monospace" fill="#547000">Text</text><path fill="#FFFFFF" stroke="#3397DA" stroke-width="3" d="M549.774 956.866h308.453v150H549.774z"/><path fill="#3397da" stroke="#3397da" d="M550.774 997.866h308.454"/><path fill="none" stroke="#3397DA" stroke-width="3" d="M549.774 956.866h308.453v150H549.774z"/><text x="559.774" y="974.866" style="font:700 16px 'Lucida Console',monospace" fill="#000000">DocumentaryCreditApplicant</text><text x="559.774" y="990.866" style="font:300 14px 'Lucida Console',monospace" fill="#999">＜＜vtd-core.Party＞＞</text><text x="559.774" y="1014.866" style="font:300 14px 'Lucida Console',monospace" fill="#000000">id:</text><text x="589.061" y="1014.866" style="font:300 14px 'Lucida Console',monospace" fill="#C9A30B">URI</text><text x="559.774" y="1028.866" style="font:300 14px 'Lucida Console',monospace" fill="#000000">name:</text><text x="605.918" y="1028.866" style="font:300 14px 'Lucida Console',monospace" fill="#547000">Text</text><text x="559.774" y="1042.866" style="font:300 14px 'Lucida Console',monospace" fill="#000000">street:</text><text x="622.775" y="1042.866" style="font:300 14px 'Lucida Console',monospace" fill="#547000">Text</text><text x="559.774" y="1056.866" style="font:300 14px 'Lucida Console',monospace" fill="#000000">city:</text><text x="605.918" y="1056.866" style="font:300 14px 'Lucida Console',monospace" fill="#547000">Text</text><text x="559.774" y="1070.866" style="font:300 14px 'Lucida Console',monospace" fill="#000000">state:</text><text x="614.347" y="1070.866" style="font:300 14px 'Lucida Console',monospace" fill="#547000">Text</text><text x="559.774" y="1084.866" style="font:300 14px 'Lucida Console',monospace" fill="#000000">zip:</text><text x="597.489" y="1084.866" style="font:300 14px 'Lucida Console',monospace" fill="#547000">Numeric</text><text x="559.774" y="1098.866" style="font:300 14px 'Lucida Console',monospace" fill="#000000">country:</text><text x="631.204" y="1098.866" style="font:300 14px 'Lucida Console',monospace" fill="#547000">Text</text><path fill="#FFFFFF" stroke="#3397DA" stroke-width="3" d="M664.673 553.947h208.002v150H664.673z"/><path fill="#3397da" stroke="#3397da" d="M665.673 594.947h208.002"/><path fill="none" stroke="#3397DA" stroke-width="3" d="M664.673 553.947h208.002v150H664.673z"/><text x="674.673" y="571.947" style="font:700 16px 'Lucida Console',monospace" fill="#000000">Seller</text><text x="674.673" y="587.947" style="font:300 14px 'Lucida Console',monospace" fill="#999">＜＜vtd-core.Party＞＞</text><text x="674.673" y="611.947" style="font:300 14px 'Lucida Console',monospace" fill="#000000">id:</text><text x="703.959" y="611.947" style="font:300 14px 'Lucida Console',monospace" fill="#C9A30B">URI</text><text x="674.673" y="625.947" style="font:300 14px 'Lucida Console',monospace" fill="#000000">name:</text><text x="720.816" y="625.947" style="font:300 14px 'Lucida Console',monospace" fill="#547000">Text</text><text x="674.673" y="639.947" style="font:300 14px 'Lucida Console',monospace" fill="#000000">street:</text><text x="737.674" y="639.947" style="font:300 14px 'Lucida Console',monospace" fill="#547000">Text</text><text x="674.673" y="653.947" style="font:300 14px 'Lucida Console',monospace" fill="#000000">city:</text><text x="720.816" y="653.947" style="font:300 14px 'Lucida Console',monospace" fill="#547000">Text</text><text x="674.673" y="667.947" style="font:300 14px 'Lucida Console',monospace" fill="#000000">state:</text><text x="729.245" y="667.947" style="font:300 14px 'Lucida Console',monospace" fill="#547000">Text</text><text x="674.673" y="681.947" style="font:300 14px 'Lucida Console',monospace" fill="#000000">zip:</text><text x="712.388" y="681.947" style="font:300 14px 'Lucida Console',monospace" fill="#547000">Numeric</text><text x="674.673" y="695.947" style="font:300 14px 'Lucida Console',monospace" fill="#000000">country:</text><text x="746.102" y="695.947" style="font:300 14px 'Lucida Console',monospace" fill="#547000">Text</text></svg>