<svg xmlns="http://www.w3.org/2000/svg" viewBox="-98.991 -20 588.195 505.151"><rect width="1000%" height="1000%" x="-500%" y="-500%" fill="#EEEEEE"/><path fill="none" stroke="#EEEEEE" stroke-width="8" d="M67.164 47.01l-.01-.01h248.55v149.23"/><defs><linearGradient id="a" x1="0%" x2="50%" y1="0%" y2="50%"><stop offset="0%" stop-color="#FF3986"/><stop offset="100%" stop-color="#3397DA"/></linearGradient></defs><path fill="none" stroke="url(#a)" stroke-width="3" d="M67.164 47.01l-.01-.01h248.55v149.23"/><path fill="none" stroke="#EEEEEE" stroke-width="8" d="M360.214 218.906l-.01-.01v186.255h22.47"/><defs><linearGradient id="b" x1="0%" x2="50%" y1="0%" y2="50%"><stop offset="0%" stop-color="#3397DA"/><stop offset="100%" stop-color="#3397DA"/></linearGradient></defs><path fill="none" stroke="url(#b)" stroke-width="3" d="M360.214 218.906l-.01-.01v186.255h22.47"/><path fill="none" stroke="#EEEEEE" stroke-width="8" d="M271.213 173.573l-.01-.01H0v207.099"/><defs><linearGradient id="c" x1="0%" x2="50%" y1="0%" y2="50%"><stop offset="0%" stop-color="#3397DA"/><stop offset="100%" stop-color="#3397DA"/></linearGradient></defs><path fill="none" stroke="url(#c)" stroke-width="3" d="M271.213 173.573l-.01-.01H0v207.099"/><path fill="#FFFFFF" stroke="#FF3986" stroke-width="3" d="M-78.991 0h292.289v94H-78.991z"/><path fill="#ff3986" stroke="#ff3986" d="M-77.99 41h292.288"/><path fill="none" stroke="#FF3986" stroke-width="3" d="M-78.991 0h292.289v94H-78.991z"/><text x="-68.991" y="18" style="font:700 16px 'Lucida Console',monospace" fill="#000000">BillOfLading</text><text x="-68.991" y="34" style="font:300 14px 'Lucida Console',monospace" fill="#999">＜＜vtd.VerifiableCredential＞＞</text><text x="-68.991" y="58" style="font:300 14px 'Lucida Console',monospace" fill="#666">issuer:</text><text x="-5.99" y="58" style="font:300 14px 'Lucida Console',monospace" fill="#02b57b">Party</text><text x="-68.991" y="72" style="font:300 14px 'Lucida Console',monospace" fill="#666">issuanceDate:</text><text x="44.583" y="72" style="font:300 14px 'Lucida Console',monospace" fill="#02b57b">DateTime</text><text x="-68.991" y="86" style="font:300 14px 'Lucida Console',monospace" fill="#000000">credentialSubject:</text><text x="86.726" y="86" style="font:300 14px 'Lucida Console',monospace" fill="#3397DA">Consignment</text><path fill="#FFFFFF" stroke="#3397DA" stroke-width="3" d="M182.202 128.23h267.003v136H182.202z"/><path fill="#3397da" stroke="#3397da" d="M183.202 169.23h267.003"/><path fill="none" stroke="#3397DA" stroke-width="3" d="M182.202 128.23h267.003v136H182.202z"/><text x="192.202" y="146.23" style="font:700 16px 'Lucida Console',monospace" fill="#000000">Consignment</text><text x="192.202" y="162.23" style="font:300 14px 'Lucida Console',monospace" fill="#999">＜＜vtd.CredentialSubject＞＞</text><text x="192.202" y="186.23" style="font:300 14px 'Lucida Console',monospace" fill="#000000">id:</text><text x="221.488" y="186.23" style="font:300 14px 'Lucida Console',monospace" fill="#C9A30B">URI</text><text x="192.202" y="200.23" style="font:300 14px 'Lucida Console',monospace" fill="#000000">billOfLadingNumber:</text><text x="356.347" y="200.23" style="font:300 14px 'Lucida Console',monospace" fill="#02b57b">Text</text><text x="192.202" y="214.23" style="font:300 14px 'Lucida Console',monospace" fill="#000000">bookingNumber[]:</text><text x="331.061" y="214.23" style="font:300 14px 'Lucida Console',monospace" fill="#02b57b">Text</text><text x="192.202" y="228.23" style="font:300 14px 'Lucida Console',monospace" fill="#000000">shipper:</text><text x="263.632" y="228.23" style="font:300 14px 'Lucida Console',monospace" fill="#3397DA">Shipper</text><text x="192.202" y="242.23" style="font:300 14px 'Lucida Console',monospace" fill="#000000">consignee:</text><text x="280.489" y="242.23" style="font:300 14px 'Lucida Console',monospace" fill="#3397DA">Consignee</text><text x="192.202" y="256.23" style="font:300 14px 'Lucida Console',monospace" fill="#000000">shippingDate:</text><text x="305.775" y="256.23" style="font:300 14px 'Lucida Console',monospace" fill="#02b57b">Date</text><path fill="#FFFFFF" stroke="#3397DA" stroke-width="3" d="M288.673 365.151h188v80h-188z"/><path fill="#3397da" stroke="#3397da" d="M289.673 406.151h188"/><path fill="none" stroke="#3397DA" stroke-width="3" d="M288.673 365.151h188v80h-188z"/><text x="298.673" y="383.151" style="font:700 16px 'Lucida Console',monospace" fill="#000000">Shipper</text><text x="298.673" y="399.151" style="font:300 14px 'Lucida Console',monospace" fill="#999">＜＜vtd.Party＞＞</text><text x="298.673" y="423.151" style="font:300 14px 'Lucida Console',monospace" fill="#666">id:</text><text x="327.96" y="423.151" style="font:300 14px 'Lucida Console',monospace" fill="#C9A30B">URI</text><text x="298.673" y="437.151" style="font:300 14px 'Lucida Console',monospace" fill="#666">address:</text><text x="370.103" y="437.151" style="font:300 14px 'Lucida Console',monospace" fill="#02b57b">Address</text><path fill="#FFFFFF" stroke="#3397DA" stroke-width="3" d="M-94 340.662H94v80H-94z"/><path fill="#3397da" stroke="#3397da" d="M-93 381.662H95"/><path fill="none" stroke="#3397DA" stroke-width="3" d="M-94 340.662H94v80H-94z"/><text x="-84" y="358.662" style="font:700 16px 'Lucida Console',monospace" fill="#000000">Consignee</text><text x="-84" y="374.662" style="font:300 14px 'Lucida Console',monospace" fill="#999">＜＜vtd.Party＞＞</text><text x="-84" y="398.662" style="font:300 14px 'Lucida Console',monospace" fill="#666">id:</text><text x="-54.714" y="398.662" style="font:300 14px 'Lucida Console',monospace" fill="#C9A30B">URI</text><text x="-84" y="412.662" style="font:300 14px 'Lucida Console',monospace" fill="#666">address:</text><text x="-12.57" y="412.662" style="font:300 14px 'Lucida Console',monospace" fill="#02b57b">Address</text><path fill="#FFFFFF" stroke="#3397DA" stroke-width="3" d="M250 0h188v80H250z"/><path fill="#3397da" stroke="#3397da" d="M251 41h188"/><path fill="none" stroke="#3397DA" stroke-width="3" d="M250 0h188v80H250z"/><text x="260" y="18" style="font:700 16px 'Lucida Console',monospace" fill="#000000">Carrier</text><text x="260" y="34" style="font:300 14px 'Lucida Console',monospace" fill="#999">＜＜vtd.Party＞＞</text><text x="260" y="58" style="font:300 14px 'Lucida Console',monospace" fill="#666">id:</text><text x="289.286" y="58" style="font:300 14px 'Lucida Console',monospace" fill="#C9A30B">URI</text><text x="260" y="72" style="font:300 14px 'Lucida Console',monospace" fill="#666">address:</text><text x="331.43" y="72" style="font:300 14px 'Lucida Console',monospace" fill="#02b57b">Address</text></svg>