<svg xmlns="http://www.w3.org/2000/svg" viewBox="108.578 -74 1105.067 1189.45"><rect width="1000%" height="1000%" x="-500%" y="-500%" fill="#EEEEEE"/><path fill="none" stroke="#EEEEEE" stroke-width="8" d="M418.25.01l-.01-.01v352.862h19.256"/><defs><linearGradient id="a" x1="0%" x2="50%" y1="0%" y2="50%"><stop offset="0%" stop-color="#2ECB70"/><stop offset="100%" stop-color="#2ECB70"/></linearGradient></defs><path fill="none" stroke="url(#a)" stroke-width="3" d="M418.25.01l-.01-.01v352.862h19.256"/><path fill="none" stroke="#EEEEEE" stroke-width="8" d="M437.506 405.872l-.01-.01v409.404h108.442"/><defs><linearGradient id="b" x1="0%" x2="50%" y1="0%" y2="50%"><stop offset="0%" stop-color="#2ECB70"/><stop offset="100%" stop-color="#3397DA"/></linearGradient></defs><path fill="none" stroke="url(#b)" stroke-width="3" d="M437.506 405.872l-.01-.01v409.404h108.442"/><path fill="none" stroke="#EEEEEE" stroke-width="8" d="M301.647 246.872l-.01-.01V821.87h-69.058"/><defs><linearGradient id="c" x1="0%" x2="50%" y1="0%" y2="50%"><stop offset="0%" stop-color="#2ECB70"/><stop offset="100%" stop-color="#3397DA"/></linearGradient></defs><path fill="none" stroke="url(#c)" stroke-width="3" d="M301.647 246.872l-.01-.01V821.87h-69.058"/><path fill="none" stroke="#EEEEEE" stroke-width="8" d="M369.576 299.872l-.01-.01v700.588h38.704"/><defs><linearGradient id="d" x1="0%" x2="50%" y1="0%" y2="50%"><stop offset="0%" stop-color="#2ECB70"/><stop offset="100%" stop-color="#3397DA"/></linearGradient></defs><path fill="none" stroke="url(#d)" stroke-width="3" d="M369.576 299.872l-.01-.01v700.588h38.704"/><path fill="none" stroke="#EEEEEE" stroke-width="8" d="M505.436 352.872l-.01-.01V656.08h224.686"/><defs><linearGradient id="e" x1="0%" x2="50%" y1="0%" y2="50%"><stop offset="0%" stop-color="#2ECB70"/><stop offset="100%" stop-color="#3397DA"/></linearGradient></defs><path fill="none" stroke="url(#e)" stroke-width="3" d="M505.436 352.872l-.01-.01V656.08h224.686"/><path fill="none" stroke="#EEEEEE" stroke-width="8" d="M573.365 299.872l-.01-.01h427.573v7.104"/><defs><linearGradient id="f" x1="0%" x2="50%" y1="0%" y2="50%"><stop offset="0%" stop-color="#2ECB70"/><stop offset="100%" stop-color="#2ECB70"/></linearGradient></defs><path fill="none" stroke="url(#f)" stroke-width="3" d="M573.365 299.872l-.01-.01h427.573v7.104"/><path fill="none" stroke="url(#f)" stroke-width="1.5" d="M807.722 279.872l-2.01-.01v8h2M811.722 279.872l1.99-.01v8h-2"/><path fill="none" stroke="#EEEEEE" stroke-width="8" d="M1000.938 306.976l-.01-.01v189.9h61.502"/><defs><linearGradient id="g" x1="0%" x2="50%" y1="0%" y2="50%"><stop offset="0%" stop-color="#2ECB70"/><stop offset="100%" stop-color="#2ECB70"/></linearGradient></defs><path fill="none" stroke="url(#g)" stroke-width="3" d="M1000.938 306.976l-.01-.01v189.9h61.502"/><path fill="#FFFFFF" stroke="#2ECB70" stroke-width="3" d="M251.024-54h334.433V54H251.024z"/><path fill="#2ecb70" stroke="#2ecb70" d="M252.024-13h334.433"/><path fill="none" stroke="#2ECB70" stroke-width="3" d="M251.024-54h334.433V54H251.024z"/><text x="261.024" y="-36" style="font:700 16px 'Lucida Console',monospace" fill="#000000">CommercialInvoice</text><text x="261.024" y="-20" style="font:300 14px 'Lucida Console',monospace" fill="#999">＜＜vtd-core.VerifiableCredential＞＞</text><text x="261.024" y="4" style="font:300 14px 'Lucida Console',monospace" fill="#666">issuer:</text><text x="324.025" y="4" style="font:300 14px 'Lucida Console',monospace" fill="#02b57b">Party</text><text x="261.024" y="18" style="font:300 14px 'Lucida Console',monospace" fill="#666">issuanceDate:</text><text x="374.598" y="18" style="font:300 14px 'Lucida Console',monospace" fill="#02b57b">DateTime</text><text x="261.024" y="32" style="font:300 14px 'Lucida Console',monospace" fill="#666">id:</text><text x="290.311" y="32" style="font:300 14px 'Lucida Console',monospace" fill="#02b57b">URI</text><text x="261.024" y="46" style="font:300 14px 'Lucida Console',monospace" fill="#000000">credentialSubject:</text><text x="416.741" y="46" style="font:300 14px 'Lucida Console',monospace" fill="#2ECB70">Invoice</text><path fill="#FFFFFF" stroke="#2ECB70" stroke-width="3" d="M233.707 193.862h407.577v318H233.707z"/><path fill="#2ecb70" stroke="#2ecb70" d="M234.707 234.862h407.578"/><path fill="none" stroke="#2ECB70" stroke-width="3" d="M233.707 193.862h407.577v318H233.707z"/><text x="243.707" y="211.862" style="font:700 16px 'Lucida Console',monospace" fill="#000000">Invoice</text><text x="243.707" y="227.862" style="font:300 14px 'Lucida Console',monospace" fill="#999">＜＜vtd-core.CredentialSubject＞＞</text><text x="243.707" y="251.862" style="font:300 14px 'Lucida Console',monospace" fill="#000000">purchaseOrderNumber:</text><text x="416.282" y="251.862" style="font:300 14px 'Lucida Console',monospace" fill="#02b57b">Text</text><text x="243.707" y="265.862" style="font:300 14px 'Lucida Console',monospace" fill="#000000">contractNumber:</text><text x="374.138" y="265.862" style="font:300 14px 'Lucida Console',monospace" fill="#02b57b">Text</text><text x="243.707" y="279.862" style="font:300 14px 'Lucida Console',monospace" fill="#000000">invoiceNumber:</text><text x="365.709" y="279.862" style="font:300 14px 'Lucida Console',monospace" fill="#02b57b">Text</text><text x="243.707" y="293.862" style="font:300 14px 'Lucida Console',monospace" fill="#000000">issueDate:</text><text x="331.995" y="293.862" style="font:300 14px 'Lucida Console',monospace" fill="#02b57b">Date</text><text x="243.707" y="307.862" style="font:300 14px 'Lucida Console',monospace" fill="#000000">invoiceDate:</text><text x="348.852" y="307.862" style="font:300 14px 'Lucida Console',monospace" fill="#02b57b">Date</text><text x="243.707" y="321.862" style="font:300 14px 'Lucida Console',monospace" fill="#000000">paymentDueDate:</text><text x="374.138" y="321.862" style="font:300 14px 'Lucida Console',monospace" fill="#02b57b">Date</text><text x="243.707" y="335.862" style="font:300 14px 'Lucida Console',monospace" fill="#000000">buyer:</text><text x="298.28" y="335.862" style="font:300 14px 'Lucida Console',monospace" fill="#3397DA">Buyer</text><text x="243.707" y="349.862" style="font:300 14px 'Lucida Console',monospace" fill="#000000">invoicee:</text><text x="323.566" y="349.862" style="font:300 14px 'Lucida Console',monospace" fill="#3397DA">Invoicee</text><text x="243.707" y="363.862" style="font:300 14px 'Lucida Console',monospace" fill="#000000">sellersBank:</text><text x="348.852" y="363.862" style="font:300 14px 'Lucida Console',monospace" fill="#3397DA">SellersBank</text><text x="243.707" y="377.862" style="font:300 14px 'Lucida Console',monospace" fill="#000000">seller:</text><text x="306.708" y="377.862" style="font:300 14px 'Lucida Console',monospace" fill="#3397DA">Seller</text><text x="243.707" y="391.862" style="font:300 14px 'Lucida Console',monospace" fill="#000000">sellerBankAccountNumber:</text><text x="449.996" y="391.862" style="font:300 14px 'Lucida Console',monospace" fill="#02b57b">Text</text><text x="243.707" y="405.862" style="font:300 14px 'Lucida Console',monospace" fill="#000000">originalLoadingLocation:</text><text x="449.996" y="405.862" style="font:300 14px 'Lucida Console',monospace" fill="#547000">vtd-core.Location</text><text x="243.707" y="419.862" style="font:300 14px 'Lucida Console',monospace" fill="#000000">originCountry:</text><text x="365.709" y="419.862" style="font:300 14px 'Lucida Console',monospace" fill="#547000">vtd-core.Location</text><text x="243.707" y="433.862" style="font:300 14px 'Lucida Console',monospace" fill="#000000">tradeTermsConditionsDescription:</text><text x="517.426" y="433.862" style="font:300 14px 'Lucida Console',monospace" fill="#02b57b">Text</text><text x="243.707" y="447.862" style="font:300 14px 'Lucida Console',monospace" fill="#000000">tradeTermsConditionsCode:</text><text x="458.425" y="447.862" style="font:300 14px 'Lucida Console',monospace" fill="#02b57b">Text</text><text x="243.707" y="461.862" style="font:300 14px 'Lucida Console',monospace" fill="#000000">paymentTerms:</text><text x="357.281" y="461.862" style="font:300 14px 'Lucida Console',monospace" fill="#02b57b">Text</text><text x="243.707" y="475.862" style="font:300 14px 'Lucida Console',monospace" fill="#000000">paymentMethod:</text><text x="365.709" y="475.862" style="font:300 14px 'Lucida Console',monospace" fill="#02b57b">Text</text><text x="243.707" y="489.862" style="font:300 14px 'Lucida Console',monospace" fill="#000000">itemsShipped:</text><text x="357.281" y="489.862" style="font:300 14px 'Lucida Console',monospace" fill="#2ECB70">TradeLineItem[]</text><text x="243.707" y="503.862" style="font:300 14px 'Lucida Console',monospace" fill="#000000">totalAmount:</text><text x="348.852" y="503.862" style="font:300 14px 'Lucida Console',monospace" fill="#547000">vtd-core.MonetaryAmount</text><path fill="#FFFFFF" stroke="#2ECB70" stroke-width="3" d="M828.212 232.966h345.434v148H828.212z"/><path fill="#2ecb70" stroke="#2ecb70" d="M829.212 257.966h345.433"/><path fill="none" stroke="#2ECB70" stroke-width="3" d="M828.212 232.966h345.434v148H828.212z"/><text x="838.212" y="250.966" style="font:700 16px 'Lucida Console',monospace" fill="#000000">TradeLineItem</text><text x="838.212" y="274.966" style="font:300 14px 'Lucida Console',monospace" fill="#000000">product:</text><text x="909.641" y="274.966" style="font:300 14px 'Lucida Console',monospace" fill="#2ECB70">Product</text><text x="838.212" y="288.966" style="font:300 14px 'Lucida Console',monospace" fill="#000000">sku:</text><text x="875.926" y="288.966" style="font:300 14px 'Lucida Console',monospace" fill="#02b57b">Text</text><text x="838.212" y="302.966" style="font:300 14px 'Lucida Console',monospace" fill="#000000">itemCount:</text><text x="926.499" y="302.966" style="font:300 14px 'Lucida Console',monospace" fill="#02b57b">Numeric</text><text x="838.212" y="316.966" style="font:300 14px 'Lucida Console',monospace" fill="#000000">netWeight:</text><text x="926.499" y="316.966" style="font:300 14px 'Lucida Console',monospace" fill="#547000">vtd-core.Quantity</text><text x="838.212" y="330.966" style="font:300 14px 'Lucida Console',monospace" fill="#000000">grossWeight:</text><text x="943.356" y="330.966" style="font:300 14px 'Lucida Console',monospace" fill="#547000">vtd-core.Quantity</text><text x="838.212" y="344.966" style="font:300 14px 'Lucida Console',monospace" fill="#000000">productPrice:</text><text x="951.785" y="344.966" style="font:300 14px 'Lucida Console',monospace" fill="#547000">vtd-core.MonetaryAmount</text><text x="838.212" y="358.966" style="font:300 14px 'Lucida Console',monospace" fill="#000000">commodity:</text><text x="926.499" y="358.966" style="font:300 14px 'Lucida Console',monospace" fill="#02b57b">Text</text><text x="838.212" y="372.966" style="font:300 14px 'Lucida Console',monospace" fill="#000000">amount:</text><text x="901.213" y="372.966" style="font:300 14px 'Lucida Console',monospace" fill="#547000">vtd-core.MonetaryAmount</text><path fill="#FFFFFF" stroke="#2ECB70" stroke-width="3" d="M950 463.866h224.859v66H950z"/><path fill="#2ecb70" stroke="#2ecb70" d="M951 504.866h224.86"/><path fill="none" stroke="#2ECB70" stroke-width="3" d="M950 463.866h224.859v66H950z"/><text x="960" y="481.866" style="font:700 16px 'Lucida Console',monospace" fill="#000000">Product</text><text x="960" y="497.866" style="font:300 14px 'Lucida Console',monospace" fill="#999">＜＜vtd-core.Product＞＞</text><text x="960" y="521.866" style="font:300 14px 'Lucida Console',monospace" fill="#666">id:</text><text x="989.286" y="521.866" style="font:300 14px 'Lucida Console',monospace" fill="#02b57b">URI</text><path fill="#FFFFFF" stroke="#3397DA" stroke-width="3" d="M441.937 740.266h208.002v150H441.937z"/><path fill="#3397da" stroke="#3397da" d="M442.937 781.266H650.94"/><path fill="none" stroke="#3397DA" stroke-width="3" d="M441.937 740.266h208.002v150H441.937z"/><text x="451.937" y="758.266" style="font:700 16px 'Lucida Console',monospace" fill="#000000">Buyer</text><text x="451.937" y="774.266" style="font:300 14px 'Lucida Console',monospace" fill="#999">＜＜vtd-core.Party＞＞</text><text x="451.937" y="798.266" style="font:300 14px 'Lucida Console',monospace" fill="#666">id:</text><text x="481.224" y="798.266" style="font:300 14px 'Lucida Console',monospace" fill="#C9A30B">URI</text><text x="451.937" y="812.266" style="font:300 14px 'Lucida Console',monospace" fill="#666">name:</text><text x="498.081" y="812.266" style="font:300 14px 'Lucida Console',monospace" fill="#02b57b">Text</text><text x="451.937" y="826.266" style="font:300 14px 'Lucida Console',monospace" fill="#666">street:</text><text x="514.938" y="826.266" style="font:300 14px 'Lucida Console',monospace" fill="#02b57b">Text</text><text x="451.937" y="840.266" style="font:300 14px 'Lucida Console',monospace" fill="#666">city:</text><text x="498.081" y="840.266" style="font:300 14px 'Lucida Console',monospace" fill="#02b57b">Text</text><text x="451.937" y="854.266" style="font:300 14px 'Lucida Console',monospace" fill="#666">state:</text><text x="506.51" y="854.266" style="font:300 14px 'Lucida Console',monospace" fill="#02b57b">Text</text><text x="451.937" y="868.266" style="font:300 14px 'Lucida Console',monospace" fill="#666">zip:</text><text x="489.652" y="868.266" style="font:300 14px 'Lucida Console',monospace" fill="#02b57b">Numeric</text><text x="451.937" y="882.266" style="font:300 14px 'Lucida Console',monospace" fill="#666">country:</text><text x="523.367" y="882.266" style="font:300 14px 'Lucida Console',monospace" fill="#02b57b">Text</text><path fill="#FFFFFF" stroke="#3397DA" stroke-width="3" d="M128.578 746.87H336.58v150H128.578z"/><path fill="#3397da" stroke="#3397da" d="M129.578 787.87H337.58"/><path fill="none" stroke="#3397DA" stroke-width="3" d="M128.578 746.87H336.58v150H128.578z"/><text x="138.578" y="764.87" style="font:700 16px 'Lucida Console',monospace" fill="#000000">Invoicee</text><text x="138.578" y="780.87" style="font:300 14px 'Lucida Console',monospace" fill="#999">＜＜vtd-core.Party＞＞</text><text x="138.578" y="804.87" style="font:300 14px 'Lucida Console',monospace" fill="#666">id:</text><text x="167.864" y="804.87" style="font:300 14px 'Lucida Console',monospace" fill="#C9A30B">URI</text><text x="138.578" y="818.87" style="font:300 14px 'Lucida Console',monospace" fill="#666">name:</text><text x="184.722" y="818.87" style="font:300 14px 'Lucida Console',monospace" fill="#02b57b">Text</text><text x="138.578" y="832.87" style="font:300 14px 'Lucida Console',monospace" fill="#666">street:</text><text x="201.579" y="832.87" style="font:300 14px 'Lucida Console',monospace" fill="#02b57b">Text</text><text x="138.578" y="846.87" style="font:300 14px 'Lucida Console',monospace" fill="#666">city:</text><text x="184.722" y="846.87" style="font:300 14px 'Lucida Console',monospace" fill="#02b57b">Text</text><text x="138.578" y="860.87" style="font:300 14px 'Lucida Console',monospace" fill="#666">state:</text><text x="193.15" y="860.87" style="font:300 14px 'Lucida Console',monospace" fill="#02b57b">Text</text><text x="138.578" y="874.87" style="font:300 14px 'Lucida Console',monospace" fill="#666">zip:</text><text x="176.293" y="874.87" style="font:300 14px 'Lucida Console',monospace" fill="#02b57b">Numeric</text><text x="138.578" y="888.87" style="font:300 14px 'Lucida Console',monospace" fill="#666">country:</text><text x="210.008" y="888.87" style="font:300 14px 'Lucida Console',monospace" fill="#02b57b">Text</text><path fill="#FFFFFF" stroke="#3397DA" stroke-width="3" d="M304.269 925.45h208.002v150H304.269z"/><path fill="#3397da" stroke="#3397da" d="M305.27 966.45H513.27"/><path fill="none" stroke="#3397DA" stroke-width="3" d="M304.269 925.45h208.002v150H304.269z"/><text x="314.269" y="943.45" style="font:700 16px 'Lucida Console',monospace" fill="#000000">SellersBank</text><text x="314.269" y="959.45" style="font:300 14px 'Lucida Console',monospace" fill="#999">＜＜vtd-core.Party＞＞</text><text x="314.269" y="983.45" style="font:300 14px 'Lucida Console',monospace" fill="#666">id:</text><text x="343.555" y="983.45" style="font:300 14px 'Lucida Console',monospace" fill="#C9A30B">URI</text><text x="314.269" y="997.45" style="font:300 14px 'Lucida Console',monospace" fill="#666">name:</text><text x="360.413" y="997.45" style="font:300 14px 'Lucida Console',monospace" fill="#02b57b">Text</text><text x="314.269" y="1011.45" style="font:300 14px 'Lucida Console',monospace" fill="#666">street:</text><text x="377.27" y="1011.45" style="font:300 14px 'Lucida Console',monospace" fill="#02b57b">Text</text><text x="314.269" y="1025.45" style="font:300 14px 'Lucida Console',monospace" fill="#666">city:</text><text x="360.413" y="1025.45" style="font:300 14px 'Lucida Console',monospace" fill="#02b57b">Text</text><text x="314.269" y="1039.45" style="font:300 14px 'Lucida Console',monospace" fill="#666">state:</text><text x="368.841" y="1039.45" style="font:300 14px 'Lucida Console',monospace" fill="#02b57b">Text</text><text x="314.269" y="1053.45" style="font:300 14px 'Lucida Console',monospace" fill="#666">zip:</text><text x="351.984" y="1053.45" style="font:300 14px 'Lucida Console',monospace" fill="#02b57b">Numeric</text><text x="314.269" y="1067.45" style="font:300 14px 'Lucida Console',monospace" fill="#666">country:</text><text x="385.699" y="1067.45" style="font:300 14px 'Lucida Console',monospace" fill="#02b57b">Text</text><path fill="#FFFFFF" stroke="#3397DA" stroke-width="3" d="M600 956.866h208.002v150H600z"/><path fill="#3397da" stroke="#3397da" d="M601 997.866h208.002"/><path fill="none" stroke="#3397DA" stroke-width="3" d="M600 956.866h208.002v150H600z"/><text x="610" y="974.866" style="font:700 16px 'Lucida Console',monospace" fill="#000000">CreditApplicant</text><text x="610" y="990.866" style="font:300 14px 'Lucida Console',monospace" fill="#999">＜＜vtd-core.Party＞＞</text><text x="610" y="1014.866" style="font:300 14px 'Lucida Console',monospace" fill="#666">id:</text><text x="639.286" y="1014.866" style="font:300 14px 'Lucida Console',monospace" fill="#C9A30B">URI</text><text x="610" y="1028.866" style="font:300 14px 'Lucida Console',monospace" fill="#666">name:</text><text x="656.144" y="1028.866" style="font:300 14px 'Lucida Console',monospace" fill="#02b57b">Text</text><text x="610" y="1042.866" style="font:300 14px 'Lucida Console',monospace" fill="#666">street:</text><text x="673.001" y="1042.866" style="font:300 14px 'Lucida Console',monospace" fill="#02b57b">Text</text><text x="610" y="1056.866" style="font:300 14px 'Lucida Console',monospace" fill="#666">city:</text><text x="656.144" y="1056.866" style="font:300 14px 'Lucida Console',monospace" fill="#02b57b">Text</text><text x="610" y="1070.866" style="font:300 14px 'Lucida Console',monospace" fill="#666">state:</text><text x="664.572" y="1070.866" style="font:300 14px 'Lucida Console',monospace" fill="#02b57b">Text</text><text x="610" y="1084.866" style="font:300 14px 'Lucida Console',monospace" fill="#666">zip:</text><text x="647.715" y="1084.866" style="font:300 14px 'Lucida Console',monospace" fill="#02b57b">Numeric</text><text x="610" y="1098.866" style="font:300 14px 'Lucida Console',monospace" fill="#666">country:</text><text x="681.43" y="1098.866" style="font:300 14px 'Lucida Console',monospace" fill="#02b57b">Text</text><path fill="#FFFFFF" stroke="#3397DA" stroke-width="3" d="M626.111 581.079h208.002v150H626.111z"/><path fill="#3397da" stroke="#3397da" d="M627.111 622.08h208.002"/><path fill="none" stroke="#3397DA" stroke-width="3" d="M626.111 581.079h208.002v150H626.111z"/><text x="636.111" y="599.079" style="font:700 16px 'Lucida Console',monospace" fill="#000000">Seller</text><text x="636.111" y="615.079" style="font:300 14px 'Lucida Console',monospace" fill="#999">＜＜vtd-core.Party＞＞</text><text x="636.111" y="639.079" style="font:300 14px 'Lucida Console',monospace" fill="#666">id:</text><text x="665.397" y="639.079" style="font:300 14px 'Lucida Console',monospace" fill="#C9A30B">URI</text><text x="636.111" y="653.079" style="font:300 14px 'Lucida Console',monospace" fill="#666">name:</text><text x="682.255" y="653.079" style="font:300 14px 'Lucida Console',monospace" fill="#02b57b">Text</text><text x="636.111" y="667.079" style="font:300 14px 'Lucida Console',monospace" fill="#666">street:</text><text x="699.112" y="667.079" style="font:300 14px 'Lucida Console',monospace" fill="#02b57b">Text</text><text x="636.111" y="681.079" style="font:300 14px 'Lucida Console',monospace" fill="#666">city:</text><text x="682.255" y="681.079" style="font:300 14px 'Lucida Console',monospace" fill="#02b57b">Text</text><text x="636.111" y="695.079" style="font:300 14px 'Lucida Console',monospace" fill="#666">state:</text><text x="690.683" y="695.079" style="font:300 14px 'Lucida Console',monospace" fill="#02b57b">Text</text><text x="636.111" y="709.079" style="font:300 14px 'Lucida Console',monospace" fill="#666">zip:</text><text x="673.826" y="709.079" style="font:300 14px 'Lucida Console',monospace" fill="#02b57b">Numeric</text><text x="636.111" y="723.079" style="font:300 14px 'Lucida Console',monospace" fill="#666">country:</text><text x="707.541" y="723.079" style="font:300 14px 'Lucida Console',monospace" fill="#02b57b">Text</text></svg>