<svg xmlns="http://www.w3.org/2000/svg" viewBox="-184.785 -41 1664.791 1126.169"><rect width="1000%" height="1000%" x="-500%" y="-500%" fill="#EEEEEE"/><path fill="none" stroke="#EEEEEE" stroke-width="8" d="M2.442 54.01l-.01-.01h1217.57v125"/><defs><linearGradient id="a" x1="0%" x2="50%" y1="0%" y2="50%"><stop offset="0%" stop-color="#2ECB70"/><stop offset="100%" stop-color="#2ECB70"/></linearGradient></defs><path fill="none" stroke="url(#a)" stroke-width="3" d="M2.442 54.01l-.01-.01h1217.57v125"/><path fill="none" stroke="#EEEEEE" stroke-width="8" d="M1251.442 205.724l-.01-.01H545.938V751.4"/><defs><linearGradient id="b" x1="0%" x2="50%" y1="0%" y2="50%"><stop offset="0%" stop-color="#2ECB70"/><stop offset="100%" stop-color="#3397DA"/></linearGradient></defs><path fill="none" stroke="url(#b)" stroke-width="3" d="M1251.442 205.724l-.01-.01H545.938V751.4"/><path fill="none" stroke="#EEEEEE" stroke-width="8" d="M1062.868 45.439l-.01-.01H254.001V768"/><defs><linearGradient id="c" x1="0%" x2="50%" y1="0%" y2="50%"><stop offset="0%" stop-color="#2ECB70"/><stop offset="100%" stop-color="#3397DA"/></linearGradient></defs><path fill="none" stroke="url(#c)" stroke-width="3" d="M1062.868 45.439l-.01-.01H254.001V768"/><path fill="none" stroke="#EEEEEE" stroke-width="8" d="M1125.726 98.867l-.01-.01V977.17H368.955"/><defs><linearGradient id="d" x1="0%" x2="50%" y1="0%" y2="50%"><stop offset="0%" stop-color="#2ECB70"/><stop offset="100%" stop-color="#3397DA"/></linearGradient></defs><path fill="none" stroke="url(#d)" stroke-width="3" d="M1125.726 98.867l-.01-.01V977.17H368.955"/><path fill="none" stroke="#EEEEEE" stroke-width="8" d="M1314.3 152.296l-.01-.01V968H704"/><defs><linearGradient id="e" x1="0%" x2="50%" y1="0%" y2="50%"><stop offset="0%" stop-color="#2ECB70"/><stop offset="100%" stop-color="#3397DA"/></linearGradient></defs><path fill="none" stroke="url(#e)" stroke-width="3" d="M1314.3 152.296l-.01-.01V968H704"/><path fill="none" stroke="#EEEEEE" stroke-width="8" d="M1377.158 98.867l-.01-.01v634.727h-528.5"/><defs><linearGradient id="f" x1="0%" x2="50%" y1="0%" y2="50%"><stop offset="0%" stop-color="#2ECB70"/><stop offset="100%" stop-color="#3397DA"/></linearGradient></defs><path fill="none" stroke="url(#f)" stroke-width="3" d="M1377.158 98.867l-.01-.01v634.727h-528.5"/><path fill="none" stroke="#EEEEEE" stroke-width="8" d="M1188.584 152.296l-.01-.01H540V18"/><defs><linearGradient id="g" x1="100%" x2="50%" y1="100%" y2="50%"><stop offset="0%" stop-color="#2ECB70"/><stop offset="100%" stop-color="#2ECB70"/></linearGradient></defs><path fill="none" stroke="url(#g)" stroke-width="3" d="M1188.584 152.296l-.01-.01H540V18"/><path fill="none" stroke="#EEEEEE" stroke-width="8" d="M540.01 18.01L540 18h325.613V3.206"/><defs><linearGradient id="h" x1="0%" x2="50%" y1="0%" y2="50%"><stop offset="0%" stop-color="#2ECB70"/><stop offset="100%" stop-color="#2ECB70"/></linearGradient></defs><path fill="none" stroke="url(#h)" stroke-width="3" d="M540.01 18.01L540 18h325.613V3.206"/><path fill="#FFFFFF" stroke="#2ECB70" stroke-width="3" d="M-164.785 0h334.433v108h-334.433z"/><path fill="#2ecb70" stroke="#2ecb70" d="M-163.785 41h334.433"/><path fill="none" stroke="#2ECB70" stroke-width="3" d="M-164.785 0h334.433v108h-334.433z"/><text x="-154.785" y="18" style="font:700 16px 'Lucida Console',monospace" fill="#000000">CommercialInvoice</text><text x="-154.785" y="34" style="font:300 14px 'Lucida Console',monospace" fill="#999">＜＜vtd-core.VerifiableCredential＞＞</text><text x="-154.785" y="58" style="font:300 14px 'Lucida Console',monospace" fill="#666">issuer:</text><text x="-91.784" y="58" style="font:300 14px 'Lucida Console',monospace" fill="#02b57b">Party</text><text x="-154.785" y="72" style="font:300 14px 'Lucida Console',monospace" fill="#666">issuanceDate:</text><text x="-41.211" y="72" style="font:300 14px 'Lucida Console',monospace" fill="#02b57b">DateTime</text><text x="-154.785" y="86" style="font:300 14px 'Lucida Console',monospace" fill="#666">id:</text><text x="-125.499" y="86" style="font:300 14px 'Lucida Console',monospace" fill="#02b57b">URI</text><text x="-154.785" y="100" style="font:300 14px 'Lucida Console',monospace" fill="#000000">credentialSubject:</text><text x=".932" y="100" style="font:300 14px 'Lucida Console',monospace" fill="#2ECB70">Invoice</text><path fill="#FFFFFF" stroke="#2ECB70" stroke-width="3" d="M1000-8h440.006v374H1000z"/><path fill="#2ecb70" stroke="#2ecb70" d="M1001 33h440.006"/><path fill="none" stroke="#2ECB70" stroke-width="3" d="M1000-8h440.006v374H1000z"/><text x="1010" y="10" style="font:700 16px 'Lucida Console',monospace" fill="#000000">Invoice</text><text x="1010" y="26" style="font:300 14px 'Lucida Console',monospace" fill="#999">＜＜vtd-core.CredentialSubject＞＞</text><text x="1010" y="50" style="font:300 14px 'Lucida Console',monospace" fill="#000000">purchaseOrderNumber:</text><text x="1182.574" y="50" style="font:300 14px 'Lucida Console',monospace" fill="#02b57b">Text</text><text x="1010" y="64" style="font:300 14px 'Lucida Console',monospace" fill="#000000">contractNumber:</text><text x="1140.431" y="64" style="font:300 14px 'Lucida Console',monospace" fill="#02b57b">Text</text><text x="1010" y="78" style="font:300 14px 'Lucida Console',monospace" fill="#000000">invoiceNumber:</text><text x="1132.002" y="78" style="font:300 14px 'Lucida Console',monospace" fill="#02b57b">Text</text><text x="1010" y="92" style="font:300 14px 'Lucida Console',monospace" fill="#000000">issueDate:</text><text x="1098.287" y="92" style="font:300 14px 'Lucida Console',monospace" fill="#02b57b">Date</text><text x="1010" y="106" style="font:300 14px 'Lucida Console',monospace" fill="#000000">invoiceDate:</text><text x="1115.145" y="106" style="font:300 14px 'Lucida Console',monospace" fill="#02b57b">Date</text><text x="1010" y="120" style="font:300 14px 'Lucida Console',monospace" fill="#000000">paymentDueDate:</text><text x="1140.431" y="120" style="font:300 14px 'Lucida Console',monospace" fill="#02b57b">Date</text><text x="1010" y="134" style="font:300 14px 'Lucida Console',monospace" fill="#000000">buyer:</text><text x="1064.572" y="134" style="font:300 14px 'Lucida Console',monospace" fill="#3397DA">Buyer</text><text x="1010" y="148" style="font:300 14px 'Lucida Console',monospace" fill="#000000">invoicee:</text><text x="1089.858" y="148" style="font:300 14px 'Lucida Console',monospace" fill="#3397DA">Invoicee</text><text x="1010" y="162" style="font:300 14px 'Lucida Console',monospace" fill="#000000">sellersBank:</text><text x="1115.145" y="162" style="font:300 14px 'Lucida Console',monospace" fill="#3397DA">SellersBank</text><text x="1010" y="176" style="font:300 14px 'Lucida Console',monospace" fill="#000000">documentaryCreditApplicant:</text><text x="1241.575" y="176" style="font:300 14px 'Lucida Console',monospace" fill="#3397DA">CreditApplicant</text><text x="1010" y="190" style="font:300 14px 'Lucida Console',monospace" fill="#000000">seller:</text><text x="1073.001" y="190" style="font:300 14px 'Lucida Console',monospace" fill="#3397DA">Seller</text><text x="1010" y="204" style="font:300 14px 'Lucida Console',monospace" fill="#000000">sellerBankAccountNumber:</text><text x="1216.289" y="204" style="font:300 14px 'Lucida Console',monospace" fill="#02b57b">Text</text><text x="1010" y="218" style="font:300 14px 'Lucida Console',monospace" fill="#000000">originalLoadingLocation:</text><text x="1216.289" y="218" style="font:300 14px 'Lucida Console',monospace" fill="#547000">vtd-core.Location</text><text x="1010" y="232" style="font:300 14px 'Lucida Console',monospace" fill="#000000">originCountry:</text><text x="1132.002" y="232" style="font:300 14px 'Lucida Console',monospace" fill="#547000">vtd-core.Location</text><text x="1010" y="246" style="font:300 14px 'Lucida Console',monospace" fill="#000000">baseportUnloadingLocation:</text><text x="1233.146" y="246" style="font:300 14px 'Lucida Console',monospace" fill="#02b57b">Text</text><text x="1010" y="260" style="font:300 14px 'Lucida Console',monospace" fill="#000000">tradeTermsConditionsDescription:</text><text x="1283.719" y="260" style="font:300 14px 'Lucida Console',monospace" fill="#02b57b">Text</text><text x="1010" y="274" style="font:300 14px 'Lucida Console',monospace" fill="#000000">tradeTermsConditionsCode:</text><text x="1224.718" y="274" style="font:300 14px 'Lucida Console',monospace" fill="#02b57b">Text</text><text x="1010" y="288" style="font:300 14px 'Lucida Console',monospace" fill="#000000">paymentTerms:</text><text x="1123.573" y="288" style="font:300 14px 'Lucida Console',monospace" fill="#02b57b">Text</text><text x="1010" y="302" style="font:300 14px 'Lucida Console',monospace" fill="#000000">paymentMethod:</text><text x="1132.002" y="302" style="font:300 14px 'Lucida Console',monospace" fill="#02b57b">Text</text><text x="1010" y="316" style="font:300 14px 'Lucida Console',monospace" fill="#000000">totalInvoiceAmount:</text><text x="1174.146" y="316" style="font:300 14px 'Lucida Console',monospace" fill="#02b57b">Text</text><text x="1010" y="330" style="font:300 14px 'Lucida Console',monospace" fill="#000000">amount:</text><text x="1073.001" y="330" style="font:300 14px 'Lucida Console',monospace" fill="#02b57b">Decimal</text><text x="1010" y="344" style="font:300 14px 'Lucida Console',monospace" fill="#000000">currency:</text><text x="1089.858" y="344" style="font:300 14px 'Lucida Console',monospace" fill="#02b57b">Text</text><text x="1010" y="358" style="font:300 14px 'Lucida Console',monospace" fill="#000000">itemsShipped:</text><text x="1123.573" y="358" style="font:300 14px 'Lucida Console',monospace" fill="#2ECB70">TradeLineItem</text><path fill="#FFFFFF" stroke="#2ECB70" stroke-width="3" d="M409.212-21h261.575v78H409.212z"/><path fill="#2ecb70" stroke="#2ecb70" d="M410.212 4h261.576"/><path fill="none" stroke="#2ECB70" stroke-width="3" d="M409.212-21h261.575v78H409.212z"/><text x="419.212" y="-3" style="font:700 16px 'Lucida Console',monospace" fill="#000000">TradeLineItem</text><text x="419.212" y="21" style="font:300 14px 'Lucida Console',monospace" fill="#000000">product:</text><text x="490.642" y="21" style="font:300 14px 'Lucida Console',monospace" fill="#2ECB70">Product</text><text x="419.212" y="35" style="font:300 14px 'Lucida Console',monospace" fill="#000000">itemCount:</text><text x="507.5" y="35" style="font:300 14px 'Lucida Console',monospace" fill="#02b57b">Numeric</text><text x="419.212" y="49" style="font:300 14px 'Lucida Console',monospace" fill="#000000">netWeight:</text><text x="507.5" y="49" style="font:300 14px 'Lucida Console',monospace" fill="#547000">vtd-core.Quantity</text><path fill="#FFFFFF" stroke="#2ECB70" stroke-width="3" d="M753.183-29.794h224.859v66H753.183z"/><path fill="#2ecb70" stroke="#2ecb70" d="M754.183 11.206h224.86"/><path fill="none" stroke="#2ECB70" stroke-width="3" d="M753.183-29.794h224.859v66H753.183z"/><text x="763.183" y="-11.794" style="font:700 16px 'Lucida Console',monospace" fill="#000000">Product</text><text x="763.183" y="4.206" style="font:300 14px 'Lucida Console',monospace" fill="#999">＜＜vtd-core.Product＞＞</text><text x="763.183" y="28.206" style="font:300 14px 'Lucida Console',monospace" fill="#666">id:</text><text x="792.469" y="28.206" style="font:300 14px 'Lucida Console',monospace" fill="#02b57b">URI</text><path fill="#FFFFFF" stroke="#3397DA" stroke-width="3" d="M441.937 683.399h208.002v136H441.937z"/><path fill="#3397da" stroke="#3397da" d="M442.937 724.4H650.94"/><path fill="none" stroke="#3397DA" stroke-width="3" d="M441.937 683.399h208.002v136H441.937z"/><text x="451.937" y="701.399" style="font:700 16px 'Lucida Console',monospace" fill="#000000">Buyer</text><text x="451.937" y="717.399" style="font:300 14px 'Lucida Console',monospace" fill="#999">＜＜vtd-core.Party＞＞</text><text x="451.937" y="741.399" style="font:300 14px 'Lucida Console',monospace" fill="#666">id:</text><text x="481.224" y="741.399" style="font:300 14px 'Lucida Console',monospace" fill="#C9A30B">URI</text><text x="451.937" y="755.399" style="font:300 14px 'Lucida Console',monospace" fill="#666">street:</text><text x="514.938" y="755.399" style="font:300 14px 'Lucida Console',monospace" fill="#02b57b">Text</text><text x="451.937" y="769.399" style="font:300 14px 'Lucida Console',monospace" fill="#666">city:</text><text x="498.081" y="769.399" style="font:300 14px 'Lucida Console',monospace" fill="#02b57b">Text</text><text x="451.937" y="783.399" style="font:300 14px 'Lucida Console',monospace" fill="#666">state:</text><text x="506.51" y="783.399" style="font:300 14px 'Lucida Console',monospace" fill="#02b57b">Text</text><text x="451.937" y="797.399" style="font:300 14px 'Lucida Console',monospace" fill="#666">zip:</text><text x="489.652" y="797.399" style="font:300 14px 'Lucida Console',monospace" fill="#02b57b">Numeric</text><text x="451.937" y="811.399" style="font:300 14px 'Lucida Console',monospace" fill="#666">country:</text><text x="523.367" y="811.399" style="font:300 14px 'Lucida Console',monospace" fill="#02b57b">Text</text><path fill="#FFFFFF" stroke="#3397DA" stroke-width="3" d="M150 700h208.002v136H150z"/><path fill="#3397da" stroke="#3397da" d="M151 741h208.002"/><path fill="none" stroke="#3397DA" stroke-width="3" d="M150 700h208.002v136H150z"/><text x="160" y="718" style="font:700 16px 'Lucida Console',monospace" fill="#000000">Invoicee</text><text x="160" y="734" style="font:300 14px 'Lucida Console',monospace" fill="#999">＜＜vtd-core.Party＞＞</text><text x="160" y="758" style="font:300 14px 'Lucida Console',monospace" fill="#666">id:</text><text x="189.286" y="758" style="font:300 14px 'Lucida Console',monospace" fill="#C9A30B">URI</text><text x="160" y="772" style="font:300 14px 'Lucida Console',monospace" fill="#666">street:</text><text x="223.001" y="772" style="font:300 14px 'Lucida Console',monospace" fill="#02b57b">Text</text><text x="160" y="786" style="font:300 14px 'Lucida Console',monospace" fill="#666">city:</text><text x="206.144" y="786" style="font:300 14px 'Lucida Console',monospace" fill="#02b57b">Text</text><text x="160" y="800" style="font:300 14px 'Lucida Console',monospace" fill="#666">state:</text><text x="214.572" y="800" style="font:300 14px 'Lucida Console',monospace" fill="#02b57b">Text</text><text x="160" y="814" style="font:300 14px 'Lucida Console',monospace" fill="#666">zip:</text><text x="197.715" y="814" style="font:300 14px 'Lucida Console',monospace" fill="#02b57b">Numeric</text><text x="160" y="828" style="font:300 14px 'Lucida Console',monospace" fill="#666">country:</text><text x="231.43" y="828" style="font:300 14px 'Lucida Console',monospace" fill="#02b57b">Text</text><path fill="#FFFFFF" stroke="#3397DA" stroke-width="3" d="M264.954 909.169h208.002v136H264.954z"/><path fill="#3397da" stroke="#3397da" d="M265.954 950.169h208.002"/><path fill="none" stroke="#3397DA" stroke-width="3" d="M264.954 909.169h208.002v136H264.954z"/><text x="274.954" y="927.169" style="font:700 16px 'Lucida Console',monospace" fill="#000000">SellersBank</text><text x="274.954" y="943.169" style="font:300 14px 'Lucida Console',monospace" fill="#999">＜＜vtd-core.Party＞＞</text><text x="274.954" y="967.169" style="font:300 14px 'Lucida Console',monospace" fill="#666">id:</text><text x="304.24" y="967.169" style="font:300 14px 'Lucida Console',monospace" fill="#C9A30B">URI</text><text x="274.954" y="981.169" style="font:300 14px 'Lucida Console',monospace" fill="#666">street:</text><text x="337.955" y="981.169" style="font:300 14px 'Lucida Console',monospace" fill="#02b57b">Text</text><text x="274.954" y="995.169" style="font:300 14px 'Lucida Console',monospace" fill="#666">city:</text><text x="321.098" y="995.169" style="font:300 14px 'Lucida Console',monospace" fill="#02b57b">Text</text><text x="274.954" y="1009.169" style="font:300 14px 'Lucida Console',monospace" fill="#666">state:</text><text x="329.526" y="1009.169" style="font:300 14px 'Lucida Console',monospace" fill="#02b57b">Text</text><text x="274.954" y="1023.169" style="font:300 14px 'Lucida Console',monospace" fill="#666">zip:</text><text x="312.669" y="1023.169" style="font:300 14px 'Lucida Console',monospace" fill="#02b57b">Numeric</text><text x="274.954" y="1037.169" style="font:300 14px 'Lucida Console',monospace" fill="#666">country:</text><text x="346.384" y="1037.169" style="font:300 14px 'Lucida Console',monospace" fill="#02b57b">Text</text><path fill="#FFFFFF" stroke="#3397DA" stroke-width="3" d="M600 900h208.002v136H600z"/><path fill="#3397da" stroke="#3397da" d="M601 941h208.002"/><path fill="none" stroke="#3397DA" stroke-width="3" d="M600 900h208.002v136H600z"/><text x="610" y="918" style="font:700 16px 'Lucida Console',monospace" fill="#000000">CreditApplicant</text><text x="610" y="934" style="font:300 14px 'Lucida Console',monospace" fill="#999">＜＜vtd-core.Party＞＞</text><text x="610" y="958" style="font:300 14px 'Lucida Console',monospace" fill="#666">id:</text><text x="639.286" y="958" style="font:300 14px 'Lucida Console',monospace" fill="#C9A30B">URI</text><text x="610" y="972" style="font:300 14px 'Lucida Console',monospace" fill="#666">street:</text><text x="673.001" y="972" style="font:300 14px 'Lucida Console',monospace" fill="#02b57b">Text</text><text x="610" y="986" style="font:300 14px 'Lucida Console',monospace" fill="#666">city:</text><text x="656.144" y="986" style="font:300 14px 'Lucida Console',monospace" fill="#02b57b">Text</text><text x="610" y="1000" style="font:300 14px 'Lucida Console',monospace" fill="#666">state:</text><text x="664.572" y="1000" style="font:300 14px 'Lucida Console',monospace" fill="#02b57b">Text</text><text x="610" y="1014" style="font:300 14px 'Lucida Console',monospace" fill="#666">zip:</text><text x="647.715" y="1014" style="font:300 14px 'Lucida Console',monospace" fill="#02b57b">Numeric</text><text x="610" y="1028" style="font:300 14px 'Lucida Console',monospace" fill="#666">country:</text><text x="681.43" y="1028" style="font:300 14px 'Lucida Console',monospace" fill="#02b57b">Text</text><path fill="#FFFFFF" stroke="#3397DA" stroke-width="3" d="M744.646 665.584h208.002v136H744.646z"/><path fill="#3397da" stroke="#3397da" d="M745.646 706.584h208.002"/><path fill="none" stroke="#3397DA" stroke-width="3" d="M744.646 665.584h208.002v136H744.646z"/><text x="754.646" y="683.584" style="font:700 16px 'Lucida Console',monospace" fill="#000000">Seller</text><text x="754.646" y="699.584" style="font:300 14px 'Lucida Console',monospace" fill="#999">＜＜vtd-core.Party＞＞</text><text x="754.646" y="723.584" style="font:300 14px 'Lucida Console',monospace" fill="#666">id:</text><text x="783.932" y="723.584" style="font:300 14px 'Lucida Console',monospace" fill="#C9A30B">URI</text><text x="754.646" y="737.584" style="font:300 14px 'Lucida Console',monospace" fill="#666">street:</text><text x="817.647" y="737.584" style="font:300 14px 'Lucida Console',monospace" fill="#02b57b">Text</text><text x="754.646" y="751.584" style="font:300 14px 'Lucida Console',monospace" fill="#666">city:</text><text x="800.79" y="751.584" style="font:300 14px 'Lucida Console',monospace" fill="#02b57b">Text</text><text x="754.646" y="765.584" style="font:300 14px 'Lucida Console',monospace" fill="#666">state:</text><text x="809.219" y="765.584" style="font:300 14px 'Lucida Console',monospace" fill="#02b57b">Text</text><text x="754.646" y="779.584" style="font:300 14px 'Lucida Console',monospace" fill="#666">zip:</text><text x="792.361" y="779.584" style="font:300 14px 'Lucida Console',monospace" fill="#02b57b">Numeric</text><text x="754.646" y="793.584" style="font:300 14px 'Lucida Console',monospace" fill="#666">country:</text><text x="826.076" y="793.584" style="font:300 14px 'Lucida Console',monospace" fill="#02b57b">Text</text></svg>