<svg xmlns="http://www.w3.org/2000/svg" viewBox="8.571 102.267 746.858 385.825"><rect width="1000%" height="1000%" x="-500%" y="-500%" fill="#EEEEEE"/><path fill="#FFFFFF" stroke="#FF3986" stroke-width="3" d="M28.571 148.553h341.005v136H28.571z"/><path fill="#ff3986" stroke="#ff3986" d="M29.571 189.553h341.005"/><path fill="none" stroke="#FF3986" stroke-width="3" d="M28.571 148.553h341.005v136H28.571z"/><text x="38.571" y="166.553" style="font:700 16px 'Lucida Console',monospace" fill="#000000">BillOfLading</text><text x="38.571" y="182.553" style="font:300 14px 'Lucida Console',monospace" fill="#999">＜＜vtd-core.VerifiableCredential＞＞</text><text x="38.571" y="206.553" style="font:300 14px 'Lucida Console',monospace" fill="#666">issuer:</text><text x="101.572" y="206.553" style="font:300 14px 'Lucida Console',monospace" fill="#3397DA">Party</text><text x="38.571" y="220.553" style="font:300 14px 'Lucida Console',monospace" fill="#666">issuanceDate:</text><text x="152.145" y="220.553" style="font:300 14px 'Lucida Console',monospace" fill="#02b57b">DateTime</text><text x="38.571" y="234.553" style="font:300 14px 'Lucida Console',monospace" fill="#666">credentialSubject:</text><text x="194.288" y="234.553" style="font:300 14px 'Lucida Console',monospace" fill="#2ECB70">CredentialSubject</text><text x="38.571" y="248.553" style="font:300 14px 'Lucida Console',monospace" fill="#000000">id:</text><text x="67.858" y="248.553" style="font:300 14px 'Lucida Console',monospace" fill="#C9A30B">URI</text><text x="38.571" y="262.553" style="font:300 14px 'Lucida Console',monospace" fill="#000000">shipper:</text><text x="110.001" y="262.553" style="font:300 14px 'Lucida Console',monospace" fill="#547000">vtd-core.Party</text><text x="38.571" y="276.553" style="font:300 14px 'Lucida Console',monospace" fill="#000000">consignee:</text><text x="126.859" y="276.553" style="font:300 14px 'Lucida Console',monospace" fill="#547000">vtd-core.Party</text><path fill="#FFFFFF" stroke="#3397DA" stroke-width="3" d="M507.428 122.267H715.43v80H507.428z"/><path fill="#3397da" stroke="#3397da" d="M508.428 163.267H716.43"/><path fill="none" stroke="#3397DA" stroke-width="3" d="M507.428 122.267H715.43v80H507.428z"/><text x="517.428" y="140.267" style="font:700 16px 'Lucida Console',monospace" fill="#000000">Party</text><text x="517.428" y="156.267" style="font:300 14px 'Lucida Console',monospace" fill="#999">＜＜vtd-core.Party＞＞</text><text x="517.428" y="180.267" style="font:300 14px 'Lucida Console',monospace" fill="#666">id:</text><text x="546.714" y="180.267" style="font:300 14px 'Lucida Console',monospace" fill="#C9A30B">URI</text><text x="517.428" y="194.267" style="font:300 14px 'Lucida Console',monospace" fill="#666">address:</text><text x="588.857" y="194.267" style="font:300 14px 'Lucida Console',monospace" fill="#02b57b">Address</text><path fill="#FFFFFF" stroke="#2ECB70" stroke-width="3" d="M156.855 382.093h309.146v66H156.855z"/><path fill="#2ecb70" stroke="#2ecb70" d="M157.855 423.093h309.147"/><path fill="none" stroke="#2ECB70" stroke-width="3" d="M156.855 382.093h309.146v66H156.855z"/><text x="166.855" y="400.093" style="font:700 16px 'Lucida Console',monospace" fill="#000000">CredentialSubject</text><text x="166.855" y="416.093" style="font:300 14px 'Lucida Console',monospace" fill="#999">＜＜vtd-core.CredentialSubject＞＞</text><text x="166.855" y="440.093" style="font:300 14px 'Lucida Console',monospace" fill="#000000">blNumber:</text><text x="246.714" y="440.093" style="font:300 14px 'Lucida Console',monospace" fill="#02b57b">Text</text></svg>