<svg xmlns="http://www.w3.org/2000/svg" viewBox="130 -74 1083.645 1213.866"><rect width="1000%" height="1000%" x="-500%" y="-500%" fill="#EEEEEE"/><path fill="none" stroke="#EEEEEE" stroke-width="8" d="M418.25.01l-.01-.01v388.562h19.256"/><defs><linearGradient id="a" x1="0%" x2="50%" y1="0%" y2="50%"><stop offset="0%" stop-color="#2ECB70"/><stop offset="100%" stop-color="#2ECB70"/></linearGradient></defs><path fill="none" stroke="url(#a)" stroke-width="3" d="M418.25.01l-.01-.01v388.562h19.256"/><path fill="none" stroke="#EEEEEE" stroke-width="8" d="M406.648 363.858l-.01-.01v451.418h139.3"/><defs><linearGradient id="b" x1="0%" x2="50%" y1="0%" y2="50%"><stop offset="0%" stop-color="#2ECB70"/><stop offset="100%" stop-color="#3397DA"/></linearGradient></defs><path fill="none" stroke="url(#b)" stroke-width="3" d="M406.648 363.858l-.01-.01v451.418h139.3"/><path fill="none" stroke="#EEEEEE" stroke-width="8" d="M283.218 265l-.01-.01v566.876h-29.207"/><defs><linearGradient id="c" x1="0%" x2="50%" y1="0%" y2="50%"><stop offset="0%" stop-color="#2ECB70"/><stop offset="100%" stop-color="#3397DA"/></linearGradient></defs><path fill="none" stroke="url(#c)" stroke-width="3" d="M283.218 265l-.01-.01v566.876h-29.207"/><path fill="none" stroke="#EEEEEE" stroke-width="8" d="M344.933 314.43l-.01-.01v717.446h9.078"/><defs><linearGradient id="d" x1="0%" x2="50%" y1="0%" y2="50%"><stop offset="0%" stop-color="#2ECB70"/><stop offset="100%" stop-color="#3397DA"/></linearGradient></defs><path fill="none" stroke="url(#d)" stroke-width="3" d="M344.933 314.43l-.01-.01v717.446h9.078"/><path fill="none" stroke="#EEEEEE" stroke-width="8" d="M468.364 413.286l-.01-.01v618.59H704"/><defs><linearGradient id="e" x1="0%" x2="50%" y1="0%" y2="50%"><stop offset="0%" stop-color="#2ECB70"/><stop offset="100%" stop-color="#3397DA"/></linearGradient></defs><path fill="none" stroke="url(#e)" stroke-width="3" d="M468.364 413.286l-.01-.01v618.59H704"/><path fill="none" stroke="#EEEEEE" stroke-width="8" d="M530.079 363.858l-.01-.01V797.45h318.578"/><defs><linearGradient id="f" x1="0%" x2="50%" y1="0%" y2="50%"><stop offset="0%" stop-color="#2ECB70"/><stop offset="100%" stop-color="#3397DA"/></linearGradient></defs><path fill="none" stroke="url(#f)" stroke-width="3" d="M530.079 363.858l-.01-.01V797.45h318.578"/><path fill="none" stroke="#EEEEEE" stroke-width="8" d="M591.794 314.43l-.01-.01h409.144v-7.454"/><defs><linearGradient id="g" x1="0%" x2="50%" y1="0%" y2="50%"><stop offset="0%" stop-color="#2ECB70"/><stop offset="100%" stop-color="#2ECB70"/></linearGradient></defs><path fill="none" stroke="url(#g)" stroke-width="3" d="M591.794 314.43l-.01-.01h409.144v-7.454"/><path fill="none" stroke="url(#g)" stroke-width="1.5" d="M807.722 294.43l-2.01-.01v8h2M811.722 294.43l1.99-.01v8h-2"/><path fill="none" stroke="#EEEEEE" stroke-width="8" d="M1000.938 306.976l-.01-.01v189.9h61.502"/><defs><linearGradient id="h" x1="0%" x2="50%" y1="0%" y2="50%"><stop offset="0%" stop-color="#2ECB70"/><stop offset="100%" stop-color="#2ECB70"/></linearGradient></defs><path fill="none" stroke="url(#h)" stroke-width="3" d="M1000.938 306.976l-.01-.01v189.9h61.502"/><path fill="#FFFFFF" stroke="#2ECB70" stroke-width="3" d="M251.024-54h334.433V54H251.024z"/><path fill="#2ecb70" stroke="#2ecb70" d="M252.024-13h334.433"/><path fill="none" stroke="#2ECB70" stroke-width="3" d="M251.024-54h334.433V54H251.024z"/><text x="261.024" y="-36" style="font:700 16px 'Lucida Console',monospace" fill="#000000">CommercialInvoice</text><text x="261.024" y="-20" style="font:300 14px 'Lucida Console',monospace" fill="#999">＜＜vtd-core.VerifiableCredential＞＞</text><text x="261.024" y="4" style="font:300 14px 'Lucida Console',monospace" fill="#666">issuer:</text><text x="324.025" y="4" style="font:300 14px 'Lucida Console',monospace" fill="#02b57b">Party</text><text x="261.024" y="18" style="font:300 14px 'Lucida Console',monospace" fill="#666">issuanceDate:</text><text x="374.598" y="18" style="font:300 14px 'Lucida Console',monospace" fill="#02b57b">DateTime</text><text x="261.024" y="32" style="font:300 14px 'Lucida Console',monospace" fill="#666">id:</text><text x="290.311" y="32" style="font:300 14px 'Lucida Console',monospace" fill="#02b57b">URI</text><text x="261.024" y="46" style="font:300 14px 'Lucida Console',monospace" fill="#000000">credentialSubject:</text><text x="416.741" y="46" style="font:300 14px 'Lucida Console',monospace" fill="#2ECB70">Invoice</text><path fill="#FFFFFF" stroke="#2ECB70" stroke-width="3" d="M221.493 215.562h432.006v346H221.493z"/><path fill="#2ecb70" stroke="#2ecb70" d="M222.493 256.562H654.5"/><path fill="none" stroke="#2ECB70" stroke-width="3" d="M221.493 215.562h432.006v346H221.493z"/><text x="231.493" y="233.562" style="font:700 16px 'Lucida Console',monospace" fill="#000000">Invoice</text><text x="231.493" y="249.562" style="font:300 14px 'Lucida Console',monospace" fill="#999">＜＜vtd-core.CredentialSubject＞＞</text><text x="231.493" y="273.562" style="font:300 14px 'Lucida Console',monospace" fill="#000000">purchaseOrderNumber:</text><text x="404.067" y="273.562" style="font:300 14px 'Lucida Console',monospace" fill="#02b57b">Text</text><text x="231.493" y="287.562" style="font:300 14px 'Lucida Console',monospace" fill="#000000">contractNumber:</text><text x="361.924" y="287.562" style="font:300 14px 'Lucida Console',monospace" fill="#02b57b">Text</text><text x="231.493" y="301.562" style="font:300 14px 'Lucida Console',monospace" fill="#000000">invoiceNumber:</text><text x="353.495" y="301.562" style="font:300 14px 'Lucida Console',monospace" fill="#02b57b">Text</text><text x="231.493" y="315.562" style="font:300 14px 'Lucida Console',monospace" fill="#000000">issueDate:</text><text x="319.78" y="315.562" style="font:300 14px 'Lucida Console',monospace" fill="#02b57b">Date</text><text x="231.493" y="329.562" style="font:300 14px 'Lucida Console',monospace" fill="#000000">invoiceDate:</text><text x="336.638" y="329.562" style="font:300 14px 'Lucida Console',monospace" fill="#02b57b">Date</text><text x="231.493" y="343.562" style="font:300 14px 'Lucida Console',monospace" fill="#000000">paymentDueDate:</text><text x="361.924" y="343.562" style="font:300 14px 'Lucida Console',monospace" fill="#02b57b">Date</text><text x="231.493" y="357.562" style="font:300 14px 'Lucida Console',monospace" fill="#000000">buyer:</text><text x="286.065" y="357.562" style="font:300 14px 'Lucida Console',monospace" fill="#3397DA">Buyer</text><text x="231.493" y="371.562" style="font:300 14px 'Lucida Console',monospace" fill="#000000">invoicee:</text><text x="311.351" y="371.562" style="font:300 14px 'Lucida Console',monospace" fill="#3397DA">Invoicee</text><text x="231.493" y="385.562" style="font:300 14px 'Lucida Console',monospace" fill="#000000">sellersBank:</text><text x="336.638" y="385.562" style="font:300 14px 'Lucida Console',monospace" fill="#3397DA">SellersBank</text><text x="231.493" y="399.562" style="font:300 14px 'Lucida Console',monospace" fill="#000000">documentaryCreditApplicant:</text><text x="463.068" y="399.562" style="font:300 14px 'Lucida Console',monospace" fill="#3397DA">CreditApplicant</text><text x="231.493" y="413.562" style="font:300 14px 'Lucida Console',monospace" fill="#000000">seller:</text><text x="294.494" y="413.562" style="font:300 14px 'Lucida Console',monospace" fill="#3397DA">Seller</text><text x="231.493" y="427.562" style="font:300 14px 'Lucida Console',monospace" fill="#000000">sellerBankAccountNumber:</text><text x="437.782" y="427.562" style="font:300 14px 'Lucida Console',monospace" fill="#02b57b">Text</text><text x="231.493" y="441.562" style="font:300 14px 'Lucida Console',monospace" fill="#000000">originalLoadingLocation:</text><text x="437.782" y="441.562" style="font:300 14px 'Lucida Console',monospace" fill="#547000">vtd-core.Location</text><text x="231.493" y="455.562" style="font:300 14px 'Lucida Console',monospace" fill="#000000">originCountry:</text><text x="353.495" y="455.562" style="font:300 14px 'Lucida Console',monospace" fill="#547000">vtd-core.Location</text><text x="231.493" y="469.562" style="font:300 14px 'Lucida Console',monospace" fill="#000000">baseportUnloadingLocation:</text><text x="454.64" y="469.562" style="font:300 14px 'Lucida Console',monospace" fill="#02b57b">Text</text><text x="231.493" y="483.562" style="font:300 14px 'Lucida Console',monospace" fill="#000000">tradeTermsConditionsDescription:</text><text x="505.212" y="483.562" style="font:300 14px 'Lucida Console',monospace" fill="#02b57b">Text</text><text x="231.493" y="497.562" style="font:300 14px 'Lucida Console',monospace" fill="#000000">tradeTermsConditionsCode:</text><text x="446.211" y="497.562" style="font:300 14px 'Lucida Console',monospace" fill="#02b57b">Text</text><text x="231.493" y="511.562" style="font:300 14px 'Lucida Console',monospace" fill="#000000">paymentTerms:</text><text x="345.066" y="511.562" style="font:300 14px 'Lucida Console',monospace" fill="#02b57b">Text</text><text x="231.493" y="525.562" style="font:300 14px 'Lucida Console',monospace" fill="#000000">paymentMethod:</text><text x="353.495" y="525.562" style="font:300 14px 'Lucida Console',monospace" fill="#02b57b">Text</text><text x="231.493" y="539.562" style="font:300 14px 'Lucida Console',monospace" fill="#000000">itemsShipped:</text><text x="345.066" y="539.562" style="font:300 14px 'Lucida Console',monospace" fill="#2ECB70">TradeLineItem[]</text><text x="231.493" y="553.562" style="font:300 14px 'Lucida Console',monospace" fill="#000000">totalAmount:</text><text x="336.638" y="553.562" style="font:300 14px 'Lucida Console',monospace" fill="#547000">vtd-core.MonetaryAmount</text><path fill="#FFFFFF" stroke="#2ECB70" stroke-width="3" d="M828.212 232.966h345.434v148H828.212z"/><path fill="#2ecb70" stroke="#2ecb70" d="M829.212 257.966h345.433"/><path fill="none" stroke="#2ECB70" stroke-width="3" d="M828.212 232.966h345.434v148H828.212z"/><text x="838.212" y="250.966" style="font:700 16px 'Lucida Console',monospace" fill="#000000">TradeLineItem</text><text x="838.212" y="274.966" style="font:300 14px 'Lucida Console',monospace" fill="#000000">product:</text><text x="909.641" y="274.966" style="font:300 14px 'Lucida Console',monospace" fill="#2ECB70">Product</text><text x="838.212" y="288.966" style="font:300 14px 'Lucida Console',monospace" fill="#000000">sku:</text><text x="875.926" y="288.966" style="font:300 14px 'Lucida Console',monospace" fill="#02b57b">Text</text><text x="838.212" y="302.966" style="font:300 14px 'Lucida Console',monospace" fill="#000000">itemCount:</text><text x="926.499" y="302.966" style="font:300 14px 'Lucida Console',monospace" fill="#02b57b">Numeric</text><text x="838.212" y="316.966" style="font:300 14px 'Lucida Console',monospace" fill="#000000">netWeight:</text><text x="926.499" y="316.966" style="font:300 14px 'Lucida Console',monospace" fill="#547000">vtd-core.Quantity</text><text x="838.212" y="330.966" style="font:300 14px 'Lucida Console',monospace" fill="#000000">grossWeight:</text><text x="943.356" y="330.966" style="font:300 14px 'Lucida Console',monospace" fill="#547000">vtd-core.Quantity</text><text x="838.212" y="344.966" style="font:300 14px 'Lucida Console',monospace" fill="#000000">productPrice:</text><text x="951.785" y="344.966" style="font:300 14px 'Lucida Console',monospace" fill="#547000">vtd-core.MonetaryAmount</text><text x="838.212" y="358.966" style="font:300 14px 'Lucida Console',monospace" fill="#000000">commodity:</text><text x="926.499" y="358.966" style="font:300 14px 'Lucida Console',monospace" fill="#02b57b">Text</text><text x="838.212" y="372.966" style="font:300 14px 'Lucida Console',monospace" fill="#000000">amount:</text><text x="901.213" y="372.966" style="font:300 14px 'Lucida Console',monospace" fill="#547000">vtd-core.MonetaryAmount</text><path fill="#FFFFFF" stroke="#2ECB70" stroke-width="3" d="M950 463.866h224.859v66H950z"/><path fill="#2ecb70" stroke="#2ecb70" d="M951 504.866h224.86"/><path fill="none" stroke="#2ECB70" stroke-width="3" d="M950 463.866h224.859v66H950z"/><text x="960" y="481.866" style="font:700 16px 'Lucida Console',monospace" fill="#000000">Product</text><text x="960" y="497.866" style="font:300 14px 'Lucida Console',monospace" fill="#999">＜＜vtd-core.Product＞＞</text><text x="960" y="521.866" style="font:300 14px 'Lucida Console',monospace" fill="#666">id:</text><text x="989.286" y="521.866" style="font:300 14px 'Lucida Console',monospace" fill="#02b57b">URI</text><path fill="#FFFFFF" stroke="#3397DA" stroke-width="3" d="M441.937 747.266h208.002v136H441.937z"/><path fill="#3397da" stroke="#3397da" d="M442.937 788.266H650.94"/><path fill="none" stroke="#3397DA" stroke-width="3" d="M441.937 747.266h208.002v136H441.937z"/><text x="451.937" y="765.266" style="font:700 16px 'Lucida Console',monospace" fill="#000000">Buyer</text><text x="451.937" y="781.266" style="font:300 14px 'Lucida Console',monospace" fill="#999">＜＜vtd-core.Party＞＞</text><text x="451.937" y="805.266" style="font:300 14px 'Lucida Console',monospace" fill="#666">id:</text><text x="481.224" y="805.266" style="font:300 14px 'Lucida Console',monospace" fill="#C9A30B">URI</text><text x="451.937" y="819.266" style="font:300 14px 'Lucida Console',monospace" fill="#666">street:</text><text x="514.938" y="819.266" style="font:300 14px 'Lucida Console',monospace" fill="#02b57b">Text</text><text x="451.937" y="833.266" style="font:300 14px 'Lucida Console',monospace" fill="#666">city:</text><text x="498.081" y="833.266" style="font:300 14px 'Lucida Console',monospace" fill="#02b57b">Text</text><text x="451.937" y="847.266" style="font:300 14px 'Lucida Console',monospace" fill="#666">state:</text><text x="506.51" y="847.266" style="font:300 14px 'Lucida Console',monospace" fill="#02b57b">Text</text><text x="451.937" y="861.266" style="font:300 14px 'Lucida Console',monospace" fill="#666">zip:</text><text x="489.652" y="861.266" style="font:300 14px 'Lucida Console',monospace" fill="#02b57b">Numeric</text><text x="451.937" y="875.266" style="font:300 14px 'Lucida Console',monospace" fill="#666">country:</text><text x="523.367" y="875.266" style="font:300 14px 'Lucida Console',monospace" fill="#02b57b">Text</text><path fill="#FFFFFF" stroke="#3397DA" stroke-width="3" d="M150 763.866h208.002v136H150z"/><path fill="#3397da" stroke="#3397da" d="M151 804.866h208.002"/><path fill="none" stroke="#3397DA" stroke-width="3" d="M150 763.866h208.002v136H150z"/><text x="160" y="781.866" style="font:700 16px 'Lucida Console',monospace" fill="#000000">Invoicee</text><text x="160" y="797.866" style="font:300 14px 'Lucida Console',monospace" fill="#999">＜＜vtd-core.Party＞＞</text><text x="160" y="821.866" style="font:300 14px 'Lucida Console',monospace" fill="#666">id:</text><text x="189.286" y="821.866" style="font:300 14px 'Lucida Console',monospace" fill="#C9A30B">URI</text><text x="160" y="835.866" style="font:300 14px 'Lucida Console',monospace" fill="#666">street:</text><text x="223.001" y="835.866" style="font:300 14px 'Lucida Console',monospace" fill="#02b57b">Text</text><text x="160" y="849.866" style="font:300 14px 'Lucida Console',monospace" fill="#666">city:</text><text x="206.144" y="849.866" style="font:300 14px 'Lucida Console',monospace" fill="#02b57b">Text</text><text x="160" y="863.866" style="font:300 14px 'Lucida Console',monospace" fill="#666">state:</text><text x="214.572" y="863.866" style="font:300 14px 'Lucida Console',monospace" fill="#02b57b">Text</text><text x="160" y="877.866" style="font:300 14px 'Lucida Console',monospace" fill="#666">zip:</text><text x="197.715" y="877.866" style="font:300 14px 'Lucida Console',monospace" fill="#02b57b">Numeric</text><text x="160" y="891.866" style="font:300 14px 'Lucida Console',monospace" fill="#666">country:</text><text x="231.43" y="891.866" style="font:300 14px 'Lucida Console',monospace" fill="#02b57b">Text</text><path fill="#FFFFFF" stroke="#3397DA" stroke-width="3" d="M250 963.866h208.002v136H250z"/><path fill="#3397da" stroke="#3397da" d="M251 1004.866h208.002"/><path fill="none" stroke="#3397DA" stroke-width="3" d="M250 963.866h208.002v136H250z"/><text x="260" y="981.866" style="font:700 16px 'Lucida Console',monospace" fill="#000000">SellersBank</text><text x="260" y="997.866" style="font:300 14px 'Lucida Console',monospace" fill="#999">＜＜vtd-core.Party＞＞</text><text x="260" y="1021.866" style="font:300 14px 'Lucida Console',monospace" fill="#666">id:</text><text x="289.286" y="1021.866" style="font:300 14px 'Lucida Console',monospace" fill="#C9A30B">URI</text><text x="260" y="1035.866" style="font:300 14px 'Lucida Console',monospace" fill="#666">street:</text><text x="323.001" y="1035.866" style="font:300 14px 'Lucida Console',monospace" fill="#02b57b">Text</text><text x="260" y="1049.866" style="font:300 14px 'Lucida Console',monospace" fill="#666">city:</text><text x="306.144" y="1049.866" style="font:300 14px 'Lucida Console',monospace" fill="#02b57b">Text</text><text x="260" y="1063.866" style="font:300 14px 'Lucida Console',monospace" fill="#666">state:</text><text x="314.572" y="1063.866" style="font:300 14px 'Lucida Console',monospace" fill="#02b57b">Text</text><text x="260" y="1077.866" style="font:300 14px 'Lucida Console',monospace" fill="#666">zip:</text><text x="297.715" y="1077.866" style="font:300 14px 'Lucida Console',monospace" fill="#02b57b">Numeric</text><text x="260" y="1091.866" style="font:300 14px 'Lucida Console',monospace" fill="#666">country:</text><text x="331.43" y="1091.866" style="font:300 14px 'Lucida Console',monospace" fill="#02b57b">Text</text><path fill="#FFFFFF" stroke="#3397DA" stroke-width="3" d="M600 963.866h208.002v136H600z"/><path fill="#3397da" stroke="#3397da" d="M601 1004.866h208.002"/><path fill="none" stroke="#3397DA" stroke-width="3" d="M600 963.866h208.002v136H600z"/><text x="610" y="981.866" style="font:700 16px 'Lucida Console',monospace" fill="#000000">CreditApplicant</text><text x="610" y="997.866" style="font:300 14px 'Lucida Console',monospace" fill="#999">＜＜vtd-core.Party＞＞</text><text x="610" y="1021.866" style="font:300 14px 'Lucida Console',monospace" fill="#666">id:</text><text x="639.286" y="1021.866" style="font:300 14px 'Lucida Console',monospace" fill="#C9A30B">URI</text><text x="610" y="1035.866" style="font:300 14px 'Lucida Console',monospace" fill="#666">street:</text><text x="673.001" y="1035.866" style="font:300 14px 'Lucida Console',monospace" fill="#02b57b">Text</text><text x="610" y="1049.866" style="font:300 14px 'Lucida Console',monospace" fill="#666">city:</text><text x="656.144" y="1049.866" style="font:300 14px 'Lucida Console',monospace" fill="#02b57b">Text</text><text x="610" y="1063.866" style="font:300 14px 'Lucida Console',monospace" fill="#666">state:</text><text x="664.572" y="1063.866" style="font:300 14px 'Lucida Console',monospace" fill="#02b57b">Text</text><text x="610" y="1077.866" style="font:300 14px 'Lucida Console',monospace" fill="#666">zip:</text><text x="647.715" y="1077.866" style="font:300 14px 'Lucida Console',monospace" fill="#02b57b">Numeric</text><text x="610" y="1091.866" style="font:300 14px 'Lucida Console',monospace" fill="#666">country:</text><text x="681.43" y="1091.866" style="font:300 14px 'Lucida Console',monospace" fill="#02b57b">Text</text><path fill="#FFFFFF" stroke="#3397DA" stroke-width="3" d="M744.646 729.45h208.002v136H744.646z"/><path fill="#3397da" stroke="#3397da" d="M745.646 770.45h208.002"/><path fill="none" stroke="#3397DA" stroke-width="3" d="M744.646 729.45h208.002v136H744.646z"/><text x="754.646" y="747.45" style="font:700 16px 'Lucida Console',monospace" fill="#000000">Seller</text><text x="754.646" y="763.45" style="font:300 14px 'Lucida Console',monospace" fill="#999">＜＜vtd-core.Party＞＞</text><text x="754.646" y="787.45" style="font:300 14px 'Lucida Console',monospace" fill="#666">id:</text><text x="783.932" y="787.45" style="font:300 14px 'Lucida Console',monospace" fill="#C9A30B">URI</text><text x="754.646" y="801.45" style="font:300 14px 'Lucida Console',monospace" fill="#666">street:</text><text x="817.647" y="801.45" style="font:300 14px 'Lucida Console',monospace" fill="#02b57b">Text</text><text x="754.646" y="815.45" style="font:300 14px 'Lucida Console',monospace" fill="#666">city:</text><text x="800.79" y="815.45" style="font:300 14px 'Lucida Console',monospace" fill="#02b57b">Text</text><text x="754.646" y="829.45" style="font:300 14px 'Lucida Console',monospace" fill="#666">state:</text><text x="809.219" y="829.45" style="font:300 14px 'Lucida Console',monospace" fill="#02b57b">Text</text><text x="754.646" y="843.45" style="font:300 14px 'Lucida Console',monospace" fill="#666">zip:</text><text x="792.361" y="843.45" style="font:300 14px 'Lucida Console',monospace" fill="#02b57b">Numeric</text><text x="754.646" y="857.45" style="font:300 14px 'Lucida Console',monospace" fill="#666">country:</text><text x="826.076" y="857.45" style="font:300 14px 'Lucida Console',monospace" fill="#02b57b">Text</text></svg>