<svg xmlns="http://www.w3.org/2000/svg" viewBox="-222.432 -23 726.812 405"><rect width="1000%" height="1000%" x="-500%" y="-500%" fill="#EEEEEE"/><path fill="none" stroke="#EEEEEE" stroke-width="8" d="M.01 51.01L0 51h355.501v231"/><defs><linearGradient id="a" x1="0%" x2="50%" y1="0%" y2="50%"><stop offset="0%" stop-color="#2ECB70"/><stop offset="100%" stop-color="#2ECB70"/></linearGradient></defs><path fill="none" stroke="url(#a)" stroke-width="3" d="M.01 51.01L0 51h355.501v231"/><path fill="#FFFFFF" stroke="#2ECB70" stroke-width="3" d="M-202.432-3h404.863v108h-404.863z"/><path fill="#2ecb70" stroke="#2ecb70" d="M-201.432 38h404.864"/><path fill="none" stroke="#2ECB70" stroke-width="3" d="M-202.432-3h404.863v108h-404.863z"/><text x="-192.432" y="15" style="font:700 16px 'Lucida Console',monospace" fill="#000000">CommercialInvoice</text><text x="-192.432" y="31" style="font:500 14px 'Lucida Console',monospace" fill="#999">＜＜vtd-core.VerifiableCredential＞＞</text><text x="-192.432" y="55" style="font:500 14px 'Lucida Console',monospace" fill="#666">issuer:</text><text x="-129.431" y="55" style="font:500 14px 'Lucida Console',monospace" fill="#02b57b">Party</text><text x="-192.432" y="69" style="font:500 14px 'Lucida Console',monospace" fill="#666">issuanceDate:</text><text x="-78.858" y="69" style="font:500 14px 'Lucida Console',monospace" fill="#02b57b">DateTime</text><text x="-192.432" y="83" style="font:500 14px 'Lucida Console',monospace" fill="#666">credentialSubject:</text><text x="-36.715" y="83" style="font:500 14px 'Lucida Console',monospace" fill="#2ECB70">CredentialSubject</text><text x="-192.432" y="97" style="font:500 14px 'Lucida Console',monospace" fill="#000000">vtd-core.CredentialSubject:</text><text x="39.144" y="97" style="font:500 14px 'Lucida Console',monospace" fill="#2ECB70">CredentialSubject</text><path fill="#FFFFFF" stroke="#2ECB70" stroke-width="3" d="M246.623 222h217.758v120H246.623z"/><path fill="#2ecb70" stroke="#2ecb70" d="M247.623 247H465.38"/><path fill="none" stroke="#2ECB70" stroke-width="3" d="M246.623 222h217.758v120H246.623z"/><text x="256.623" y="240" style="font:700 16px 'Lucida Console',monospace" fill="#000000">CredentialSubject</text><text x="256.623" y="264" style="font:500 14px 'Lucida Console',monospace" fill="#000000">invoiceNumber:</text><text x="378.625" y="264" style="font:500 14px 'Lucida Console',monospace" fill="#02b57b">Text</text><text x="256.623" y="278" style="font:500 14px 'Lucida Console',monospace" fill="#000000">contractNumber:</text><text x="387.053" y="278" style="font:500 14px 'Lucida Console',monospace" fill="#02b57b">Text</text><text x="256.623" y="292" style="font:500 14px 'Lucida Console',monospace" fill="#000000">amount:</text><text x="319.624" y="292" style="font:500 14px 'Lucida Console',monospace" fill="#02b57b">Decimal</text><text x="256.623" y="306" style="font:500 14px 'Lucida Console',monospace" fill="#000000">currency:</text><text x="336.481" y="306" style="font:500 14px 'Lucida Console',monospace" fill="#02b57b">Text</text><text x="256.623" y="320" style="font:500 14px 'Lucida Console',monospace" fill="#000000">buyer:</text><text x="311.195" y="320" style="font:500 14px 'Lucida Console',monospace" fill="#547000">vtd-core.Party</text><text x="256.623" y="334" style="font:500 14px 'Lucida Console',monospace" fill="#000000">seller:</text><text x="319.624" y="334" style="font:500 14px 'Lucida Console',monospace" fill="#547000">vtd-core.Party</text></svg>