<svg xmlns="http://www.w3.org/2000/svg" viewBox="51.437 -56.438 1139.357 1150.862"><rect width="1000%" height="1000%" x="-500%" y="-500%" fill="#EEEEEE"/><path fill="none" stroke="#EEEEEE" stroke-width="8" d="M425.394 17.572l-.01-.01v271.434h12.112"/><defs><linearGradient id="a" x1="0%" x2="50%" y1="0%" y2="50%"><stop offset="0%" stop-color="#2ECB70"/><stop offset="100%" stop-color="#2ECB70"/></linearGradient></defs><path fill="none" stroke="url(#a)" stroke-width="3" d="M425.394 17.572l-.01-.01v271.434h12.112"/><path fill="none" stroke="#EEEEEE" stroke-width="8" d="M400.312 265.292l-.01-.01v495.852H604"/><defs><linearGradient id="b" x1="0%" x2="50%" y1="0%" y2="50%"><stop offset="0%" stop-color="#2ECB70"/><stop offset="100%" stop-color="#3397DA"/></linearGradient></defs><path fill="none" stroke="url(#b)" stroke-width="3" d="M400.312 265.292l-.01-.01v495.852H604"/><path fill="none" stroke="#EEEEEE" stroke-width="8" d="M251.534 170.435l-.01-.01V678.04h-76.086"/><defs><linearGradient id="c" x1="0%" x2="50%" y1="0%" y2="50%"><stop offset="0%" stop-color="#2ECB70"/><stop offset="100%" stop-color="#3397DA"/></linearGradient></defs><path fill="none" stroke="url(#c)" stroke-width="3" d="M251.534 170.435l-.01-.01V678.04h-76.086"/><path fill="none" stroke="#EEEEEE" stroke-width="8" d="M325.923 217.863l-.01-.01v761.57h-30.47"/><defs><linearGradient id="d" x1="0%" x2="50%" y1="0%" y2="50%"><stop offset="0%" stop-color="#2ECB70"/><stop offset="100%" stop-color="#3397DA"/></linearGradient></defs><path fill="none" stroke="url(#d)" stroke-width="3" d="M325.923 217.863l-.01-.01v761.57h-30.47"/><path fill="none" stroke="#EEEEEE" stroke-width="8" d="M474.7 312.72l-.01-.01V968h229.311"/><defs><linearGradient id="e" x1="0%" x2="50%" y1="0%" y2="50%"><stop offset="0%" stop-color="#2ECB70"/><stop offset="100%" stop-color="#3397DA"/></linearGradient></defs><path fill="none" stroke="url(#e)" stroke-width="3" d="M474.7 312.72l-.01-.01V968h229.311"/><path fill="none" stroke="#EEEEEE" stroke-width="8" d="M549.09 265.292l-.01-.01v299.8h219.594"/><defs><linearGradient id="f" x1="0%" x2="50%" y1="0%" y2="50%"><stop offset="0%" stop-color="#2ECB70"/><stop offset="100%" stop-color="#3397DA"/></linearGradient></defs><path fill="none" stroke="url(#f)" stroke-width="3" d="M549.09 265.292l-.01-.01v299.8h219.594"/><path fill="none" stroke="#EEEEEE" stroke-width="8" d="M623.478 217.863l-.01-.01h354.61V243.1"/><defs><linearGradient id="g" x1="0%" x2="50%" y1="0%" y2="50%"><stop offset="0%" stop-color="#2ECB70"/><stop offset="100%" stop-color="#2ECB70"/></linearGradient></defs><path fill="none" stroke="url(#g)" stroke-width="3" d="M623.478 217.863l-.01-.01h354.61V243.1"/><path fill="none" stroke="url(#g)" stroke-width="1.5" d="M784.87 197.863l-2.01-.01v8h2M788.87 197.863l1.99-.01v8h-2"/><path fill="none" stroke="#EEEEEE" stroke-width="8" d="M978.087 243.11l-.01-.01V433h84.353"/><defs><linearGradient id="h" x1="0%" x2="50%" y1="0%" y2="50%"><stop offset="0%" stop-color="#2ECB70"/><stop offset="100%" stop-color="#2ECB70"/></linearGradient></defs><path fill="none" stroke="url(#h)" stroke-width="3" d="M978.087 243.11l-.01-.01V433h84.353"/><path fill="#FFFFFF" stroke="#2ECB70" stroke-width="3" d="M258.167-36.438H592.6v108H258.167z"/><path fill="#2ecb70" stroke="#2ecb70" d="M259.167 4.562H593.6"/><path fill="none" stroke="#2ECB70" stroke-width="3" d="M258.167-36.438H592.6v108H258.167z"/><text x="268.167" y="-18.438" style="font:700 16px 'Lucida Console',monospace" fill="#000000">CommercialInvoice</text><text x="268.167" y="-2.438" style="font:300 14px 'Lucida Console',monospace" fill="#999">＜＜vtd-core.VerifiableCredential＞＞</text><text x="268.167" y="21.562" style="font:300 14px 'Lucida Console',monospace" fill="#666">issuer:</text><text x="331.168" y="21.562" style="font:300 14px 'Lucida Console',monospace" fill="#02b57b">Party</text><text x="268.167" y="35.562" style="font:300 14px 'Lucida Console',monospace" fill="#666">id:</text><text x="297.453" y="35.562" style="font:300 14px 'Lucida Console',monospace" fill="#02b57b">URI</text><text x="268.167" y="49.562" style="font:300 14px 'Lucida Console',monospace" fill="#000000">credentialSubject:</text><text x="423.884" y="49.562" style="font:300 14px 'Lucida Console',monospace" fill="#2ECB70">Invoice</text><text x="268.167" y="63.562" style="font:300 14px 'Lucida Console',monospace" fill="#000000">validFrom:</text><text x="356.454" y="63.562" style="font:300 14px 'Lucida Console',monospace" fill="#02b57b">DateTime</text><path fill="#FFFFFF" stroke="#2ECB70" stroke-width="3" d="M177.135 122.996h520.722v332H177.135z"/><path fill="#2ecb70" stroke="#2ecb70" d="M178.135 163.996h520.722"/><path fill="none" stroke="#2ECB70" stroke-width="3" d="M177.135 122.996h520.722v332H177.135z"/><text x="187.135" y="140.996" style="font:700 16px 'Lucida Console',monospace" fill="#000000">Invoice</text><text x="187.135" y="156.996" style="font:300 14px 'Lucida Console',monospace" fill="#999">＜＜vtd-core.CredentialSubject＞＞</text><text x="187.135" y="180.996" style="font:300 14px 'Lucida Console',monospace" fill="#000000">purchaseOrderNumber:</text><text x="359.709" y="180.996" style="font:300 14px 'Lucida Console',monospace" fill="#02b57b">Text</text><text x="187.135" y="194.996" style="font:300 14px 'Lucida Console',monospace" fill="#000000">contractNumber:</text><text x="317.566" y="194.996" style="font:300 14px 'Lucida Console',monospace" fill="#02b57b">Text</text><text x="187.135" y="208.996" style="font:300 14px 'Lucida Console',monospace" fill="#000000">invoiceNumber:</text><text x="309.137" y="208.996" style="font:300 14px 'Lucida Console',monospace" fill="#02b57b">Text</text><text x="187.135" y="222.996" style="font:300 14px 'Lucida Console',monospace" fill="#000000">issueDate:</text><text x="275.422" y="222.996" style="font:300 14px 'Lucida Console',monospace" fill="#02b57b">Date</text><text x="187.135" y="236.996" style="font:300 14px 'Lucida Console',monospace" fill="#000000">invoiceDate:</text><text x="292.28" y="236.996" style="font:300 14px 'Lucida Console',monospace" fill="#02b57b">Date</text><text x="187.135" y="250.996" style="font:300 14px 'Lucida Console',monospace" fill="#000000">paymentDueDate:</text><text x="317.566" y="250.996" style="font:300 14px 'Lucida Console',monospace" fill="#02b57b">Date</text><text x="187.135" y="264.996" style="font:300 14px 'Lucida Console',monospace" fill="#000000">buyer:</text><text x="241.707" y="264.996" style="font:300 14px 'Lucida Console',monospace" fill="#3397DA">Buyer</text><text x="187.135" y="278.996" style="font:300 14px 'Lucida Console',monospace" fill="#000000">invoicee:</text><text x="266.994" y="278.996" style="font:300 14px 'Lucida Console',monospace" fill="#3397DA">Invoicee</text><text x="187.135" y="292.996" style="font:300 14px 'Lucida Console',monospace" fill="#000000">sellersBank:</text><text x="292.28" y="292.996" style="font:300 14px 'Lucida Console',monospace" fill="#3397DA">SellersBank</text><text x="187.135" y="306.996" style="font:300 14px 'Lucida Console',monospace" fill="#000000">documentaryCreditApplicant:</text><text x="418.71" y="306.996" style="font:300 14px 'Lucida Console',monospace" fill="#3397DA">DocumentaryCreditApplicant</text><text x="187.135" y="320.996" style="font:300 14px 'Lucida Console',monospace" fill="#000000">seller:</text><text x="250.136" y="320.996" style="font:300 14px 'Lucida Console',monospace" fill="#3397DA">Seller</text><text x="187.135" y="334.996" style="font:300 14px 'Lucida Console',monospace" fill="#000000">sellerBankAccountNumber:</text><text x="393.424" y="334.996" style="font:300 14px 'Lucida Console',monospace" fill="#02b57b">Text</text><text x="187.135" y="348.996" style="font:300 14px 'Lucida Console',monospace" fill="#000000">originalLoadingLocation:</text><text x="393.424" y="348.996" style="font:300 14px 'Lucida Console',monospace" fill="#547000">vtd-core.Location</text><text x="187.135" y="362.996" style="font:300 14px 'Lucida Console',monospace" fill="#000000">originCountry:</text><text x="309.137" y="362.996" style="font:300 14px 'Lucida Console',monospace" fill="#547000">vtd-core.Location</text><text x="187.135" y="376.996" style="font:300 14px 'Lucida Console',monospace" fill="#000000">tradeTermsConditionsDescription:</text><text x="460.854" y="376.996" style="font:300 14px 'Lucida Console',monospace" fill="#02b57b">Text</text><text x="187.135" y="390.996" style="font:300 14px 'Lucida Console',monospace" fill="#000000">tradeTermsConditionsCode:</text><text x="401.853" y="390.996" style="font:300 14px 'Lucida Console',monospace" fill="#02b57b">Text</text><text x="187.135" y="404.996" style="font:300 14px 'Lucida Console',monospace" fill="#000000">paymentTerms:</text><text x="300.708" y="404.996" style="font:300 14px 'Lucida Console',monospace" fill="#02b57b">Text</text><text x="187.135" y="418.996" style="font:300 14px 'Lucida Console',monospace" fill="#000000">paymentMethod:</text><text x="309.137" y="418.996" style="font:300 14px 'Lucida Console',monospace" fill="#02b57b">Text</text><text x="187.135" y="432.996" style="font:300 14px 'Lucida Console',monospace" fill="#000000">itemsShipped:</text><text x="300.708" y="432.996" style="font:300 14px 'Lucida Console',monospace" fill="#2ECB70">TradeLineItem[]</text><text x="187.135" y="446.996" style="font:300 14px 'Lucida Console',monospace" fill="#000000">totalAmount:</text><text x="292.28" y="446.996" style="font:300 14px 'Lucida Console',monospace" fill="#547000">vtd-core.MonetaryAmount</text><path fill="#FFFFFF" stroke="#2ECB70" stroke-width="3" d="M805.36 169.099h345.434v148H805.36z"/><path fill="#2ecb70" stroke="#2ecb70" d="M806.36 194.1h345.434"/><path fill="none" stroke="#2ECB70" stroke-width="3" d="M805.36 169.099h345.434v148H805.36z"/><text x="815.36" y="187.099" style="font:700 16px 'Lucida Console',monospace" fill="#000000">TradeLineItem</text><text x="815.36" y="211.099" style="font:300 14px 'Lucida Console',monospace" fill="#000000">product:</text><text x="886.79" y="211.099" style="font:300 14px 'Lucida Console',monospace" fill="#2ECB70">Product</text><text x="815.36" y="225.099" style="font:300 14px 'Lucida Console',monospace" fill="#000000">sku:</text><text x="853.075" y="225.099" style="font:300 14px 'Lucida Console',monospace" fill="#02b57b">Text</text><text x="815.36" y="239.099" style="font:300 14px 'Lucida Console',monospace" fill="#000000">itemCount:</text><text x="903.647" y="239.099" style="font:300 14px 'Lucida Console',monospace" fill="#02b57b">Numeric</text><text x="815.36" y="253.099" style="font:300 14px 'Lucida Console',monospace" fill="#000000">netWeight:</text><text x="903.647" y="253.099" style="font:300 14px 'Lucida Console',monospace" fill="#547000">vtd-core.Quantity</text><text x="815.36" y="267.099" style="font:300 14px 'Lucida Console',monospace" fill="#000000">grossWeight:</text><text x="920.505" y="267.099" style="font:300 14px 'Lucida Console',monospace" fill="#547000">vtd-core.Quantity</text><text x="815.36" y="281.099" style="font:300 14px 'Lucida Console',monospace" fill="#000000">productPrice:</text><text x="928.934" y="281.099" style="font:300 14px 'Lucida Console',monospace" fill="#547000">vtd-core.MonetaryAmount</text><text x="815.36" y="295.099" style="font:300 14px 'Lucida Console',monospace" fill="#000000">commodity:</text><text x="903.647" y="295.099" style="font:300 14px 'Lucida Console',monospace" fill="#02b57b">Text</text><text x="815.36" y="309.099" style="font:300 14px 'Lucida Console',monospace" fill="#000000">price:</text><text x="869.933" y="309.099" style="font:300 14px 'Lucida Console',monospace" fill="#547000">vtd-core.MonetaryAmount</text><path fill="#FFFFFF" stroke="#2ECB70" stroke-width="3" d="M950 386h224.859v94H950z"/><path fill="#2ecb70" stroke="#2ecb70" d="M951 427h224.86"/><path fill="none" stroke="#2ECB70" stroke-width="3" d="M950 386h224.859v94H950z"/><text x="960" y="404" style="font:700 16px 'Lucida Console',monospace" fill="#000000">Product</text><text x="960" y="420" style="font:300 14px 'Lucida Console',monospace" fill="#999">＜＜vtd-core.Product＞＞</text><text x="960" y="444" style="font:300 14px 'Lucida Console',monospace" fill="#666">id:</text><text x="989.286" y="444" style="font:300 14px 'Lucida Console',monospace" fill="#02b57b">URI</text><text x="960" y="458" style="font:300 14px 'Lucida Console',monospace" fill="#666">name:</text><text x="1006.144" y="458" style="font:300 14px 'Lucida Console',monospace" fill="#02b57b">Text</text><text x="960" y="472" style="font:300 14px 'Lucida Console',monospace" fill="#666">description:</text><text x="1065.145" y="472" style="font:300 14px 'Lucida Console',monospace" fill="#02b57b">Text</text><path fill="#FFFFFF" stroke="#3397DA" stroke-width="3" d="M500 686.134h208.002v150H500z"/><path fill="#3397da" stroke="#3397da" d="M501 727.134h208.002"/><path fill="none" stroke="#3397DA" stroke-width="3" d="M500 686.134h208.002v150H500z"/><text x="510" y="704.134" style="font:700 16px 'Lucida Console',monospace" fill="#000000">Buyer</text><text x="510" y="720.134" style="font:300 14px 'Lucida Console',monospace" fill="#999">＜＜vtd-core.Party＞＞</text><text x="510" y="744.134" style="font:300 14px 'Lucida Console',monospace" fill="#000000">id:</text><text x="539.286" y="744.134" style="font:300 14px 'Lucida Console',monospace" fill="#C9A30B">URI</text><text x="510" y="758.134" style="font:300 14px 'Lucida Console',monospace" fill="#000000">name:</text><text x="556.144" y="758.134" style="font:300 14px 'Lucida Console',monospace" fill="#547000">Text</text><text x="510" y="772.134" style="font:300 14px 'Lucida Console',monospace" fill="#000000">street:</text><text x="573.001" y="772.134" style="font:300 14px 'Lucida Console',monospace" fill="#547000">Text</text><text x="510" y="786.134" style="font:300 14px 'Lucida Console',monospace" fill="#000000">city:</text><text x="556.144" y="786.134" style="font:300 14px 'Lucida Console',monospace" fill="#547000">Text</text><text x="510" y="800.134" style="font:300 14px 'Lucida Console',monospace" fill="#000000">state:</text><text x="564.572" y="800.134" style="font:300 14px 'Lucida Console',monospace" fill="#547000">Text</text><text x="510" y="814.134" style="font:300 14px 'Lucida Console',monospace" fill="#000000">zip:</text><text x="547.715" y="814.134" style="font:300 14px 'Lucida Console',monospace" fill="#547000">Numeric</text><text x="510" y="828.134" style="font:300 14px 'Lucida Console',monospace" fill="#000000">country:</text><text x="581.43" y="828.134" style="font:300 14px 'Lucida Console',monospace" fill="#547000">Text</text><path fill="#FFFFFF" stroke="#3397DA" stroke-width="3" d="M71.437 603.041h208.002v150H71.437z"/><path fill="#3397da" stroke="#3397da" d="M72.437 644.041h208.002"/><path fill="none" stroke="#3397DA" stroke-width="3" d="M71.437 603.041h208.002v150H71.437z"/><text x="81.437" y="621.041" style="font:700 16px 'Lucida Console',monospace" fill="#000000">Invoicee</text><text x="81.437" y="637.041" style="font:300 14px 'Lucida Console',monospace" fill="#999">＜＜vtd-core.Party＞＞</text><text x="81.437" y="661.041" style="font:300 14px 'Lucida Console',monospace" fill="#000000">id:</text><text x="110.723" y="661.041" style="font:300 14px 'Lucida Console',monospace" fill="#C9A30B">URI</text><text x="81.437" y="675.041" style="font:300 14px 'Lucida Console',monospace" fill="#000000">name:</text><text x="127.58" y="675.041" style="font:300 14px 'Lucida Console',monospace" fill="#547000">Text</text><text x="81.437" y="689.041" style="font:300 14px 'Lucida Console',monospace" fill="#000000">street:</text><text x="144.438" y="689.041" style="font:300 14px 'Lucida Console',monospace" fill="#547000">Text</text><text x="81.437" y="703.041" style="font:300 14px 'Lucida Console',monospace" fill="#000000">city:</text><text x="127.58" y="703.041" style="font:300 14px 'Lucida Console',monospace" fill="#547000">Text</text><text x="81.437" y="717.041" style="font:300 14px 'Lucida Console',monospace" fill="#000000">state:</text><text x="136.009" y="717.041" style="font:300 14px 'Lucida Console',monospace" fill="#547000">Text</text><text x="81.437" y="731.041" style="font:300 14px 'Lucida Console',monospace" fill="#000000">zip:</text><text x="119.151" y="731.041" style="font:300 14px 'Lucida Console',monospace" fill="#547000">Numeric</text><text x="81.437" y="745.041" style="font:300 14px 'Lucida Console',monospace" fill="#000000">country:</text><text x="152.866" y="745.041" style="font:300 14px 'Lucida Console',monospace" fill="#547000">Text</text><path fill="#FFFFFF" stroke="#3397DA" stroke-width="3" d="M191.441 904.424h208.002v150H191.441z"/><path fill="#3397da" stroke="#3397da" d="M192.441 945.424h208.002"/><path fill="none" stroke="#3397DA" stroke-width="3" d="M191.441 904.424h208.002v150H191.441z"/><text x="201.441" y="922.424" style="font:700 16px 'Lucida Console',monospace" fill="#000000">SellersBank</text><text x="201.441" y="938.424" style="font:300 14px 'Lucida Console',monospace" fill="#999">＜＜vtd-core.Party＞＞</text><text x="201.441" y="962.424" style="font:300 14px 'Lucida Console',monospace" fill="#000000">id:</text><text x="230.727" y="962.424" style="font:300 14px 'Lucida Console',monospace" fill="#C9A30B">URI</text><text x="201.441" y="976.424" style="font:300 14px 'Lucida Console',monospace" fill="#000000">name:</text><text x="247.585" y="976.424" style="font:300 14px 'Lucida Console',monospace" fill="#547000">Text</text><text x="201.441" y="990.424" style="font:300 14px 'Lucida Console',monospace" fill="#000000">street:</text><text x="264.442" y="990.424" style="font:300 14px 'Lucida Console',monospace" fill="#547000">Text</text><text x="201.441" y="1004.424" style="font:300 14px 'Lucida Console',monospace" fill="#000000">city:</text><text x="247.585" y="1004.424" style="font:300 14px 'Lucida Console',monospace" fill="#547000">Text</text><text x="201.441" y="1018.424" style="font:300 14px 'Lucida Console',monospace" fill="#000000">state:</text><text x="256.013" y="1018.424" style="font:300 14px 'Lucida Console',monospace" fill="#547000">Text</text><text x="201.441" y="1032.424" style="font:300 14px 'Lucida Console',monospace" fill="#000000">zip:</text><text x="239.156" y="1032.424" style="font:300 14px 'Lucida Console',monospace" fill="#547000">Numeric</text><text x="201.441" y="1046.424" style="font:300 14px 'Lucida Console',monospace" fill="#000000">country:</text><text x="272.871" y="1046.424" style="font:300 14px 'Lucida Console',monospace" fill="#547000">Text</text><path fill="#FFFFFF" stroke="#3397DA" stroke-width="3" d="M549.774 893h308.453v150H549.774z"/><path fill="#3397da" stroke="#3397da" d="M550.774 934h308.454"/><path fill="none" stroke="#3397DA" stroke-width="3" d="M549.774 893h308.453v150H549.774z"/><text x="559.774" y="911" style="font:700 16px 'Lucida Console',monospace" fill="#000000">DocumentaryCreditApplicant</text><text x="559.774" y="927" style="font:300 14px 'Lucida Console',monospace" fill="#999">＜＜vtd-core.Party＞＞</text><text x="559.774" y="951" style="font:300 14px 'Lucida Console',monospace" fill="#000000">id:</text><text x="589.061" y="951" style="font:300 14px 'Lucida Console',monospace" fill="#C9A30B">URI</text><text x="559.774" y="965" style="font:300 14px 'Lucida Console',monospace" fill="#000000">name:</text><text x="605.918" y="965" style="font:300 14px 'Lucida Console',monospace" fill="#547000">Text</text><text x="559.774" y="979" style="font:300 14px 'Lucida Console',monospace" fill="#000000">street:</text><text x="622.775" y="979" style="font:300 14px 'Lucida Console',monospace" fill="#547000">Text</text><text x="559.774" y="993" style="font:300 14px 'Lucida Console',monospace" fill="#000000">city:</text><text x="605.918" y="993" style="font:300 14px 'Lucida Console',monospace" fill="#547000">Text</text><text x="559.774" y="1007" style="font:300 14px 'Lucida Console',monospace" fill="#000000">state:</text><text x="614.347" y="1007" style="font:300 14px 'Lucida Console',monospace" fill="#547000">Text</text><text x="559.774" y="1021" style="font:300 14px 'Lucida Console',monospace" fill="#000000">zip:</text><text x="597.489" y="1021" style="font:300 14px 'Lucida Console',monospace" fill="#547000">Numeric</text><text x="559.774" y="1035" style="font:300 14px 'Lucida Console',monospace" fill="#000000">country:</text><text x="631.204" y="1035" style="font:300 14px 'Lucida Console',monospace" fill="#547000">Text</text><path fill="#FFFFFF" stroke="#3397DA" stroke-width="3" d="M664.673 490.081h208.002v150H664.673z"/><path fill="#3397da" stroke="#3397da" d="M665.673 531.081h208.002"/><path fill="none" stroke="#3397DA" stroke-width="3" d="M664.673 490.081h208.002v150H664.673z"/><text x="674.673" y="508.081" style="font:700 16px 'Lucida Console',monospace" fill="#000000">Seller</text><text x="674.673" y="524.081" style="font:300 14px 'Lucida Console',monospace" fill="#999">＜＜vtd-core.Party＞＞</text><text x="674.673" y="548.081" style="font:300 14px 'Lucida Console',monospace" fill="#000000">id:</text><text x="703.959" y="548.081" style="font:300 14px 'Lucida Console',monospace" fill="#C9A30B">URI</text><text x="674.673" y="562.081" style="font:300 14px 'Lucida Console',monospace" fill="#000000">name:</text><text x="720.816" y="562.081" style="font:300 14px 'Lucida Console',monospace" fill="#547000">Text</text><text x="674.673" y="576.081" style="font:300 14px 'Lucida Console',monospace" fill="#000000">street:</text><text x="737.674" y="576.081" style="font:300 14px 'Lucida Console',monospace" fill="#547000">Text</text><text x="674.673" y="590.081" style="font:300 14px 'Lucida Console',monospace" fill="#000000">city:</text><text x="720.816" y="590.081" style="font:300 14px 'Lucida Console',monospace" fill="#547000">Text</text><text x="674.673" y="604.081" style="font:300 14px 'Lucida Console',monospace" fill="#000000">state:</text><text x="729.245" y="604.081" style="font:300 14px 'Lucida Console',monospace" fill="#547000">Text</text><text x="674.673" y="618.081" style="font:300 14px 'Lucida Console',monospace" fill="#000000">zip:</text><text x="712.388" y="618.081" style="font:300 14px 'Lucida Console',monospace" fill="#547000">Numeric</text><text x="674.673" y="632.081" style="font:300 14px 'Lucida Console',monospace" fill="#000000">country:</text><text x="746.102" y="632.081" style="font:300 14px 'Lucida Console',monospace" fill="#547000">Text</text></svg>