<svg xmlns="http://www.w3.org/2000/svg" viewBox="-120 -20 588.195 505.151"><rect width="1000%" height="1000%" x="-500%" y="-500%" fill="#EEEEEE"/><path fill="none" stroke="#EEEEEE" stroke-width="8" d="M46.155 47.01l-.01-.01h248.549v149.23"/><defs><linearGradient id="a" x1="0%" x2="50%" y1="0%" y2="50%"><stop offset="0%" stop-color="#FF3986"/><stop offset="100%" stop-color="#3397DA"/></linearGradient></defs><path fill="none" stroke="url(#a)" stroke-width="3" d="M46.155 47.01l-.01-.01h248.549v149.23"/><path fill="none" stroke="#EEEEEE" stroke-width="8" d="M339.204 216.573l-.01-.01v188.588h22.47"/><defs><linearGradient id="b" x1="0%" x2="50%" y1="0%" y2="50%"><stop offset="0%" stop-color="#3397DA"/><stop offset="100%" stop-color="#3397DA"/></linearGradient></defs><path fill="none" stroke="url(#b)" stroke-width="3" d="M339.204 216.573l-.01-.01v188.588h22.47"/><path fill="none" stroke="#EEEEEE" stroke-width="8" d="M250.203 175.906l-.01-.01H-21.009v204.766"/><defs><linearGradient id="c" x1="0%" x2="50%" y1="0%" y2="50%"><stop offset="0%" stop-color="#3397DA"/><stop offset="100%" stop-color="#3397DA"/></linearGradient></defs><path fill="none" stroke="url(#c)" stroke-width="3" d="M250.203 175.906l-.01-.01H-21.009v204.766"/><path fill="#FFFFFF" stroke="#FF3986" stroke-width="3" d="M-100 0h292.289v94H-100z"/><path fill="#ff3986" stroke="#ff3986" d="M-99 41h292.29"/><path fill="none" stroke="#FF3986" stroke-width="3" d="M-100 0h292.289v94H-100z"/><text x="-90" y="18" style="font:700 16px 'Lucida Console',monospace" fill="#000000">BillOfLading</text><text x="-90" y="34" style="font:300 14px 'Lucida Console',monospace" fill="#999">＜＜vtd.VerifiableCredential＞＞</text><text x="-90" y="58" style="font:300 14px 'Lucida Console',monospace" fill="#666">issuer:</text><text x="-26.999" y="58" style="font:300 14px 'Lucida Console',monospace" fill="#02b57b">Party</text><text x="-90" y="72" style="font:300 14px 'Lucida Console',monospace" fill="#666">issuanceDate:</text><text x="23.573" y="72" style="font:300 14px 'Lucida Console',monospace" fill="#02b57b">DateTime</text><text x="-90" y="86" style="font:300 14px 'Lucida Console',monospace" fill="#000000">credentialSubject:</text><text x="65.717" y="86" style="font:300 14px 'Lucida Console',monospace" fill="#3397DA">Consignment</text><path fill="#FFFFFF" stroke="#3397DA" stroke-width="3" d="M161.192 135.23h267.003v122H161.192z"/><path fill="#3397da" stroke="#3397da" d="M162.192 176.23h267.003"/><path fill="none" stroke="#3397DA" stroke-width="3" d="M161.192 135.23h267.003v122H161.192z"/><text x="171.192" y="153.23" style="font:700 16px 'Lucida Console',monospace" fill="#000000">Consignment</text><text x="171.192" y="169.23" style="font:300 14px 'Lucida Console',monospace" fill="#999">＜＜vtd.CredentialSubject＞＞</text><text x="171.192" y="193.23" style="font:300 14px 'Lucida Console',monospace" fill="#000000">id:</text><text x="200.479" y="193.23" style="font:300 14px 'Lucida Console',monospace" fill="#C9A30B">URI</text><text x="171.192" y="207.23" style="font:300 14px 'Lucida Console',monospace" fill="#000000">billOfLadingNumber:</text><text x="335.338" y="207.23" style="font:300 14px 'Lucida Console',monospace" fill="#02b57b">Text</text><text x="171.192" y="221.23" style="font:300 14px 'Lucida Console',monospace" fill="#000000">bookingNumber[]:</text><text x="310.052" y="221.23" style="font:300 14px 'Lucida Console',monospace" fill="#02b57b">Text</text><text x="171.192" y="235.23" style="font:300 14px 'Lucida Console',monospace" fill="#000000">shipper:</text><text x="242.622" y="235.23" style="font:300 14px 'Lucida Console',monospace" fill="#3397DA">Shipper</text><text x="171.192" y="249.23" style="font:300 14px 'Lucida Console',monospace" fill="#000000">consignee:</text><text x="259.48" y="249.23" style="font:300 14px 'Lucida Console',monospace" fill="#3397DA">Consignee</text><path fill="#FFFFFF" stroke="#3397DA" stroke-width="3" d="M267.664 365.151h188v80h-188z"/><path fill="#3397da" stroke="#3397da" d="M268.664 406.151h188"/><path fill="none" stroke="#3397DA" stroke-width="3" d="M267.664 365.151h188v80h-188z"/><text x="277.664" y="383.151" style="font:700 16px 'Lucida Console',monospace" fill="#000000">Shipper</text><text x="277.664" y="399.151" style="font:300 14px 'Lucida Console',monospace" fill="#999">＜＜vtd.Party＞＞</text><text x="277.664" y="423.151" style="font:300 14px 'Lucida Console',monospace" fill="#666">id:</text><text x="306.95" y="423.151" style="font:300 14px 'Lucida Console',monospace" fill="#C9A30B">URI</text><text x="277.664" y="437.151" style="font:300 14px 'Lucida Console',monospace" fill="#666">address:</text><text x="349.094" y="437.151" style="font:300 14px 'Lucida Console',monospace" fill="#02b57b">Address</text><path fill="#FFFFFF" stroke="#3397DA" stroke-width="3" d="M-115.009 340.662h188v80h-188z"/><path fill="#3397da" stroke="#3397da" d="M-114.01 381.662h188"/><path fill="none" stroke="#3397DA" stroke-width="3" d="M-115.009 340.662h188v80h-188z"/><text x="-105.009" y="358.662" style="font:700 16px 'Lucida Console',monospace" fill="#000000">Consignee</text><text x="-105.009" y="374.662" style="font:300 14px 'Lucida Console',monospace" fill="#999">＜＜vtd.Party＞＞</text><text x="-105.009" y="398.662" style="font:300 14px 'Lucida Console',monospace" fill="#666">id:</text><text x="-75.723" y="398.662" style="font:300 14px 'Lucida Console',monospace" fill="#C9A30B">URI</text><text x="-105.009" y="412.662" style="font:300 14px 'Lucida Console',monospace" fill="#666">address:</text><text x="-33.58" y="412.662" style="font:300 14px 'Lucida Console',monospace" fill="#02b57b">Address</text></svg>