<svg xmlns="http://www.w3.org/2000/svg" viewBox="-164.055 -42.71 862.566 896.731"><rect width="1000%" height="1000%" x="-500%" y="-500%" fill="#EEEEEE"/><path fill="none" stroke="#EEEEEE" stroke-width="8" d="M2.1 31.3l-.01-.01V246H33.5"/><defs><linearGradient id="a" x1="0%" x2="50%" y1="0%" y2="50%"><stop offset="0%" stop-color="#2ECB70"/><stop offset="100%" stop-color="#FF3986"/></linearGradient></defs><path fill="none" stroke="url(#a)" stroke-width="3" d="M2.1 31.3l-.01-.01V246H33.5"/><path fill="none" stroke="#EEEEEE" stroke-width="8" d="M90.726 232.296l-.01-.01h433.88V529.87"/><defs><linearGradient id="b" x1="0%" x2="50%" y1="0%" y2="50%"><stop offset="0%" stop-color="#FF3986"/><stop offset="100%" stop-color="#3397DA"/></linearGradient></defs><path fill="none" stroke="url(#b)" stroke-width="3" d="M90.726 232.296l-.01-.01h433.88V529.87"/><path fill="none" stroke="#EEEEEE" stroke-width="8" d="M-23.703 204.867l-.01-.01V540H290.35"/><defs><linearGradient id="c" x1="0%" x2="50%" y1="0%" y2="50%"><stop offset="0%" stop-color="#FF3986"/><stop offset="100%" stop-color="#3397DA"/></linearGradient></defs><path fill="none" stroke="url(#c)" stroke-width="3" d="M-23.703 204.867l-.01-.01V540H290.35"/><path fill="none" stroke="#EEEEEE" stroke-width="8" d="M128.87 204.867l-.01-.01h435.652v206.619"/><defs><linearGradient id="d" x1="0%" x2="50%" y1="0%" y2="50%"><stop offset="0%" stop-color="#FF3986"/><stop offset="100%" stop-color="#3397DA"/></linearGradient></defs><path fill="none" stroke="url(#d)" stroke-width="3" d="M128.87 204.867l-.01-.01h435.652v206.619"/><path fill="none" stroke="#EEEEEE" stroke-width="8" d="M52.583 259.724l-.01-.01H320.63V382.19"/><defs><linearGradient id="e" x1="0%" x2="50%" y1="0%" y2="50%"><stop offset="0%" stop-color="#FF3986"/><stop offset="100%" stop-color="#3397DA"/></linearGradient></defs><path fill="none" stroke="url(#e)" stroke-width="3" d="M52.583 259.724l-.01-.01H320.63V382.19"/><path fill="none" stroke="#EEEEEE" stroke-width="8" d="M-61.847 177.439l-.01-.01V767.02h80.424"/><defs><linearGradient id="f" x1="0%" x2="50%" y1="0%" y2="50%"><stop offset="0%" stop-color="#FF3986"/><stop offset="100%" stop-color="#2ECB70"/></linearGradient></defs><path fill="none" stroke="url(#f)" stroke-width="3" d="M-61.847 177.439l-.01-.01V767.02h80.424"/><path fill="none" stroke="#EEEEEE" stroke-width="8" d="M14.44 232.296l-.01-.01v449.823h295.598"/><defs><linearGradient id="g" x1="0%" x2="50%" y1="0%" y2="50%"><stop offset="0%" stop-color="#FF3986"/><stop offset="100%" stop-color="#2ECB70"/></linearGradient></defs><path fill="none" stroke="url(#g)" stroke-width="3" d="M14.44 232.296l-.01-.01v449.823h295.598"/><path fill="#FFFFFF" stroke="#2ECB70" stroke-width="3" d="M-144.055-22.71h292.289v108h-292.289z"/><path fill="#2ecb70" stroke="#2ecb70" d="M-143.055 18.29h292.29"/><path fill="none" stroke="#2ECB70" stroke-width="3" d="M-144.055-22.71h292.289v108h-292.289z"/><text x="-134.055" y="-4.71" style="font:700 16px 'Lucida Console',monospace" fill="#000000">BillOfLadingCredential</text><text x="-134.055" y="11.29" style="font:300 14px 'Lucida Console',monospace" fill="#999">＜＜vtd.VerifiableCredential＞＞</text><text x="-134.055" y="35.29" style="font:300 14px 'Lucida Console',monospace" fill="#666">issuer:</text><text x="-71.054" y="35.29" style="font:300 14px 'Lucida Console',monospace" fill="#02b57b">Party</text><text x="-134.055" y="49.29" style="font:300 14px 'Lucida Console',monospace" fill="#666">issuanceDate:</text><text x="-20.481" y="49.29" style="font:300 14px 'Lucida Console',monospace" fill="#02b57b">DateTime</text><text x="-134.055" y="63.29" style="font:300 14px 'Lucida Console',monospace" fill="#666">id:</text><text x="-104.768" y="63.29" style="font:300 14px 'Lucida Console',monospace" fill="#02b57b">URI</text><text x="-134.055" y="77.29" style="font:300 14px 'Lucida Console',monospace" fill="#000000">credentialSubject:</text><text x="21.662" y="77.29" style="font:300 14px 'Lucida Console',monospace" fill="#3397DA">BillOfLading</text><path fill="#FFFFFF" stroke="#FF3986" stroke-width="3" d="M-100 150h267.003v192H-100z"/><path fill="#ff3986" stroke="#ff3986" d="M-99 191h267.003"/><path fill="none" stroke="#FF3986" stroke-width="3" d="M-100 150h267.003v192H-100z"/><text x="-90" y="168" style="font:700 16px 'Lucida Console',monospace" fill="#000000">BillOfLading</text><text x="-90" y="184" style="font:300 14px 'Lucida Console',monospace" fill="#999">＜＜vtd.CredentialSubject＞＞</text><text x="-90" y="208" style="font:300 14px 'Lucida Console',monospace" fill="#000000">id:</text><text x="-60.714" y="208" style="font:300 14px 'Lucida Console',monospace" fill="#C9A30B">URI</text><text x="-90" y="222" style="font:300 14px 'Lucida Console',monospace" fill="#000000">billOfLadingNumber:</text><text x="74.146" y="222" style="font:300 14px 'Lucida Console',monospace" fill="#02b57b">Text</text><text x="-90" y="236" style="font:300 14px 'Lucida Console',monospace" fill="#000000">bookingNumber[]:</text><text x="48.859" y="236" style="font:300 14px 'Lucida Console',monospace" fill="#02b57b">Text</text><text x="-90" y="250" style="font:300 14px 'Lucida Console',monospace" fill="#000000">carrier:</text><text x="-18.57" y="250" style="font:300 14px 'Lucida Console',monospace" fill="#3397DA">Carrier</text><text x="-90" y="264" style="font:300 14px 'Lucida Console',monospace" fill="#000000">shipper:</text><text x="-18.57" y="264" style="font:300 14px 'Lucida Console',monospace" fill="#3397DA">Shipper</text><text x="-90" y="278" style="font:300 14px 'Lucida Console',monospace" fill="#000000">consignee:</text><text x="-1.713" y="278" style="font:300 14px 'Lucida Console',monospace" fill="#3397DA">Consignee</text><text x="-90" y="292" style="font:300 14px 'Lucida Console',monospace" fill="#000000">shippingDate:</text><text x="23.573" y="292" style="font:300 14px 'Lucida Console',monospace" fill="#02b57b">Date</text><text x="-90" y="306" style="font:300 14px 'Lucida Console',monospace" fill="#000000">notifyParty[]:</text><text x="32.002" y="306" style="font:300 14px 'Lucida Console',monospace" fill="#3397DA">NotifyParty</text><text x="-90" y="320" style="font:300 14px 'Lucida Console',monospace" fill="#000000">particulars:</text><text x="15.145" y="320" style="font:300 14px 'Lucida Console',monospace" fill="#2ECB70">Particulars</text><text x="-90" y="334" style="font:300 14px 'Lucida Console',monospace" fill="#000000">equipment[]:</text><text x="15.145" y="334" style="font:300 14px 'Lucida Console',monospace" fill="#2ECB70">Equipment</text><path fill="#FFFFFF" stroke="#3397DA" stroke-width="3" d="M196.351 500h188v80h-188z"/><path fill="#3397da" stroke="#3397da" d="M197.351 541h188"/><path fill="none" stroke="#3397DA" stroke-width="3" d="M196.351 500h188v80h-188z"/><text x="206.351" y="518" style="font:700 16px 'Lucida Console',monospace" fill="#000000">Shipper</text><text x="206.351" y="534" style="font:300 14px 'Lucida Console',monospace" fill="#999">＜＜vtd.Party＞＞</text><text x="206.351" y="558" style="font:300 14px 'Lucida Console',monospace" fill="#666">id:</text><text x="235.637" y="558" style="font:300 14px 'Lucida Console',monospace" fill="#C9A30B">URI</text><text x="206.351" y="572" style="font:300 14px 'Lucida Console',monospace" fill="#666">address:</text><text x="277.781" y="572" style="font:300 14px 'Lucida Console',monospace" fill="#02b57b">Address</text><path fill="#FFFFFF" stroke="#3397DA" stroke-width="3" d="M470.512 371.476h188v80h-188z"/><path fill="#3397da" stroke="#3397da" d="M471.512 412.476h188"/><path fill="none" stroke="#3397DA" stroke-width="3" d="M470.512 371.476h188v80h-188z"/><text x="480.512" y="389.476" style="font:700 16px 'Lucida Console',monospace" fill="#000000">Consignee</text><text x="480.512" y="405.476" style="font:300 14px 'Lucida Console',monospace" fill="#999">＜＜vtd.Party＞＞</text><text x="480.512" y="429.476" style="font:300 14px 'Lucida Console',monospace" fill="#666">id:</text><text x="509.798" y="429.476" style="font:300 14px 'Lucida Console',monospace" fill="#C9A30B">URI</text><text x="480.512" y="443.476" style="font:300 14px 'Lucida Console',monospace" fill="#666">address:</text><text x="551.941" y="443.476" style="font:300 14px 'Lucida Console',monospace" fill="#02b57b">Address</text><path fill="#FFFFFF" stroke="#3397DA" stroke-width="3" d="M430.597 489.87h188v80h-188z"/><path fill="#3397da" stroke="#3397da" d="M431.597 530.87h188"/><path fill="none" stroke="#3397DA" stroke-width="3" d="M430.597 489.87h188v80h-188z"/><text x="440.597" y="507.87" style="font:700 16px 'Lucida Console',monospace" fill="#000000">Carrier</text><text x="440.597" y="523.87" style="font:300 14px 'Lucida Console',monospace" fill="#999">＜＜vtd.Party＞＞</text><text x="440.597" y="547.87" style="font:300 14px 'Lucida Console',monospace" fill="#666">id:</text><text x="469.883" y="547.87" style="font:300 14px 'Lucida Console',monospace" fill="#C9A30B">URI</text><text x="440.597" y="561.87" style="font:300 14px 'Lucida Console',monospace" fill="#666">address:</text><text x="512.026" y="561.87" style="font:300 14px 'Lucida Console',monospace" fill="#02b57b">Address</text><path fill="#FFFFFF" stroke="#3397DA" stroke-width="3" d="M226.629 342.189h188v80h-188z"/><path fill="#3397da" stroke="#3397da" d="M227.63 383.19h188"/><path fill="none" stroke="#3397DA" stroke-width="3" d="M226.629 342.189h188v80h-188z"/><text x="236.629" y="360.189" style="font:700 16px 'Lucida Console',monospace" fill="#000000">NotifyParty</text><text x="236.629" y="376.189" style="font:300 14px 'Lucida Console',monospace" fill="#999">＜＜vtd.Party＞＞</text><text x="236.629" y="400.189" style="font:300 14px 'Lucida Console',monospace" fill="#666">id:</text><text x="265.916" y="400.189" style="font:300 14px 'Lucida Console',monospace" fill="#C9A30B">URI</text><text x="236.629" y="414.189" style="font:300 14px 'Lucida Console',monospace" fill="#666">address:</text><text x="308.059" y="414.189" style="font:300 14px 'Lucida Console',monospace" fill="#02b57b">Address</text><path fill="#FFFFFF" stroke="#2ECB70" stroke-width="3" d="M-106.505 720.021h250.146v94h-250.146z"/><path fill="#2ecb70" stroke="#2ecb70" d="M-105.505 761.021H144.64"/><path fill="none" stroke="#2ECB70" stroke-width="3" d="M-106.505 720.021h250.146v94h-250.146z"/><text x="-96.505" y="738.021" style="font:700 16px 'Lucida Console',monospace" fill="#000000">Particulars</text><text x="-96.505" y="754.021" style="font:300 14px 'Lucida Console',monospace" fill="#999">＜＜vtd.ConsignmentItem＞＞</text><text x="-96.505" y="778.021" style="font:300 14px 'Lucida Console',monospace" fill="#666">descriptionOfGoods:</text><text x="67.64" y="778.021" style="font:300 14px 'Lucida Console',monospace" fill="#02b57b">Text</text><text x="-96.505" y="792.021" style="font:300 14px 'Lucida Console',monospace" fill="#666">numberOfPackages:</text><text x="50.783" y="792.021" style="font:300 14px 'Lucida Console',monospace" fill="#02b57b">Integer</text><text x="-96.505" y="806.021" style="font:300 14px 'Lucida Console',monospace" fill="#666">commodityCode:</text><text x="25.497" y="806.021" style="font:300 14px 'Lucida Console',monospace" fill="#02b57b">Text</text><path fill="#FFFFFF" stroke="#2ECB70" stroke-width="3" d="M172.313 642.109h275.432v80H172.313z"/><path fill="#2ecb70" stroke="#2ecb70" d="M173.313 683.11h275.431"/><path fill="none" stroke="#2ECB70" stroke-width="3" d="M172.313 642.109h275.432v80H172.313z"/><text x="182.313" y="660.109" style="font:700 16px 'Lucida Console',monospace" fill="#000000">Equipment</text><text x="182.313" y="676.109" style="font:300 14px 'Lucida Console',monospace" fill="#999">＜＜vtd.TransportEquipment＞＞</text><text x="182.313" y="700.109" style="font:300 14px 'Lucida Console',monospace" fill="#666">id:</text><text x="211.599" y="700.109" style="font:300 14px 'Lucida Console',monospace" fill="#02b57b">URI</text><text x="182.313" y="714.109" style="font:300 14px 'Lucida Console',monospace" fill="#666">type:</text><text x="228.456" y="714.109" style="font:300 14px 'Lucida Console',monospace" fill="#02b57b">Text</text></svg>