<svg xmlns="http://www.w3.org/2000/svg" viewBox="30 40 4810.211 795"><rect width="1000%" height="1000%" x="-500%" y="-500%" fill="#EEEEEE"/><path fill="none" stroke="#EEEEEE" stroke-width="8" d="M2730.758 107.01l-.01-.01v324h-140.68"/><defs><linearGradient id="a" x1="0%" x2="50%" y1="0%" y2="50%"><stop offset="0%" stop-color="#2ECB70"/><stop offset="100%" stop-color="#2ECB70"/></linearGradient></defs><path fill="none" stroke="url(#a)" stroke-width="3" d="M2730.758 107.01l-.01-.01v324h-140.68"/><path fill="none" stroke="#EEEEEE" stroke-width="8" d="M2374.136 270.724l-.01-.01H144V755"/><defs><linearGradient id="b" x1="0%" x2="50%" y1="0%" y2="50%"><stop offset="0%" stop-color="#2ECB70"/><stop offset="100%" stop-color="#3397DA"/></linearGradient></defs><path fill="none" stroke="url(#b)" stroke-width="3" d="M2374.136 270.724l-.01-.01H144V755"/><path fill="none" stroke="#EEEEEE" stroke-width="8" d="M2410.126 297.439l-.01-.01H524.997V755"/><defs><linearGradient id="c" x1="0%" x2="50%" y1="0%" y2="50%"><stop offset="0%" stop-color="#2ECB70"/><stop offset="100%" stop-color="#3397DA"/></linearGradient></defs><path fill="none" stroke="url(#c)" stroke-width="3" d="M2410.126 297.439l-.01-.01H524.997V755"/><path fill="none" stroke="#EEEEEE" stroke-width="8" d="M2446.117 324.153l-.01-.01H866.632V755"/><defs><linearGradient id="d" x1="0%" x2="50%" y1="0%" y2="50%"><stop offset="0%" stop-color="#2ECB70"/><stop offset="100%" stop-color="#2ECB70"/></linearGradient></defs><path fill="none" stroke="url(#d)" stroke-width="3" d="M2446.117 324.153l-.01-.01H866.632V755"/><path fill="none" stroke="#EEEEEE" stroke-width="8" d="M2482.107 350.867l-.01-.01H1241.982V755"/><defs><linearGradient id="e" x1="0%" x2="50%" y1="0%" y2="50%"><stop offset="0%" stop-color="#2ECB70"/><stop offset="100%" stop-color="#2ECB70"/></linearGradient></defs><path fill="none" stroke="url(#e)" stroke-width="3" d="M2482.107 350.867l-.01-.01H1241.982V755"/><path fill="none" stroke="#EEEEEE" stroke-width="8" d="M2518.097 377.581l-.01-.01h-900.756V755"/><defs><linearGradient id="f" x1="0%" x2="50%" y1="0%" y2="50%"><stop offset="0%" stop-color="#2ECB70"/><stop offset="100%" stop-color="#2ECB70"/></linearGradient></defs><path fill="none" stroke="url(#f)" stroke-width="3" d="M2518.097 377.581l-.01-.01h-900.756V755"/><path fill="none" stroke="#EEEEEE" stroke-width="8" d="M2554.088 404.296l-.01-.01h-595.112V755"/><defs><linearGradient id="g" x1="0%" x2="50%" y1="0%" y2="50%"><stop offset="0%" stop-color="#2ECB70"/><stop offset="100%" stop-color="#2ECB70"/></linearGradient></defs><path fill="none" stroke="url(#g)" stroke-width="3" d="M2554.088 404.296l-.01-.01h-595.112V755"/><path fill="none" stroke="#EEEEEE" stroke-width="8" d="M2590.078 457.724l-.01-.01V755h-245.63"/><defs><linearGradient id="h" x1="0%" x2="50%" y1="0%" y2="50%"><stop offset="0%" stop-color="#2ECB70"/><stop offset="100%" stop-color="#2ECB70"/></linearGradient></defs><path fill="none" stroke="url(#h)" stroke-width="3" d="M2590.078 457.724l-.01-.01V755h-245.63"/><path fill="none" stroke="#EEEEEE" stroke-width="8" d="M2626.068 431.01l-.01-.01v324h132.752"/><defs><linearGradient id="i" x1="0%" x2="50%" y1="0%" y2="50%"><stop offset="0%" stop-color="#2ECB70"/><stop offset="100%" stop-color="#2ECB70"/></linearGradient></defs><path fill="none" stroke="url(#i)" stroke-width="3" d="M2626.068 431.01l-.01-.01v324h132.752"/><path fill="none" stroke="#EEEEEE" stroke-width="8" d="M2662.058 404.296l-.01-.01h467.295V755"/><defs><linearGradient id="j" x1="0%" x2="50%" y1="0%" y2="50%"><stop offset="0%" stop-color="#2ECB70"/><stop offset="100%" stop-color="#2ECB70"/></linearGradient></defs><path fill="none" stroke="url(#j)" stroke-width="3" d="M2662.058 404.296l-.01-.01h467.295V755"/><path fill="none" stroke="#EEEEEE" stroke-width="8" d="M2698.049 377.581l-.01-.01h797.735V755"/><defs><linearGradient id="k" x1="0%" x2="50%" y1="0%" y2="50%"><stop offset="0%" stop-color="#2ECB70"/><stop offset="100%" stop-color="#2ECB70"/></linearGradient></defs><path fill="none" stroke="url(#k)" stroke-width="3" d="M2698.049 377.581l-.01-.01h797.735V755"/><path fill="none" stroke="#EEEEEE" stroke-width="8" d="M2734.04 350.867l-.01-.01h1153.46V755"/><defs><linearGradient id="l" x1="0%" x2="50%" y1="0%" y2="50%"><stop offset="0%" stop-color="#2ECB70"/><stop offset="100%" stop-color="#2ECB70"/></linearGradient></defs><path fill="none" stroke="url(#l)" stroke-width="3" d="M2734.04 350.867l-.01-.01h1153.46V755"/><path fill="none" stroke="#EEEEEE" stroke-width="8" d="M2770.03 324.153l-.01-.01h1509.187V755"/><defs><linearGradient id="m" x1="0%" x2="50%" y1="0%" y2="50%"><stop offset="0%" stop-color="#2ECB70"/><stop offset="100%" stop-color="#2ECB70"/></linearGradient></defs><path fill="none" stroke="url(#m)" stroke-width="3" d="M2770.03 324.153l-.01-.01h1509.187V755"/><path fill="none" stroke="#EEEEEE" stroke-width="8" d="M2806.02 297.439l-.01-.01h1869.128V755"/><defs><linearGradient id="n" x1="0%" x2="50%" y1="0%" y2="50%"><stop offset="0%" stop-color="#2ECB70"/><stop offset="100%" stop-color="#2ECB70"/></linearGradient></defs><path fill="none" stroke="url(#n)" stroke-width="3" d="M2806.02 297.439l-.01-.01h1869.128V755"/><path fill="none" stroke="url(#n)" stroke-width="1.5" d="M4695.148 687.51l-2.01-.01v8h2M4699.148 687.51l1.99-.01v8h-2"/><path fill="#FFFFFF" stroke="#2ECB70" stroke-width="3" d="M2549.388 60h362.72v94h-362.72z"/><path fill="#2ecb70" stroke="#2ecb70" d="M2550.388 101h362.72"/><path fill="none" stroke="#2ECB70" stroke-width="3" d="M2549.388 60h362.72v94h-362.72z"/><text x="2559.388" y="78" style="font:700 16px 'Lucida Console',monospace" fill="#000000">CargoInsuraceDocumentCredential</text><text x="2559.388" y="94" style="font:300 14px 'Lucida Console',monospace" fill="#999">＜＜vtd.VerifiableCredential＞＞</text><text x="2559.388" y="118" style="font:300 14px 'Lucida Console',monospace" fill="#666">issuer:</text><text x="2622.389" y="118" style="font:300 14px 'Lucida Console',monospace" fill="#02b57b">Party</text><text x="2559.388" y="132" style="font:300 14px 'Lucida Console',monospace" fill="#666">issuanceDate:</text><text x="2672.961" y="132" style="font:300 14px 'Lucida Console',monospace" fill="#02b57b">DateTime</text><text x="2559.388" y="146" style="font:300 14px 'Lucida Console',monospace" fill="#000000">credentialSubject:</text><text x="2715.105" y="146" style="font:300 14px 'Lucida Console',monospace" fill="#2ECB70">CargoInsuraceDocument</text><path fill="#FFFFFF" stroke="#2ECB70" stroke-width="3" d="M2338.136 244H2842v374h-503.864z"/><path fill="#2ecb70" stroke="#2ecb70" d="M2339.136 285H2843"/><path fill="none" stroke="#2ECB70" stroke-width="3" d="M2338.136 244H2842v374h-503.864z"/><text x="2348.136" y="262" style="font:700 16px 'Lucida Console',monospace" fill="#000000">CargoInsuraceDocument</text><text x="2348.136" y="278" style="font:300 14px 'Lucida Console',monospace" fill="#999">＜＜vtd.CredentialSubject＞＞</text><text x="2348.136" y="302" style="font:300 14px 'Lucida Console',monospace" fill="#000000">documentaryCreditIdentifier:</text><text x="2588.14" y="302" style="font:300 14px 'Lucida Console',monospace" fill="#02b57b">Text</text><text x="2348.136" y="316" style="font:300 14px 'Lucida Console',monospace" fill="#000000">transportContractDocument:</text><text x="2571.282" y="316" style="font:300 14px 'Lucida Console',monospace" fill="#02b57b">Text</text><text x="2348.136" y="330" style="font:300 14px 'Lucida Console',monospace" fill="#000000">invoiceNumber:</text><text x="2470.138" y="330" style="font:300 14px 'Lucida Console',monospace" fill="#02b57b">Text</text><text x="2348.136" y="344" style="font:300 14px 'Lucida Console',monospace" fill="#000000">insurancePolicyNumber:</text><text x="2537.567" y="344" style="font:300 14px 'Lucida Console',monospace" fill="#02b57b">Text</text><text x="2348.136" y="358" style="font:300 14px 'Lucida Console',monospace" fill="#000000">issueDate:</text><text x="2436.423" y="358" style="font:300 14px 'Lucida Console',monospace" fill="#02b57b">Date</text><text x="2348.136" y="372" style="font:300 14px 'Lucida Console',monospace" fill="#000000">estimatedTimeOfDeparture:</text><text x="2562.854" y="372" style="font:300 14px 'Lucida Console',monospace" fill="#02b57b">Date</text><text x="2348.136" y="386" style="font:300 14px 'Lucida Console',monospace" fill="#000000">insuredParty:</text><text x="2461.709" y="386" style="font:300 14px 'Lucida Console',monospace" fill="#3397DA">InsuredParty</text><text x="2348.136" y="400" style="font:300 14px 'Lucida Console',monospace" fill="#000000">insuranceCompany:</text><text x="2495.424" y="400" style="font:300 14px 'Lucida Console',monospace" fill="#3397DA">InsuranceCompany</text><text x="2348.136" y="414" style="font:300 14px 'Lucida Console',monospace" fill="#000000">placeOfDelivery:</text><text x="2486.995" y="414" style="font:300 14px 'Lucida Console',monospace" fill="#2ECB70">PlaceOfDelivery</text><text x="2348.136" y="428" style="font:300 14px 'Lucida Console',monospace" fill="#000000">originalLoadingLocation:</text><text x="2554.425" y="428" style="font:300 14px 'Lucida Console',monospace" fill="#2ECB70">OriginalLoadingLocation</text><text x="2348.136" y="442" style="font:300 14px 'Lucida Console',monospace" fill="#000000">paymentLocation:</text><text x="2486.995" y="442" style="font:300 14px 'Lucida Console',monospace" fill="#2ECB70">PaymentLocation</text><text x="2348.136" y="456" style="font:300 14px 'Lucida Console',monospace" fill="#000000">placeOfDeparture:</text><text x="2495.424" y="456" style="font:300 14px 'Lucida Console',monospace" fill="#2ECB70">PlaceOfDeparture</text><text x="2348.136" y="470" style="font:300 14px 'Lucida Console',monospace" fill="#000000">baseportUnloadingLocation:</text><text x="2571.282" y="470" style="font:300 14px 'Lucida Console',monospace" fill="#2ECB70">BaseportUnloadingLocation</text><text x="2348.136" y="484" style="font:300 14px 'Lucida Console',monospace" fill="#000000">insuranceClaimAdjuster:</text><text x="2545.996" y="484" style="font:300 14px 'Lucida Console',monospace" fill="#2ECB70">InsuranceClaimAdjuster</text><text x="2348.136" y="498" style="font:300 14px 'Lucida Console',monospace" fill="#000000">placeOfIssue:</text><text x="2461.709" y="498" style="font:300 14px 'Lucida Console',monospace" fill="#2ECB70">PlaceOfIssue</text><text x="2348.136" y="512" style="font:300 14px 'Lucida Console',monospace" fill="#000000">insuranceCondition:</text><text x="2512.281" y="512" style="font:300 14px 'Lucida Console',monospace" fill="#02b57b">Text</text><text x="2348.136" y="526" style="font:300 14px 'Lucida Console',monospace" fill="#000000">insuredValueAmount:</text><text x="2512.281" y="526" style="font:300 14px 'Lucida Console',monospace" fill="#2ECB70">InsuredValueAmount</text><text x="2348.136" y="540" style="font:300 14px 'Lucida Console',monospace" fill="#000000">insuranceAmount:</text><text x="2486.995" y="540" style="font:300 14px 'Lucida Console',monospace" fill="#2ECB70">InsuranceAmount</text><text x="2348.136" y="554" style="font:300 14px 'Lucida Console',monospace" fill="#000000">taxAmount:</text><text x="2436.423" y="554" style="font:300 14px 'Lucida Console',monospace" fill="#2ECB70">TaxAmount</text><text x="2348.136" y="568" style="font:300 14px 'Lucida Console',monospace" fill="#000000">goods:</text><text x="2402.708" y="568" style="font:300 14px 'Lucida Console',monospace" fill="#2ECB70">Goods[]</text><text x="2348.136" y="582" style="font:300 14px 'Lucida Console',monospace" fill="#000000">conveyanceReferenceNumber:</text><text x="2571.282" y="582" style="font:300 14px 'Lucida Console',monospace" fill="#02b57b">Text</text><text x="2348.136" y="596" style="font:300 14px 'Lucida Console',monospace" fill="#000000">transportMeansIdentifier:</text><text x="2562.854" y="596" style="font:300 14px 'Lucida Console',monospace" fill="#02b57b">Text</text><text x="2348.136" y="610" style="font:300 14px 'Lucida Console',monospace" fill="#000000">vehicleRegistrationNumber:</text><text x="2571.282" y="610" style="font:300 14px 'Lucida Console',monospace" fill="#02b57b">Text</text><path fill="#FFFFFF" stroke="#3397DA" stroke-width="3" d="M50 715h188v80H50z"/><path fill="#3397da" stroke="#3397da" d="M51 756h188"/><path fill="none" stroke="#3397DA" stroke-width="3" d="M50 715h188v80H50z"/><text x="60" y="733" style="font:700 16px 'Lucida Console',monospace" fill="#000000">InsuredParty</text><text x="60" y="749" style="font:300 14px 'Lucida Console',monospace" fill="#999">＜＜vtd.Party＞＞</text><text x="60" y="773" style="font:300 14px 'Lucida Console',monospace" fill="#666">id:</text><text x="89.286" y="773" style="font:300 14px 'Lucida Console',monospace" fill="#C9A30B">URI</text><text x="60" y="787" style="font:300 14px 'Lucida Console',monospace" fill="#666">address:</text><text x="131.43" y="787" style="font:300 14px 'Lucida Console',monospace" fill="#02b57b">Address</text><path fill="#FFFFFF" stroke="#3397DA" stroke-width="3" d="M428.935 715H621.06v80H428.935z"/><path fill="#3397da" stroke="#3397da" d="M429.935 756H622.06"/><path fill="none" stroke="#3397DA" stroke-width="3" d="M428.935 715H621.06v80H428.935z"/><text x="438.935" y="733" style="font:700 16px 'Lucida Console',monospace" fill="#000000">InsuranceCompany</text><text x="438.935" y="749" style="font:300 14px 'Lucida Console',monospace" fill="#999">＜＜vtd.Party＞＞</text><text x="438.935" y="773" style="font:300 14px 'Lucida Console',monospace" fill="#666">id:</text><text x="468.221" y="773" style="font:300 14px 'Lucida Console',monospace" fill="#C9A30B">URI</text><text x="438.935" y="787" style="font:300 14px 'Lucida Console',monospace" fill="#666">address:</text><text x="510.365" y="787" style="font:300 14px 'Lucida Console',monospace" fill="#02b57b">Address</text><path fill="#FFFFFF" stroke="#2ECB70" stroke-width="3" d="M771.06 715h191.145v80H771.06z"/><path fill="#2ecb70" stroke="#2ecb70" d="M772.06 756h191.144"/><path fill="none" stroke="#2ECB70" stroke-width="3" d="M771.06 715h191.145v80H771.06z"/><text x="781.06" y="733" style="font:700 16px 'Lucida Console',monospace" fill="#000000">PlaceOfDelivery</text><text x="781.06" y="749" style="font:300 14px 'Lucida Console',monospace" fill="#999">＜＜vtd.Location＞＞</text><text x="781.06" y="773" style="font:300 14px 'Lucida Console',monospace" fill="#666">unlocode:</text><text x="860.918" y="773" style="font:300 14px 'Lucida Console',monospace" fill="#02b57b">URI</text><text x="781.06" y="787" style="font:300 14px 'Lucida Console',monospace" fill="#666">address:</text><text x="852.49" y="787" style="font:300 14px 'Lucida Console',monospace" fill="#02b57b">Address</text><path fill="#FFFFFF" stroke="#2ECB70" stroke-width="3" d="M1112.204 715h259.555v80h-259.555z"/><path fill="#2ecb70" stroke="#2ecb70" d="M1113.204 756h259.555"/><path fill="none" stroke="#2ECB70" stroke-width="3" d="M1112.204 715h259.555v80h-259.555z"/><text x="1122.204" y="733" style="font:700 16px 'Lucida Console',monospace" fill="#000000">OriginalLoadingLocation</text><text x="1122.204" y="749" style="font:300 14px 'Lucida Console',monospace" fill="#999">＜＜vtd.Location＞＞</text><text x="1122.204" y="773" style="font:300 14px 'Lucida Console',monospace" fill="#666">unlocode:</text><text x="1202.063" y="773" style="font:300 14px 'Lucida Console',monospace" fill="#02b57b">URI</text><text x="1122.204" y="787" style="font:300 14px 'Lucida Console',monospace" fill="#666">address:</text><text x="1193.634" y="787" style="font:300 14px 'Lucida Console',monospace" fill="#02b57b">Address</text><path fill="#FFFFFF" stroke="#2ECB70" stroke-width="3" d="M1521.759 715h191.145v80h-191.145z"/><path fill="#2ecb70" stroke="#2ecb70" d="M1522.759 756h191.145"/><path fill="none" stroke="#2ECB70" stroke-width="3" d="M1521.759 715h191.145v80h-191.145z"/><text x="1531.759" y="733" style="font:700 16px 'Lucida Console',monospace" fill="#000000">PaymentLocation</text><text x="1531.759" y="749" style="font:300 14px 'Lucida Console',monospace" fill="#999">＜＜vtd.Location＞＞</text><text x="1531.759" y="773" style="font:300 14px 'Lucida Console',monospace" fill="#666">unlocode:</text><text x="1611.617" y="773" style="font:300 14px 'Lucida Console',monospace" fill="#02b57b">URI</text><text x="1531.759" y="787" style="font:300 14px 'Lucida Console',monospace" fill="#666">address:</text><text x="1603.189" y="787" style="font:300 14px 'Lucida Console',monospace" fill="#02b57b">Address</text><path fill="#FFFFFF" stroke="#2ECB70" stroke-width="3" d="M1862.904 715h192.125v80h-192.125z"/><path fill="#2ecb70" stroke="#2ecb70" d="M1863.904 756h192.125"/><path fill="none" stroke="#2ECB70" stroke-width="3" d="M1862.904 715h192.125v80h-192.125z"/><text x="1872.904" y="733" style="font:700 16px 'Lucida Console',monospace" fill="#000000">PlaceOfDeparture</text><text x="1872.904" y="749" style="font:300 14px 'Lucida Console',monospace" fill="#999">＜＜vtd.Location＞＞</text><text x="1872.904" y="773" style="font:300 14px 'Lucida Console',monospace" fill="#666">unlocode:</text><text x="1952.762" y="773" style="font:300 14px 'Lucida Console',monospace" fill="#02b57b">URI</text><text x="1872.904" y="787" style="font:300 14px 'Lucida Console',monospace" fill="#666">address:</text><text x="1944.333" y="787" style="font:300 14px 'Lucida Console',monospace" fill="#02b57b">Address</text><path fill="#FFFFFF" stroke="#2ECB70" stroke-width="3" d="M2205.029 715h278.82v80h-278.82z"/><path fill="#2ecb70" stroke="#2ecb70" d="M2206.029 756h278.82"/><path fill="none" stroke="#2ECB70" stroke-width="3" d="M2205.029 715h278.82v80h-278.82z"/><text x="2215.029" y="733" style="font:700 16px 'Lucida Console',monospace" fill="#000000">BaseportUnloadingLocation</text><text x="2215.029" y="749" style="font:300 14px 'Lucida Console',monospace" fill="#999">＜＜vtd.Location＞＞</text><text x="2215.029" y="773" style="font:300 14px 'Lucida Console',monospace" fill="#666">unlocode:</text><text x="2294.887" y="773" style="font:300 14px 'Lucida Console',monospace" fill="#02b57b">URI</text><text x="2215.029" y="787" style="font:300 14px 'Lucida Console',monospace" fill="#666">address:</text><text x="2286.458" y="787" style="font:300 14px 'Lucida Console',monospace" fill="#02b57b">Address</text><path fill="#FFFFFF" stroke="#2ECB70" stroke-width="3" d="M2633.849 715h249.922v80h-249.922z"/><path fill="#2ecb70" stroke="#2ecb70" d="M2634.849 756h249.922"/><path fill="none" stroke="#2ECB70" stroke-width="3" d="M2633.849 715h249.922v80h-249.922z"/><text x="2643.849" y="733" style="font:700 16px 'Lucida Console',monospace" fill="#000000">InsuranceClaimAdjuster</text><text x="2643.849" y="749" style="font:300 14px 'Lucida Console',monospace" fill="#999">＜＜vtd.Location＞＞</text><text x="2643.849" y="773" style="font:300 14px 'Lucida Console',monospace" fill="#666">unlocode:</text><text x="2723.707" y="773" style="font:300 14px 'Lucida Console',monospace" fill="#02b57b">URI</text><text x="2643.849" y="787" style="font:300 14px 'Lucida Console',monospace" fill="#666">address:</text><text x="2715.279" y="787" style="font:300 14px 'Lucida Console',monospace" fill="#02b57b">Address</text><path fill="#FFFFFF" stroke="#2ECB70" stroke-width="3" d="M3033.771 715h191.145v80h-191.145z"/><path fill="#2ecb70" stroke="#2ecb70" d="M3034.77 756h191.145"/><path fill="none" stroke="#2ECB70" stroke-width="3" d="M3033.771 715h191.145v80h-191.145z"/><text x="3043.771" y="733" style="font:700 16px 'Lucida Console',monospace" fill="#000000">PlaceOfIssue</text><text x="3043.771" y="749" style="font:300 14px 'Lucida Console',monospace" fill="#999">＜＜vtd.Location＞＞</text><text x="3043.771" y="773" style="font:300 14px 'Lucida Console',monospace" fill="#666">unlocode:</text><text x="3123.629" y="773" style="font:300 14px 'Lucida Console',monospace" fill="#02b57b">URI</text><text x="3043.771" y="787" style="font:300 14px 'Lucida Console',monospace" fill="#666">address:</text><text x="3115.2" y="787" style="font:300 14px 'Lucida Console',monospace" fill="#02b57b">Address</text><path fill="#FFFFFF" stroke="#2ECB70" stroke-width="3" d="M3374.915 715h241.717v80h-241.717z"/><path fill="#2ecb70" stroke="#2ecb70" d="M3375.915 756h241.717"/><path fill="none" stroke="#2ECB70" stroke-width="3" d="M3374.915 715h241.717v80h-241.717z"/><text x="3384.915" y="733" style="font:700 16px 'Lucida Console',monospace" fill="#000000">InsuredValueAmount</text><text x="3384.915" y="749" style="font:300 14px 'Lucida Console',monospace" fill="#999">＜＜vtd.MonetaryAmount＞＞</text><text x="3384.915" y="773" style="font:300 14px 'Lucida Console',monospace" fill="#666">amount:</text><text x="3447.916" y="773" style="font:300 14px 'Lucida Console',monospace" fill="#02b57b">Decimal</text><text x="3384.915" y="787" style="font:300 14px 'Lucida Console',monospace" fill="#666">currency:</text><text x="3464.774" y="787" style="font:300 14px 'Lucida Console',monospace" fill="#02b57b">Text</text><path fill="#FFFFFF" stroke="#2ECB70" stroke-width="3" d="M3766.632 715h241.717v80h-241.717z"/><path fill="#2ecb70" stroke="#2ecb70" d="M3767.632 756h241.717"/><path fill="none" stroke="#2ECB70" stroke-width="3" d="M3766.632 715h241.717v80h-241.717z"/><text x="3776.632" y="733" style="font:700 16px 'Lucida Console',monospace" fill="#000000">InsuranceAmount</text><text x="3776.632" y="749" style="font:300 14px 'Lucida Console',monospace" fill="#999">＜＜vtd.MonetaryAmount＞＞</text><text x="3776.632" y="773" style="font:300 14px 'Lucida Console',monospace" fill="#666">amount:</text><text x="3839.633" y="773" style="font:300 14px 'Lucida Console',monospace" fill="#02b57b">Decimal</text><text x="3776.632" y="787" style="font:300 14px 'Lucida Console',monospace" fill="#666">currency:</text><text x="3856.49" y="787" style="font:300 14px 'Lucida Console',monospace" fill="#02b57b">Text</text><path fill="#FFFFFF" stroke="#2ECB70" stroke-width="3" d="M4158.349 715h241.717v80h-241.717z"/><path fill="#2ecb70" stroke="#2ecb70" d="M4159.349 756h241.717"/><path fill="none" stroke="#2ECB70" stroke-width="3" d="M4158.349 715h241.717v80h-241.717z"/><text x="4168.349" y="733" style="font:700 16px 'Lucida Console',monospace" fill="#000000">TaxAmount</text><text x="4168.349" y="749" style="font:300 14px 'Lucida Console',monospace" fill="#999">＜＜vtd.MonetaryAmount＞＞</text><text x="4168.349" y="773" style="font:300 14px 'Lucida Console',monospace" fill="#666">amount:</text><text x="4231.35" y="773" style="font:300 14px 'Lucida Console',monospace" fill="#02b57b">Decimal</text><text x="4168.349" y="787" style="font:300 14px 'Lucida Console',monospace" fill="#666">currency:</text><text x="4248.207" y="787" style="font:300 14px 'Lucida Console',monospace" fill="#02b57b">Text</text><path fill="#FFFFFF" stroke="#2ECB70" stroke-width="3" d="M4550.066 708h250.146v94h-250.146z"/><path fill="#2ecb70" stroke="#2ecb70" d="M4551.066 749h250.145"/><path fill="none" stroke="#2ECB70" stroke-width="3" d="M4550.066 708h250.146v94h-250.146z"/><text x="4560.066" y="726" style="font:700 16px 'Lucida Console',monospace" fill="#000000">Goods</text><text x="4560.066" y="742" style="font:300 14px 'Lucida Console',monospace" fill="#999">＜＜vtd.ConsignmentItem＞＞</text><text x="4560.066" y="766" style="font:300 14px 'Lucida Console',monospace" fill="#000000">descriptionOfGoods:</text><text x="4724.211" y="766" style="font:300 14px 'Lucida Console',monospace" fill="#02b57b">Text</text><text x="4560.066" y="780" style="font:300 14px 'Lucida Console',monospace" fill="#000000">numberOfPackages:</text><text x="4707.354" y="780" style="font:300 14px 'Lucida Console',monospace" fill="#02b57b">Integer</text><text x="4560.066" y="794" style="font:300 14px 'Lucida Console',monospace" fill="#000000">commodityCode:</text><text x="4682.068" y="794" style="font:300 14px 'Lucida Console',monospace" fill="#02b57b">Text</text></svg>