<svg xmlns="http://www.w3.org/2000/svg" viewBox="130 -137.866 1083.645 1213.866"><rect width="1000%" height="1000%" x="-500%" y="-500%" fill="#EEEEEE"/><path fill="none" stroke="#EEEEEE" stroke-width="8" d="M418.25-63.856l-.01-.01v388.562h19.256"/><defs><linearGradient id="a" x1="0%" x2="50%" y1="0%" y2="50%"><stop offset="0%" stop-color="#2ECB70"/><stop offset="100%" stop-color="#2ECB70"/></linearGradient></defs><path fill="none" stroke="url(#a)" stroke-width="3" d="M418.25-63.856l-.01-.01v388.562h19.256"/><path fill="none" stroke="#EEEEEE" stroke-width="8" d="M406.648 299.992l-.01-.01v451.417h139.3"/><defs><linearGradient id="b" x1="0%" x2="50%" y1="0%" y2="50%"><stop offset="0%" stop-color="#2ECB70"/><stop offset="100%" stop-color="#3397DA"/></linearGradient></defs><path fill="none" stroke="url(#b)" stroke-width="3" d="M406.648 299.992l-.01-.01v451.417h139.3"/><path fill="none" stroke="#EEEEEE" stroke-width="8" d="M283.218 201.134l-.01-.01V768h-29.207"/><defs><linearGradient id="c" x1="0%" x2="50%" y1="0%" y2="50%"><stop offset="0%" stop-color="#2ECB70"/><stop offset="100%" stop-color="#3397DA"/></linearGradient></defs><path fill="none" stroke="url(#c)" stroke-width="3" d="M283.218 201.134l-.01-.01V768h-29.207"/><path fill="none" stroke="#EEEEEE" stroke-width="8" d="M344.933 250.563l-.01-.01V968h9.078"/><defs><linearGradient id="d" x1="0%" x2="50%" y1="0%" y2="50%"><stop offset="0%" stop-color="#2ECB70"/><stop offset="100%" stop-color="#3397DA"/></linearGradient></defs><path fill="none" stroke="url(#d)" stroke-width="3" d="M344.933 250.563l-.01-.01V968h9.078"/><path fill="none" stroke="#EEEEEE" stroke-width="8" d="M468.364 349.42l-.01-.01V968H704"/><defs><linearGradient id="e" x1="0%" x2="50%" y1="0%" y2="50%"><stop offset="0%" stop-color="#2ECB70"/><stop offset="100%" stop-color="#3397DA"/></linearGradient></defs><path fill="none" stroke="url(#e)" stroke-width="3" d="M468.364 349.42l-.01-.01V968H704"/><path fill="none" stroke="#EEEEEE" stroke-width="8" d="M530.079 299.992l-.01-.01v433.602h318.578"/><defs><linearGradient id="f" x1="0%" x2="50%" y1="0%" y2="50%"><stop offset="0%" stop-color="#2ECB70"/><stop offset="100%" stop-color="#3397DA"/></linearGradient></defs><path fill="none" stroke="url(#f)" stroke-width="3" d="M530.079 299.992l-.01-.01v433.602h318.578"/><path fill="none" stroke="#EEEEEE" stroke-width="8" d="M591.794 250.563l-.01-.01h409.144v-7.454"/><defs><linearGradient id="g" x1="0%" x2="50%" y1="0%" y2="50%"><stop offset="0%" stop-color="#2ECB70"/><stop offset="100%" stop-color="#2ECB70"/></linearGradient></defs><path fill="none" stroke="url(#g)" stroke-width="3" d="M591.794 250.563l-.01-.01h409.144v-7.454"/><path fill="none" stroke="url(#g)" stroke-width="1.5" d="M807.722 230.563l-2.01-.01v8h2M811.722 230.563l1.99-.01v8h-2"/><path fill="none" stroke="#EEEEEE" stroke-width="8" d="M1000.938 243.11l-.01-.01V433h61.502"/><defs><linearGradient id="h" x1="0%" x2="50%" y1="0%" y2="50%"><stop offset="0%" stop-color="#2ECB70"/><stop offset="100%" stop-color="#2ECB70"/></linearGradient></defs><path fill="none" stroke="url(#h)" stroke-width="3" d="M1000.938 243.11l-.01-.01V433h61.502"/><path fill="#FFFFFF" stroke="#2ECB70" stroke-width="3" d="M251.024-117.866h334.433v108H251.024z"/><path fill="#2ecb70" stroke="#2ecb70" d="M252.024-76.866h334.433"/><path fill="none" stroke="#2ECB70" stroke-width="3" d="M251.024-117.866h334.433v108H251.024z"/><text x="261.024" y="-99.866" style="font:700 16px 'Lucida Console',monospace" fill="#000000">CommercialInvoice</text><text x="261.024" y="-83.866" style="font:300 14px 'Lucida Console',monospace" fill="#999">＜＜vtd-core.VerifiableCredential＞＞</text><text x="261.024" y="-59.866" style="font:300 14px 'Lucida Console',monospace" fill="#666">issuer:</text><text x="324.025" y="-59.866" style="font:300 14px 'Lucida Console',monospace" fill="#02b57b">Party</text><text x="261.024" y="-45.866" style="font:300 14px 'Lucida Console',monospace" fill="#666">issuanceDate:</text><text x="374.598" y="-45.866" style="font:300 14px 'Lucida Console',monospace" fill="#02b57b">DateTime</text><text x="261.024" y="-31.866" style="font:300 14px 'Lucida Console',monospace" fill="#666">id:</text><text x="290.311" y="-31.866" style="font:300 14px 'Lucida Console',monospace" fill="#02b57b">URI</text><text x="261.024" y="-17.866" style="font:300 14px 'Lucida Console',monospace" fill="#000000">credentialSubject:</text><text x="416.741" y="-17.866" style="font:300 14px 'Lucida Console',monospace" fill="#2ECB70">Invoice</text><path fill="#FFFFFF" stroke="#2ECB70" stroke-width="3" d="M221.493 151.696h432.006v346H221.493z"/><path fill="#2ecb70" stroke="#2ecb70" d="M222.493 192.696H654.5"/><path fill="none" stroke="#2ECB70" stroke-width="3" d="M221.493 151.696h432.006v346H221.493z"/><text x="231.493" y="169.696" style="font:700 16px 'Lucida Console',monospace" fill="#000000">Invoice</text><text x="231.493" y="185.696" style="font:300 14px 'Lucida Console',monospace" fill="#999">＜＜vtd-core.CredentialSubject＞＞</text><text x="231.493" y="209.696" style="font:300 14px 'Lucida Console',monospace" fill="#000000">purchaseOrderNumber:</text><text x="404.067" y="209.696" style="font:300 14px 'Lucida Console',monospace" fill="#02b57b">Text</text><text x="231.493" y="223.696" style="font:300 14px 'Lucida Console',monospace" fill="#000000">contractNumber:</text><text x="361.924" y="223.696" style="font:300 14px 'Lucida Console',monospace" fill="#02b57b">Text</text><text x="231.493" y="237.696" style="font:300 14px 'Lucida Console',monospace" fill="#000000">invoiceNumber:</text><text x="353.495" y="237.696" style="font:300 14px 'Lucida Console',monospace" fill="#02b57b">Text</text><text x="231.493" y="251.696" style="font:300 14px 'Lucida Console',monospace" fill="#000000">issueDate:</text><text x="319.78" y="251.696" style="font:300 14px 'Lucida Console',monospace" fill="#02b57b">Date</text><text x="231.493" y="265.696" style="font:300 14px 'Lucida Console',monospace" fill="#000000">invoiceDate:</text><text x="336.638" y="265.696" style="font:300 14px 'Lucida Console',monospace" fill="#02b57b">Date</text><text x="231.493" y="279.696" style="font:300 14px 'Lucida Console',monospace" fill="#000000">paymentDueDate:</text><text x="361.924" y="279.696" style="font:300 14px 'Lucida Console',monospace" fill="#02b57b">Date</text><text x="231.493" y="293.696" style="font:300 14px 'Lucida Console',monospace" fill="#000000">buyer:</text><text x="286.065" y="293.696" style="font:300 14px 'Lucida Console',monospace" fill="#3397DA">Buyer</text><text x="231.493" y="307.696" style="font:300 14px 'Lucida Console',monospace" fill="#000000">invoicee:</text><text x="311.351" y="307.696" style="font:300 14px 'Lucida Console',monospace" fill="#3397DA">Invoicee</text><text x="231.493" y="321.696" style="font:300 14px 'Lucida Console',monospace" fill="#000000">sellersBank:</text><text x="336.638" y="321.696" style="font:300 14px 'Lucida Console',monospace" fill="#3397DA">SellersBank</text><text x="231.493" y="335.696" style="font:300 14px 'Lucida Console',monospace" fill="#000000">documentaryCreditApplicant:</text><text x="463.068" y="335.696" style="font:300 14px 'Lucida Console',monospace" fill="#3397DA">CreditApplicant</text><text x="231.493" y="349.696" style="font:300 14px 'Lucida Console',monospace" fill="#000000">seller:</text><text x="294.494" y="349.696" style="font:300 14px 'Lucida Console',monospace" fill="#3397DA">Seller</text><text x="231.493" y="363.696" style="font:300 14px 'Lucida Console',monospace" fill="#000000">sellerBankAccountNumber:</text><text x="437.782" y="363.696" style="font:300 14px 'Lucida Console',monospace" fill="#02b57b">Text</text><text x="231.493" y="377.696" style="font:300 14px 'Lucida Console',monospace" fill="#000000">originalLoadingLocation:</text><text x="437.782" y="377.696" style="font:300 14px 'Lucida Console',monospace" fill="#547000">vtd-core.Location</text><text x="231.493" y="391.696" style="font:300 14px 'Lucida Console',monospace" fill="#000000">originCountry:</text><text x="353.495" y="391.696" style="font:300 14px 'Lucida Console',monospace" fill="#547000">vtd-core.Location</text><text x="231.493" y="405.696" style="font:300 14px 'Lucida Console',monospace" fill="#000000">baseportUnloadingLocation:</text><text x="454.64" y="405.696" style="font:300 14px 'Lucida Console',monospace" fill="#02b57b">Text</text><text x="231.493" y="419.696" style="font:300 14px 'Lucida Console',monospace" fill="#000000">tradeTermsConditionsDescription:</text><text x="505.212" y="419.696" style="font:300 14px 'Lucida Console',monospace" fill="#02b57b">Text</text><text x="231.493" y="433.696" style="font:300 14px 'Lucida Console',monospace" fill="#000000">tradeTermsConditionsCode:</text><text x="446.211" y="433.696" style="font:300 14px 'Lucida Console',monospace" fill="#02b57b">Text</text><text x="231.493" y="447.696" style="font:300 14px 'Lucida Console',monospace" fill="#000000">paymentTerms:</text><text x="345.066" y="447.696" style="font:300 14px 'Lucida Console',monospace" fill="#02b57b">Text</text><text x="231.493" y="461.696" style="font:300 14px 'Lucida Console',monospace" fill="#000000">paymentMethod:</text><text x="353.495" y="461.696" style="font:300 14px 'Lucida Console',monospace" fill="#02b57b">Text</text><text x="231.493" y="475.696" style="font:300 14px 'Lucida Console',monospace" fill="#000000">itemsShipped:</text><text x="345.066" y="475.696" style="font:300 14px 'Lucida Console',monospace" fill="#2ECB70">TradeLineItem[]</text><text x="231.493" y="489.696" style="font:300 14px 'Lucida Console',monospace" fill="#000000">totalAmount:</text><text x="336.638" y="489.696" style="font:300 14px 'Lucida Console',monospace" fill="#547000">vtd-core.MonetaryAmount</text><path fill="#FFFFFF" stroke="#2ECB70" stroke-width="3" d="M828.212 169.099h345.434v148H828.212z"/><path fill="#2ecb70" stroke="#2ecb70" d="M829.212 194.1h345.433"/><path fill="none" stroke="#2ECB70" stroke-width="3" d="M828.212 169.099h345.434v148H828.212z"/><text x="838.212" y="187.099" style="font:700 16px 'Lucida Console',monospace" fill="#000000">TradeLineItem</text><text x="838.212" y="211.099" style="font:300 14px 'Lucida Console',monospace" fill="#000000">product:</text><text x="909.641" y="211.099" style="font:300 14px 'Lucida Console',monospace" fill="#2ECB70">Product</text><text x="838.212" y="225.099" style="font:300 14px 'Lucida Console',monospace" fill="#000000">sku:</text><text x="875.926" y="225.099" style="font:300 14px 'Lucida Console',monospace" fill="#02b57b">Text</text><text x="838.212" y="239.099" style="font:300 14px 'Lucida Console',monospace" fill="#000000">itemCount:</text><text x="926.499" y="239.099" style="font:300 14px 'Lucida Console',monospace" fill="#02b57b">Numeric</text><text x="838.212" y="253.099" style="font:300 14px 'Lucida Console',monospace" fill="#000000">netWeight:</text><text x="926.499" y="253.099" style="font:300 14px 'Lucida Console',monospace" fill="#547000">vtd-core.Quantity</text><text x="838.212" y="267.099" style="font:300 14px 'Lucida Console',monospace" fill="#000000">grossWeight:</text><text x="943.356" y="267.099" style="font:300 14px 'Lucida Console',monospace" fill="#547000">vtd-core.Quantity</text><text x="838.212" y="281.099" style="font:300 14px 'Lucida Console',monospace" fill="#000000">productPrice:</text><text x="951.785" y="281.099" style="font:300 14px 'Lucida Console',monospace" fill="#547000">vtd-core.MonetaryAmount</text><text x="838.212" y="295.099" style="font:300 14px 'Lucida Console',monospace" fill="#000000">commodity:</text><text x="926.499" y="295.099" style="font:300 14px 'Lucida Console',monospace" fill="#02b57b">Text</text><text x="838.212" y="309.099" style="font:300 14px 'Lucida Console',monospace" fill="#000000">amount:</text><text x="901.213" y="309.099" style="font:300 14px 'Lucida Console',monospace" fill="#547000">vtd-core.MonetaryAmount</text><path fill="#FFFFFF" stroke="#2ECB70" stroke-width="3" d="M950 400h224.859v66H950z"/><path fill="#2ecb70" stroke="#2ecb70" d="M951 441h224.86"/><path fill="none" stroke="#2ECB70" stroke-width="3" d="M950 400h224.859v66H950z"/><text x="960" y="418" style="font:700 16px 'Lucida Console',monospace" fill="#000000">Product</text><text x="960" y="434" style="font:300 14px 'Lucida Console',monospace" fill="#999">＜＜vtd-core.Product＞＞</text><text x="960" y="458" style="font:300 14px 'Lucida Console',monospace" fill="#666">id:</text><text x="989.286" y="458" style="font:300 14px 'Lucida Console',monospace" fill="#02b57b">URI</text><path fill="#FFFFFF" stroke="#3397DA" stroke-width="3" d="M441.937 683.399h208.002v136H441.937z"/><path fill="#3397da" stroke="#3397da" d="M442.937 724.4H650.94"/><path fill="none" stroke="#3397DA" stroke-width="3" d="M441.937 683.399h208.002v136H441.937z"/><text x="451.937" y="701.399" style="font:700 16px 'Lucida Console',monospace" fill="#000000">Buyer</text><text x="451.937" y="717.399" style="font:300 14px 'Lucida Console',monospace" fill="#999">＜＜vtd-core.Party＞＞</text><text x="451.937" y="741.399" style="font:300 14px 'Lucida Console',monospace" fill="#666">id:</text><text x="481.224" y="741.399" style="font:300 14px 'Lucida Console',monospace" fill="#C9A30B">URI</text><text x="451.937" y="755.399" style="font:300 14px 'Lucida Console',monospace" fill="#666">street:</text><text x="514.938" y="755.399" style="font:300 14px 'Lucida Console',monospace" fill="#02b57b">Text</text><text x="451.937" y="769.399" style="font:300 14px 'Lucida Console',monospace" fill="#666">city:</text><text x="498.081" y="769.399" style="font:300 14px 'Lucida Console',monospace" fill="#02b57b">Text</text><text x="451.937" y="783.399" style="font:300 14px 'Lucida Console',monospace" fill="#666">state:</text><text x="506.51" y="783.399" style="font:300 14px 'Lucida Console',monospace" fill="#02b57b">Text</text><text x="451.937" y="797.399" style="font:300 14px 'Lucida Console',monospace" fill="#666">zip:</text><text x="489.652" y="797.399" style="font:300 14px 'Lucida Console',monospace" fill="#02b57b">Numeric</text><text x="451.937" y="811.399" style="font:300 14px 'Lucida Console',monospace" fill="#666">country:</text><text x="523.367" y="811.399" style="font:300 14px 'Lucida Console',monospace" fill="#02b57b">Text</text><path fill="#FFFFFF" stroke="#3397DA" stroke-width="3" d="M150 700h208.002v136H150z"/><path fill="#3397da" stroke="#3397da" d="M151 741h208.002"/><path fill="none" stroke="#3397DA" stroke-width="3" d="M150 700h208.002v136H150z"/><text x="160" y="718" style="font:700 16px 'Lucida Console',monospace" fill="#000000">Invoicee</text><text x="160" y="734" style="font:300 14px 'Lucida Console',monospace" fill="#999">＜＜vtd-core.Party＞＞</text><text x="160" y="758" style="font:300 14px 'Lucida Console',monospace" fill="#666">id:</text><text x="189.286" y="758" style="font:300 14px 'Lucida Console',monospace" fill="#C9A30B">URI</text><text x="160" y="772" style="font:300 14px 'Lucida Console',monospace" fill="#666">street:</text><text x="223.001" y="772" style="font:300 14px 'Lucida Console',monospace" fill="#02b57b">Text</text><text x="160" y="786" style="font:300 14px 'Lucida Console',monospace" fill="#666">city:</text><text x="206.144" y="786" style="font:300 14px 'Lucida Console',monospace" fill="#02b57b">Text</text><text x="160" y="800" style="font:300 14px 'Lucida Console',monospace" fill="#666">state:</text><text x="214.572" y="800" style="font:300 14px 'Lucida Console',monospace" fill="#02b57b">Text</text><text x="160" y="814" style="font:300 14px 'Lucida Console',monospace" fill="#666">zip:</text><text x="197.715" y="814" style="font:300 14px 'Lucida Console',monospace" fill="#02b57b">Numeric</text><text x="160" y="828" style="font:300 14px 'Lucida Console',monospace" fill="#666">country:</text><text x="231.43" y="828" style="font:300 14px 'Lucida Console',monospace" fill="#02b57b">Text</text><path fill="#FFFFFF" stroke="#3397DA" stroke-width="3" d="M250 900h208.002v136H250z"/><path fill="#3397da" stroke="#3397da" d="M251 941h208.002"/><path fill="none" stroke="#3397DA" stroke-width="3" d="M250 900h208.002v136H250z"/><text x="260" y="918" style="font:700 16px 'Lucida Console',monospace" fill="#000000">SellersBank</text><text x="260" y="934" style="font:300 14px 'Lucida Console',monospace" fill="#999">＜＜vtd-core.Party＞＞</text><text x="260" y="958" style="font:300 14px 'Lucida Console',monospace" fill="#666">id:</text><text x="289.286" y="958" style="font:300 14px 'Lucida Console',monospace" fill="#C9A30B">URI</text><text x="260" y="972" style="font:300 14px 'Lucida Console',monospace" fill="#666">street:</text><text x="323.001" y="972" style="font:300 14px 'Lucida Console',monospace" fill="#02b57b">Text</text><text x="260" y="986" style="font:300 14px 'Lucida Console',monospace" fill="#666">city:</text><text x="306.144" y="986" style="font:300 14px 'Lucida Console',monospace" fill="#02b57b">Text</text><text x="260" y="1000" style="font:300 14px 'Lucida Console',monospace" fill="#666">state:</text><text x="314.572" y="1000" style="font:300 14px 'Lucida Console',monospace" fill="#02b57b">Text</text><text x="260" y="1014" style="font:300 14px 'Lucida Console',monospace" fill="#666">zip:</text><text x="297.715" y="1014" style="font:300 14px 'Lucida Console',monospace" fill="#02b57b">Numeric</text><text x="260" y="1028" style="font:300 14px 'Lucida Console',monospace" fill="#666">country:</text><text x="331.43" y="1028" style="font:300 14px 'Lucida Console',monospace" fill="#02b57b">Text</text><path fill="#FFFFFF" stroke="#3397DA" stroke-width="3" d="M600 900h208.002v136H600z"/><path fill="#3397da" stroke="#3397da" d="M601 941h208.002"/><path fill="none" stroke="#3397DA" stroke-width="3" d="M600 900h208.002v136H600z"/><text x="610" y="918" style="font:700 16px 'Lucida Console',monospace" fill="#000000">CreditApplicant</text><text x="610" y="934" style="font:300 14px 'Lucida Console',monospace" fill="#999">＜＜vtd-core.Party＞＞</text><text x="610" y="958" style="font:300 14px 'Lucida Console',monospace" fill="#666">id:</text><text x="639.286" y="958" style="font:300 14px 'Lucida Console',monospace" fill="#C9A30B">URI</text><text x="610" y="972" style="font:300 14px 'Lucida Console',monospace" fill="#666">street:</text><text x="673.001" y="972" style="font:300 14px 'Lucida Console',monospace" fill="#02b57b">Text</text><text x="610" y="986" style="font:300 14px 'Lucida Console',monospace" fill="#666">city:</text><text x="656.144" y="986" style="font:300 14px 'Lucida Console',monospace" fill="#02b57b">Text</text><text x="610" y="1000" style="font:300 14px 'Lucida Console',monospace" fill="#666">state:</text><text x="664.572" y="1000" style="font:300 14px 'Lucida Console',monospace" fill="#02b57b">Text</text><text x="610" y="1014" style="font:300 14px 'Lucida Console',monospace" fill="#666">zip:</text><text x="647.715" y="1014" style="font:300 14px 'Lucida Console',monospace" fill="#02b57b">Numeric</text><text x="610" y="1028" style="font:300 14px 'Lucida Console',monospace" fill="#666">country:</text><text x="681.43" y="1028" style="font:300 14px 'Lucida Console',monospace" fill="#02b57b">Text</text><path fill="#FFFFFF" stroke="#3397DA" stroke-width="3" d="M744.646 665.584h208.002v136H744.646z"/><path fill="#3397da" stroke="#3397da" d="M745.646 706.584h208.002"/><path fill="none" stroke="#3397DA" stroke-width="3" d="M744.646 665.584h208.002v136H744.646z"/><text x="754.646" y="683.584" style="font:700 16px 'Lucida Console',monospace" fill="#000000">Seller</text><text x="754.646" y="699.584" style="font:300 14px 'Lucida Console',monospace" fill="#999">＜＜vtd-core.Party＞＞</text><text x="754.646" y="723.584" style="font:300 14px 'Lucida Console',monospace" fill="#666">id:</text><text x="783.932" y="723.584" style="font:300 14px 'Lucida Console',monospace" fill="#C9A30B">URI</text><text x="754.646" y="737.584" style="font:300 14px 'Lucida Console',monospace" fill="#666">street:</text><text x="817.647" y="737.584" style="font:300 14px 'Lucida Console',monospace" fill="#02b57b">Text</text><text x="754.646" y="751.584" style="font:300 14px 'Lucida Console',monospace" fill="#666">city:</text><text x="800.79" y="751.584" style="font:300 14px 'Lucida Console',monospace" fill="#02b57b">Text</text><text x="754.646" y="765.584" style="font:300 14px 'Lucida Console',monospace" fill="#666">state:</text><text x="809.219" y="765.584" style="font:300 14px 'Lucida Console',monospace" fill="#02b57b">Text</text><text x="754.646" y="779.584" style="font:300 14px 'Lucida Console',monospace" fill="#666">zip:</text><text x="792.361" y="779.584" style="font:300 14px 'Lucida Console',monospace" fill="#02b57b">Numeric</text><text x="754.646" y="793.584" style="font:300 14px 'Lucida Console',monospace" fill="#666">country:</text><text x="826.076" y="793.584" style="font:300 14px 'Lucida Console',monospace" fill="#02b57b">Text</text></svg>