<svg xmlns="http://www.w3.org/2000/svg" viewBox="-220 -20 730.38 423"><rect width="1000%" height="1000%" x="-500%" y="-500%" fill="#EEEEEE"/><path fill="none" stroke="#EEEEEE" stroke-width="8" d="M2.442 54.01l-.01-.01h353.07v228"/><defs><linearGradient id="a" x1="0%" x2="50%" y1="0%" y2="50%"><stop offset="0%" stop-color="#2ECB70"/><stop offset="100%" stop-color="#2ECB70"/></linearGradient></defs><path fill="none" stroke="url(#a)" stroke-width="3" d="M2.442 54.01l-.01-.01h353.07v228"/><path fill="none" stroke="#EEEEEE" stroke-width="8" d="M355.511 282.01l-.01-.01H11.454v-9.746"/><defs><linearGradient id="b" x1="100%" x2="50%" y1="100%" y2="50%"><stop offset="0%" stop-color="#2ECB70"/><stop offset="100%" stop-color="#2ECB70"/></linearGradient></defs><path fill="none" stroke="url(#b)" stroke-width="3" d="M355.511 282.01l-.01-.01H11.454v-9.746"/><path fill="#FFFFFF" stroke="#2ECB70" stroke-width="3" d="M-200 0h404.863v108H-200z"/><path fill="#2ecb70" stroke="#2ecb70" d="M-199 41h404.863"/><path fill="none" stroke="#2ECB70" stroke-width="3" d="M-200 0h404.863v108H-200z"/><text x="-190" y="18" style="font:700 16px 'Lucida Console',monospace" fill="#000000">CommercialInvoice</text><text x="-190" y="34" style="font:300 14px 'Lucida Console',monospace" fill="#999">＜＜vtd-core.VerifiableCredential＞＞</text><text x="-190" y="58" style="font:300 14px 'Lucida Console',monospace" fill="#666">issuer:</text><text x="-126.999" y="58" style="font:300 14px 'Lucida Console',monospace" fill="#02b57b">Party</text><text x="-190" y="72" style="font:300 14px 'Lucida Console',monospace" fill="#666">issuanceDate:</text><text x="-76.427" y="72" style="font:300 14px 'Lucida Console',monospace" fill="#02b57b">DateTime</text><text x="-190" y="86" style="font:300 14px 'Lucida Console',monospace" fill="#666">credentialSubject:</text><text x="-34.283" y="86" style="font:300 14px 'Lucida Console',monospace" fill="#2ECB70">CredentialSubject</text><text x="-190" y="100" style="font:300 14px 'Lucida Console',monospace" fill="#000000">vtd-core.CredentialSubject:</text><text x="41.575" y="100" style="font:300 14px 'Lucida Console',monospace" fill="#2ECB70">CredentialSubject</text><path fill="#FFFFFF" stroke="#2ECB70" stroke-width="3" d="M240.623 201h229.758v162H240.623z"/><path fill="#2ecb70" stroke="#2ecb70" d="M241.623 226H471.38"/><path fill="none" stroke="#2ECB70" stroke-width="3" d="M240.623 201h229.758v162H240.623z"/><text x="250.623" y="219" style="font:700 16px 'Lucida Console',monospace" fill="#000000">CredentialSubject</text><text x="250.623" y="243" style="font:300 14px 'Lucida Console',monospace" fill="#000000">invoiceNumber:</text><text x="372.625" y="243" style="font:300 14px 'Lucida Console',monospace" fill="#02b57b">Text</text><text x="250.623" y="257" style="font:300 14px 'Lucida Console',monospace" fill="#000000">contractNumber:</text><text x="381.053" y="257" style="font:300 14px 'Lucida Console',monospace" fill="#02b57b">Text</text><text x="250.623" y="271" style="font:300 14px 'Lucida Console',monospace" fill="#000000">amount:</text><text x="313.624" y="271" style="font:300 14px 'Lucida Console',monospace" fill="#02b57b">Decimal</text><text x="250.623" y="285" style="font:300 14px 'Lucida Console',monospace" fill="#000000">currency:</text><text x="330.481" y="285" style="font:300 14px 'Lucida Console',monospace" fill="#02b57b">Text</text><text x="250.623" y="299" style="font:300 14px 'Lucida Console',monospace" fill="#000000">buyer:</text><text x="305.195" y="299" style="font:300 14px 'Lucida Console',monospace" fill="#547000">vtd-core.Party</text><text x="250.623" y="313" style="font:300 14px 'Lucida Console',monospace" fill="#000000">seller:</text><text x="313.624" y="313" style="font:300 14px 'Lucida Console',monospace" fill="#547000">vtd-core.Party</text><text x="250.623" y="327" style="font:300 14px 'Lucida Console',monospace" fill="#000000">attr:</text><text x="296.766" y="327" style="font:300 14px 'Lucida Console',monospace" fill="#02b57b">Text</text><text x="250.623" y="341" style="font:300 14px 'Lucida Console',monospace" fill="#000000">attr2:</text><text x="305.195" y="341" style="font:300 14px 'Lucida Console',monospace" fill="#02b57b">Text</text><text x="250.623" y="355" style="font:300 14px 'Lucida Console',monospace" fill="#000000">test:</text><text x="296.766" y="355" style="font:300 14px 'Lucida Console',monospace" fill="#2ECB70">SampleClass</text><path fill="#FFFFFF" stroke="#2ECB70" stroke-width="3" d="M-80.546 247.254h184v50h-184z"/><path fill="#2ecb70" stroke="#2ecb70" d="M-79.546 272.254h184"/><path fill="none" stroke="#2ECB70" stroke-width="3" d="M-80.546 247.254h184v50h-184z"/><text x="-70.546" y="265.254" style="font:700 16px 'Lucida Console',monospace" fill="#000000">SampleClass</text><text x="-70.546" y="289.254" style="font:300 14px 'Lucida Console',monospace" fill="#000000">attr:</text><text x="-24.402" y="289.254" style="font:300 14px 'Lucida Console',monospace" fill="#02b57b">Text</text></svg>