<svg xmlns="http://www.w3.org/2000/svg" viewBox="-207.574 -67 1541.19 1590"><rect width="1000%" height="1000%" x="-500%" y="-500%" fill="#EEEEEE"/><path fill="none" stroke="#EEEEEE" stroke-width="8" d="M424.342.01l-.01-.01v442.544h17.866"/><defs><linearGradient id="a" x1="0%" x2="50%" y1="0%" y2="50%"><stop offset="0%" stop-color="#2ECB70"/><stop offset="100%" stop-color="#2ECB70"/></linearGradient></defs><path fill="none" stroke="url(#a)" stroke-width="3" d="M424.342.01l-.01-.01v442.544h17.866"/><path fill="none" stroke="#EEEEEE" stroke-width="8" d="M410.524 404.84l-.01-.01h486.418v-196.5"/><defs><linearGradient id="b" x1="0%" x2="50%" y1="0%" y2="50%"><stop offset="0%" stop-color="#2ECB70"/><stop offset="100%" stop-color="#3397DA"/></linearGradient></defs><path fill="none" stroke="url(#b)" stroke-width="3" d="M410.524 404.84l-.01-.01h486.418v-196.5"/><path fill="none" stroke="#EEEEEE" stroke-width="8" d="M452.77 455.125l-.01-.01h460.687V328.241"/><defs><linearGradient id="c" x1="0%" x2="50%" y1="0%" y2="50%"><stop offset="0%" stop-color="#2ECB70"/><stop offset="100%" stop-color="#3397DA"/></linearGradient></defs><path fill="none" stroke="url(#c)" stroke-width="3" d="M452.77 455.125l-.01-.01h460.687V328.241"/><path fill="none" stroke="#EEEEEE" stroke-width="8" d="M431.647 429.982l-.01-.01h467.979V443"/><defs><linearGradient id="d" x1="0%" x2="50%" y1="0%" y2="50%"><stop offset="0%" stop-color="#2ECB70"/><stop offset="100%" stop-color="#3397DA"/></linearGradient></defs><path fill="none" stroke="url(#d)" stroke-width="3" d="M431.647 429.982l-.01-.01h467.979V443"/><path fill="none" stroke="#EEEEEE" stroke-width="8" d="M473.893 429.982l-.01-.01h447.06V593"/><defs><linearGradient id="e" x1="0%" x2="50%" y1="0%" y2="50%"><stop offset="0%" stop-color="#2ECB70"/><stop offset="100%" stop-color="#3397DA"/></linearGradient></defs><path fill="none" stroke="url(#e)" stroke-width="3" d="M473.893 429.982l-.01-.01h447.06V593"/><path fill="none" stroke="#EEEEEE" stroke-width="8" d="M600.629 279.125l-.01-.01h598.997V193"/><defs><linearGradient id="f" x1="0%" x2="50%" y1="0%" y2="50%"><stop offset="0%" stop-color="#2ECB70"/><stop offset="100%" stop-color="#3397DA"/></linearGradient></defs><path fill="none" stroke="url(#f)" stroke-width="3" d="M600.629 279.125l-.01-.01h598.997V193"/><path fill="none" stroke="#EEEEEE" stroke-width="8" d="M579.506 304.268l-.01-.01h606.246v23.983"/><defs><linearGradient id="g" x1="0%" x2="50%" y1="0%" y2="50%"><stop offset="0%" stop-color="#2ECB70"/><stop offset="100%" stop-color="#3397DA"/></linearGradient></defs><path fill="none" stroke="url(#g)" stroke-width="3" d="M579.506 304.268l-.01-.01h606.246v23.983"/><path fill="none" stroke="#EEEEEE" stroke-width="8" d="M558.383 329.41l-.01-.01h623.9v122.385"/><defs><linearGradient id="h" x1="0%" x2="50%" y1="0%" y2="50%"><stop offset="0%" stop-color="#2ECB70"/><stop offset="100%" stop-color="#3397DA"/></linearGradient></defs><path fill="none" stroke="url(#h)" stroke-width="3" d="M558.383 329.41l-.01-.01h623.9v122.385"/><path fill="none" stroke="#EEEEEE" stroke-width="8" d="M537.26 354.554l-.01-.01h639.739v240.77"/><defs><linearGradient id="i" x1="0%" x2="50%" y1="0%" y2="50%"><stop offset="0%" stop-color="#2ECB70"/><stop offset="100%" stop-color="#3397DA"/></linearGradient></defs><path fill="none" stroke="url(#i)" stroke-width="3" d="M537.26 354.554l-.01-.01h639.739v240.77"/><path fill="none" stroke="#EEEEEE" stroke-width="8" d="M621.752 253.982l-.01-.01h577.874V743"/><defs><linearGradient id="j" x1="0%" x2="50%" y1="0%" y2="50%"><stop offset="0%" stop-color="#2ECB70"/><stop offset="100%" stop-color="#3397DA"/></linearGradient></defs><path fill="none" stroke="url(#j)" stroke-width="3" d="M621.752 253.982l-.01-.01h577.874V743"/><path fill="none" stroke="#EEEEEE" stroke-width="8" d="M495.015 404.84l-.01-.01h454.61V743"/><defs><linearGradient id="k" x1="0%" x2="50%" y1="0%" y2="50%"><stop offset="0%" stop-color="#2ECB70"/><stop offset="100%" stop-color="#3397DA"/></linearGradient></defs><path fill="none" stroke="url(#k)" stroke-width="3" d="M495.015 404.84l-.01-.01h454.61V743"/><path fill="none" stroke="#EEEEEE" stroke-width="8" d="M516.138 379.696l-.01-.01V889.64h454.254"/><defs><linearGradient id="l" x1="0%" x2="50%" y1="0%" y2="50%"><stop offset="0%" stop-color="#2ECB70"/><stop offset="100%" stop-color="#3397DA"/></linearGradient></defs><path fill="none" stroke="url(#l)" stroke-width="3" d="M516.138 379.696l-.01-.01V889.64h454.254"/><path fill="none" stroke="#EEEEEE" stroke-width="8" d="M642.874 228.84l-.01-.01V893h558.814"/><defs><linearGradient id="m" x1="0%" x2="50%" y1="0%" y2="50%"><stop offset="0%" stop-color="#2ECB70"/><stop offset="100%" stop-color="#3397DA"/></linearGradient></defs><path fill="none" stroke="url(#m)" stroke-width="3" d="M642.874 228.84l-.01-.01V893h558.814"/><path fill="none" stroke="#EEEEEE" stroke-width="8" d="M368.279 354.554l-.01-.01v517.409h220.2"/><defs><linearGradient id="n" x1="0%" x2="50%" y1="0%" y2="50%"><stop offset="0%" stop-color="#2ECB70"/><stop offset="100%" stop-color="#2ECB70"/></linearGradient></defs><path fill="none" stroke="url(#n)" stroke-width="3" d="M368.279 354.554l-.01-.01v517.409h220.2"/><path fill="none" stroke="#EEEEEE" stroke-width="8" d="M389.402 379.696l-.01-.01v675.236h209.322"/><defs><linearGradient id="o" x1="0%" x2="50%" y1="0%" y2="50%"><stop offset="0%" stop-color="#2ECB70"/><stop offset="100%" stop-color="#2ECB70"/></linearGradient></defs><path fill="none" stroke="url(#o)" stroke-width="3" d="M389.402 379.696l-.01-.01v675.236h209.322"/><path fill="none" stroke="#EEEEEE" stroke-width="8" d="M347.156 329.41l-.01-.01v923.013H572.75"/><defs><linearGradient id="p" x1="0%" x2="50%" y1="0%" y2="50%"><stop offset="0%" stop-color="#2ECB70"/><stop offset="100%" stop-color="#2ECB70"/></linearGradient></defs><path fill="none" stroke="url(#p)" stroke-width="3" d="M347.156 329.41l-.01-.01v923.013H572.75"/><path fill="none" stroke="#EEEEEE" stroke-width="8" d="M326.033 304.268l-.01-.01V1443h225.165"/><defs><linearGradient id="q" x1="0%" x2="50%" y1="0%" y2="50%"><stop offset="0%" stop-color="#2ECB70"/><stop offset="100%" stop-color="#2ECB70"/></linearGradient></defs><path fill="none" stroke="url(#q)" stroke-width="3" d="M326.033 304.268l-.01-.01V1443h225.165"/><path fill="none" stroke="#EEEEEE" stroke-width="8" d="M304.91 279.125l-.01-.01v731.938H74.413"/><defs><linearGradient id="r" x1="0%" x2="50%" y1="0%" y2="50%"><stop offset="0%" stop-color="#2ECB70"/><stop offset="100%" stop-color="#2ECB70"/></linearGradient></defs><path fill="none" stroke="url(#r)" stroke-width="3" d="M304.91 279.125l-.01-.01v731.938H74.413"/><path fill="none" stroke="#EEEEEE" stroke-width="8" d="M241.543 203.696l-.01-.01v665.375H0"/><defs><linearGradient id="s" x1="0%" x2="50%" y1="0%" y2="50%"><stop offset="0%" stop-color="#2ECB70"/><stop offset="100%" stop-color="#2ECB70"/></linearGradient></defs><path fill="none" stroke="url(#s)" stroke-width="3" d="M241.543 203.696l-.01-.01v665.375H0"/><path fill="none" stroke="#EEEEEE" stroke-width="8" d="M262.665 228.84l-.01-.01v905.657H.157"/><defs><linearGradient id="t" x1="0%" x2="50%" y1="0%" y2="50%"><stop offset="0%" stop-color="#2ECB70"/><stop offset="100%" stop-color="#2ECB70"/></linearGradient></defs><path fill="none" stroke="url(#t)" stroke-width="3" d="M262.665 228.84l-.01-.01v905.657H.157"/><path fill="none" stroke="#EEEEEE" stroke-width="8" d="M283.788 253.982l-.01-.01v1082.665H20.596"/><defs><linearGradient id="u" x1="0%" x2="50%" y1="0%" y2="50%"><stop offset="0%" stop-color="#2ECB70"/><stop offset="100%" stop-color="#2ECB70"/></linearGradient></defs><path fill="none" stroke="url(#u)" stroke-width="3" d="M283.788 253.982l-.01-.01v1082.665H20.596"/><path fill="#FFFFFF" stroke="#2ECB70" stroke-width="3" d="M255.616-47H593.05v94H255.616z"/><path fill="#2ecb70" stroke="#2ecb70" d="M256.616-6h337.433"/><path fill="none" stroke="#2ECB70" stroke-width="3" d="M255.616-47H593.05v94H255.616z"/><text x="265.616" y="-29" style="font:700 16px 'Lucida Console',monospace" fill="#000000">CustomsDeclarationCredential</text><text x="265.616" y="-13" style="font:300 14px 'Lucida Console',monospace" fill="#999">＜＜vtd.VerifiableCredential＞＞</text><text x="265.616" y="11" style="font:300 14px 'Lucida Console',monospace" fill="#666">issuer:</text><text x="328.617" y="11" style="font:300 14px 'Lucida Console',monospace" fill="#02b57b">Party</text><text x="265.616" y="25" style="font:300 14px 'Lucida Console',monospace" fill="#666">issuanceDate:</text><text x="379.189" y="25" style="font:300 14px 'Lucida Console',monospace" fill="#02b57b">DateTime</text><text x="265.616" y="39" style="font:300 14px 'Lucida Console',monospace" fill="#000000">credentialSubject:</text><text x="421.332" y="39" style="font:300 14px 'Lucida Console',monospace" fill="#2ECB70">CustomsDeclaration</text><path fill="#FFFFFF" stroke="#2ECB70" stroke-width="3" d="M220.41 178.544h443.577v528H220.41z"/><path fill="#2ecb70" stroke="#2ecb70" d="M221.41 219.544h443.577"/><path fill="none" stroke="#2ECB70" stroke-width="3" d="M220.41 178.544h443.577v528H220.41z"/><text x="230.41" y="196.544" style="font:700 16px 'Lucida Console',monospace" fill="#000000">CustomsDeclaration</text><text x="230.41" y="212.544" style="font:300 14px 'Lucida Console',monospace" fill="#999">＜＜vtd.CredentialSubject＞＞</text><text x="230.41" y="236.544" style="font:300 14px 'Lucida Console',monospace" fill="#000000">documentIdentifier:</text><text x="394.555" y="236.544" style="font:300 14px 'Lucida Console',monospace" fill="#02b57b">Text</text><text x="230.41" y="250.544" style="font:300 14px 'Lucida Console',monospace" fill="#000000">bookingReferenceNumber:</text><text x="428.27" y="250.544" style="font:300 14px 'Lucida Console',monospace" fill="#02b57b">Text</text><text x="230.41" y="264.544" style="font:300 14px 'Lucida Console',monospace" fill="#000000">customsDeclarationReference:</text><text x="470.414" y="264.544" style="font:300 14px 'Lucida Console',monospace" fill="#02b57b">Text</text><text x="230.41" y="278.544" style="font:300 14px 'Lucida Console',monospace" fill="#000000">transportDocumentNumber:</text><text x="436.699" y="278.544" style="font:300 14px 'Lucida Console',monospace" fill="#02b57b">Text</text><text x="230.41" y="292.544" style="font:300 14px 'Lucida Console',monospace" fill="#000000">uniqueConsignmentReference:</text><text x="461.985" y="292.544" style="font:300 14px 'Lucida Console',monospace" fill="#02b57b">Text</text><text x="230.41" y="306.544" style="font:300 14px 'Lucida Console',monospace" fill="#000000">invoiceNumber:</text><text x="352.412" y="306.544" style="font:300 14px 'Lucida Console',monospace" fill="#02b57b">Text</text><text x="230.41" y="320.544" style="font:300 14px 'Lucida Console',monospace" fill="#000000">issueDate:</text><text x="318.697" y="320.544" style="font:300 14px 'Lucida Console',monospace" fill="#02b57b">Date</text><text x="230.41" y="334.544" style="font:300 14px 'Lucida Console',monospace" fill="#000000">actualArrivalDate:</text><text x="386.127" y="334.544" style="font:300 14px 'Lucida Console',monospace" fill="#02b57b">Date</text><text x="230.41" y="348.544" style="font:300 14px 'Lucida Console',monospace" fill="#000000">estimatedTimeOfDeparture:</text><text x="445.128" y="348.544" style="font:300 14px 'Lucida Console',monospace" fill="#02b57b">Date</text><text x="230.41" y="362.544" style="font:300 14px 'Lucida Console',monospace" fill="#000000">actualDepartureDate:</text><text x="402.984" y="362.544" style="font:300 14px 'Lucida Console',monospace" fill="#02b57b">Date</text><text x="230.41" y="376.544" style="font:300 14px 'Lucida Console',monospace" fill="#000000">consignmentLoadingDate:</text><text x="428.27" y="376.544" style="font:300 14px 'Lucida Console',monospace" fill="#02b57b">Date</text><text x="230.41" y="390.544" style="font:300 14px 'Lucida Console',monospace" fill="#000000">estimatedTimeOfArrival:</text><text x="428.27" y="390.544" style="font:300 14px 'Lucida Console',monospace" fill="#02b57b">Date</text><text x="230.41" y="404.544" style="font:300 14px 'Lucida Console',monospace" fill="#000000">invoiceDate:</text><text x="335.554" y="404.544" style="font:300 14px 'Lucida Console',monospace" fill="#02b57b">Date</text><text x="230.41" y="418.544" style="font:300 14px 'Lucida Console',monospace" fill="#000000">buyer:</text><text x="284.982" y="418.544" style="font:300 14px 'Lucida Console',monospace" fill="#3397DA">Buyer</text><text x="230.41" y="432.544" style="font:300 14px 'Lucida Console',monospace" fill="#000000">importer:</text><text x="310.268" y="432.544" style="font:300 14px 'Lucida Console',monospace" fill="#3397DA">Importer</text><text x="230.41" y="446.544" style="font:300 14px 'Lucida Console',monospace" fill="#000000">exporter:</text><text x="310.268" y="446.544" style="font:300 14px 'Lucida Console',monospace" fill="#3397DA">Exporter</text><text x="230.41" y="460.544" style="font:300 14px 'Lucida Console',monospace" fill="#000000">consignmentRoute:</text><text x="377.698" y="460.544" style="font:300 14px 'Lucida Console',monospace" fill="#02b57b">Text</text><text x="230.41" y="474.544" style="font:300 14px 'Lucida Console',monospace" fill="#000000">customsOfficeOfEntry:</text><text x="411.413" y="474.544" style="font:300 14px 'Lucida Console',monospace" fill="#3397DA">CustomsOfficeOfEntry</text><text x="230.41" y="488.544" style="font:300 14px 'Lucida Console',monospace" fill="#000000">carrier:</text><text x="301.84" y="488.544" style="font:300 14px 'Lucida Console',monospace" fill="#3397DA">Carrier</text><text x="230.41" y="502.544" style="font:300 14px 'Lucida Console',monospace" fill="#000000">consignee:</text><text x="318.697" y="502.544" style="font:300 14px 'Lucida Console',monospace" fill="#3397DA">Consignee</text><text x="230.41" y="516.544" style="font:300 14px 'Lucida Console',monospace" fill="#000000">shipToParty:</text><text x="335.554" y="516.544" style="font:300 14px 'Lucida Console',monospace" fill="#3397DA">ShipToParty</text><text x="230.41" y="530.544" style="font:300 14px 'Lucida Console',monospace" fill="#000000">warehouse:</text><text x="318.697" y="530.544" style="font:300 14px 'Lucida Console',monospace" fill="#3397DA">Warehouse</text><text x="230.41" y="544.544" style="font:300 14px 'Lucida Console',monospace" fill="#000000">notifyParty:</text><text x="335.554" y="544.544" style="font:300 14px 'Lucida Console',monospace" fill="#3397DA">NotifyParty</text><text x="230.41" y="558.544" style="font:300 14px 'Lucida Console',monospace" fill="#000000">consignor:</text><text x="318.697" y="558.544" style="font:300 14px 'Lucida Console',monospace" fill="#3397DA">Consigner</text><text x="230.41" y="572.544" style="font:300 14px 'Lucida Console',monospace" fill="#000000">seller:</text><text x="293.411" y="572.544" style="font:300 14px 'Lucida Console',monospace" fill="#3397DA">Seller</text><text x="230.41" y="586.544" style="font:300 14px 'Lucida Console',monospace" fill="#000000">insuranceCompany:</text><text x="377.698" y="586.544" style="font:300 14px 'Lucida Console',monospace" fill="#3397DA">InsuranceCompany</text><text x="230.41" y="600.544" style="font:300 14px 'Lucida Console',monospace" fill="#000000">exitCustomsOffice:</text><text x="386.127" y="600.544" style="font:300 14px 'Lucida Console',monospace" fill="#2ECB70">ExitCustomsOffice</text><text x="230.41" y="614.544" style="font:300 14px 'Lucida Console',monospace" fill="#000000">exportationCountry:</text><text x="394.555" y="614.544" style="font:300 14px 'Lucida Console',monospace" fill="#2ECB70">ExportationCountry</text><text x="230.41" y="628.544" style="font:300 14px 'Lucida Console',monospace" fill="#000000">originCountry:</text><text x="352.412" y="628.544" style="font:300 14px 'Lucida Console',monospace" fill="#2ECB70">OriginCountry</text><text x="230.41" y="642.544" style="font:300 14px 'Lucida Console',monospace" fill="#000000">arrivalLocation:</text><text x="369.269" y="642.544" style="font:300 14px 'Lucida Console',monospace" fill="#2ECB70">ArrivalLocation</text><text x="230.41" y="656.544" style="font:300 14px 'Lucida Console',monospace" fill="#000000">placeOfIssue:</text><text x="343.983" y="656.544" style="font:300 14px 'Lucida Console',monospace" fill="#2ECB70">PlaceOfIssue</text><text x="230.41" y="670.544" style="font:300 14px 'Lucida Console',monospace" fill="#000000">clauses:</text><text x="301.84" y="670.544" style="font:300 14px 'Lucida Console',monospace" fill="#2ECB70">Clauses</text><text x="230.41" y="684.544" style="font:300 14px 'Lucida Console',monospace" fill="#000000">terms:</text><text x="284.982" y="684.544" style="font:300 14px 'Lucida Console',monospace" fill="#2ECB70">Terms</text><text x="230.41" y="698.544" style="font:300 14px 'Lucida Console',monospace" fill="#000000">customsValue:</text><text x="343.983" y="698.544" style="font:300 14px 'Lucida Console',monospace" fill="#2ECB70">CustomsValue</text><path fill="#FFFFFF" stroke="#3397DA" stroke-width="3" d="M802.932 168.331h188v80h-188z"/><path fill="#3397da" stroke="#3397da" d="M803.932 209.33h188"/><path fill="none" stroke="#3397DA" stroke-width="3" d="M802.932 168.331h188v80h-188z"/><text x="812.932" y="186.331" style="font:700 16px 'Lucida Console',monospace" fill="#000000">Buyer</text><text x="812.932" y="202.331" style="font:300 14px 'Lucida Console',monospace" fill="#999">＜＜vtd.Party＞＞</text><text x="812.932" y="226.331" style="font:300 14px 'Lucida Console',monospace" fill="#666">id:</text><text x="842.218" y="226.331" style="font:300 14px 'Lucida Console',monospace" fill="#C9A30B">URI</text><text x="812.932" y="240.331" style="font:300 14px 'Lucida Console',monospace" fill="#666">address:</text><text x="884.362" y="240.331" style="font:300 14px 'Lucida Console',monospace" fill="#02b57b">Address</text><path fill="#FFFFFF" stroke="#3397DA" stroke-width="3" d="M819.447 288.241h188v80h-188z"/><path fill="#3397da" stroke="#3397da" d="M820.447 329.241h188"/><path fill="none" stroke="#3397DA" stroke-width="3" d="M819.447 288.241h188v80h-188z"/><text x="829.447" y="306.241" style="font:700 16px 'Lucida Console',monospace" fill="#000000">Importer</text><text x="829.447" y="322.241" style="font:300 14px 'Lucida Console',monospace" fill="#999">＜＜vtd.Party＞＞</text><text x="829.447" y="346.241" style="font:300 14px 'Lucida Console',monospace" fill="#666">id:</text><text x="858.733" y="346.241" style="font:300 14px 'Lucida Console',monospace" fill="#C9A30B">URI</text><text x="829.447" y="360.241" style="font:300 14px 'Lucida Console',monospace" fill="#666">address:</text><text x="900.877" y="360.241" style="font:300 14px 'Lucida Console',monospace" fill="#02b57b">Address</text><path fill="#FFFFFF" stroke="#3397DA" stroke-width="3" d="M805.616 403h188v80h-188z"/><path fill="#3397da" stroke="#3397da" d="M806.616 444h188"/><path fill="none" stroke="#3397DA" stroke-width="3" d="M805.616 403h188v80h-188z"/><text x="815.616" y="421" style="font:700 16px 'Lucida Console',monospace" fill="#000000">Exporter</text><text x="815.616" y="437" style="font:300 14px 'Lucida Console',monospace" fill="#999">＜＜vtd.Party＞＞</text><text x="815.616" y="461" style="font:300 14px 'Lucida Console',monospace" fill="#666">id:</text><text x="844.902" y="461" style="font:300 14px 'Lucida Console',monospace" fill="#C9A30B">URI</text><text x="815.616" y="475" style="font:300 14px 'Lucida Console',monospace" fill="#666">address:</text><text x="887.045" y="475" style="font:300 14px 'Lucida Console',monospace" fill="#02b57b">Address</text><path fill="#FFFFFF" stroke="#3397DA" stroke-width="3" d="M805.616 553h230.656v80H805.616z"/><path fill="#3397da" stroke="#3397da" d="M806.616 594h230.656"/><path fill="none" stroke="#3397DA" stroke-width="3" d="M805.616 553h230.656v80H805.616z"/><text x="815.616" y="571" style="font:700 16px 'Lucida Console',monospace" fill="#000000">CustomsOfficeOfEntry</text><text x="815.616" y="587" style="font:300 14px 'Lucida Console',monospace" fill="#999">＜＜vtd.Party＞＞</text><text x="815.616" y="611" style="font:300 14px 'Lucida Console',monospace" fill="#666">id:</text><text x="844.902" y="611" style="font:300 14px 'Lucida Console',monospace" fill="#C9A30B">URI</text><text x="815.616" y="625" style="font:300 14px 'Lucida Console',monospace" fill="#666">address:</text><text x="887.045" y="625" style="font:300 14px 'Lucida Console',monospace" fill="#02b57b">Address</text><path fill="#FFFFFF" stroke="#3397DA" stroke-width="3" d="M1105.616 153h188v80h-188z"/><path fill="#3397da" stroke="#3397da" d="M1106.616 194h188"/><path fill="none" stroke="#3397DA" stroke-width="3" d="M1105.616 153h188v80h-188z"/><text x="1115.616" y="171" style="font:700 16px 'Lucida Console',monospace" fill="#000000">Carrier</text><text x="1115.616" y="187" style="font:300 14px 'Lucida Console',monospace" fill="#999">＜＜vtd.Party＞＞</text><text x="1115.616" y="211" style="font:300 14px 'Lucida Console',monospace" fill="#666">id:</text><text x="1144.902" y="211" style="font:300 14px 'Lucida Console',monospace" fill="#C9A30B">URI</text><text x="1115.616" y="225" style="font:300 14px 'Lucida Console',monospace" fill="#666">address:</text><text x="1187.045" y="225" style="font:300 14px 'Lucida Console',monospace" fill="#02b57b">Address</text><path fill="#FFFFFF" stroke="#3397DA" stroke-width="3" d="M1091.742 288.241h188v80h-188z"/><path fill="#3397da" stroke="#3397da" d="M1092.742 329.241h188"/><path fill="none" stroke="#3397DA" stroke-width="3" d="M1091.742 288.241h188v80h-188z"/><text x="1101.742" y="306.241" style="font:700 16px 'Lucida Console',monospace" fill="#000000">Consignee</text><text x="1101.742" y="322.241" style="font:300 14px 'Lucida Console',monospace" fill="#999">＜＜vtd.Party＞＞</text><text x="1101.742" y="346.241" style="font:300 14px 'Lucida Console',monospace" fill="#666">id:</text><text x="1131.028" y="346.241" style="font:300 14px 'Lucida Console',monospace" fill="#C9A30B">URI</text><text x="1101.742" y="360.241" style="font:300 14px 'Lucida Console',monospace" fill="#666">address:</text><text x="1173.172" y="360.241" style="font:300 14px 'Lucida Console',monospace" fill="#02b57b">Address</text><path fill="#FFFFFF" stroke="#3397DA" stroke-width="3" d="M1088.274 411.785h188v80h-188z"/><path fill="#3397da" stroke="#3397da" d="M1089.274 452.785h188"/><path fill="none" stroke="#3397DA" stroke-width="3" d="M1088.274 411.785h188v80h-188z"/><text x="1098.274" y="429.785" style="font:700 16px 'Lucida Console',monospace" fill="#000000">ShipToParty</text><text x="1098.274" y="445.785" style="font:300 14px 'Lucida Console',monospace" fill="#999">＜＜vtd.Party＞＞</text><text x="1098.274" y="469.785" style="font:300 14px 'Lucida Console',monospace" fill="#666">id:</text><text x="1127.56" y="469.785" style="font:300 14px 'Lucida Console',monospace" fill="#C9A30B">URI</text><text x="1098.274" y="483.785" style="font:300 14px 'Lucida Console',monospace" fill="#666">address:</text><text x="1169.703" y="483.785" style="font:300 14px 'Lucida Console',monospace" fill="#02b57b">Address</text><path fill="#FFFFFF" stroke="#3397DA" stroke-width="3" d="M1082.989 555.314h188v80h-188z"/><path fill="#3397da" stroke="#3397da" d="M1083.989 596.314h188"/><path fill="none" stroke="#3397DA" stroke-width="3" d="M1082.989 555.314h188v80h-188z"/><text x="1092.989" y="573.314" style="font:700 16px 'Lucida Console',monospace" fill="#000000">Warehouse</text><text x="1092.989" y="589.314" style="font:300 14px 'Lucida Console',monospace" fill="#999">＜＜vtd.Party＞＞</text><text x="1092.989" y="613.314" style="font:300 14px 'Lucida Console',monospace" fill="#666">id:</text><text x="1122.275" y="613.314" style="font:300 14px 'Lucida Console',monospace" fill="#C9A30B">URI</text><text x="1092.989" y="627.314" style="font:300 14px 'Lucida Console',monospace" fill="#666">address:</text><text x="1164.418" y="627.314" style="font:300 14px 'Lucida Console',monospace" fill="#02b57b">Address</text><path fill="#FFFFFF" stroke="#3397DA" stroke-width="3" d="M1105.616 703h188v80h-188z"/><path fill="#3397da" stroke="#3397da" d="M1106.616 744h188"/><path fill="none" stroke="#3397DA" stroke-width="3" d="M1105.616 703h188v80h-188z"/><text x="1115.616" y="721" style="font:700 16px 'Lucida Console',monospace" fill="#000000">NotifyParty</text><text x="1115.616" y="737" style="font:300 14px 'Lucida Console',monospace" fill="#999">＜＜vtd.Party＞＞</text><text x="1115.616" y="761" style="font:300 14px 'Lucida Console',monospace" fill="#666">id:</text><text x="1144.902" y="761" style="font:300 14px 'Lucida Console',monospace" fill="#C9A30B">URI</text><text x="1115.616" y="775" style="font:300 14px 'Lucida Console',monospace" fill="#666">address:</text><text x="1187.045" y="775" style="font:300 14px 'Lucida Console',monospace" fill="#02b57b">Address</text><path fill="#FFFFFF" stroke="#3397DA" stroke-width="3" d="M855.616 703h188v80h-188z"/><path fill="#3397da" stroke="#3397da" d="M856.616 744h188"/><path fill="none" stroke="#3397DA" stroke-width="3" d="M855.616 703h188v80h-188z"/><text x="865.616" y="721" style="font:700 16px 'Lucida Console',monospace" fill="#000000">Consigner</text><text x="865.616" y="737" style="font:300 14px 'Lucida Console',monospace" fill="#999">＜＜vtd.Party＞＞</text><text x="865.616" y="761" style="font:300 14px 'Lucida Console',monospace" fill="#666">id:</text><text x="894.902" y="761" style="font:300 14px 'Lucida Console',monospace" fill="#C9A30B">URI</text><text x="865.616" y="775" style="font:300 14px 'Lucida Console',monospace" fill="#666">address:</text><text x="937.045" y="775" style="font:300 14px 'Lucida Console',monospace" fill="#02b57b">Address</text><path fill="#FFFFFF" stroke="#3397DA" stroke-width="3" d="M876.382 849.639h188v80h-188z"/><path fill="#3397da" stroke="#3397da" d="M877.382 890.64h188"/><path fill="none" stroke="#3397DA" stroke-width="3" d="M876.382 849.639h188v80h-188z"/><text x="886.382" y="867.639" style="font:700 16px 'Lucida Console',monospace" fill="#000000">Seller</text><text x="886.382" y="883.639" style="font:300 14px 'Lucida Console',monospace" fill="#999">＜＜vtd.Party＞＞</text><text x="886.382" y="907.639" style="font:300 14px 'Lucida Console',monospace" fill="#666">id:</text><text x="915.668" y="907.639" style="font:300 14px 'Lucida Console',monospace" fill="#C9A30B">URI</text><text x="886.382" y="921.639" style="font:300 14px 'Lucida Console',monospace" fill="#666">address:</text><text x="957.812" y="921.639" style="font:300 14px 'Lucida Console',monospace" fill="#02b57b">Address</text><path fill="#FFFFFF" stroke="#3397DA" stroke-width="3" d="M1105.616 853h192.125v80h-192.125z"/><path fill="#3397da" stroke="#3397da" d="M1106.616 894h192.125"/><path fill="none" stroke="#3397DA" stroke-width="3" d="M1105.616 853h192.125v80h-192.125z"/><text x="1115.616" y="871" style="font:700 16px 'Lucida Console',monospace" fill="#000000">InsuranceCompany</text><text x="1115.616" y="887" style="font:300 14px 'Lucida Console',monospace" fill="#999">＜＜vtd.Party＞＞</text><text x="1115.616" y="911" style="font:300 14px 'Lucida Console',monospace" fill="#666">id:</text><text x="1144.902" y="911" style="font:300 14px 'Lucida Console',monospace" fill="#C9A30B">URI</text><text x="1115.616" y="925" style="font:300 14px 'Lucida Console',monospace" fill="#666">address:</text><text x="1187.045" y="925" style="font:300 14px 'Lucida Console',monospace" fill="#02b57b">Address</text><path fill="#FFFFFF" stroke="#2ECB70" stroke-width="3" d="M487.59 831.953h201.758v80H487.59z"/><path fill="#2ecb70" stroke="#2ecb70" d="M488.59 872.953h201.758"/><path fill="none" stroke="#2ECB70" stroke-width="3" d="M487.59 831.953h201.758v80H487.59z"/><text x="497.59" y="849.953" style="font:700 16px 'Lucida Console',monospace" fill="#000000">ExitCustomsOffice</text><text x="497.59" y="865.953" style="font:300 14px 'Lucida Console',monospace" fill="#999">＜＜vtd.Location＞＞</text><text x="497.59" y="889.953" style="font:300 14px 'Lucida Console',monospace" fill="#666">unlocode:</text><text x="577.448" y="889.953" style="font:300 14px 'Lucida Console',monospace" fill="#02b57b">URI</text><text x="497.59" y="903.953" style="font:300 14px 'Lucida Console',monospace" fill="#666">address:</text><text x="569.02" y="903.953" style="font:300 14px 'Lucida Console',monospace" fill="#02b57b">Address</text><path fill="#FFFFFF" stroke="#2ECB70" stroke-width="3" d="M493.018 1014.922h211.391v80H493.018z"/><path fill="#2ecb70" stroke="#2ecb70" d="M494.018 1055.922H705.41"/><path fill="none" stroke="#2ECB70" stroke-width="3" d="M493.018 1014.922h211.391v80H493.018z"/><text x="503.018" y="1032.922" style="font:700 16px 'Lucida Console',monospace" fill="#000000">ExportationCountry</text><text x="503.018" y="1048.922" style="font:300 14px 'Lucida Console',monospace" fill="#999">＜＜vtd.Location＞＞</text><text x="503.018" y="1072.922" style="font:300 14px 'Lucida Console',monospace" fill="#666">unlocode:</text><text x="582.877" y="1072.922" style="font:300 14px 'Lucida Console',monospace" fill="#02b57b">URI</text><text x="503.018" y="1086.922" style="font:300 14px 'Lucida Console',monospace" fill="#666">address:</text><text x="574.448" y="1086.922" style="font:300 14px 'Lucida Console',monospace" fill="#02b57b">Address</text><path fill="#FFFFFF" stroke="#2ECB70" stroke-width="3" d="M477.178 1212.413h191.145v80H477.178z"/><path fill="#2ecb70" stroke="#2ecb70" d="M478.178 1253.413h191.144"/><path fill="none" stroke="#2ECB70" stroke-width="3" d="M477.178 1212.413h191.145v80H477.178z"/><text x="487.178" y="1230.413" style="font:700 16px 'Lucida Console',monospace" fill="#000000">OriginCountry</text><text x="487.178" y="1246.413" style="font:300 14px 'Lucida Console',monospace" fill="#999">＜＜vtd.Location＞＞</text><text x="487.178" y="1270.413" style="font:300 14px 'Lucida Console',monospace" fill="#666">unlocode:</text><text x="567.036" y="1270.413" style="font:300 14px 'Lucida Console',monospace" fill="#02b57b">URI</text><text x="487.178" y="1284.413" style="font:300 14px 'Lucida Console',monospace" fill="#666">address:</text><text x="558.607" y="1284.413" style="font:300 14px 'Lucida Console',monospace" fill="#02b57b">Address</text><path fill="#FFFFFF" stroke="#2ECB70" stroke-width="3" d="M455.616 1403h191.145v80H455.616z"/><path fill="#2ecb70" stroke="#2ecb70" d="M456.616 1444H647.76"/><path fill="none" stroke="#2ECB70" stroke-width="3" d="M455.616 1403h191.145v80H455.616z"/><text x="465.616" y="1421" style="font:700 16px 'Lucida Console',monospace" fill="#000000">ArrivalLocation</text><text x="465.616" y="1437" style="font:300 14px 'Lucida Console',monospace" fill="#999">＜＜vtd.Location＞＞</text><text x="465.616" y="1461" style="font:300 14px 'Lucida Console',monospace" fill="#666">unlocode:</text><text x="545.474" y="1461" style="font:300 14px 'Lucida Console',monospace" fill="#02b57b">URI</text><text x="465.616" y="1475" style="font:300 14px 'Lucida Console',monospace" fill="#666">address:</text><text x="537.045" y="1475" style="font:300 14px 'Lucida Console',monospace" fill="#02b57b">Address</text><path fill="#FFFFFF" stroke="#2ECB70" stroke-width="3" d="M-21.588 964.053h192v94h-192z"/><path fill="#2ecb70" stroke="#2ecb70" d="M-20.588 1005.053h192"/><path fill="none" stroke="#2ECB70" stroke-width="3" d="M-21.588 964.053h192v94h-192z"/><text x="-11.588" y="982.053" style="font:700 16px 'Lucida Console',monospace" fill="#000000">PlaceOfIssue</text><text x="-11.588" y="998.053" style="font:300 14px 'Lucida Console',monospace" fill="#999">＜＜vtd.Location＞＞</text><text x="-11.588" y="1022.053" style="font:300 14px 'Lucida Console',monospace" fill="#666">unlocode:</text><text x="68.27" y="1022.053" style="font:300 14px 'Lucida Console',monospace" fill="#02b57b">URI</text><text x="-11.588" y="1036.053" style="font:300 14px 'Lucida Console',monospace" fill="#666">address:</text><text x="59.841" y="1036.053" style="font:300 14px 'Lucida Console',monospace" fill="#02b57b">Address</text><text x="-11.588" y="1050.053" style="font:300 14px 'Lucida Console',monospace" fill="#000000">country:</text><text x="59.841" y="1050.053" style="font:300 14px 'Lucida Console',monospace" fill="#02b57b">Text</text><path fill="#FFFFFF" stroke="#2ECB70" stroke-width="3" d="M-187.574 829.061h375.148v80h-375.148z"/><path fill="#2ecb70" stroke="#2ecb70" d="M-186.574 870.061h375.148"/><path fill="none" stroke="#2ECB70" stroke-width="3" d="M-187.574 829.061h375.148v80h-375.148z"/><text x="-177.574" y="847.061" style="font:700 16px 'Lucida Console',monospace" fill="#000000">Clauses</text><text x="-177.574" y="863.061" style="font:300 14px 'Lucida Console',monospace" fill="#999">＜＜vtd.Clauses＞＞</text><text x="-177.574" y="887.061" style="font:300 14px 'Lucida Console',monospace" fill="#000000">transportContractDocumentConditions:</text><text x="129.859" y="887.061" style="font:300 14px 'Lucida Console',monospace" fill="#02b57b">Text</text><text x="-177.574" y="901.061" style="font:300 14px 'Lucida Console',monospace" fill="#000000">authentication:</text><text x="-47.144" y="901.061" style="font:300 14px 'Lucida Console',monospace" fill="#02b57b">Text</text><path fill="#FFFFFF" stroke="#2ECB70" stroke-width="3" d="M-172.559 1080.487h345.434v108h-345.434z"/><path fill="#2ecb70" stroke="#2ecb70" d="M-171.56 1121.487h345.434"/><path fill="none" stroke="#2ECB70" stroke-width="3" d="M-172.559 1080.487h345.434v108h-345.434z"/><text x="-162.559" y="1098.487" style="font:700 16px 'Lucida Console',monospace" fill="#000000">Terms</text><text x="-162.559" y="1114.487" style="font:300 14px 'Lucida Console',monospace" fill="#999">＜＜vtd.Terms＞＞</text><text x="-162.559" y="1138.487" style="font:300 14px 'Lucida Console',monospace" fill="#666">terms:</text><text x="-107.987" y="1138.487" style="font:300 14px 'Lucida Console',monospace" fill="#02b57b">Text</text><text x="-162.559" y="1152.487" style="font:300 14px 'Lucida Console',monospace" fill="#000000">tradeTermsConditionsDescription:</text><text x="111.159" y="1152.487" style="font:300 14px 'Lucida Console',monospace" fill="#02b57b">Text</text><text x="-162.559" y="1166.487" style="font:300 14px 'Lucida Console',monospace" fill="#000000">tradeTermsConditionsCode:</text><text x="52.158" y="1166.487" style="font:300 14px 'Lucida Console',monospace" fill="#02b57b">Text</text><text x="-162.559" y="1180.487" style="font:300 14px 'Lucida Console',monospace" fill="#000000">paymentMethod:</text><text x="-40.557" y="1180.487" style="font:300 14px 'Lucida Console',monospace" fill="#02b57b">Text</text><path fill="#FFFFFF" stroke="#2ECB70" stroke-width="3" d="M-100.262 1289.637h241.717v94h-241.717z"/><path fill="#2ecb70" stroke="#2ecb70" d="M-99.262 1330.637h241.717"/><path fill="none" stroke="#2ECB70" stroke-width="3" d="M-100.262 1289.637h241.717v94h-241.717z"/><text x="-90.262" y="1307.637" style="font:700 16px 'Lucida Console',monospace" fill="#000000">CustomsValue</text><text x="-90.262" y="1323.637" style="font:300 14px 'Lucida Console',monospace" fill="#999">＜＜vtd.MonetaryAmount＞＞</text><text x="-90.262" y="1347.637" style="font:300 14px 'Lucida Console',monospace" fill="#666">amount:</text><text x="-27.261" y="1347.637" style="font:300 14px 'Lucida Console',monospace" fill="#02b57b">Decimal</text><text x="-90.262" y="1361.637" style="font:300 14px 'Lucida Console',monospace" fill="#000000">value:</text><text x="-35.69" y="1361.637" style="font:300 14px 'Lucida Console',monospace" fill="#02b57b">Decimal</text><text x="-90.262" y="1375.637" style="font:300 14px 'Lucida Console',monospace" fill="#000000">currency:</text><text x="-10.404" y="1375.637" style="font:300 14px 'Lucida Console',monospace" fill="#02b57b">Text</text></svg>