<svg xmlns="http://www.w3.org/2000/svg" viewBox="-103.317 -67 1234.922 1258.567"><rect width="1000%" height="1000%" x="-500%" y="-500%" fill="#EEEEEE"/><path fill="none" stroke="#EEEEEE" stroke-width="8" d="M417.907.01l-.01-.01v341.424h35.608"/><defs><linearGradient id="a" x1="0%" x2="50%" y1="0%" y2="50%"><stop offset="0%" stop-color="#2ECB70"/><stop offset="100%" stop-color="#2ECB70"/></linearGradient></defs><path fill="none" stroke="url(#a)" stroke-width="3" d="M417.907.01l-.01-.01v341.424h35.608"/><path fill="none" stroke="#EEEEEE" stroke-width="8" d="M358.86 254.577l-.01-.01v462.999H65.689"/><defs><linearGradient id="b" x1="0%" x2="50%" y1="0%" y2="50%"><stop offset="0%" stop-color="#2ECB70"/><stop offset="100%" stop-color="#3397DA"/></linearGradient></defs><path fill="none" stroke="url(#b)" stroke-width="3" d="M358.86 254.577l-.01-.01v462.999H65.689"/><path fill="none" stroke="#EEEEEE" stroke-width="8" d="M335.197 232.862l-.01-.01v329.939H10.683"/><defs><linearGradient id="c" x1="0%" x2="50%" y1="0%" y2="50%"><stop offset="0%" stop-color="#2ECB70"/><stop offset="100%" stop-color="#3397DA"/></linearGradient></defs><path fill="none" stroke="url(#c)" stroke-width="3" d="M335.197 232.862l-.01-.01v329.939H10.683"/><path fill="none" stroke="#EEEEEE" stroke-width="8" d="M311.534 211.148l-.01-.01H0v9.634"/><defs><linearGradient id="d" x1="100%" x2="50%" y1="100%" y2="50%"><stop offset="0%" stop-color="#2ECB70"/><stop offset="100%" stop-color="#3397DA"/></linearGradient></defs><path fill="none" stroke="url(#d)" stroke-width="3" d="M311.534 211.148l-.01-.01H0v9.634"/><path fill="none" stroke="#EEEEEE" stroke-width="8" d="M382.524 276.291l-.01-.01H65.753V393"/><defs><linearGradient id="e" x1="0%" x2="50%" y1="0%" y2="50%"><stop offset="0%" stop-color="#2ECB70"/><stop offset="100%" stop-color="#3397DA"/></linearGradient></defs><path fill="none" stroke="url(#e)" stroke-width="3" d="M382.524 276.291l-.01-.01H65.753V393"/><path fill="none" stroke="#EEEEEE" stroke-width="8" d="M524.506 298.005l-.01-.01H787.49V193.98"/><defs><linearGradient id="f" x1="0%" x2="50%" y1="0%" y2="50%"><stop offset="0%" stop-color="#2ECB70"/><stop offset="100%" stop-color="#2ECB70"/></linearGradient></defs><path fill="none" stroke="url(#f)" stroke-width="3" d="M524.506 298.005l-.01-.01H787.49V193.98"/><path fill="none" stroke="#EEEEEE" stroke-width="8" d="M477.179 341.434l-.01-.01h291.657V343"/><defs><linearGradient id="g" x1="0%" x2="50%" y1="0%" y2="50%"><stop offset="0%" stop-color="#2ECB70"/><stop offset="100%" stop-color="#2ECB70"/></linearGradient></defs><path fill="none" stroke="url(#g)" stroke-width="3" d="M477.179 341.434l-.01-.01h291.657V343"/><path fill="none" stroke="#EEEEEE" stroke-width="8" d="M571.833 254.577l-.01-.01h427.782v78.771"/><defs><linearGradient id="h" x1="0%" x2="50%" y1="0%" y2="50%"><stop offset="0%" stop-color="#2ECB70"/><stop offset="100%" stop-color="#2ECB70"/></linearGradient></defs><path fill="none" stroke="url(#h)" stroke-width="3" d="M571.833 254.577l-.01-.01h427.782v78.771"/><path fill="none" stroke="#EEEEEE" stroke-width="8" d="M595.497 232.862l-.01-.01h411.806V199.37"/><defs><linearGradient id="i" x1="0%" x2="50%" y1="0%" y2="50%"><stop offset="0%" stop-color="#2ECB70"/><stop offset="100%" stop-color="#2ECB70"/></linearGradient></defs><path fill="none" stroke="url(#i)" stroke-width="3" d="M595.497 232.862l-.01-.01h411.806V199.37"/><path fill="none" stroke="#EEEEEE" stroke-width="8" d="M453.515 363.148l-.01-.01V993H759.47"/><defs><linearGradient id="j" x1="0%" x2="50%" y1="0%" y2="50%"><stop offset="0%" stop-color="#2ECB70"/><stop offset="100%" stop-color="#2ECB70"/></linearGradient></defs><path fill="none" stroke="url(#j)" stroke-width="3" d="M453.515 363.148l-.01-.01V993H759.47"/><path fill="none" stroke="#EEEEEE" stroke-width="8" d="M500.842 319.72l-.01-.01v410.62h272.159"/><defs><linearGradient id="k" x1="0%" x2="50%" y1="0%" y2="50%"><stop offset="0%" stop-color="#2ECB70"/><stop offset="100%" stop-color="#2ECB70"/></linearGradient></defs><path fill="none" stroke="url(#k)" stroke-width="3" d="M500.842 319.72l-.01-.01v410.62h272.159"/><path fill="none" stroke="#EEEEEE" stroke-width="8" d="M429.852 319.72l-.01-.01V843h279.627"/><defs><linearGradient id="l" x1="0%" x2="50%" y1="0%" y2="50%"><stop offset="0%" stop-color="#2ECB70"/><stop offset="100%" stop-color="#2ECB70"/></linearGradient></defs><path fill="none" stroke="url(#l)" stroke-width="3" d="M429.852 319.72l-.01-.01V843h279.627"/><path fill="none" stroke="#EEEEEE" stroke-width="8" d="M548.17 276.291l-.01-.01V893h411.309"/><defs><linearGradient id="m" x1="0%" x2="50%" y1="0%" y2="50%"><stop offset="0%" stop-color="#2ECB70"/><stop offset="100%" stop-color="#2ECB70"/></linearGradient></defs><path fill="none" stroke="url(#m)" stroke-width="3" d="M548.17 276.291l-.01-.01V893h411.309"/><path fill="none" stroke="#EEEEEE" stroke-width="8" d="M406.188 298.005l-.01-.01v813.572h199.294"/><defs><linearGradient id="n" x1="0%" x2="50%" y1="0%" y2="50%"><stop offset="0%" stop-color="#2ECB70"/><stop offset="100%" stop-color="#2ECB70"/></linearGradient></defs><path fill="none" stroke="url(#n)" stroke-width="3" d="M406.188 298.005l-.01-.01v813.572h199.294"/><path fill="#FFFFFF" stroke="#2ECB70" stroke-width="3" d="M271.753-47h292.289v94H271.753z"/><path fill="#2ecb70" stroke="#2ecb70" d="M272.753-6h292.289"/><path fill="none" stroke="#2ECB70" stroke-width="3" d="M271.753-47h292.289v94H271.753z"/><text x="281.753" y="-29" style="font:700 16px 'Lucida Console',monospace" fill="#000000">PurchaseOrder</text><text x="281.753" y="-13" style="font:300 14px 'Lucida Console',monospace" fill="#999">＜＜vtd.VerifiableCredential＞＞</text><text x="281.753" y="11" style="font:300 14px 'Lucida Console',monospace" fill="#666">issuer:</text><text x="344.754" y="11" style="font:300 14px 'Lucida Console',monospace" fill="#02b57b">Party</text><text x="281.753" y="25" style="font:300 14px 'Lucida Console',monospace" fill="#666">issuanceDate:</text><text x="395.326" y="25" style="font:300 14px 'Lucida Console',monospace" fill="#02b57b">DateTime</text><text x="281.753" y="39" style="font:300 14px 'Lucida Console',monospace" fill="#000000">credentialSubject:</text><text x="437.47" y="39" style="font:300 14px 'Lucida Console',monospace" fill="#2ECB70">Order</text><path fill="#FFFFFF" stroke="#2ECB70" stroke-width="3" d="M287.86 189.424h331.29v304H287.86z"/><path fill="#2ecb70" stroke="#2ecb70" d="M288.86 230.424h331.29"/><path fill="none" stroke="#2ECB70" stroke-width="3" d="M287.86 189.424h331.29v304H287.86z"/><text x="297.86" y="207.424" style="font:700 16px 'Lucida Console',monospace" fill="#000000">Order</text><text x="297.86" y="223.424" style="font:300 14px 'Lucida Console',monospace" fill="#999">＜＜vtd.CredentialSubject＞＞</text><text x="297.86" y="247.424" style="font:300 14px 'Lucida Console',monospace" fill="#000000">purchaseOrderNumber:</text><text x="470.434" y="247.424" style="font:300 14px 'Lucida Console',monospace" fill="#02b57b">Text</text><text x="297.86" y="261.424" style="font:300 14px 'Lucida Console',monospace" fill="#000000">contractNumber:</text><text x="428.291" y="261.424" style="font:300 14px 'Lucida Console',monospace" fill="#02b57b">Text</text><text x="297.86" y="275.424" style="font:300 14px 'Lucida Console',monospace" fill="#000000">orderDate:</text><text x="386.147" y="275.424" style="font:300 14px 'Lucida Console',monospace" fill="#02b57b">Date</text><text x="297.86" y="289.424" style="font:300 14px 'Lucida Console',monospace" fill="#000000">deliveryDate:</text><text x="411.433" y="289.424" style="font:300 14px 'Lucida Console',monospace" fill="#02b57b">Date</text><text x="297.86" y="303.424" style="font:300 14px 'Lucida Console',monospace" fill="#000000">buyer:</text><text x="352.432" y="303.424" style="font:300 14px 'Lucida Console',monospace" fill="#3397DA">Buyer</text><text x="297.86" y="317.424" style="font:300 14px 'Lucida Console',monospace" fill="#000000">invoicee:</text><text x="377.718" y="317.424" style="font:300 14px 'Lucida Console',monospace" fill="#3397DA">Invoicee</text><text x="297.86" y="331.424" style="font:300 14px 'Lucida Console',monospace" fill="#000000">shipToParty:</text><text x="403.005" y="331.424" style="font:300 14px 'Lucida Console',monospace" fill="#3397DA">ShipToParty</text><text x="297.86" y="345.424" style="font:300 14px 'Lucida Console',monospace" fill="#000000">seller:</text><text x="360.861" y="345.424" style="font:300 14px 'Lucida Console',monospace" fill="#3397DA">Seller</text><text x="297.86" y="359.424" style="font:300 14px 'Lucida Console',monospace" fill="#000000">placeOfDelivery:</text><text x="436.719" y="359.424" style="font:300 14px 'Lucida Console',monospace" fill="#2ECB70">PlaceOfDelivery</text><text x="297.86" y="373.424" style="font:300 14px 'Lucida Console',monospace" fill="#000000">originCountry:</text><text x="419.862" y="373.424" style="font:300 14px 'Lucida Console',monospace" fill="#2ECB70">OriginCountry</text><text x="297.86" y="387.424" style="font:300 14px 'Lucida Console',monospace" fill="#000000">paymentTerms:</text><text x="411.433" y="387.424" style="font:300 14px 'Lucida Console',monospace" fill="#2ECB70">PaymentTerms</text><text x="297.86" y="401.424" style="font:300 14px 'Lucida Console',monospace" fill="#000000">paymentMethod:</text><text x="419.862" y="401.424" style="font:300 14px 'Lucida Console',monospace" fill="#2ECB70">PaymentMethod</text><text x="297.86" y="415.424" style="font:300 14px 'Lucida Console',monospace" fill="#000000">unitPrice:</text><text x="386.147" y="415.424" style="font:300 14px 'Lucida Console',monospace" fill="#2ECB70">UnitPrice</text><text x="297.86" y="429.424" style="font:300 14px 'Lucida Console',monospace" fill="#000000">allowance:</text><text x="386.147" y="429.424" style="font:300 14px 'Lucida Console',monospace" fill="#2ECB70">Allowance</text><text x="297.86" y="443.424" style="font:300 14px 'Lucida Console',monospace" fill="#000000">orderAmount:</text><text x="403.005" y="443.424" style="font:300 14px 'Lucida Console',monospace" fill="#2ECB70">OrderAmount</text><text x="297.86" y="457.424" style="font:300 14px 'Lucida Console',monospace" fill="#000000">taxAmount:</text><text x="386.147" y="457.424" style="font:300 14px 'Lucida Console',monospace" fill="#2ECB70">TaxAmount</text><text x="297.86" y="471.424" style="font:300 14px 'Lucida Console',monospace" fill="#000000">productIdentifier:</text><text x="453.577" y="471.424" style="font:300 14px 'Lucida Console',monospace" fill="#547000">URI</text><text x="297.86" y="485.424" style="font:300 14px 'Lucida Console',monospace" fill="#000000">quantityOrdered:</text><text x="436.719" y="485.424" style="font:300 14px 'Lucida Console',monospace" fill="#2ECB70">QuantityOrdered</text><path fill="#FFFFFF" stroke="#3397DA" stroke-width="3" d="M-28.312 677.566h188v80h-188z"/><path fill="#3397da" stroke="#3397da" d="M-27.312 718.566h188"/><path fill="none" stroke="#3397DA" stroke-width="3" d="M-28.312 677.566h188v80h-188z"/><text x="-18.312" y="695.566" style="font:700 16px 'Lucida Console',monospace" fill="#000000">Buyer</text><text x="-18.312" y="711.566" style="font:300 14px 'Lucida Console',monospace" fill="#999">＜＜vtd.Party＞＞</text><text x="-18.312" y="735.566" style="font:300 14px 'Lucida Console',monospace" fill="#666">id:</text><text x="10.974" y="735.566" style="font:300 14px 'Lucida Console',monospace" fill="#C9A30B">URI</text><text x="-18.312" y="749.566" style="font:300 14px 'Lucida Console',monospace" fill="#666">address:</text><text x="53.118" y="749.566" style="font:300 14px 'Lucida Console',monospace" fill="#02b57b">Address</text><path fill="#FFFFFF" stroke="#3397DA" stroke-width="3" d="M-83.317 522.791h188v80h-188z"/><path fill="#3397da" stroke="#3397da" d="M-82.317 563.79h188"/><path fill="none" stroke="#3397DA" stroke-width="3" d="M-83.317 522.791h188v80h-188z"/><text x="-73.317" y="540.791" style="font:700 16px 'Lucida Console',monospace" fill="#000000">Invoicee</text><text x="-73.317" y="556.791" style="font:300 14px 'Lucida Console',monospace" fill="#999">＜＜vtd.Party＞＞</text><text x="-73.317" y="580.791" style="font:300 14px 'Lucida Console',monospace" fill="#666">id:</text><text x="-44.031" y="580.791" style="font:300 14px 'Lucida Console',monospace" fill="#C9A30B">URI</text><text x="-73.317" y="594.791" style="font:300 14px 'Lucida Console',monospace" fill="#666">address:</text><text x="-1.888" y="594.791" style="font:300 14px 'Lucida Console',monospace" fill="#02b57b">Address</text><path fill="#FFFFFF" stroke="#3397DA" stroke-width="3" d="M-94 180.772H94v80H-94z"/><path fill="#3397da" stroke="#3397da" d="M-93 221.772H95"/><path fill="none" stroke="#3397DA" stroke-width="3" d="M-94 180.772H94v80H-94z"/><text x="-84" y="198.772" style="font:700 16px 'Lucida Console',monospace" fill="#000000">ShipToParty</text><text x="-84" y="214.772" style="font:300 14px 'Lucida Console',monospace" fill="#999">＜＜vtd.Party＞＞</text><text x="-84" y="238.772" style="font:300 14px 'Lucida Console',monospace" fill="#666">id:</text><text x="-54.714" y="238.772" style="font:300 14px 'Lucida Console',monospace" fill="#C9A30B">URI</text><text x="-84" y="252.772" style="font:300 14px 'Lucida Console',monospace" fill="#666">address:</text><text x="-12.57" y="252.772" style="font:300 14px 'Lucida Console',monospace" fill="#02b57b">Address</text><path fill="#FFFFFF" stroke="#3397DA" stroke-width="3" d="M-28.247 353h188v80h-188z"/><path fill="#3397da" stroke="#3397da" d="M-27.247 394h188"/><path fill="none" stroke="#3397DA" stroke-width="3" d="M-28.247 353h188v80h-188z"/><text x="-18.247" y="371" style="font:700 16px 'Lucida Console',monospace" fill="#000000">Seller</text><text x="-18.247" y="387" style="font:300 14px 'Lucida Console',monospace" fill="#999">＜＜vtd.Party＞＞</text><text x="-18.247" y="411" style="font:300 14px 'Lucida Console',monospace" fill="#666">id:</text><text x="11.039" y="411" style="font:300 14px 'Lucida Console',monospace" fill="#C9A30B">URI</text><text x="-18.247" y="425" style="font:300 14px 'Lucida Console',monospace" fill="#666">address:</text><text x="53.183" y="425" style="font:300 14px 'Lucida Console',monospace" fill="#02b57b">Address</text><path fill="#FFFFFF" stroke="#2ECB70" stroke-width="3" d="M690.418 153.979h194.146v80H690.418z"/><path fill="#2ecb70" stroke="#2ecb70" d="M691.418 194.979h194.145"/><path fill="none" stroke="#2ECB70" stroke-width="3" d="M690.418 153.979h194.146v80H690.418z"/><text x="700.418" y="171.979" style="font:700 16px 'Lucida Console',monospace" fill="#000000">PlaceOfDelivery</text><text x="700.418" y="187.979" style="font:300 14px 'Lucida Console',monospace" fill="#999">＜＜vtd.Place＞＞</text><text x="700.418" y="211.979" style="font:300 14px 'Lucida Console',monospace" fill="#666">unlocode:</text><text x="780.276" y="211.979" style="font:300 14px 'Lucida Console',monospace" fill="#02b57b">URI</text><text x="700.418" y="225.979" style="font:300 14px 'Lucida Console',monospace" fill="#000000">address:</text><text x="771.847" y="225.979" style="font:300 14px 'Lucida Console',monospace" fill="#547000">vtd.Address</text><path fill="#FFFFFF" stroke="#2ECB70" stroke-width="3" d="M671.753 303h194.146v80H671.753z"/><path fill="#2ecb70" stroke="#2ecb70" d="M672.753 344h194.145"/><path fill="none" stroke="#2ECB70" stroke-width="3" d="M671.753 303h194.146v80H671.753z"/><text x="681.753" y="321" style="font:700 16px 'Lucida Console',monospace" fill="#000000">OriginCountry</text><text x="681.753" y="337" style="font:300 14px 'Lucida Console',monospace" fill="#999">＜＜vtd.Place＞＞</text><text x="681.753" y="361" style="font:300 14px 'Lucida Console',monospace" fill="#666">unlocode:</text><text x="761.611" y="361" style="font:300 14px 'Lucida Console',monospace" fill="#02b57b">URI</text><text x="681.753" y="375" style="font:300 14px 'Lucida Console',monospace" fill="#000000">address:</text><text x="753.183" y="375" style="font:300 14px 'Lucida Console',monospace" fill="#547000">vtd.Address</text><path fill="#FFFFFF" stroke="#2ECB70" stroke-width="3" d="M907.605 300.338h184v66h-184z"/><path fill="#2ecb70" stroke="#2ecb70" d="M908.605 341.338h184"/><path fill="none" stroke="#2ECB70" stroke-width="3" d="M907.605 300.338h184v66h-184z"/><text x="917.605" y="318.338" style="font:700 16px 'Lucida Console',monospace" fill="#000000">PaymentTerms</text><text x="917.605" y="334.338" style="font:300 14px 'Lucida Console',monospace" fill="#999">＜＜vtd.Terms＞＞</text><text x="917.605" y="358.338" style="font:300 14px 'Lucida Console',monospace" fill="#666">terms:</text><text x="972.177" y="358.338" style="font:300 14px 'Lucida Console',monospace" fill="#02b57b">Text</text><path fill="#FFFFFF" stroke="#2ECB70" stroke-width="3" d="M915.293 166.37h184v66h-184z"/><path fill="#2ecb70" stroke="#2ecb70" d="M916.293 207.37h184"/><path fill="none" stroke="#2ECB70" stroke-width="3" d="M915.293 166.37h184v66h-184z"/><text x="925.293" y="184.37" style="font:700 16px 'Lucida Console',monospace" fill="#000000">PaymentMethod</text><text x="925.293" y="200.37" style="font:300 14px 'Lucida Console',monospace" fill="#999">＜＜vtd.Terms＞＞</text><text x="925.293" y="224.37" style="font:300 14px 'Lucida Console',monospace" fill="#666">terms:</text><text x="979.865" y="224.37" style="font:300 14px 'Lucida Console',monospace" fill="#02b57b">Text</text><path fill="#FFFFFF" stroke="#2ECB70" stroke-width="3" d="M621.753 953h275.432v80H621.753z"/><path fill="#2ecb70" stroke="#2ecb70" d="M622.753 994h275.431"/><path fill="none" stroke="#2ECB70" stroke-width="3" d="M621.753 953h275.432v80H621.753z"/><text x="631.753" y="971" style="font:700 16px 'Lucida Console',monospace" fill="#000000">UnitPrice</text><text x="631.753" y="987" style="font:300 14px 'Lucida Console',monospace" fill="#999">＜＜vtd.PriceSpecification＞＞</text><text x="631.753" y="1011" style="font:300 14px 'Lucida Console',monospace" fill="#666">amount:</text><text x="694.754" y="1011" style="font:300 14px 'Lucida Console',monospace" fill="#02b57b">Decimal</text><text x="631.753" y="1025" style="font:300 14px 'Lucida Console',monospace" fill="#666">currency:</text><text x="711.611" y="1025" style="font:300 14px 'Lucida Console',monospace" fill="#02b57b">Text</text><path fill="#FFFFFF" stroke="#2ECB70" stroke-width="3" d="M635.275 690.33h275.432v80H635.275z"/><path fill="#2ecb70" stroke="#2ecb70" d="M636.275 731.33h275.431"/><path fill="none" stroke="#2ECB70" stroke-width="3" d="M635.275 690.33h275.432v80H635.275z"/><text x="645.275" y="708.33" style="font:700 16px 'Lucida Console',monospace" fill="#000000">Allowance</text><text x="645.275" y="724.33" style="font:300 14px 'Lucida Console',monospace" fill="#999">＜＜vtd.PriceSpecification＞＞</text><text x="645.275" y="748.33" style="font:300 14px 'Lucida Console',monospace" fill="#666">amount:</text><text x="708.276" y="748.33" style="font:300 14px 'Lucida Console',monospace" fill="#02b57b">Decimal</text><text x="645.275" y="762.33" style="font:300 14px 'Lucida Console',monospace" fill="#666">currency:</text><text x="725.133" y="762.33" style="font:300 14px 'Lucida Console',monospace" fill="#02b57b">Text</text><path fill="#FFFFFF" stroke="#2ECB70" stroke-width="3" d="M571.753 803h275.432v80H571.753z"/><path fill="#2ecb70" stroke="#2ecb70" d="M572.753 844h275.431"/><path fill="none" stroke="#2ECB70" stroke-width="3" d="M571.753 803h275.432v80H571.753z"/><text x="581.753" y="821" style="font:700 16px 'Lucida Console',monospace" fill="#000000">OrderAmount</text><text x="581.753" y="837" style="font:300 14px 'Lucida Console',monospace" fill="#999">＜＜vtd.PriceSpecification＞＞</text><text x="581.753" y="861" style="font:300 14px 'Lucida Console',monospace" fill="#666">amount:</text><text x="644.754" y="861" style="font:300 14px 'Lucida Console',monospace" fill="#02b57b">Decimal</text><text x="581.753" y="875" style="font:300 14px 'Lucida Console',monospace" fill="#666">currency:</text><text x="661.611" y="875" style="font:300 14px 'Lucida Console',monospace" fill="#02b57b">Text</text><path fill="#FFFFFF" stroke="#2ECB70" stroke-width="3" d="M821.753 853h275.432v80H821.753z"/><path fill="#2ecb70" stroke="#2ecb70" d="M822.753 894h275.431"/><path fill="none" stroke="#2ECB70" stroke-width="3" d="M821.753 853h275.432v80H821.753z"/><text x="831.753" y="871" style="font:700 16px 'Lucida Console',monospace" fill="#000000">TaxAmount</text><text x="831.753" y="887" style="font:300 14px 'Lucida Console',monospace" fill="#999">＜＜vtd.PriceSpecification＞＞</text><text x="831.753" y="911" style="font:300 14px 'Lucida Console',monospace" fill="#666">amount:</text><text x="894.754" y="911" style="font:300 14px 'Lucida Console',monospace" fill="#02b57b">Decimal</text><text x="831.753" y="925" style="font:300 14px 'Lucida Console',monospace" fill="#666">currency:</text><text x="911.611" y="925" style="font:300 14px 'Lucida Console',monospace" fill="#02b57b">Text</text><path fill="#FFFFFF" stroke="#2ECB70" stroke-width="3" d="M509.9 1071.567h191.145v80H509.9z"/><path fill="#2ecb70" stroke="#2ecb70" d="M510.9 1112.567h191.144"/><path fill="none" stroke="#2ECB70" stroke-width="3" d="M509.9 1071.567h191.145v80H509.9z"/><text x="519.9" y="1089.567" style="font:700 16px 'Lucida Console',monospace" fill="#000000">QuantityOrdered</text><text x="519.9" y="1105.567" style="font:300 14px 'Lucida Console',monospace" fill="#999">＜＜vtd.Quantity＞＞</text><text x="519.9" y="1129.567" style="font:300 14px 'Lucida Console',monospace" fill="#666">amount:</text><text x="582.901" y="1129.567" style="font:300 14px 'Lucida Console',monospace" fill="#02b57b">Decimal</text><text x="519.9" y="1143.567" style="font:300 14px 'Lucida Console',monospace" fill="#666">unit:</text><text x="566.043" y="1143.567" style="font:300 14px 'Lucida Console',monospace" fill="#02b57b">Text</text></svg>