<svg xmlns="http://www.w3.org/2000/svg" viewBox="-304.546 -128.361 1720.207 934.066"><rect width="1000%" height="1000%" x="-500%" y="-500%" fill="#EEEEEE"/><path fill="none" stroke="#EEEEEE" stroke-width="8" d="M-138.391-54.35l-.01-.01V285.53h40.198"/><defs><linearGradient id="a" x1="0%" x2="50%" y1="0%" y2="50%"><stop offset="0%" stop-color="#2ECB70"/><stop offset="100%" stop-color="#FF3986"/></linearGradient></defs><path fill="none" stroke="url(#a)" stroke-width="3" d="M-138.391-54.35l-.01-.01V285.53h40.198"/><path fill="none" stroke="#EEEEEE" stroke-width="8" d="M-85.022 299.387l-.01-.01H752V518"/><defs><linearGradient id="b" x1="0%" x2="50%" y1="0%" y2="50%"><stop offset="0%" stop-color="#FF3986"/><stop offset="100%" stop-color="#3397DA"/></linearGradient></defs><path fill="none" stroke="url(#b)" stroke-width="3" d="M-85.022 299.387l-.01-.01H752V518"/><path fill="none" stroke="#EEEEEE" stroke-width="8" d="M-32.34 244.003l-.01-.01h999.594V487.98"/><defs><linearGradient id="c" x1="0%" x2="50%" y1="0%" y2="50%"><stop offset="0%" stop-color="#FF3986"/><stop offset="100%" stop-color="#3397DA"/></linearGradient></defs><path fill="none" stroke="url(#c)" stroke-width="3" d="M-32.34 244.003l-.01-.01h999.594V487.98"/><path fill="none" stroke="#EEEEEE" stroke-width="8" d="M20.342 188.618l-.01-.01H1211.18v294.98"/><defs><linearGradient id="d" x1="0%" x2="50%" y1="0%" y2="50%"><stop offset="0%" stop-color="#FF3986"/><stop offset="100%" stop-color="#3397DA"/></linearGradient></defs><path fill="none" stroke="url(#d)" stroke-width="3" d="M20.342 188.618l-.01-.01H1211.18v294.98"/><path fill="none" stroke="#EEEEEE" stroke-width="8" d="M-137.704 244.003l-.01-.01h660.22V529.87"/><defs><linearGradient id="e" x1="0%" x2="50%" y1="0%" y2="50%"><stop offset="0%" stop-color="#FF3986"/><stop offset="100%" stop-color="#3397DA"/></linearGradient></defs><path fill="none" stroke="url(#e)" stroke-width="3" d="M-137.704 244.003l-.01-.01h660.22V529.87"/><path fill="none" stroke="#EEEEEE" stroke-width="8" d="M-111.363 271.695l-.01-.01h683.792v89.804"/><defs><linearGradient id="f" x1="0%" x2="50%" y1="0%" y2="50%"><stop offset="0%" stop-color="#FF3986"/><stop offset="100%" stop-color="#3397DA"/></linearGradient></defs><path fill="none" stroke="url(#f)" stroke-width="3" d="M-111.363 271.695l-.01-.01h683.792v89.804"/><path fill="none" stroke="#EEEEEE" stroke-width="8" d="M46.683 160.926l-.01-.01h1224.925v164.036"/><defs><linearGradient id="g" x1="0%" x2="50%" y1="0%" y2="50%"><stop offset="0%" stop-color="#FF3986"/><stop offset="100%" stop-color="#3397DA"/></linearGradient></defs><path fill="none" stroke="url(#g)" stroke-width="3" d="M46.683 160.926l-.01-.01h1224.925v164.036"/><path fill="none" stroke="#EEEEEE" stroke-width="8" d="M-164.045 216.31l-.01-.01H318.54v165.89"/><defs><linearGradient id="h" x1="0%" x2="50%" y1="0%" y2="50%"><stop offset="0%" stop-color="#FF3986"/><stop offset="100%" stop-color="#3397DA"/></linearGradient></defs><path fill="none" stroke="url(#h)" stroke-width="3" d="M-164.045 216.31l-.01-.01H318.54v165.89"/><path fill="none" stroke="#EEEEEE" stroke-width="8" d="M-58.681 271.695l-.01-.01h878.565v55.975"/><defs><linearGradient id="i" x1="0%" x2="50%" y1="0%" y2="50%"><stop offset="0%" stop-color="#FF3986"/><stop offset="100%" stop-color="#3397DA"/></linearGradient></defs><path fill="none" stroke="url(#i)" stroke-width="3" d="M-58.681 271.695l-.01-.01h878.565v55.975"/><path fill="none" stroke="#EEEEEE" stroke-width="8" d="M-190.386 188.618l-.01-.01h478.657V540"/><defs><linearGradient id="j" x1="0%" x2="50%" y1="0%" y2="50%"><stop offset="0%" stop-color="#FF3986"/><stop offset="100%" stop-color="#3397DA"/></linearGradient></defs><path fill="none" stroke="url(#j)" stroke-width="3" d="M-190.386 188.618l-.01-.01h478.657V540"/><path fill="none" stroke="#EEEEEE" stroke-width="8" d="M-6 216.31l-.01-.01H1052V318"/><defs><linearGradient id="k" x1="0%" x2="50%" y1="0%" y2="50%"><stop offset="0%" stop-color="#FF3986"/><stop offset="100%" stop-color="#3397DA"/></linearGradient></defs><path fill="none" stroke="url(#k)" stroke-width="3" d="M-6 216.31l-.01-.01H1052V318"/><path fill="none" stroke="#EEEEEE" stroke-width="8" d="M-243.068 133.233l-.01-.01v585.482h77.217"/><defs><linearGradient id="l" x1="0%" x2="50%" y1="0%" y2="50%"><stop offset="0%" stop-color="#FF3986"/><stop offset="100%" stop-color="#2ECB70"/></linearGradient></defs><path fill="none" stroke="url(#l)" stroke-width="3" d="M-243.068 133.233l-.01-.01v585.482h77.217"/><path fill="none" stroke="#EEEEEE" stroke-width="8" d="M-216.727 160.926l-.01-.01v565.117H285.97"/><defs><linearGradient id="m" x1="0%" x2="50%" y1="0%" y2="50%"><stop offset="0%" stop-color="#FF3986"/><stop offset="100%" stop-color="#2ECB70"/></linearGradient></defs><path fill="none" stroke="url(#m)" stroke-width="3" d="M-216.727 160.926l-.01-.01v565.117H285.97"/><path fill="#FFFFFF" stroke="#2ECB70" stroke-width="3" d="M-284.546-108.361H7.743v108h-292.289z"/><path fill="#2ecb70" stroke="#2ecb70" d="M-283.546-67.36H8.744"/><path fill="none" stroke="#2ECB70" stroke-width="3" d="M-284.546-108.361H7.743v108h-292.289z"/><text x="-274.546" y="-90.361" style="font:700 16px 'Lucida Console',monospace" fill="#000000">BillOfLadingCredential</text><text x="-274.546" y="-74.361" style="font:300 14px 'Lucida Console',monospace" fill="#999">＜＜vtd.VerifiableCredential＞＞</text><text x="-274.546" y="-50.361" style="font:300 14px 'Lucida Console',monospace" fill="#666">issuer:</text><text x="-211.545" y="-50.361" style="font:300 14px 'Lucida Console',monospace" fill="#02b57b">Party</text><text x="-274.546" y="-36.361" style="font:300 14px 'Lucida Console',monospace" fill="#666">issuanceDate:</text><text x="-160.973" y="-36.361" style="font:300 14px 'Lucida Console',monospace" fill="#02b57b">DateTime</text><text x="-274.546" y="-22.361" style="font:300 14px 'Lucida Console',monospace" fill="#666">id:</text><text x="-245.26" y="-22.361" style="font:300 14px 'Lucida Console',monospace" fill="#02b57b">URI</text><text x="-274.546" y="-8.361" style="font:300 14px 'Lucida Console',monospace" fill="#000000">credentialSubject:</text><text x="-118.829" y="-8.361" style="font:300 14px 'Lucida Console',monospace" fill="#3397DA">BillOfLading</text><path fill="#FFFFFF" stroke="#FF3986" stroke-width="3" d="M-269.419 105.531H73.014v360h-342.433z"/><path fill="#ff3986" stroke="#ff3986" d="M-268.419 146.531H74.014"/><path fill="none" stroke="#FF3986" stroke-width="3" d="M-269.419 105.531H73.014v360h-342.433z"/><text x="-259.419" y="123.531" style="font:700 16px 'Lucida Console',monospace" fill="#000000">BillOfLading</text><text x="-259.419" y="139.531" style="font:300 14px 'Lucida Console',monospace" fill="#999">＜＜vtd.CredentialSubject＞＞</text><text x="-259.419" y="163.531" style="font:300 14px 'Lucida Console',monospace" fill="#000000">id:</text><text x="-230.133" y="163.531" style="font:300 14px 'Lucida Console',monospace" fill="#C9A30B">URI</text><text x="-259.419" y="177.531" style="font:300 14px 'Lucida Console',monospace" fill="#000000">billOfLadingNumber:</text><text x="-95.273" y="177.531" style="font:300 14px 'Lucida Console',monospace" fill="#02b57b">Text</text><text x="-259.419" y="191.531" style="font:300 14px 'Lucida Console',monospace" fill="#000000">bookingNumber[]:</text><text x="-120.559" y="191.531" style="font:300 14px 'Lucida Console',monospace" fill="#02b57b">Text</text><text x="-259.419" y="205.531" style="font:300 14px 'Lucida Console',monospace" fill="#000000">issueDate:</text><text x="-171.132" y="205.531" style="font:300 14px 'Lucida Console',monospace" fill="#02b57b">Date</text><text x="-259.419" y="219.531" style="font:300 14px 'Lucida Console',monospace" fill="#000000">actualArrivalDate:</text><text x="-103.702" y="219.531" style="font:300 14px 'Lucida Console',monospace" fill="#02b57b">Date</text><text x="-259.419" y="233.531" style="font:300 14px 'Lucida Console',monospace" fill="#000000">estimatedTimeOfDeparture:</text><text x="-44.701" y="233.531" style="font:300 14px 'Lucida Console',monospace" fill="#02b57b">Date</text><text x="-259.419" y="247.531" style="font:300 14px 'Lucida Console',monospace" fill="#000000">actualDepartureDate:</text><text x="-86.845" y="247.531" style="font:300 14px 'Lucida Console',monospace" fill="#02b57b">Date</text><text x="-259.419" y="261.531" style="font:300 14px 'Lucida Console',monospace" fill="#000000">consignmentLoadingDate:</text><text x="-61.558" y="261.531" style="font:300 14px 'Lucida Console',monospace" fill="#02b57b">Date</text><text x="-259.419" y="275.531" style="font:300 14px 'Lucida Console',monospace" fill="#000000">estimatedTimeOfArrival:</text><text x="-61.558" y="275.531" style="font:300 14px 'Lucida Console',monospace" fill="#02b57b">Date</text><text x="-259.419" y="289.531" style="font:300 14px 'Lucida Console',monospace" fill="#000000">buyer:</text><text x="-204.847" y="289.531" style="font:300 14px 'Lucida Console',monospace" fill="#3397DA">Buyer</text><text x="-259.419" y="303.531" style="font:300 14px 'Lucida Console',monospace" fill="#000000">Importer:</text><text x="-179.56" y="303.531" style="font:300 14px 'Lucida Console',monospace" fill="#3397DA">Importer</text><text x="-259.419" y="317.531" style="font:300 14px 'Lucida Console',monospace" fill="#000000">exporter:</text><text x="-179.56" y="317.531" style="font:300 14px 'Lucida Console',monospace" fill="#3397DA">Exporter</text><text x="-259.419" y="331.531" style="font:300 14px 'Lucida Console',monospace" fill="#000000">carrier:</text><text x="-187.989" y="331.531" style="font:300 14px 'Lucida Console',monospace" fill="#3397DA">Carrier</text><text x="-259.419" y="345.531" style="font:300 14px 'Lucida Console',monospace" fill="#000000">consignee:</text><text x="-171.132" y="345.531" style="font:300 14px 'Lucida Console',monospace" fill="#3397DA">Consignee</text><text x="-259.419" y="359.531" style="font:300 14px 'Lucida Console',monospace" fill="#000000">freightForwarder:</text><text x="-112.131" y="359.531" style="font:300 14px 'Lucida Console',monospace" fill="#3397DA">FreightForwarder</text><text x="-259.419" y="373.531" style="font:300 14px 'Lucida Console',monospace" fill="#000000">notifyParty[]:</text><text x="-137.417" y="373.531" style="font:300 14px 'Lucida Console',monospace" fill="#3397DA">NotifyParty</text><text x="-259.419" y="387.531" style="font:300 14px 'Lucida Console',monospace" fill="#000000">despatchParty:</text><text x="-137.417" y="387.531" style="font:300 14px 'Lucida Console',monospace" fill="#3397DA">DespatchParty</text><text x="-259.419" y="401.531" style="font:300 14px 'Lucida Console',monospace" fill="#000000">consignor:</text><text x="-171.132" y="401.531" style="font:300 14px 'Lucida Console',monospace" fill="#3397DA">Consignor</text><text x="-259.419" y="415.531" style="font:300 14px 'Lucida Console',monospace" fill="#000000">freightPayer:</text><text x="-145.846" y="415.531" style="font:300 14px 'Lucida Console',monospace" fill="#3397DA">FreightPayer</text><text x="-259.419" y="429.531" style="font:300 14px 'Lucida Console',monospace" fill="#000000">shippingDate:</text><text x="-145.846" y="429.531" style="font:300 14px 'Lucida Console',monospace" fill="#02b57b">Date</text><text x="-259.419" y="443.531" style="font:300 14px 'Lucida Console',monospace" fill="#000000">particulars:</text><text x="-154.274" y="443.531" style="font:300 14px 'Lucida Console',monospace" fill="#2ECB70">Particulars</text><text x="-259.419" y="457.531" style="font:300 14px 'Lucida Console',monospace" fill="#000000">equipment[]:</text><text x="-154.274" y="457.531" style="font:300 14px 'Lucida Console',monospace" fill="#2ECB70">Equipment</text><path fill="#FFFFFF" stroke="#3397DA" stroke-width="3" d="M650 450h204v136H650z"/><path fill="#3397da" stroke="#3397da" d="M651 491h204"/><path fill="none" stroke="#3397DA" stroke-width="3" d="M650 450h204v136H650z"/><text x="660" y="468" style="font:700 16px 'Lucida Console',monospace" fill="#000000">Buyer</text><text x="660" y="484" style="font:300 14px 'Lucida Console',monospace" fill="#999">＜＜vtd.Party＞＞</text><text x="660" y="508" style="font:300 14px 'Lucida Console',monospace" fill="#666">id:</text><text x="689.286" y="508" style="font:300 14px 'Lucida Console',monospace" fill="#C9A30B">URI</text><text x="660" y="522" style="font:300 14px 'Lucida Console',monospace" fill="#666">street:</text><text x="723.001" y="522" style="font:300 14px 'Lucida Console',monospace" fill="#02b57b">Text</text><text x="660" y="536" style="font:300 14px 'Lucida Console',monospace" fill="#666">city:</text><text x="706.144" y="536" style="font:300 14px 'Lucida Console',monospace" fill="#02b57b">Text</text><text x="660" y="550" style="font:300 14px 'Lucida Console',monospace" fill="#666">state:</text><text x="714.572" y="550" style="font:300 14px 'Lucida Console',monospace" fill="#02b57b">Text</text><text x="660" y="564" style="font:300 14px 'Lucida Console',monospace" fill="#666">zip:</text><text x="697.715" y="564" style="font:300 14px 'Lucida Console',monospace" fill="#02b57b">Numeric</text><text x="660" y="578" style="font:300 14px 'Lucida Console',monospace" fill="#666">country:</text><text x="731.43" y="578" style="font:300 14px 'Lucida Console',monospace" fill="#02b57b">Text</text><path fill="#FFFFFF" stroke="#3397DA" stroke-width="3" d="M865.244 419.981h204v136h-204z"/><path fill="#3397da" stroke="#3397da" d="M866.244 460.981h204"/><path fill="none" stroke="#3397DA" stroke-width="3" d="M865.244 419.981h204v136h-204z"/><text x="875.244" y="437.981" style="font:700 16px 'Lucida Console',monospace" fill="#000000">Importer</text><text x="875.244" y="453.981" style="font:300 14px 'Lucida Console',monospace" fill="#999">＜＜vtd.Party＞＞</text><text x="875.244" y="477.981" style="font:300 14px 'Lucida Console',monospace" fill="#666">id:</text><text x="904.53" y="477.981" style="font:300 14px 'Lucida Console',monospace" fill="#C9A30B">URI</text><text x="875.244" y="491.981" style="font:300 14px 'Lucida Console',monospace" fill="#666">street:</text><text x="938.245" y="491.981" style="font:300 14px 'Lucida Console',monospace" fill="#02b57b">Text</text><text x="875.244" y="505.981" style="font:300 14px 'Lucida Console',monospace" fill="#666">city:</text><text x="921.387" y="505.981" style="font:300 14px 'Lucida Console',monospace" fill="#02b57b">Text</text><text x="875.244" y="519.981" style="font:300 14px 'Lucida Console',monospace" fill="#666">state:</text><text x="929.816" y="519.981" style="font:300 14px 'Lucida Console',monospace" fill="#02b57b">Text</text><text x="875.244" y="533.981" style="font:300 14px 'Lucida Console',monospace" fill="#666">zip:</text><text x="912.958" y="533.981" style="font:300 14px 'Lucida Console',monospace" fill="#02b57b">Numeric</text><text x="875.244" y="547.981" style="font:300 14px 'Lucida Console',monospace" fill="#666">country:</text><text x="946.673" y="547.981" style="font:300 14px 'Lucida Console',monospace" fill="#02b57b">Text</text><path fill="#FFFFFF" stroke="#3397DA" stroke-width="3" d="M1109.181 415.589h204v136h-204z"/><path fill="#3397da" stroke="#3397da" d="M1110.18 456.589h204"/><path fill="none" stroke="#3397DA" stroke-width="3" d="M1109.181 415.589h204v136h-204z"/><text x="1119.181" y="433.589" style="font:700 16px 'Lucida Console',monospace" fill="#000000">Exporter</text><text x="1119.181" y="449.589" style="font:300 14px 'Lucida Console',monospace" fill="#999">＜＜vtd.Party＞＞</text><text x="1119.181" y="473.589" style="font:300 14px 'Lucida Console',monospace" fill="#666">id:</text><text x="1148.467" y="473.589" style="font:300 14px 'Lucida Console',monospace" fill="#C9A30B">URI</text><text x="1119.181" y="487.589" style="font:300 14px 'Lucida Console',monospace" fill="#666">street:</text><text x="1182.182" y="487.589" style="font:300 14px 'Lucida Console',monospace" fill="#02b57b">Text</text><text x="1119.181" y="501.589" style="font:300 14px 'Lucida Console',monospace" fill="#666">city:</text><text x="1165.324" y="501.589" style="font:300 14px 'Lucida Console',monospace" fill="#02b57b">Text</text><text x="1119.181" y="515.589" style="font:300 14px 'Lucida Console',monospace" fill="#666">state:</text><text x="1173.753" y="515.589" style="font:300 14px 'Lucida Console',monospace" fill="#02b57b">Text</text><text x="1119.181" y="529.589" style="font:300 14px 'Lucida Console',monospace" fill="#666">zip:</text><text x="1156.895" y="529.589" style="font:300 14px 'Lucida Console',monospace" fill="#02b57b">Numeric</text><text x="1119.181" y="543.589" style="font:300 14px 'Lucida Console',monospace" fill="#666">country:</text><text x="1190.61" y="543.589" style="font:300 14px 'Lucida Console',monospace" fill="#02b57b">Text</text><path fill="#FFFFFF" stroke="#3397DA" stroke-width="3" d="M420.507 461.87h204v136h-204z"/><path fill="#3397da" stroke="#3397da" d="M421.507 502.87h204"/><path fill="none" stroke="#3397DA" stroke-width="3" d="M420.507 461.87h204v136h-204z"/><text x="430.507" y="479.87" style="font:700 16px 'Lucida Console',monospace" fill="#000000">Carrier</text><text x="430.507" y="495.87" style="font:300 14px 'Lucida Console',monospace" fill="#999">＜＜vtd.Party＞＞</text><text x="430.507" y="519.87" style="font:300 14px 'Lucida Console',monospace" fill="#666">id:</text><text x="459.793" y="519.87" style="font:300 14px 'Lucida Console',monospace" fill="#C9A30B">URI</text><text x="430.507" y="533.87" style="font:300 14px 'Lucida Console',monospace" fill="#666">street:</text><text x="493.508" y="533.87" style="font:300 14px 'Lucida Console',monospace" fill="#02b57b">Text</text><text x="430.507" y="547.87" style="font:300 14px 'Lucida Console',monospace" fill="#666">city:</text><text x="476.65" y="547.87" style="font:300 14px 'Lucida Console',monospace" fill="#02b57b">Text</text><text x="430.507" y="561.87" style="font:300 14px 'Lucida Console',monospace" fill="#666">state:</text><text x="485.079" y="561.87" style="font:300 14px 'Lucida Console',monospace" fill="#02b57b">Text</text><text x="430.507" y="575.87" style="font:300 14px 'Lucida Console',monospace" fill="#666">zip:</text><text x="468.222" y="575.87" style="font:300 14px 'Lucida Console',monospace" fill="#02b57b">Numeric</text><text x="430.507" y="589.87" style="font:300 14px 'Lucida Console',monospace" fill="#666">country:</text><text x="501.936" y="589.87" style="font:300 14px 'Lucida Console',monospace" fill="#02b57b">Text</text><path fill="#FFFFFF" stroke="#3397DA" stroke-width="3" d="M470.419 293.489h204v136h-204z"/><path fill="#3397da" stroke="#3397da" d="M471.42 334.49h204"/><path fill="none" stroke="#3397DA" stroke-width="3" d="M470.419 293.489h204v136h-204z"/><text x="480.419" y="311.489" style="font:700 16px 'Lucida Console',monospace" fill="#000000">Consignee</text><text x="480.419" y="327.489" style="font:300 14px 'Lucida Console',monospace" fill="#999">＜＜vtd.Party＞＞</text><text x="480.419" y="351.489" style="font:300 14px 'Lucida Console',monospace" fill="#666">id:</text><text x="509.706" y="351.489" style="font:300 14px 'Lucida Console',monospace" fill="#C9A30B">URI</text><text x="480.419" y="365.489" style="font:300 14px 'Lucida Console',monospace" fill="#666">street:</text><text x="543.42" y="365.489" style="font:300 14px 'Lucida Console',monospace" fill="#02b57b">Text</text><text x="480.419" y="379.489" style="font:300 14px 'Lucida Console',monospace" fill="#666">city:</text><text x="526.563" y="379.489" style="font:300 14px 'Lucida Console',monospace" fill="#02b57b">Text</text><text x="480.419" y="393.489" style="font:300 14px 'Lucida Console',monospace" fill="#666">state:</text><text x="534.992" y="393.489" style="font:300 14px 'Lucida Console',monospace" fill="#02b57b">Text</text><text x="480.419" y="407.489" style="font:300 14px 'Lucida Console',monospace" fill="#666">zip:</text><text x="518.134" y="407.489" style="font:300 14px 'Lucida Console',monospace" fill="#02b57b">Numeric</text><text x="480.419" y="421.489" style="font:300 14px 'Lucida Console',monospace" fill="#666">country:</text><text x="551.849" y="421.489" style="font:300 14px 'Lucida Console',monospace" fill="#02b57b">Text</text><path fill="#FFFFFF" stroke="#3397DA" stroke-width="3" d="M1167.536 256.952h208.125v136h-208.125z"/><path fill="#3397da" stroke="#3397da" d="M1168.536 297.952h208.125"/><path fill="none" stroke="#3397DA" stroke-width="3" d="M1167.536 256.952h208.125v136h-208.125z"/><text x="1177.536" y="274.952" style="font:700 16px 'Lucida Console',monospace" fill="#000000">FreightForwarder</text><text x="1177.536" y="290.952" style="font:300 14px 'Lucida Console',monospace" fill="#999">＜＜vtd.Party＞＞</text><text x="1177.536" y="314.952" style="font:300 14px 'Lucida Console',monospace" fill="#666">id:</text><text x="1206.822" y="314.952" style="font:300 14px 'Lucida Console',monospace" fill="#C9A30B">URI</text><text x="1177.536" y="328.952" style="font:300 14px 'Lucida Console',monospace" fill="#666">street:</text><text x="1240.537" y="328.952" style="font:300 14px 'Lucida Console',monospace" fill="#02b57b">Text</text><text x="1177.536" y="342.952" style="font:300 14px 'Lucida Console',monospace" fill="#666">city:</text><text x="1223.679" y="342.952" style="font:300 14px 'Lucida Console',monospace" fill="#02b57b">Text</text><text x="1177.536" y="356.952" style="font:300 14px 'Lucida Console',monospace" fill="#666">state:</text><text x="1232.108" y="356.952" style="font:300 14px 'Lucida Console',monospace" fill="#02b57b">Text</text><text x="1177.536" y="370.952" style="font:300 14px 'Lucida Console',monospace" fill="#666">zip:</text><text x="1215.25" y="370.952" style="font:300 14px 'Lucida Console',monospace" fill="#02b57b">Numeric</text><text x="1177.536" y="384.952" style="font:300 14px 'Lucida Console',monospace" fill="#666">country:</text><text x="1248.965" y="384.952" style="font:300 14px 'Lucida Console',monospace" fill="#02b57b">Text</text><path fill="#FFFFFF" stroke="#3397DA" stroke-width="3" d="M216.539 314.189h204v136h-204z"/><path fill="#3397da" stroke="#3397da" d="M217.54 355.19h204"/><path fill="none" stroke="#3397DA" stroke-width="3" d="M216.539 314.189h204v136h-204z"/><text x="226.539" y="332.189" style="font:700 16px 'Lucida Console',monospace" fill="#000000">NotifyParty</text><text x="226.539" y="348.189" style="font:300 14px 'Lucida Console',monospace" fill="#999">＜＜vtd.Party＞＞</text><text x="226.539" y="372.189" style="font:300 14px 'Lucida Console',monospace" fill="#666">id:</text><text x="255.826" y="372.189" style="font:300 14px 'Lucida Console',monospace" fill="#C9A30B">URI</text><text x="226.539" y="386.189" style="font:300 14px 'Lucida Console',monospace" fill="#666">street:</text><text x="289.54" y="386.189" style="font:300 14px 'Lucida Console',monospace" fill="#02b57b">Text</text><text x="226.539" y="400.189" style="font:300 14px 'Lucida Console',monospace" fill="#666">city:</text><text x="272.683" y="400.189" style="font:300 14px 'Lucida Console',monospace" fill="#02b57b">Text</text><text x="226.539" y="414.189" style="font:300 14px 'Lucida Console',monospace" fill="#666">state:</text><text x="281.112" y="414.189" style="font:300 14px 'Lucida Console',monospace" fill="#02b57b">Text</text><text x="226.539" y="428.189" style="font:300 14px 'Lucida Console',monospace" fill="#666">zip:</text><text x="264.254" y="428.189" style="font:300 14px 'Lucida Console',monospace" fill="#02b57b">Numeric</text><text x="226.539" y="442.189" style="font:300 14px 'Lucida Console',monospace" fill="#666">country:</text><text x="297.969" y="442.189" style="font:300 14px 'Lucida Console',monospace" fill="#02b57b">Text</text><path fill="#FFFFFF" stroke="#3397DA" stroke-width="3" d="M717.874 259.66h204v136h-204z"/><path fill="#3397da" stroke="#3397da" d="M718.874 300.66h204"/><path fill="none" stroke="#3397DA" stroke-width="3" d="M717.874 259.66h204v136h-204z"/><text x="727.874" y="277.66" style="font:700 16px 'Lucida Console',monospace" fill="#000000">DespatchParty</text><text x="727.874" y="293.66" style="font:300 14px 'Lucida Console',monospace" fill="#999">＜＜vtd.Party＞＞</text><text x="727.874" y="317.66" style="font:300 14px 'Lucida Console',monospace" fill="#666">id:</text><text x="757.161" y="317.66" style="font:300 14px 'Lucida Console',monospace" fill="#C9A30B">URI</text><text x="727.874" y="331.66" style="font:300 14px 'Lucida Console',monospace" fill="#666">street:</text><text x="790.875" y="331.66" style="font:300 14px 'Lucida Console',monospace" fill="#02b57b">Text</text><text x="727.874" y="345.66" style="font:300 14px 'Lucida Console',monospace" fill="#666">city:</text><text x="774.018" y="345.66" style="font:300 14px 'Lucida Console',monospace" fill="#02b57b">Text</text><text x="727.874" y="359.66" style="font:300 14px 'Lucida Console',monospace" fill="#666">state:</text><text x="782.447" y="359.66" style="font:300 14px 'Lucida Console',monospace" fill="#02b57b">Text</text><text x="727.874" y="373.66" style="font:300 14px 'Lucida Console',monospace" fill="#666">zip:</text><text x="765.589" y="373.66" style="font:300 14px 'Lucida Console',monospace" fill="#02b57b">Numeric</text><text x="727.874" y="387.66" style="font:300 14px 'Lucida Console',monospace" fill="#666">country:</text><text x="799.304" y="387.66" style="font:300 14px 'Lucida Console',monospace" fill="#02b57b">Text</text><path fill="#FFFFFF" stroke="#3397DA" stroke-width="3" d="M186.261 472h204v136h-204z"/><path fill="#3397da" stroke="#3397da" d="M187.261 513h204"/><path fill="none" stroke="#3397DA" stroke-width="3" d="M186.261 472h204v136h-204z"/><text x="196.261" y="490" style="font:700 16px 'Lucida Console',monospace" fill="#000000">Consignor</text><text x="196.261" y="506" style="font:300 14px 'Lucida Console',monospace" fill="#999">＜＜vtd.Party＞＞</text><text x="196.261" y="530" style="font:300 14px 'Lucida Console',monospace" fill="#666">id:</text><text x="225.547" y="530" style="font:300 14px 'Lucida Console',monospace" fill="#C9A30B">URI</text><text x="196.261" y="544" style="font:300 14px 'Lucida Console',monospace" fill="#666">street:</text><text x="259.262" y="544" style="font:300 14px 'Lucida Console',monospace" fill="#02b57b">Text</text><text x="196.261" y="558" style="font:300 14px 'Lucida Console',monospace" fill="#666">city:</text><text x="242.405" y="558" style="font:300 14px 'Lucida Console',monospace" fill="#02b57b">Text</text><text x="196.261" y="572" style="font:300 14px 'Lucida Console',monospace" fill="#666">state:</text><text x="250.833" y="572" style="font:300 14px 'Lucida Console',monospace" fill="#02b57b">Text</text><text x="196.261" y="586" style="font:300 14px 'Lucida Console',monospace" fill="#666">zip:</text><text x="233.976" y="586" style="font:300 14px 'Lucida Console',monospace" fill="#02b57b">Numeric</text><text x="196.261" y="600" style="font:300 14px 'Lucida Console',monospace" fill="#666">country:</text><text x="267.691" y="600" style="font:300 14px 'Lucida Console',monospace" fill="#02b57b">Text</text><path fill="#FFFFFF" stroke="#3397DA" stroke-width="3" d="M950 250h204v136H950z"/><path fill="#3397da" stroke="#3397da" d="M951 291h204"/><path fill="none" stroke="#3397DA" stroke-width="3" d="M950 250h204v136H950z"/><text x="960" y="268" style="font:700 16px 'Lucida Console',monospace" fill="#000000">FreightPayer</text><text x="960" y="284" style="font:300 14px 'Lucida Console',monospace" fill="#999">＜＜vtd.Party＞＞</text><text x="960" y="308" style="font:300 14px 'Lucida Console',monospace" fill="#666">id:</text><text x="989.286" y="308" style="font:300 14px 'Lucida Console',monospace" fill="#C9A30B">URI</text><text x="960" y="322" style="font:300 14px 'Lucida Console',monospace" fill="#666">street:</text><text x="1023.001" y="322" style="font:300 14px 'Lucida Console',monospace" fill="#02b57b">Text</text><text x="960" y="336" style="font:300 14px 'Lucida Console',monospace" fill="#666">city:</text><text x="1006.144" y="336" style="font:300 14px 'Lucida Console',monospace" fill="#02b57b">Text</text><text x="960" y="350" style="font:300 14px 'Lucida Console',monospace" fill="#666">state:</text><text x="1014.572" y="350" style="font:300 14px 'Lucida Console',monospace" fill="#02b57b">Text</text><text x="960" y="364" style="font:300 14px 'Lucida Console',monospace" fill="#666">zip:</text><text x="997.715" y="364" style="font:300 14px 'Lucida Console',monospace" fill="#02b57b">Numeric</text><text x="960" y="378" style="font:300 14px 'Lucida Console',monospace" fill="#666">country:</text><text x="1031.43" y="378" style="font:300 14px 'Lucida Console',monospace" fill="#02b57b">Text</text><path fill="#FFFFFF" stroke="#2ECB70" stroke-width="3" d="M-290.934 671.705h250.146v94h-250.146z"/><path fill="#2ecb70" stroke="#2ecb70" d="M-289.934 712.705h250.146"/><path fill="none" stroke="#2ECB70" stroke-width="3" d="M-290.934 671.705h250.146v94h-250.146z"/><text x="-280.934" y="689.705" style="font:700 16px 'Lucida Console',monospace" fill="#000000">Particulars</text><text x="-280.934" y="705.705" style="font:300 14px 'Lucida Console',monospace" fill="#999">＜＜vtd.ConsignmentItem＞＞</text><text x="-280.934" y="729.705" style="font:300 14px 'Lucida Console',monospace" fill="#666">descriptionOfGoods:</text><text x="-116.788" y="729.705" style="font:300 14px 'Lucida Console',monospace" fill="#02b57b">Text</text><text x="-280.934" y="743.705" style="font:300 14px 'Lucida Console',monospace" fill="#666">numberOfPackages:</text><text x="-133.646" y="743.705" style="font:300 14px 'Lucida Console',monospace" fill="#02b57b">Integer</text><text x="-280.934" y="757.705" style="font:300 14px 'Lucida Console',monospace" fill="#666">commodityCode:</text><text x="-158.932" y="757.705" style="font:300 14px 'Lucida Console',monospace" fill="#02b57b">Text</text><path fill="#FFFFFF" stroke="#2ECB70" stroke-width="3" d="M148.254 686.033h275.432v80H148.254z"/><path fill="#2ecb70" stroke="#2ecb70" d="M149.254 727.033h275.432"/><path fill="none" stroke="#2ECB70" stroke-width="3" d="M148.254 686.033h275.432v80H148.254z"/><text x="158.254" y="704.033" style="font:700 16px 'Lucida Console',monospace" fill="#000000">Equipment</text><text x="158.254" y="720.033" style="font:300 14px 'Lucida Console',monospace" fill="#999">＜＜vtd.TransportEquipment＞＞</text><text x="158.254" y="744.033" style="font:300 14px 'Lucida Console',monospace" fill="#666">id:</text><text x="187.54" y="744.033" style="font:300 14px 'Lucida Console',monospace" fill="#02b57b">URI</text><text x="158.254" y="758.033" style="font:300 14px 'Lucida Console',monospace" fill="#666">type:</text><text x="204.398" y="758.033" style="font:300 14px 'Lucida Console',monospace" fill="#02b57b">Text</text></svg>