<svg xmlns="http://www.w3.org/2000/svg" viewBox="-114 -74 2042.932 613"><rect width="1000%" height="1000%" x="-500%" y="-500%" fill="#EEEEEE"/><path fill="none" stroke="#EEEEEE" stroke-width="8" d="M1160.826.01l-.01-.01v233h-123.072"/><defs><linearGradient id="a" x1="0%" x2="50%" y1="0%" y2="50%"><stop offset="0%" stop-color="#2ECB70"/><stop offset="100%" stop-color="#2ECB70"/></linearGradient></defs><path fill="none" stroke="url(#a)" stroke-width="3" d="M1160.826.01l-.01-.01v233h-123.072"/><path fill="none" stroke="#EEEEEE" stroke-width="8" d="M870.66 164.439l-.01-.01H0V459"/><defs><linearGradient id="b" x1="0%" x2="50%" y1="0%" y2="50%"><stop offset="0%" stop-color="#2ECB70"/><stop offset="100%" stop-color="#3397DA"/></linearGradient></defs><path fill="none" stroke="url(#b)" stroke-width="3" d="M870.66 164.439l-.01-.01H0V459"/><path fill="none" stroke="#EEEEEE" stroke-width="8" d="M937.497 191.867l-.01-.01h-591.52V459"/><defs><linearGradient id="c" x1="0%" x2="50%" y1="0%" y2="50%"><stop offset="0%" stop-color="#2ECB70"/><stop offset="100%" stop-color="#3397DA"/></linearGradient></defs><path fill="none" stroke="url(#c)" stroke-width="3" d="M937.497 191.867l-.01-.01h-591.52V459"/><path fill="none" stroke="#EEEEEE" stroke-width="8" d="M1004.335 219.296l-.01-.01H683.966V459"/><defs><linearGradient id="d" x1="0%" x2="50%" y1="0%" y2="50%"><stop offset="0%" stop-color="#2ECB70"/><stop offset="100%" stop-color="#3397DA"/></linearGradient></defs><path fill="none" stroke="url(#d)" stroke-width="3" d="M1004.335 219.296l-.01-.01H683.966V459"/><path fill="none" stroke="#EEEEEE" stroke-width="8" d="M1071.173 246.724l-.01-.01V459h-49.197"/><defs><linearGradient id="e" x1="0%" x2="50%" y1="0%" y2="50%"><stop offset="0%" stop-color="#2ECB70"/><stop offset="100%" stop-color="#3397DA"/></linearGradient></defs><path fill="none" stroke="url(#e)" stroke-width="3" d="M1071.173 246.724l-.01-.01V459h-49.197"/><path fill="none" stroke="#EEEEEE" stroke-width="8" d="M1138.01 219.296l-.01-.01V459h225.039"/><defs><linearGradient id="f" x1="0%" x2="50%" y1="0%" y2="50%"><stop offset="0%" stop-color="#2ECB70"/><stop offset="100%" stop-color="#2ECB70"/></linearGradient></defs><path fill="none" stroke="url(#f)" stroke-width="3" d="M1138.01 219.296l-.01-.01V459h225.039"/><path fill="none" stroke="#EEEEEE" stroke-width="8" d="M1204.848 191.867l-.01-.01h544.684V459"/><defs><linearGradient id="g" x1="0%" x2="50%" y1="0%" y2="50%"><stop offset="0%" stop-color="#2ECB70"/><stop offset="100%" stop-color="#2ECB70"/></linearGradient></defs><path fill="none" stroke="url(#g)" stroke-width="3" d="M1204.848 191.867l-.01-.01h544.684V459"/><path fill="#FFFFFF" stroke="#2ECB70" stroke-width="3" d="M1014.672-54h292.289V54h-292.289z"/><path fill="#2ecb70" stroke="#2ecb70" d="M1015.672-13h292.289"/><path fill="none" stroke="#2ECB70" stroke-width="3" d="M1014.672-54h292.289V54h-292.289z"/><text x="1024.672" y="-36" style="font:700 16px 'Lucida Console',monospace" fill="#000000">PackingListCredential</text><text x="1024.672" y="-20" style="font:300 14px 'Lucida Console',monospace" fill="#999">＜＜vtd.VerifiableCredential＞＞</text><text x="1024.672" y="4" style="font:300 14px 'Lucida Console',monospace" fill="#666">issuer:</text><text x="1087.673" y="4" style="font:300 14px 'Lucida Console',monospace" fill="#02b57b">Party</text><text x="1024.672" y="18" style="font:300 14px 'Lucida Console',monospace" fill="#666">issuanceDate:</text><text x="1138.245" y="18" style="font:300 14px 'Lucida Console',monospace" fill="#02b57b">DateTime</text><text x="1024.672" y="32" style="font:300 14px 'Lucida Console',monospace" fill="#000000">credentialSubject:</text><text x="1180.388" y="32" style="font:300 14px 'Lucida Console',monospace" fill="#2ECB70">PackingList</text><text x="1024.672" y="46" style="font:300 14px 'Lucida Console',monospace" fill="#000000">id:</text><text x="1053.958" y="46" style="font:300 14px 'Lucida Console',monospace" fill="#02b57b">URI</text><path fill="#FFFFFF" stroke="#2ECB70" stroke-width="3" d="M803.812 137h467.864v192H803.812z"/><path fill="#2ecb70" stroke="#2ecb70" d="M804.812 178h467.864"/><path fill="none" stroke="#2ECB70" stroke-width="3" d="M803.812 137h467.864v192H803.812z"/><text x="813.812" y="155" style="font:700 16px 'Lucida Console',monospace" fill="#000000">PackingList</text><text x="813.812" y="171" style="font:300 14px 'Lucida Console',monospace" fill="#999">＜＜vtd.CredentialSubject＞＞</text><text x="813.812" y="195" style="font:300 14px 'Lucida Console',monospace" fill="#000000">contractNumber:</text><text x="944.242" y="195" style="font:300 14px 'Lucida Console',monospace" fill="#02b57b">Text</text><text x="813.812" y="209" style="font:300 14px 'Lucida Console',monospace" fill="#000000">invoiceNumber:</text><text x="935.814" y="209" style="font:300 14px 'Lucida Console',monospace" fill="#02b57b">Text</text><text x="813.812" y="223" style="font:300 14px 'Lucida Console',monospace" fill="#000000">issueDate:</text><text x="902.099" y="223" style="font:300 14px 'Lucida Console',monospace" fill="#02b57b">Date</text><text x="813.812" y="237" style="font:300 14px 'Lucida Console',monospace" fill="#000000">buyer:</text><text x="868.384" y="237" style="font:300 14px 'Lucida Console',monospace" fill="#3397DA">Buyer</text><text x="813.812" y="251" style="font:300 14px 'Lucida Console',monospace" fill="#000000">invoicee:</text><text x="893.67" y="251" style="font:300 14px 'Lucida Console',monospace" fill="#3397DA">Carrier</text><text x="813.812" y="265" style="font:300 14px 'Lucida Console',monospace" fill="#000000">shipToParty:</text><text x="918.956" y="265" style="font:300 14px 'Lucida Console',monospace" fill="#3397DA">Consignee</text><text x="813.812" y="279" style="font:300 14px 'Lucida Console',monospace" fill="#000000">seller:</text><text x="876.813" y="279" style="font:300 14px 'Lucida Console',monospace" fill="#3397DA">Seller</text><text x="813.812" y="293" style="font:300 14px 'Lucida Console',monospace" fill="#000000">placeOfDelivery:</text><text x="952.671" y="293" style="font:300 14px 'Lucida Console',monospace" fill="#2ECB70">PlaceOfDelivery</text><text x="813.812" y="307" style="font:300 14px 'Lucida Console',monospace" fill="#000000">baseportUnloadingLocation:</text><text x="1036.958" y="307" style="font:300 14px 'Lucida Console',monospace" fill="#2ECB70">BaseportUnloadingLocation</text><text x="813.812" y="321" style="font:300 14px 'Lucida Console',monospace" fill="#000000">transportContractDocumentConditions:</text><text x="1121.245" y="321" style="font:300 14px 'Lucida Console',monospace" fill="#02b57b">Text</text><path fill="#FFFFFF" stroke="#3397DA" stroke-width="3" d="M-94 419H94v80H-94z"/><path fill="#3397da" stroke="#3397da" d="M-93 460H95"/><path fill="none" stroke="#3397DA" stroke-width="3" d="M-94 419H94v80H-94z"/><text x="-84" y="437" style="font:700 16px 'Lucida Console',monospace" fill="#000000">Buyer</text><text x="-84" y="453" style="font:300 14px 'Lucida Console',monospace" fill="#999">＜＜vtd.Party＞＞</text><text x="-84" y="477" style="font:300 14px 'Lucida Console',monospace" fill="#666">id:</text><text x="-54.714" y="477" style="font:300 14px 'Lucida Console',monospace" fill="#C9A30B">URI</text><text x="-84" y="491" style="font:300 14px 'Lucida Console',monospace" fill="#666">address:</text><text x="-12.57" y="491" style="font:300 14px 'Lucida Console',monospace" fill="#02b57b">Address</text><path fill="#FFFFFF" stroke="#3397DA" stroke-width="3" d="M251.966 419h188v80h-188z"/><path fill="#3397da" stroke="#3397da" d="M252.966 460h188"/><path fill="none" stroke="#3397DA" stroke-width="3" d="M251.966 419h188v80h-188z"/><text x="261.966" y="437" style="font:700 16px 'Lucida Console',monospace" fill="#000000">Carrier</text><text x="261.966" y="453" style="font:300 14px 'Lucida Console',monospace" fill="#999">＜＜vtd.Party＞＞</text><text x="261.966" y="477" style="font:300 14px 'Lucida Console',monospace" fill="#666">id:</text><text x="291.252" y="477" style="font:300 14px 'Lucida Console',monospace" fill="#C9A30B">URI</text><text x="261.966" y="491" style="font:300 14px 'Lucida Console',monospace" fill="#666">address:</text><text x="333.396" y="491" style="font:300 14px 'Lucida Console',monospace" fill="#02b57b">Address</text><path fill="#FFFFFF" stroke="#3397DA" stroke-width="3" d="M589.966 419h188v80h-188z"/><path fill="#3397da" stroke="#3397da" d="M590.966 460h188"/><path fill="none" stroke="#3397DA" stroke-width="3" d="M589.966 419h188v80h-188z"/><text x="599.966" y="437" style="font:700 16px 'Lucida Console',monospace" fill="#000000">Consignee</text><text x="599.966" y="453" style="font:300 14px 'Lucida Console',monospace" fill="#999">＜＜vtd.Party＞＞</text><text x="599.966" y="477" style="font:300 14px 'Lucida Console',monospace" fill="#666">id:</text><text x="629.252" y="477" style="font:300 14px 'Lucida Console',monospace" fill="#C9A30B">URI</text><text x="599.966" y="491" style="font:300 14px 'Lucida Console',monospace" fill="#666">address:</text><text x="671.396" y="491" style="font:300 14px 'Lucida Console',monospace" fill="#02b57b">Address</text><path fill="#FFFFFF" stroke="#3397DA" stroke-width="3" d="M927.966 419h188v80h-188z"/><path fill="#3397da" stroke="#3397da" d="M928.966 460h188"/><path fill="none" stroke="#3397DA" stroke-width="3" d="M927.966 419h188v80h-188z"/><text x="937.966" y="437" style="font:700 16px 'Lucida Console',monospace" fill="#000000">Seller</text><text x="937.966" y="453" style="font:300 14px 'Lucida Console',monospace" fill="#999">＜＜vtd.Party＞＞</text><text x="937.966" y="477" style="font:300 14px 'Lucida Console',monospace" fill="#666">id:</text><text x="967.252" y="477" style="font:300 14px 'Lucida Console',monospace" fill="#C9A30B">URI</text><text x="937.966" y="491" style="font:300 14px 'Lucida Console',monospace" fill="#666">address:</text><text x="1009.396" y="491" style="font:300 14px 'Lucida Console',monospace" fill="#02b57b">Address</text><path fill="#FFFFFF" stroke="#2ECB70" stroke-width="3" d="M1265.966 419h194.146v80h-194.146z"/><path fill="#2ecb70" stroke="#2ecb70" d="M1266.966 460h194.146"/><path fill="none" stroke="#2ECB70" stroke-width="3" d="M1265.966 419h194.146v80h-194.146z"/><text x="1275.966" y="437" style="font:700 16px 'Lucida Console',monospace" fill="#000000">PlaceOfDelivery</text><text x="1275.966" y="453" style="font:300 14px 'Lucida Console',monospace" fill="#999">＜＜vtd.Location＞＞</text><text x="1275.966" y="477" style="font:300 14px 'Lucida Console',monospace" fill="#666">unlocode:</text><text x="1355.824" y="477" style="font:300 14px 'Lucida Console',monospace" fill="#02b57b">URI</text><text x="1275.966" y="491" style="font:300 14px 'Lucida Console',monospace" fill="#000000">address:</text><text x="1347.396" y="491" style="font:300 14px 'Lucida Console',monospace" fill="#547000">vtd.Address</text><path fill="#FFFFFF" stroke="#2ECB70" stroke-width="3" d="M1610.112 419h278.82v80h-278.82z"/><path fill="#2ecb70" stroke="#2ecb70" d="M1611.112 460h278.82"/><path fill="none" stroke="#2ECB70" stroke-width="3" d="M1610.112 419h278.82v80h-278.82z"/><text x="1620.112" y="437" style="font:700 16px 'Lucida Console',monospace" fill="#000000">BaseportUnloadingLocation</text><text x="1620.112" y="453" style="font:300 14px 'Lucida Console',monospace" fill="#999">＜＜vtd.Location＞＞</text><text x="1620.112" y="477" style="font:300 14px 'Lucida Console',monospace" fill="#666">unlocode:</text><text x="1699.97" y="477" style="font:300 14px 'Lucida Console',monospace" fill="#02b57b">URI</text><text x="1620.112" y="491" style="font:300 14px 'Lucida Console',monospace" fill="#000000">address:</text><text x="1691.541" y="491" style="font:300 14px 'Lucida Console',monospace" fill="#547000">vtd.Address</text></svg>